<?xml version="1.0" standalone="no"?>
<!DOCTYPE svg PUBLIC "-//W3C//DTD SVG 1.1//EN" "http://www.w3.org/Graphics/SVG/1.1/DTD/svg11.dtd" >
<svg xmlns="http://www.w3.org/2000/svg" xmlns:xlink="http://www.w3.org/1999/xlink" version="1.1">
<metadata>
Created by FontForge 20201107 at Thu Jan 28 07:40:40 2021
 By 
Copyright (c) 2017 Monotype Imaging Inc. All rights reserved.
</metadata>
<defs>
<font id="Hombre-BoldItalic" horiz-adv-x="1024" >
  <font-face 
    font-family="Hombre"
    font-weight="700"
    font-style="italic"
    font-stretch="normal"
    units-per-em="2048"
    panose-1="2 2 8 4 7 6 4 9 9 5"
    ascent="1468"
    descent="-580"
    x-height="884"
    cap-height="1422"
    bbox="-835 -495 2332 2001"
    underline-thickness="100"
    underline-position="-200"
    slope="-10"
    unicode-range="U+000D-FEFF"
  />
<missing-glyph horiz-adv-x="1229" 
d="M962 -362h-1024l318 1806h1024zM351 1329l-278 -1577h795l278 1577h-795z" />
    <glyph glyph-name="fi" unicode="fi" horiz-adv-x="918" 
d="M-25 -151q33 78 51.5 162t18.5 168q0 14 -0.5 29t-0.5 28v17t2 10q3 19 3 39q0 55 3.5 126t11 149t20.5 159t32 155t45.5 137t60.5 106q6 22 18 40t28 32t35 26t38 22h-1q21 21 46.5 34.5t53 22t56.5 12t57 3.5q11 1 22.5 1.5t23.5 0.5q51 0 102 -7.5t96 -24.5
q30 -11 47.5 -24t26.5 -26.5t12 -26.5t3 -24q0 -9 -1 -13q-4 -21 -9 -39.5t-25 -43.5l-37 -23h3q-25 -19 -69 -19q-33 0 -55.5 9.5t-37 23.5t-21 30t-6.5 30q0 3 3 10.5t6 16t6 16.5t3 13q0 12 -3.5 21.5t-13.5 16t-28.5 10.5t-48.5 4q-27 0 -51.5 -15.5t-46.5 -32.5l3 1
q-36 -29 -57.5 -85.5t-34.5 -121.5t-20 -129t-14 -108q18 4 37 8t39 4q7 1 25 3.5t40 6t43.5 7.5t35.5 7q18 16 35 28t33 22.5t31 21t29 23.5h-1q14 12 30.5 28.5t34.5 30.5t37 24t38 10t22.5 -15t3.5 -31q0 -12 -2.5 -27.5t-6.5 -31t-7.5 -30t-6.5 -25.5q-6 -23 -15 -71.5
t-20 -108t-21.5 -125.5t-19 -124.5t-13.5 -104t-4 -65.5q-5 -29 0.5 -40t15.5 -11q8 0 17 5t17.5 11t14 11.5l6.5 6.5q11 15 19.5 29t17 24t17 16t19.5 6q8 0 16.5 -3.5t8.5 -25.5q0 -20 -17.5 -49t-50.5 -58q-21 -19 -48.5 -36t-61 -30.5t-72.5 -21.5t-84 -8q-26 0 -42 4
t-25 13t-12.5 23.5t-3.5 36.5q0 20 3 47.5t8 62.5q12 59 23 124t19.5 126.5t13.5 114.5t7 88q-2 4 -2 8t-6.5 6.5t-22 3.5t-48.5 0q-35 -5 -69.5 -7t-69.5 -9q-9 -54 -14 -109t-8.5 -110l-7 -110t-10.5 -110h1q2 0 2 -3q0 -106 -34.5 -208.5t-92.5 -196.5q-35 -57 -84 -98.5
t-101 -79.5q-7 -5 -13.5 -10.5t-14.5 -7.5q-23 -5 -52 -8.5t-57 -3.5q-39 0 -67.5 13t-47.5 34t-28 48.5t-9 57.5q0 25 7 48.5t20.5 42t33.5 29.5t46 11q14 0 28 -7t25 -18.5t18 -25.5t7 -29q0 -29 -19 -46.5t-40 -31.5q-1 0 -2 -2.5t-1 -3.5q4 -17 21.5 -31.5t37.5 -14.5
q18 0 33 14.5t26.5 35t20.5 43zM673 1190l-2 -9l9 -3l11 17zM729 1188q-8 -4 -19 -16.5t-23 -13.5l-1 -7q0 -1 0.5 -3t5.5 -7h16q3 7 12 12l4 3q0 3 2 9t3 11v12zM336 1159l-14 -20l-4 -24l13 3l5 18v23zM720 1107l-18 2l-4 -7h21zM784 882q-8 -12 -17 -23t-12 -26l6 -26
l14 19zM653 819h10q2 0 6.5 1t2.5 4l20 19h-10zM209 702q3 10 4 22t1 26v49l-6 -2q-3 -15 -8 -32.5t-5 -31.5q0 -16 10 -33zM148 780h-4l-9 -53h8zM589 669q4 5 5.5 12.5t2.5 14.5l-13 -6zM709 415q11 69 19.5 139.5t13.5 140.5q-11 -23 -19 -59t-13.5 -76t-9 -78.5
t-5.5 -64.5l-3 -4l5 -8zM580 619l4 -35q8 10 11 20l-3 40zM285 622q-8 -16 -16.5 -38t-15.5 -45.5t-11.5 -46.5t-4.5 -41l1 -9l6 18l10 -5zM242 394q0 -11 0.5 -22.5t4.5 -22.5l2 56zM707 383h-6l-12 -13l7 -30l12 37zM654 261q1 4 4.5 11t6.5 15t5.5 15t2.5 11l-10 2h-12
q2 -13 3.5 -27t-0.5 -27zM135 295l-21 -3v-3l9 -5h10zM236 254q1 5 1 22q-1 3 -1 5q-8 -8 -10 -12t-2 -11q0 -8 2 -16.5t2 -12.5q4 8 5.5 14t2.5 11zM152 -55q-1 1 -1 5q0 19 7.5 43t16 50.5t16 55.5t7.5 58q0 22 -5 26q-3 -20 -11.5 -55t-17.5 -71.5t-16 -66t-8 -37.5l3 -8
h9zM-252 -130q1 -16 8 -16q1 0 5 5.5t8.5 12.5t9 12.5t7.5 5.5h1q-3 9 -10 9q-8 0 -16 -9.5t-13 -19.5z" />
    <glyph glyph-name="fl" unicode="fl" horiz-adv-x="965" 
d="M531 348q14 69 26.5 151t23 162t20 150.5t18.5 116.5l37 198q1 6 1.5 11.5t0.5 10.5q0 34 -12 55.5t-30.5 34t-40 17.5t-39.5 5q-21 -11 -42 -23t-40 -27l3 1q-36 -29 -57.5 -85.5t-34.5 -121.5t-20 -129t-14 -108q18 4 37 8t39 4q28 3 58 3q7 0 19.5 -0.5t24.5 -2.5
t21 -8t9 -16q0 -2 -2.5 -7.5t-5.5 -12t-5.5 -12.5t-3.5 -8l-25 -1h-20l-2 2q-35 -5 -69.5 -7t-69.5 -9q-9 -54 -14 -109t-8.5 -110l-7 -110t-10.5 -110h1q2 0 2 -3q0 -106 -34.5 -208.5t-92.5 -196.5q-35 -57 -84 -98.5t-101 -79.5q-7 -5 -13.5 -10.5t-14.5 -7.5
q-23 -5 -52 -8.5t-57 -3.5q-39 0 -67.5 13t-47.5 34t-28 48.5t-9 57.5q0 25 7 48.5t20.5 42t33.5 29.5t46 11q14 0 28 -7t25 -18.5t18 -25.5t7 -29q0 -29 -19 -46.5t-40 -31.5q-1 0 -2 -2.5t-1 -3.5q4 -17 21.5 -31.5t37.5 -14.5q18 0 33 14.5t26.5 35t20.5 43l15 37.5
q33 78 51.5 162t18.5 168q0 14 -0.5 29t-0.5 28v17t2 10q3 19 3 39q0 55 3.5 126t11 149t20.5 159t32 155t45.5 137t60.5 106q6 22 18 40t28 32t35 26t38 22h-1q22 22 50 35.5t59 21.5t62.5 11t60.5 3q40 0 72 -11.5t64 -31.5q7 4 13.5 8t14.5 9q12 8 35.5 32.5t49.5 50
t49.5 45.5t35.5 20q15 0 26 -10t11 -26q0 -18 -5 -60t-12.5 -97t-16.5 -117t-18 -119t-17 -102.5t-12 -68.5q-5 -23 -15 -45t-13 -46q-6 -51 -12 -101t-13.5 -101t-17 -103.5t-22.5 -108.5q-1 -9 -4 -21.5t-6 -27t-5 -29t-2 -26.5q0 -14 2 -23t9 -9q2 0 4 1q21 7 42.5 29
t42 46t41 43t40.5 19q5 0 13.5 -2.5t8.5 -10.5q0 -11 -10.5 -30.5t-27.5 -42.5l-9 -11q-18 -20 -50.5 -50t-69 -58t-72.5 -48.5t-63 -20.5q-22 0 -40.5 7t-38.5 12q-43 11 -58.5 34.5t-15.5 56.5q0 15 2.5 31.5t5.5 34.5q1 8 5 22t8 29t7 29t3 22zM756 1281l-15 -21l4 -18h8
l10 24zM336 1159l-14 -20l-4 -24l13 3l5 18v23zM731 1140l-17 4l-6 -37l12 -11zM707 1064l-6 -9l-13 -72l19 28v53zM742 808l-17 -49l17 14l5 35h-5zM209 702q3 10 4 22t1 26v49l-6 -2q-3 -15 -8 -32.5t-5 -31.5q0 -16 10 -33zM776 667q6 18 11 36t5 37q0 29 -3 58
q-9 -19 -13 -43.5t-4 -45.5q0 -23 4 -42zM148 780h-4l-9 -53h8zM719 689q-14 -47 -21.5 -93t-7.5 -95l34 129zM767 629l-8 -48l17 23zM285 622q-8 -16 -16.5 -38t-15.5 -45.5t-11.5 -46.5t-4.5 -41l1 -9l6 18l10 -5zM685 423v4q0 6 -2 16l-12 -16l-13 -94l10 -6l5 4z
M242 394q0 -11 0.5 -22.5t4.5 -22.5l2 56zM135 295l-21 -3v-3l9 -5h10zM236 254q1 5 1 22q-1 3 -1 5q-8 -8 -10 -12t-2 -11q0 -8 2 -16.5t2 -12.5q4 8 5.5 14t2.5 11zM608 227q-1 3 -1 7q-1 4 -1 11v2q-10 -5 -12 -16l-2 -55l10 -6l5 4zM152 -55q-1 1 -1 5q0 19 7.5 43
t16 50.5t16 55.5t7.5 58q0 22 -5 26q-3 -20 -11.5 -55t-17.5 -71.5t-16 -66t-8 -37.5l3 -8h9zM-252 -130q1 -16 8 -16q1 0 5 5.5t8.5 12.5t9 12.5t7.5 5.5h1q-3 9 -10 9q-8 0 -16 -9.5t-13 -19.5z" />
    <glyph glyph-name="uniFDFC" unicode="&#xfdfc;" horiz-adv-x="1395" arabic-form="isolated" 
d="M835 1240q-27 -73 -52.5 -145t-52.5 -142t-57 -138t-66 -134q-11 -19 -23.5 -40t-27.5 -41t-33 -37.5t-38 -28.5q-19 -11 -30 -20t-20.5 -17.5t-20.5 -16.5t-31 -17q-10 -5 -28 -9t-37.5 -8t-37 -6t-27.5 -2q-41 0 -69.5 2.5t-49.5 12.5t-36.5 31t-29.5 58q-4 10 -6.5 27
t-2.5 35t3 30q4 24 10.5 43t14.5 37t17.5 36t20.5 40q4 9 13.5 24t20.5 31t23 28.5t23 17.5q21 0 30 -10t9 -20q0 -12 -6.5 -25.5t-14 -27t-13.5 -27.5t-6 -27q0 -16 17.5 -31t36.5 -23q10 -5 18 -8.5t16 -5.5t18 -3t26 -1q30 0 52.5 2t41 8t35.5 18.5t37 33.5q31 33 51 67
t34.5 70t26 74t26.5 77q47 128 92 231t68 184q5 17 14.5 27.5t21.5 16t24 7t23 1.5q20 0 25.5 -2.5t5.5 -10.5q0 -9 -3.5 -22.5t-8.5 -29t-10 -32t-8 -31.5q-8 -37 -21.5 -66t-27.5 -65zM780 729q0 16 5 33.5t12 35t14.5 34t12.5 31.5q14 45 28 92.5t27.5 91t25 80
t19.5 59.5q11 31 31 63.5t38 61.5q6 9 13.5 21t16.5 23t18.5 18.5t19.5 7.5q1 0 7.5 -1.5t14 -5t13.5 -9t6 -14.5t-9 -28.5t-19.5 -40t-20 -37.5t-10.5 -20q-8 -20 -20.5 -45t-15.5 -45q-3 -16 -6.5 -26.5t-7 -20.5t-7 -21t-6.5 -27q-1 -5 -3 -13.5t-5 -18.5t-6 -19t-4 -14
q-9 -34 -17.5 -62.5t-14.5 -63.5q0 -3 4 -4.5t9 -1.5q8 0 20.5 2t25 4.5t23.5 5t16 2.5q20 1 31.5 2.5t20.5 6.5t18 15.5t24 30.5q7 9 13 24.5t13.5 30t17 25t24.5 10.5q4 0 5 -6.5t1 -14.5q0 -29 -8.5 -52.5t-23.5 -47.5q-12 -20 -19.5 -42.5t-21.5 -38.5
q-26 -31 -57 -61.5t-64.5 -55t-68.5 -40t-70 -15.5q-18 0 -33 8t-26 21.5t-17.5 32t-6.5 39.5zM1364 1005q6 0 14 -1t15.5 -4t13 -8t5.5 -12q0 -17 -7 -40.5t-26 -45.5q-23 -27 -33 -54t-15 -56q-5 -30 -8 -48.5t-5 -31t-3.5 -23t-3.5 -23.5q-5 -30 -17.5 -60.5t-28.5 -59.5
t-34 -56.5t-35 -51.5q-24 -34 -50 -72.5t-54.5 -76t-60 -71t-65.5 -58.5q-35 -26 -68.5 -49.5t-71.5 -39.5q-9 -4 -38 -9.5t-64 -10.5t-70.5 -8.5t-56.5 -3.5q-44 0 -44 17t19.5 46t39.5 64q3 5 9.5 22t14 35t15 32.5t12.5 14.5q4 0 10.5 -3.5t13 -8t13 -8t10.5 -4.5
q17 -2 34.5 -3t34.5 -1q24 0 48.5 2.5t49.5 7.5q31 6 61.5 23t58 39t51.5 48t42 50q19 27 39.5 54.5t37 56t27.5 57.5t11 58q0 10 -0.5 19.5t-0.5 20.5q0 30 4.5 55t13 50t22 51t31.5 56q19 32 30 55t19.5 38t17 22.5t22.5 7.5zM977 779q-1 -4 -1 -9q0 -4 1 -4q3 0 8 11.5
t5 16.5q-2 0 -13 -15zM909 765q-3 0 -11.5 -6.5t-17.5 -6.5q3 -1 3 -6v-5l-1 -7v-3q0 -5 4 -5q14 0 19.5 13.5t5.5 22.5q0 3 -2 3zM946 733q-1 -2 -4.5 -4.5t-4.5 -5.5q0 -9 8 -9t18 9.5t13 16.5v5t-3 3q-5 0 -13.5 -7.5t-13.5 -7.5zM1231 710q5 0 9.5 6t4.5 24q0 3 -2 3
q-5 0 -13 -7q0 -2 -0.5 -2.5t-0.5 -1.5q1 -1 0 -7t-1 -8q0 -7 3 -7zM682 550q1 3 10.5 8t23.5 10t30 8.5t30 3.5q15 0 20.5 -4t5.5 -14t-3 -25q-6 -36 -21 -70t-40.5 -60.5t-62 -42.5t-87.5 -16q-10 0 -19 12t-9 30q0 19 6.5 36t16.5 31.5t22 27t23 23.5zM1020 538
q0 -30 -20 -56.5t-39 -52.5q-1 -1 -1 -3t4 -1.5t4 -3.5q0 -12 -12 -23t-29 -19.5t-37 -13.5t-36 -5q-25 0 -44 13.5t-19 31.5q0 2 0.5 3t0.5 3q8 45 35.5 87t72.5 69q6 3 14.5 5t18 3.5t18.5 2t14 0.5q23 0 39 -10.5t16 -29.5zM445 550q7 0 8.5 1t1.5 4q0 5 -2.5 11t-3.5 6
t-12 -15v-2q0 -5 8 -5zM414 537q-2 0 -10 -7q-20 -17 -50 -24.5t-53 -9.5q-8 0 -18.5 3.5t-19.5 3.5q-8 0 -10 -2.5t-2 -7.5q0 -7 5 -11t12.5 -6.5t16 -3t16.5 -0.5q14 0 30.5 7t29.5 11q4 1 13 7.5t17.5 14.5t15.5 15t7 9v1zM882 483q0 8 5.5 11.5t13.5 7t17 11t16 23.5
q-1 -2 -9.5 -5.5t-19 -9.5t-19 -14t-8.5 -17q0 -3 4 -7zM723 523q-2 0 -9 -4.5t-15 -11.5t-14 -15.5t-6 -15.5q0 -2 3 -2q14 0 27 16t20 30q-3 3 -6 3zM205 490q8 0 18 9.5t12 16.5q-5 -2 -9 -3l-10 -2q-5 0 -10.5 2t-10.5 2q0 -2 0.5 -6t0.5 -7v-3q0 -5 3 -7t6 -2zM654 430
q2 0 10 2t9 5q0 2 -8 3.5t-16 2.5q-1 -2 -1 -6q0 -7 6 -7zM745 129q3 1 23.5 7t44 14.5t43 17.5t20.5 15q0 1 -1 1q-2 0 -9 -3.5t-12 -5.5q-23 -9 -44.5 -17.5t-44.5 -10.5q-5 0 -17 -7.5t-13 -9.5q0 -2 4 -2q3 0 6 1zM681 140q11 3 15 5t4 4t-3 3t-3 3t1 3t1 3t-4.5 3
t-18.5 1q-22 0 -22 -4q0 -1 3 -1t3 -4q0 -3 -1 -6.5t-1 -6.5q0 -7 8 -7q5 0 9.5 1.5t8.5 2.5z" />
    <glyph glyph-name=".notdef" horiz-adv-x="1229" 
d="M962 -362h-1024l318 1806h1024zM351 1329l-278 -1577h795l278 1577h-795z" />
    <glyph glyph-name=".null" horiz-adv-x="0" 
 />
    <glyph glyph-name="nonmarkingreturn" unicode="&#xd;" horiz-adv-x="520" 
 />
    <glyph glyph-name="NULL" horiz-adv-x="0" 
 />
    <glyph glyph-name="NULL" horiz-adv-x="0" 
 />
    <glyph glyph-name="space" unicode=" " horiz-adv-x="520" 
 />
    <glyph glyph-name="exclam" unicode="!" horiz-adv-x="602" 
d="M585 1288q0 -66 -7.5 -127t-21.5 -119.5t-33.5 -117t-42.5 -120.5l2 2q-5 -15 -16.5 -47.5t-26.5 -72.5t-32 -83t-33.5 -80t-30 -63t-22.5 -31l-3 -14q-10 -6 -21 -10t-22 -4q-26 0 -40.5 7t-14.5 38q0 15 4 28t10 27h-1q7 20 9 39.5t2.5 39t2.5 39t8 39.5l-3 64
q-5 11 -9.5 36.5t-8.5 59t-7 71t-5 72.5t-3 63.5t-1 43.5q0 37 11.5 89t32.5 103t49.5 94.5t62.5 63.5q4 7 16 13t26 10t27.5 6t21.5 2q27 0 49 -16.5t37.5 -40.5t24.5 -52t9 -52zM447 1344q-2 11 -7.5 22.5t-19.5 11.5q-8 -4 -15 -9.5t-11 -13.5q12 -4 24.5 -7.5t25.5 -3.5
h3zM475 1179l9 67l-21 -2l3 -65h9zM507 1187q-2 -3 -6 -11.5t-8 -17.5t-7.5 -16.5t-3.5 -10.5q0 -10 8 -10q6 6 12 13.5t9 15.5zM305 1175q0 -14 3.5 -27.5t8.5 -26.5q5 18 5 34q0 9 -3.5 16.5t-12.5 10.5zM469 960q9 25 15 50.5t6 51.5q0 11 -1.5 22.5t-6.5 21.5
q-7 -36 -10 -72t-5 -73zM449 926l-12 -66q12 11 18.5 25t9.5 30zM303 349q55 0 79 -34.5t24 -86.5q0 -37 -10 -71t-29.5 -60t-49.5 -41.5t-69 -15.5q-27 0 -47 10t-33.5 27t-20 39t-6.5 47q0 31 12.5 64t34.5 60t51.5 44.5t63.5 17.5zM342 208q6 12 6 26q0 26 -16 42l-4 -6
q2 -16 5 -32t9 -30zM353 182q-12 -7 -19 -17.5t-12 -22.5q13 0 25.5 7t14.5 21z" />
    <glyph glyph-name="quotedbl" unicode="&#x22;" horiz-adv-x="723" 
d="M475 1459q0 -14 -7.5 -44.5t-19 -70t-26.5 -84t-29.5 -87t-27.5 -78.5t-21 -58q-18 -8 -36 -8q-19 0 -43.5 1t-41.5 9q3 36 0.5 85t-4 101.5t1.5 104t18 92.5t45.5 66t83.5 25q13 0 31 -2t35 -7.5t29 -16t12 -28.5zM795 1459q0 -14 -7.5 -44.5t-19 -70t-26.5 -84
t-29.5 -87t-27.5 -78.5t-21 -58q-18 -8 -36 -8q-19 0 -43.5 1t-41.5 9q3 36 0.5 85t-4 101.5t1.5 104t18 92.5t45.5 66t83.5 25q13 0 31 -2t35 -7.5t29 -16t12 -28.5zM322 1411q-1 14 -1 27t2 27l-20 -21q-5 -16 -8 -31t-3 -32q0 -16 1 -31t1 -31q5 27 11 47t17 45z
M642 1411q-1 14 -1 27t2 27l-20 -21q-5 -16 -8 -31t-3 -32q0 -16 1 -31t1 -31q5 27 11 47t17 45zM282 1233q4 6 9 14.5t9.5 18.5t7.5 19.5t3 16.5q-7 0 -12 -9t-8.5 -20.5t-5.5 -23t-3 -16.5zM602 1233q4 6 9 14.5t9.5 18.5t7.5 19.5t3 16.5q-7 0 -12 -9t-8.5 -20.5
t-5.5 -23t-3 -16.5z" />
    <glyph glyph-name="numbersign" unicode="#" horiz-adv-x="988" 
d="M979 866q0 -13 -6 -34.5t-14.5 -44t-19 -42.5t-19.5 -30l-199 21q-2 -18 -3 -35.5t-1 -35.5l1 -87q-13 -26 -41 -40t-56 -14q-9 0 -27 2t-35 6.5t-30 12.5t-13 20q0 10 11 33.5t24.5 50.5t26 52.5t15.5 40.5l-50 2l-97 -2q-6 -51 -10 -101.5t-7 -101.5q-13 -8 -35 -14.5
t-46.5 -11t-47.5 -7t-38 -2.5q-12 0 -14.5 12t-2.5 20q0 19 8.5 44.5t19.5 52.5t21.5 54t14.5 48q-38 -2 -75 -8.5t-75 -13.5q-42 13 -42 58q0 18 3.5 34t8 31.5t9 30.5t5.5 32q27 0 51 -6t47 -14t46.5 -15t48.5 -10q6 32 9 68.5t11 66.5q-48 -3 -95 -8t-95 -10
q-10 19 -12 44.5t-2 45.5q0 14 1 27t3 26q8 9 24 17.5t29 8.5q19 0 38.5 -4t39 -8.5t38.5 -9t38 -4.5q-1 48 -5 92t5 92q17 4 34 6.5t34 2.5q16 0 36.5 -1t39.5 -6.5t32.5 -17.5t16.5 -33q-13 -36 -23.5 -72t-20.5 -73h106l35 2v4q0 26 -5 52t-5 52q0 9 2.5 26.5t8 35.5
t14.5 31.5t22 13.5t34.5 -2t44 -6t42 -10t30.5 -14q-14 -42 -26.5 -84t-22.5 -85q75 12 147 33q31 -2 44.5 -19.5t13.5 -46.5q0 -19 -4 -37.5t-12 -34.5t-22 -28t-33 -18q-81 12 -164 18q-8 -32 -14 -65l-12 -66q18 1 36 6t36 10.5t36.5 10t36.5 4.5q6 0 22 0.5t33 -1t30 -6
t13 -14.5zM539 839q43 0 64.5 7t30.5 24t9.5 45t0.5 70v6l-54 3h-52l-51 -3q-6 -37 -13.5 -73t-11.5 -74q20 -2 38.5 -3.5t38.5 -1.5z" />
    <glyph glyph-name="dollar" unicode="$" horiz-adv-x="1019" 
d="M937 509q0 -96 -31.5 -190.5t-90 -168.5t-142.5 -120t-189 -46l-15 -52q5 -1 18 -2t26.5 -4t24 -8t10.5 -13q0 -18 -7.5 -30t-19.5 -19.5t-27 -10.5t-31 -3h-220q-17 0 -31.5 4.5t-14.5 25.5q0 10 6 18t15 13t19 9t18 7q13 55 24 111q-8 4 -22.5 9t-22.5 5q-11 0 -22 -8
t-20 -19.5t-15.5 -24t-9.5 -21.5l1 1q-5 -17 -11.5 -33t-16 -28.5t-23 -20t-34.5 -7.5q-18 0 -29.5 10t-11.5 28q0 25 7.5 51t12.5 50q20 99 28.5 200t8.5 201v33q7 8 15.5 20.5t19 24.5t21.5 20.5t22 8.5q18 0 26.5 -26.5t13 -66.5t8 -88t10.5 -90.5t21 -74t40 -39.5
q19 105 39.5 207.5t36.5 208.5q-17 5 -32.5 11t-31.5 12h2q-47 17 -83.5 36t-62 45.5t-39 64.5t-13.5 92q0 91 25.5 175t75 151t122.5 112.5t168 60.5q2 11 2.5 21t1.5 21l-50 40l-2 13q0 24 19.5 34t46.5 12.5t55.5 0.5t46.5 -2q13 0 44.5 1t64.5 -1t58.5 -9t25.5 -22
q0 -12 -10.5 -18.5t-24.5 -10.5t-28.5 -6.5t-22.5 -5.5l1 -9l-11 -51q5 -2 24 -8.5t40 -14t38 -13.5t19 -6q12 0 29.5 14.5t36 32.5t36 32.5t29.5 14.5q17 0 25 -10t8 -27q0 -8 -7.5 -31.5t-19 -56t-25 -70t-26 -73.5t-22.5 -67t-13 -50l1 4q-1 -16 -2.5 -41.5t-7.5 -49.5
t-19 -41.5t-36 -17.5q-5 0 -10 2l-10 4q-16 24 -22 57.5t-8.5 70t-4 74t-9.5 70.5t-24.5 58t-48.5 38q-2 -52 -9.5 -105t-18 -106t-21 -106.5t-17.5 -105.5q55 -11 110.5 -34.5t100.5 -60.5t73 -86t28 -111zM646 1335l30 56l-23 30zM941 1271l-14 -14l-1 -32q5 7 10 13.5
t9 14.5zM625 1234l-3 13l-10 -15l10 -3zM491 1233q-35 -12 -66.5 -33t-55.5 -49t-38 -62.5t-14 -72.5q0 -119 110 -157zM570 991q12 16 19 42t12 54.5t8.5 56t7.5 48.5h-8q-4 -23 -11 -46t-13.5 -46t-11 -46t-4.5 -47zM241 1100l-6 -42l34 69zM876 1079l-11 -16l1 -15l16 18
zM573 962l-2 16l-12 -13l6 -18zM564 936l-9 -13l6 -15l5 15zM570 805q8 23 11 49.5t3 51.5v13.5t-2 13.5q-5 -32 -9.5 -63t-10.5 -62zM375 800l4 23q-14 8 -26 18t-23 20l-9 -18l1 -8l38 -37zM220 725q-1 12 -9.5 21t-17.5 16q7 -21 27 -37zM751 674q-29 23 -61.5 44
t-70.5 27l-4 -20q34 -11 69 -23.5t67 -27.5zM644 586l-9 18q-11 3 -20.5 8.5t-18.5 11.5q0 -7 -3 -10t-3 -10zM861 489q2 11 4 23t2 23q0 14 -3 26q-12 14 -24 30t-29 25h-2q10 -33 23.5 -64.5t28.5 -62.5zM438 143q5 31 7.5 60t5.5 57t7 57t12 60q1 4 3 12.5t4.5 18t4 18
t1.5 11.5q0 26 4.5 47.5t9.5 47.5h-5q-9 -16 -17 -46t-15.5 -67t-14 -78t-11 -79.5t-7 -70.5t-2.5 -51v-17zM530 84q41 0 75.5 15.5t59 42t38 62.5t13.5 77q0 36 -12.5 67.5t-33 59t-47 50.5t-55.5 40q-17 -103 -32.5 -205t-34.5 -205q7 -1 14.5 -2.5t14.5 -1.5zM838 325
q0 12 4 24.5l8 25t7.5 25.5t3.5 26q0 10 -3 19t-13 14q-5 -33 -5.5 -66.5t-1.5 -67.5zM181 241l9 47l-14 50l-4 -101zM211 177l-7 29l-9 -4l4 -25h12zM285 -86h8l57 47l-46 -18z" />
    <glyph glyph-name="percent" unicode="%" horiz-adv-x="1646" 
d="M859 1049q0 -39 -18 -84.5t-48.5 -91.5t-70.5 -89t-83 -76t-86.5 -53t-81.5 -20q-72 0 -133 15.5t-122 53.5l-23 32l1 -1q-11 15 -24 33t-24.5 37.5t-19.5 39.5t-8 40q0 42 15.5 93.5t43 104.5t64.5 102.5t80 88.5t89.5 62.5t92.5 23.5q22 0 48 -3.5t52 -10.5t50.5 -16
t42.5 -21q54 -10 107 -14t107 -4q30 0 81 3t105 10.5t102 20t73 30.5q32 -5 64.5 -8.5t65.5 -3.5q14 0 35.5 1.5t42 -0.5t35 -11t14.5 -30q0 -14 -10.5 -24t-25 -16t-30.5 -9.5t-26 -4.5q-13 -2 -46.5 -33t-81.5 -84t-108 -123.5t-125 -150.5t-133 -165.5t-131.5 -168
t-120.5 -158.5t-101 -137t-71.5 -103t-33.5 -57l29 -38q-3 -10 -11 -17t-18.5 -11.5t-22 -7t-20.5 -2.5q-11 0 -35 1t-54.5 3t-63.5 4.5t-61 6.5t-48 9t-25 11q6 35 24 48t52 13l27 -1q35 32 68.5 69.5t66 77t63.5 79t62 76.5q168 199 328.5 400t322.5 405q9 11 19 22.5
t18 23.5q-11 -6 -33.5 -11t-51.5 -8.5t-62 -6t-63 -4t-55 -2t-38 -0.5q-28 0 -55.5 0.5t-55.5 4.5q25 -36 46.5 -78t21.5 -87zM528 761q4 28 14 51.5t21.5 46.5t24 47.5t23 55.5t17 70.5t6.5 92.5q0 14 -4 42.5t-12 57t-21.5 49.5t-32.5 21q-42 0 -75 -22.5t-57.5 -58.5
t-41.5 -82t-28 -93t-15.5 -91t-4.5 -77q0 -38 12.5 -72t38.5 -63q5 -13 23 -22.5t32 -9.5q11 0 23 5.5t23 14t20 18.5t14 19zM707 1232v2q0 19 -19 26v-3q0 -15 13 -25h6zM363 1252q-16 -17 -32.5 -35t-27.5 -38l2 -8l56 54zM1090 1006q24 25 47.5 48t45 46.5t40.5 49
t34 55.5l-171 -190zM733 1147q-1 11 -3 22.5t-7 22.5v-9q0 -18 10 -36zM266 1127l6 19l-33 -45zM705 912q3 20 10 41.5t13.5 43t11.5 43t5 41.5l-3 19q-6 -11 -11.5 -34.5t-11 -51t-10.5 -53.5t-9 -41zM183 955q3 8 4.5 17.5t3.5 18.5l-17 -23zM944 829q10 9 28.5 27
t36.5 39t32.5 41.5t16.5 35.5l-112 -127zM781 949l-18 -47l4 -11q25 31 36 73zM184 902l-2 35l-10 -26l11 -22zM206 863l-12 -16v-6q0 -15 10 -28q3 7 5.5 13.5t4.5 14.5zM680 787l-92 -68l97 60zM1554 399q0 -38 -18.5 -83.5t-49 -91.5t-70 -89t-82.5 -76t-86.5 -53
t-81.5 -20q-71 0 -133.5 15.5t-122.5 53.5l-22 32l1 -1q-11 15 -24 33t-25 37.5t-20 40t-8 39.5q0 42 16 93.5t43.5 104.5t64.5 102.5t80 88.5t89.5 62.5t92.5 23.5q43 0 74.5 -7t59 -19t55 -28.5t61.5 -35.5q16 -23 34.5 -49.5t34.5 -55t26.5 -58t10.5 -59.5zM1142 55
q29 0 54 25t46 64t37 87.5t27 95.5t17 87t6 63q0 14 -4 42.5t-12 56.5t-22 49t-33 21q-42 0 -74.5 -22.5t-57 -58.5t-41.5 -82t-27.5 -93t-15.5 -91.5t-5 -76.5q0 -38 12.5 -72t38.5 -63q5 -14 22.5 -23t31.5 -9zM1411 583v4q0 8 -5.5 15t-13.5 9v-3q0 -15 13 -25h6z
M1058 603q-16 -17 -32.5 -35t-27.5 -38l2 -8l55 54zM1427 506q0 10 -3 19.5t-7 17.5v-9q0 -18 10 -36v8zM961 478l5 19l-33 -45zM1400 263q8 43 20 84.5t20 84.5l-3 19q-10 -19 -15.5 -41.5t-9.5 -46.5t-8 -47.5t-10 -44.5zM877 306q5 8 6.5 17.5t2.5 18.5l-17 -23z
M1475 300l-18 -47l4 -11q14 16 22.5 34.5t14.5 38.5zM415 178q10 9 23 25.5t24.5 34.5t20.5 36t11 32q-8 -8 -21 -23t-26 -31.5t-22.5 -32.5t-9.5 -27v-14zM879 250l-3 38l-9 -26l11 -22zM900 214l-12 -16v-6q0 -15 10 -28q3 7 5.5 13.5t4.5 14.5zM1375 138l-92 -68l96 60z
M368 95l19 42l-24 -14l-21 -39z" />
    <glyph glyph-name="ampersand" unicode="&#x26;" horiz-adv-x="1266" 
d="M1115 862q-41 -38 -84 -79.5t-83 -86t-74 -93t-56 -100.5q4 -11 13.5 -36t22.5 -56.5t29 -64.5t33 -60.5t33.5 -45t32.5 -17.5q22 0 34.5 29t20.5 72.5t13.5 94t14.5 94t24 72.5t42 29q6 0 15 -1t16.5 -4t13 -8.5t5.5 -14.5q0 -44 -4.5 -98.5t-15.5 -111t-31 -110
t-50.5 -95t-73.5 -67t-101 -25.5q-26 0 -53 7.5t-47 7.5q-28 0 -53 15t-47.5 36.5t-42 46t-35.5 42.5q-36 -31 -80.5 -64.5t-94 -61.5t-101 -46t-99.5 -18q-50 0 -97 23.5t-83.5 61.5t-59 86t-22.5 98q0 95 34 174t87 147.5t116.5 130t123.5 123.5q-8 101 7 189t59 153.5
t120.5 103t191.5 37.5q38 0 71.5 -12t58.5 -34t39.5 -53.5t14.5 -70.5q0 -51 -24 -92.5t-59.5 -76t-76.5 -64t-75 -58.5q1 -9 7.5 -33t16 -55.5t20.5 -66.5t21.5 -65.5t18.5 -53.5t12 -29q7 14 24.5 45t36.5 65t33.5 63.5t14.5 39.5q0 17 -10.5 28t-27.5 11q-9 0 -26 -2
t-33.5 -1.5t-28.5 6.5t-12 21q0 23 18 34t42.5 15.5t50.5 4t42 -0.5l100 -3q18 2 36 1t36 -6q19 3 39 8t40.5 10t40 9t38.5 4q7 0 16 -1t17 -4t13.5 -8.5t5.5 -14.5q0 -28 -17 -41t-42.5 -17.5t-54 -5.5t-51.5 -5zM765 1294q6 2 11.5 4.5t10.5 5.5l-7 22zM879 1199
q0 11 -5 23t-12.5 23.5t-16 22t-15.5 18.5l47 -106zM646 1279q-17 -7 -26 -23.5t-13 -36t-5 -40t-1 -35.5q0 -44 9 -86.5t28 -81.5q18 22 35.5 48.5t31.5 55t22.5 58t8.5 58.5q0 44 -24 63.5t-66 19.5zM515 1196q-9 -9 -14.5 -21t-7.5 -24l7 -8q5 13 9 26t6 27zM520 977
q-1 1 -1 2q0 -2 1 -2zM534 933q0 20 -15 38l6 -65q3 7 6 13t3 14zM949 817q17 10 32.5 23t29.5 28l-10 4q-6 0 -15 -6t-17 -14.5t-14 -17.5t-6 -15v-2zM592 809l35 -60l3 19l-29 51zM448 208q35 31 67 63.5t60 70.5q-32 49 -54.5 102.5t-40.5 109.5t-34 112.5t-35 111.5
q-37 -41 -60 -76.5t-35.5 -73t-16.5 -80t-4 -96.5q0 -26 2.5 -57.5t11 -62t25 -55t43.5 -36.5q11 -13 26 -24t33 -11zM151 612q7 1 12.5 5.5t8.5 9.5l-8 2q-5 -2 -7.5 -6.5t-4.5 -9.5zM696 569l-10 40l-13 16l12 -56h11zM582 570q0 9 -4 18t-9 17l-7 -10q4 -19 19 -35z
M91 427q11 44 24.5 86t27.5 85q-19 -11 -29.5 -30t-16 -41t-8.5 -45t-6 -42zM703 508q8 11 12.5 22.5t9.5 23.5q-8 -8 -15.5 -18t-12.5 -21zM643 415q0 7 -4 22t-10 30t-13 28t-13 18l-1 -13q0 -23 11 -47.5t21 -44.5l9 2v5zM704 296l11 -33t12 -27.5t19 -21t32 -12.5
q-1 8 -8 17t-16 21t-16.5 27.5t-9.5 37.5zM83 269q0 -10 5 -22t13 -23t17 -21t17 -16q-10 29 -18 57t-10 59q-8 -5 -14.5 -12.5t-9.5 -15.5v-6zM178 150l-17 19l-16 -14l16 -32z" />
    <glyph glyph-name="quotesingle" unicode="'" horiz-adv-x="461" 
d="M504 1459q0 -14 -7.5 -44.5t-19 -70t-26.5 -84t-29.5 -87t-27.5 -78.5t-21 -58q-18 -8 -36 -8q-19 0 -43.5 1t-41.5 9q3 36 0.5 85t-4 101.5t1.5 104t18 92.5t45.5 66t83.5 25q13 0 31 -2t35 -7.5t29 -16t12 -28.5zM351 1411q-1 14 -1 27t2 27l-20 -21q-5 -16 -8 -31
t-3 -32q0 -16 1 -31t1 -31q5 27 11 47t17 45zM311 1233q4 6 9 14.5t9.5 18.5t7.5 19.5t3 16.5q-7 0 -12 -9t-8.5 -20.5t-5.5 -23t-3 -16.5z" />
    <glyph glyph-name="parenleft" unicode="(" horiz-adv-x="561" 
d="M657 1368q0 -11 -6.5 -20.5t-16 -17.5t-20 -15t-17.5 -13q-12 -11 -27.5 -35t-30 -52t-27 -55t-19.5 -43q-38 -90 -70 -182.5t-55.5 -187t-36.5 -191.5t-13 -196v-67.5t1.5 -49t5.5 -38.5t12 -36t21 -41.5t33 -54.5q2 -8 4 -17t2 -17q0 -6 -7.5 -13t-17.5 -14t-20 -11.5
t-15 -4.5q-23 0 -50.5 16.5t-53.5 40.5t-48 50.5t-32 46.5l3 -1q-29 38 -55.5 80.5t-47 88.5t-33 94.5t-12.5 97.5q0 33 7 66t17 65.5t21 64.5t20 64q8 30 19 69t24.5 78.5t30 75.5t34.5 59q34 43 69 87t74 84.5t83 74t95 54.5l-8 -2q31 19 59 35t66 16q11 0 24.5 -10
t13.5 -23zM330 1063q6 9 13 21.5t14 26t11.5 26.5t5.5 24l-54 -93zM291 1031l-1 -3q-20 -23 -37 -55t-21 -63q-17 -21 -25 -40t-8 -45q30 51 54 104t48 107zM179 795q-17 -38 -23 -72.5t-11 -75.5q15 19 21 37t8 36t3 37t7 41zM213 720q-4 -9 -8 -23t-4 -23l2 -23l14 10
q-2 10 -1.5 19.5t1.5 19.5l7 15l-3 10zM133 484l-13 8q-2 -17 -2 -33.5t-1 -33.5l21 -48zM188 323q-4 -14 -7.5 -28.5t-5.5 -28.5q4 -17 15.5 -28t25.5 -19z" />
    <glyph glyph-name="parenright" unicode=")" horiz-adv-x="561" 
d="M267 1475q43 0 83.5 -36t75.5 -93.5t64 -128t49.5 -140t32 -130.5t11.5 -98q0 -130 -34.5 -243.5t-95 -214t-142.5 -189t-177 -169.5q-16 -13 -41 -22.5t-45 -9.5q-6 0 -15 3t-18 8.5t-15.5 12t-6.5 12.5q0 8 6.5 16.5t15 16.5t17 14.5t13.5 10.5q25 20 46.5 53t40 74
t33.5 86.5t27 90t20.5 85t14.5 71.5q8 10 15 36.5t12 56.5t8 58.5t3 42.5q0 15 -2.5 34l-5 38t-3 37t4.5 32q-3 63 4 125.5t7 125.5q0 53 -6.5 107t-27.5 104q-3 6 -10.5 17t-16 22t-15 20.5t-6.5 13.5q0 14 8.5 23.5t20.5 15.5t25.5 8.5t24.5 2.5zM390 1253q-1 6 -4.5 12
t-8.5 8l-1 -15q0 -12 4 -21zM365 958q2 -13 11 -19q-2 15 -9 25v1zM480 876l2 9q-3 26 -19 45q-3 -23 -11 -45zM381 842q2 3 3.5 6.5t1.5 7.5q0 11 -7 25l-9 -2l-1 -11q0 -8 2 -15t10 -11zM459 817q-5 15 -15 25q-4 -19 -6.5 -37.5t-2.5 -37.5q0 -26 6 -50zM362 799
q-2 -10 -3.5 -20t-1.5 -21q0 -18 7 -32l11 4q-5 17 -10 34.5t-3 34.5zM373 644q-6 16 -3 34t6 34l-12 5q-2 -3 -6 -12.5t-8 -20t-7 -19.5t-3 -12l3 -31l-28 -84l7 -13q10 31 25.5 59.5t25.5 59.5zM454 673l-6 20l-8 -4l-5 -22zM438 638l-13 35l-4 -12l12 -28zM420 601l-1 23
q-2 -4 -3.5 -7.5t-1.5 -7.5l3 -16zM351 444q0 2 1.5 3.5t-0.5 1.5l-10 -1q-8 -17 -20.5 -31.5t-20.5 -33.5l-24 -16l-3 -31q-4 -8 -8 -16.5t-6 -16.5q0 -2 -1.5 -4t0.5 -2t13.5 13.5t25 31t24 34.5t10.5 23l-2 13l5 6q3 5 8.5 13t7.5 13z" />
    <glyph glyph-name="asterisk" unicode="*" horiz-adv-x="870" 
d="M882 1122q0 -18 -3.5 -34.5t-16.5 -30.5l-41 24l11 26q-2 11 -9 18.5t-16 11.5q-24 -4 -54 -7t-60 -7t-58 -8t-48 -9q11 -14 25 -25t28.5 -21t29 -20.5t26.5 -23.5l14 2l10.5 -3.5t15.5 -4.5t15 -4t10 -2q17 0 33 7.5t30 16.5q11 -6 15 -20q-8 -9 -24.5 -27t-38 -39.5
t-46 -44.5t-46.5 -42.5t-40.5 -33t-27.5 -16.5l-19 2l8 49l26 10v7q0 56 -25.5 104.5t-63.5 87.5q-7 -18 -12 -41.5t-8 -49t-4.5 -50t-1.5 -43.5l1 -15l-16 -24q16 -22 41 -33v-14l-9 -15l-11 -2q-35 0 -73.5 11.5t-72.5 19.5v-2h-6q-14 0 -30.5 3t-31.5 10t-27.5 17
t-16.5 25l50 25l18 -19l13 -2l19 6q9 15 22 39.5t26 51t25 52t19 42.5q-33 -10 -64.5 -23.5t-63.5 -23.5q-20 -17 -35 -24.5t-24.5 -16.5t-14 -24t-3.5 -48l-13 -8l-17 4q-14 53 -27.5 114.5t-13.5 116.5q0 11 7 25t13 22l41 -24l-9 -27q25 -6 49.5 -11t50.5 -5
q38 0 74.5 11t71.5 28q-28 21 -53.5 45t-51.5 47q-17 5 -29 13t-27 14l-62 -37l-10 4l-7 16q32 32 64 61.5t64 61.5h-4q6 13 20 27t31.5 25t35.5 18.5t33 7.5h2l-8 -49l-27 -11q-8 -11 -12.5 -20.5t-4.5 -23.5q0 -26 9.5 -48t24.5 -41.5t32.5 -38t32.5 -36.5q18 39 29.5 82
t25.5 84q-12 15 -15 28t-6 25t-11.5 23.5t-32.5 25.5l1 14l6 10l13 5q12 0 35 -2.5t50 -7t56 -12t53.5 -16.5t41.5 -20t21 -24l-49 -25l-15 16q-14 -10 -37.5 -40t-47 -65.5t-40.5 -68t-17 -47.5v-8q21 5 40.5 16t38 23.5t37.5 24.5t39 20q13 12 30 17.5t31 15.5l5 61l11 6
l20 -2q6 -38 11 -75.5t14 -75.5l2 4q6 -17 8.5 -34t2.5 -34z" />
    <glyph glyph-name="plus" unicode="+" horiz-adv-x="650" 
d="M432 725q15 0 40.5 1t53 1t51 -1.5t33.5 -5.5q-2 -11 -5 -29t-7.5 -37t-9.5 -36t-11 -26q-8 -2 -15 -2h-15l-143 2l-31 -174q-20 -5 -42 -10t-43 -5q-11 0 -23 2t-23 4l-15 -4q2 12 6 35.5t9 48.5t10 46.5t9 28.5l-1 16l4 12q-45 -4 -89 -2.5t-89 3.5q-3 28 -3 59
q0 18 5 34.5t10 33.5l-1 15q48 -4 97 -4.5t98 0.5q9 16 14.5 40.5t10 51.5t8 53t7.5 44h27.5t37 -0.5t36.5 -2.5t25 -5q-1 -23 -5.5 -46t-10 -46.5t-9.5 -46.5t-5 -46l4 -2v0z" />
    <glyph glyph-name="comma" unicode="," horiz-adv-x="515" 
d="M330 149q0 -19 -8 -36t-16 -33q-8 -41 -40 -79.5t-75 -69.5t-90 -52.5t-86 -27.5q-5 5 -12.5 14t-7.5 17q0 11 11 20.5t26 18t31 16t25 13.5q12 17 23.5 33t19.5 36q-24 10 -37 16t-19 11t-7 10t-2.5 14t-4.5 23t-13 37q5 22 23 47.5t42 47.5t51 36.5t50 14.5
q21 0 41.5 -12.5t37 -31.5t27 -41.5t10.5 -41.5zM257 219q2 -16 5 -32t9 -30q6 12 6 26q0 26 -16 42zM133 157q0 11 -3 20l-9 -9q3 -10 11 -18zM282 131q-14 -5 -18.5 -18.5t-5.5 -25.5q5 0 9 -3t9 -3l2 8z" />
    <glyph glyph-name="hyphen" unicode="-" horiz-adv-x="614" 
d="M548 530q-8 -43 -19.5 -89t-32.5 -84q-11 -2 -23 -3t-24 -1l-395 2q-24 13 -24 41q0 18 5 35.5t11 34.5t11 34t5 33l-3 28q11 0 33.5 -0.5t50.5 -1.5t58.5 -2.5t57.5 -3t48 -3.5t29 -4q37 9 72 -8q35 6 67.5 5.5t67.5 -9.5zM258 498l-14 -16l8 -17l9 13zM418 455
q2 3 2.5 7t1.5 7q-29 5 -59.5 10.5t-60.5 5.5l-17 -11q20 -7 43 -13t45 -6h45z" />
    <glyph glyph-name="period" unicode="." horiz-adv-x="515" 
d="M284 72q-14 -11 -20.5 -19t-13 -14t-16.5 -10.5t-32 -7.5q-22 -16 -53 -16q-26 0 -47 12l-26 3q-13 24 -22.5 51.5t-9.5 56.5q0 24 16 49.5t40 46.5t51.5 34.5t51.5 13.5q26 0 47 -9.5t36 -26.5t23.5 -39.5t8.5 -47.5q0 -8 -2.5 -20t-7 -24t-11 -21.5t-13.5 -11.5z
M254 174q9 -22 12 -47q7 0 7.5 5.5t0.5 10.5q0 11 -2.5 21.5t-8.5 19.5zM238 101l-13 21l-8 -16l6 -25z" />
    <glyph glyph-name="slash" unicode="/" horiz-adv-x="1075" 
d="M1142 1304q3 -10 4 -20t1 -20q0 -13 -10.5 -20.5t-24.5 -11t-28.5 -5t-22.5 -2.5q-80 -126 -167 -248.5t-175 -244t-174.5 -244t-165.5 -249.5h1q-7 -11 -16.5 -25.5t-19 -30.5t-16.5 -31.5t-10 -28.5q10 -3 21 -10t11 -19q0 -9 -2.5 -18.5t-7.5 -17.5t-12.5 -13.5
t-17.5 -5.5q-4 0 -28.5 5.5t-59.5 13.5t-75.5 18t-77 19t-64 16t-35.5 10q-1 27 8.5 41t26 20t37.5 6h42l9 -1q22 27 40.5 57t37.5 59h1q32 49 65.5 95.5t67.5 94.5h-1q35 49 68 99t70 98l-2 -2q78 115 157 227.5t160 225.5l-4 -3q7 12 17.5 28t19.5 34t15.5 35.5t6.5 31.5
q0 6 -11.5 11t-16.5 7q-8 -1 -13.5 3.5t-5.5 12.5q0 17 9 31.5t26 19.5q86 -13 171.5 -23.5t170.5 -24.5zM848 1216l41 50q0 4 -1.5 7.5t-6.5 3.5l-7 -2zM854 1032q7 5 15.5 14t16.5 19.5t14.5 21t9.5 18.5l-3 18zM839 1075q-20 -28 -41 -57t-29 -63q18 16 31.5 36.5
t23.5 42.5q1 3 7.5 17.5t11.5 23.5h-4zM854 1029q-47 -59 -86.5 -117t-77.5 -123l4 -11q6 0 16.5 18t22.5 40.5t23.5 43t18.5 27.5l-3 4l33 51q14 11 25 25.5t22 28.5zM735 917l23 13l-1 10l-10 -6t-10 -7zM711 884l21 14l-1 11l-15 -13zM695 868q-21 -17 -40 -44.5
t-27 -53.5q19 25 35 47.5t32 50.5zM549 681l-7 20l-19 -27zM556 663q9 9 11 23l-16 -16zM489 626l22 28l-23 -13zM534 654l-26 -37l16 6zM422 505q7 8 17 20.5t20 26t18 27t10 23.5q-18 -23 -34.5 -47t-30.5 -50zM365 492q-35 -44 -66 -86t-62 -87q62 64 108 134t92 145
q-17 -26 -36 -51.5t-39 -48.5zM403 504q3 3 6 7t4 9q-10 -8 -15 -16h5zM395 496l-29 -32l-1 -9l29 30zM284 316q10 11 21 26.5t20.5 32t18 33.5t13.5 31q-23 -27 -41.5 -58.5t-31.5 -64.5zM279 166l-3 23l-24 -59l11 -7z" />
    <glyph glyph-name="zero" unicode="0" horiz-adv-x="1059" 
d="M1049 834q0 -82 -17.5 -158.5t-47.5 -151.5h1q-17 -51 -41.5 -95.5t-54.5 -89.5h1q-25 -40 -42 -66.5t-32 -46.5t-29 -35t-32.5 -31.5t-42.5 -36t-59 -48.5v1q-24 -18 -46 -32.5t-45.5 -24t-49.5 -14.5t-56 -5q-47 0 -79.5 1.5t-56.5 6t-42.5 12.5t-37.5 21t-42 32
t-56 45q-14 33 -34.5 70t-39.5 75t-33 75.5t-14 73.5q0 25 6.5 39t14.5 35l1 8q12 80 30.5 164.5t46.5 166.5t68 157t95 136q21 23 43.5 45.5t39.5 49.5q13 7 23.5 16.5t20.5 19.5t21 19t25 14q28 35 68 48t83 13q20 0 44.5 -3t40.5 -18q29 -3 61 -14.5t61.5 -29.5t54 -40.5
t38.5 -47.5q12 -9 26 -27.5t26.5 -39.5t21.5 -42t12 -35l-1 1l8 -27v1l1 -11l-1 1q5 -22 13 -44l16 -44t14 -44t6 -45zM640 340q9 31 19 58.5t20.5 54.5t19 55.5t14.5 60.5q8 47 16.5 102.5t15 112.5t11 112.5t4.5 102.5q0 27 -1 69t-11 81.5t-31.5 67.5t-61.5 28
q-42 0 -76 -20.5t-61.5 -51.5t-48.5 -67.5t-37 -69.5q-6 -12 -15 -52.5t-20 -96.5t-22 -120.5t-20.5 -123t-15 -104t-5.5 -64.5v-54t2 -79t8 -88t17.5 -82t30.5 -60.5t48 -23.5q21 0 41 13.5t38 35t34 48.5t30 53.5t25 50.5t19 40zM799 1120l1 11q0 22 -17 34
q0 -11 2.5 -23.5t10.5 -21.5h3zM867 1004l-7 -16h-2q0 21 2.5 42.5t4.5 42.5q-1 2 -3 5.5t-5 3.5l-19 -41q4 -35 2.5 -71t0.5 -72l18 19v40l4 9l12 -2l6 15zM330 1078q-9 -8 -22 -22.5t-13 -27.5l2 -16q11 12 21.5 25.5t14.5 30.5zM811 986q2 20 -1 40.5t-7 40.5
q-6 -41 8 -81zM240 911l3 18q-8 -6 -14.5 -14t-8.5 -18zM821 813l23 42l-22 5l-11 -51zM815 758q2 0 2.5 5.5t1.5 6.5l14 30l-13 -2l-7 -28zM772 503q4 22 10.5 43.5t12.5 43.5t10.5 44t4.5 45v19l12 26l-6 29q-11 -17 -18.5 -47.5t-13 -65t-10 -68.5t-10.5 -57zM938 617
q5 10 8.5 21.5t3.5 22.5l-1 17q-8 -15 -10 -22t-2 -23zM954 573l-17 15h-4l-4 -21zM933 552q-14 -13 -29 -23q-8 -14 -12.5 -28.5t-8.5 -29.5l5 -16q16 22 26.5 46.5t18.5 50.5zM115 504q5 11 7 23l4 24q-12 -12 -18 -29zM114 457l-1 23q-4 -8 -7.5 -17.5t-3.5 -18.5
q0 -14 9 -23zM838 382l-10 15l-19 -36l-3 -31zM135 324q3 8 7.5 19t4.5 19q0 13 -9 27l-15 -23l-1 -12q0 -8 2.5 -16.5t10.5 -13.5zM164 284l-14 21l-8 -16l6 -25zM698 187q-12 -7 -18.5 -18t-12.5 -22q13 0 26 7t15 21zM340 49q-7 10 -14 19.5t-17 17.5v-9q0 -11 6.5 -20.5
t19.5 -9.5z" />
    <glyph glyph-name="one" unicode="1" horiz-adv-x="654" 
d="M425 267q13 -30 23.5 -47t24.5 -26t34.5 -12t54.5 -6q1 -8 2.5 -16.5t1.5 -16.5q0 -11 -12 -19t-28 -13t-32 -7.5t-24 -2.5q-84 0 -166 -8t-163 -8h-119q-8 0 -20.5 1.5t-25 5.5t-21.5 10.5t-9 17.5q0 19 13 34t26 27q15 -6 30.5 -8t31.5 4q33 60 55 107t36.5 88t23 79
t16 79.5t14.5 90t19 110.5q8 45 18 92.5t18.5 95.5t14 96t5.5 95q0 43 -11.5 65.5t-28.5 32t-37 10.5t-37 2.5t-28.5 7.5t-11.5 26q0 15 7.5 27.5t18.5 21t25 13t28 4.5q27 0 53.5 2.5t53.5 2.5q32 0 66 8.5t67.5 21t65.5 27.5t60 28q17 8 34.5 14.5t36.5 6.5q18 0 27 -11
t9 -28q0 -56 -14.5 -122.5t-34.5 -135t-40 -135.5t-30 -124q-14 -75 -33 -151.5t-37 -153t-31.5 -153.5t-15.5 -154zM331 1235q11 11 22.5 25t13.5 31l-3 10q-4 -3 -10 -9.5t-11.5 -13.5t-9.5 -14t-4 -13zM500 1096q-14 -18 -21 -39l4 -27q5 18 10 32.5t7 33.5zM436 806
q7 13 12 26.5t9.5 27.5t10.5 27t15 24l-12 7q8 16 8.5 35t-6.5 36q-3 -22 -9 -43l-12 -42t-11 -43t-5 -45v-10zM418 752l3 -28l8 2q2 11 3 23t1 23v9zM417 650l9 49l-3 6q-5 -9 -8.5 -19t-4.5 -21zM365 440q18 45 28.5 89.5t18.5 92.5l-12 15q-9 -45 -22 -87t-21 -87z
M270 161q1 12 -5.5 25.5t-16.5 21.5l-6 -33l-13 -19zM361 176l-13 16l-12 -9l16 -19z" />
    <glyph glyph-name="two" unicode="2" horiz-adv-x="821" 
d="M758 502q0 -11 -7.5 -43t-17 -69t-18.5 -69.5t-12 -43.5q-35 -109 -104 -170.5t-187 -61.5q-21 0 -44.5 6t-43 18t-32 30.5t-12.5 43.5q0 14 2 35.5t-0.5 41.5t-12 34t-33.5 14q-22 0 -33 -14.5t-18 -36.5t-13 -47.5t-18 -47.5t-33 -36.5t-58 -14.5q-31 0 -44 20t-13 48
q0 62 27 114.5t68.5 98.5t92.5 88t99.5 84.5t88 87.5t59.5 97q11 29 27.5 57.5t32.5 54.5l-3 -2q14 41 26 77t21 72t14.5 73.5t5.5 81.5q0 8 -1 28.5t-4.5 41.5t-11 37.5t-20.5 16.5q-51 0 -93 -28.5t-74.5 -71t-56.5 -92.5t-40 -92q13 -8 25 -11t22.5 -7t19.5 -12.5
t17 -26.5q1 -22 3 -44t2 -44q0 -26 -16 -47t-33 -38h1q-11 -12 -30.5 -23.5t-42 -20t-45 -13.5t-38.5 -5q-18 0 -33 14t-26.5 34.5t-17.5 42t-6 36.5q0 28 10.5 60.5t25.5 64.5t33 61.5t33 52.5q4 18 14 37.5t23.5 38t28 35t27.5 28.5q14 36 52 68.5t85.5 57t97 38.5
t85.5 14q55 0 92 -13.5t65 -37.5t52 -56.5t54 -69.5q0 -6 1 -20.5t1.5 -30.5t0 -30.5t-2.5 -20.5l7 -20q-23 -106 -48 -178.5t-52.5 -121.5t-58.5 -79t-65.5 -52t-74 -40t-84 -43.5t-94.5 -62t-107 -95.5q21 -11 50 -29.5t59.5 -36t60 -30.5t51.5 -13q42 0 67.5 14t39.5 37
t20 52t10.5 58.5t10 57.5t18.5 49q11 4 22 6.5t22 2.5q9 0 19.5 -3.5t19.5 -10.5t15 -16t6 -19zM692 1246q-14 27 -42 40h-1l-17 12h-2q4 -12 7.5 -24.5t8.5 -24.5q12 4 27 4l19 -8v1zM773 1139q-8 6 -14 14q-5 -16 -6 -33t-1 -34l1 -41q4 5 7.5 17.5t6.5 26.5l6 28t5 22h-5
zM287 908l-17 15h-4l-3 -21zM652 894l-12 16l-23 -76l8 -21zM276 873q-10 -18 -17 -37t-10 -39q17 5 29 18.5t12 31.5q0 17 -14 26zM695 818q-8 -18 -20.5 -36.5t-19.5 -36.5l1 -8q3 4 9.5 11.5t13 16t11.5 16t5 12.5v25zM600 749l1 47h-4l-21 -53zM603 721q-13 -11 -25 -21
t-24 -23q-8 -17 -23.5 -33t-29.5 -29l5 -16q10 14 24.5 28.5t29 29.5t26.5 31t17 33zM357 238q-6 15 -16.5 27t-22.5 23q0 -21 8.5 -34t30.5 -16zM389 140q-3 14 -15.5 23t-25.5 14l-1 -9q0 -16 14.5 -22t27.5 -6zM578 175q-12 -7 -17.5 -16.5t-8.5 -22.5q8 8 14.5 18
t11.5 21zM530 130q-5 -2 -13 -6.5t-10 -9.5q-1 -2 -2 -5t1 -3h7l17 10v14z" />
    <glyph glyph-name="three" unicode="3" horiz-adv-x="842" 
d="M887 1107q0 -63 -23 -111.5t-60 -87.5t-83.5 -70.5t-92.5 -60.5q38 -13 67.5 -37.5t49 -56.5t29.5 -70t10 -78q0 -115 -51.5 -213t-144.5 -165q-6 -11 -27.5 -24t-51.5 -26t-64.5 -24.5t-67 -20t-59 -14t-39.5 -5.5q-72 0 -128.5 29.5t-96 78t-60 111t-20.5 127.5
q0 27 10.5 51t27 45t38 38t43.5 28l12 -1q15 7 32 12.5t34 5.5q43 0 65.5 -26.5t22.5 -67.5q0 -35 -12 -65.5t-33 -53.5t-50 -38t-63 -19q6 -28 23.5 -59t42 -56.5t54.5 -42.5t61 -17q27 0 54 26.5t51.5 68.5t45.5 94t36.5 102t24 93t8.5 68q0 81 -38 115.5t-119 34.5
q-11 0 -26 -0.5t-28 2t-22 11t-9 26.5q0 12 13.5 19t34.5 11t46.5 6.5t49.5 4.5t44.5 4t30.5 6q26 43 49.5 80.5t41.5 75.5t28.5 81t10.5 97q0 15 -2.5 29.5t-10.5 28.5q-12 10 -24.5 20.5t-26 19.5t-28.5 15t-31 6q-15 0 -32 -7t-33 -17t-30.5 -22t-24.5 -22
q15 -17 23.5 -37.5t8.5 -43.5q0 -41 -21 -74t-52 -56q-14 -2 -29.5 -4.5t-29.5 -2.5q-52 0 -77 18t-25 69q0 46 22 85t58 69.5t82.5 53.5t95.5 38.5t96.5 23t86.5 7.5q20 0 47.5 -5.5t57.5 -16t59.5 -25.5t52.5 -33t37.5 -39.5t14.5 -45.5v-5q6 -17 9.5 -34t3.5 -35z
M720 1274l-22 16l-13 -9l17 -19zM758 1208q-3 10 -12.5 24t-19.5 17l28 -47zM777 1179q2 -11 5 -21.5t8 -21.5l6 15q-2 8 -7 15.5t-12 12.5zM265 1160l-18 5l-20 -12l-1 -6l2 -21zM671 1025l-3 103q-7 -26 -9.5 -54t-0.5 -54zM689 890q14 8 26.5 22t15.5 30
q-17 -2 -28 -19.5t-14 -32.5zM579 654q3 6 5.5 13t2.5 14t-3.5 16.5t-9 19t-12.5 16.5t-14 9l-1 -4zM701 618q-5 29 -23 52l-2 -22q0 -12 5.5 -21t19.5 -9zM721 591l2 11l-25 9q2 -6 7 -12t12 -8h4zM678 362q19 37 29.5 79t10.5 84q-16 -35 -26.5 -71.5t-26.5 -71.5z
M202 434q2 7 7 19.5t5 18.5q0 15 -9 27l-15 -23l-1 -12q0 -8 2.5 -16.5t10.5 -13.5zM191 392l-14 21l-7 -16l5 -25zM594 224l44 52l-5 52q-8 -24 -22 -50t-32 -45zM484 154q-26 -11 -52.5 -29.5t-50.5 -35.5q11 2 27.5 8t32.5 15t28.5 19.5t14.5 22.5z" />
    <glyph glyph-name="four" unicode="4" horiz-adv-x="839" 
d="M616 373q-20 -65 -20 -133q0 -30 6.5 -60t21.5 -57q12 0 25.5 -2.5t24 -7.5t17.5 -15t7 -25q0 -21 -8 -34.5t-21 -21.5t-29.5 -11t-33.5 -3q-18 0 -49.5 2t-65 2.5t-64 -1t-46.5 -7.5q-4 -6 -5.5 -10.5t-4 -7t-6.5 -3.5t-13 -1q-15 0 -16 5.5t-4 17.5l-115 7h-26.5
t-40.5 2t-37 6.5t-16 15.5q0 31 11 43.5t28 16t38 4.5t42 10.5t39.5 32.5t29.5 72q5 8 10 24.5t9 36t8 38t8 29.5l-46 10t-46 5q-51 0 -100 -8.5t-100 -8.5q-4 0 -15 0.5t-22.5 2t-20.5 5.5t-9 10q0 21 19 59.5t51.5 88t74.5 106.5t87.5 116t92 117t86.5 108t71.5 90
t47.5 63l-3 -1q11 17 32 50.5t45.5 67t51 58.5t49.5 25q31 0 45.5 -17t14.5 -46q0 -121 -13 -241t-35 -238q-7 -36 -17 -71.5t-19.5 -71t-16 -72t-6.5 -74.5v-2h36t49 -3.5t43.5 -12t18.5 -25.5q0 -37 -18 -46.5t-53 -9.5zM542 1063q-11 -13 -19.5 -27t-17.5 -28
q8 -9 11 -20.5t3 -22.5l-1 -13q0 -2 -1.5 -6t0.5 -4l7 6l22 105zM603 850q4 12 5.5 24t3.5 25l-3 6q-5 -9 -8.5 -19t-4.5 -21zM328 434q4 51 14 101.5t21 101t19.5 101t10.5 101.5q-29 -37 -57.5 -73.5t-56.5 -74.5l1 1l-165 -249q22 -10 45 -13t46 -3q30 0 61 2.5t61 4.5z
M581 701q5 7 9 21.5t7 31.5t5 33t3 26l-9 10q-5 -8 -9 -17.5t-6 -19.5l3 -6q-3 -4 -10 -10.5t-8 -11.5q8 -33 3.5 -65t-12.5 -64h6q6 14 9.5 22t5.5 14.5t2.5 14t0.5 21.5zM542 563q20 8 23 33h-6q-14 -12 -17 -33zM514 468q11 7 17.5 20.5t6.5 26.5l-2 18l-22 -32l-2 -18z
M57 421q-4 2 -8.5 4.5t-9.5 2.5q-14 -5 -15 -21t-2 -28zM473 192q16 38 24.5 69.5t15.5 72.5l-12 15q-7 -34 -16.5 -67.5t-19.5 -66.5zM325 135l-12 16l-12 -9l16 -19zM520 74q3 0 7 1.5t7 2.5l-1 14q-7 14 -13 27.5t-11 27.5q-2 -9 -3 -18.5t-1 -18.5q0 -3 0.5 -9t2 -12
t4.5 -10.5t8 -4.5zM279 83q0 12 -7 19h-3q-13 -16 -16 -36l26 14v3z" />
    <glyph glyph-name="five" unicode="5" horiz-adv-x="817" 
d="M755 528q0 -79 -33 -145t-84 -121.5t-113.5 -102t-122.5 -85.5q-23 -4 -46.5 -9.5t-45.5 -16.5q-17 0 -33.5 -3.5t-33.5 -3.5q-23 0 -39.5 3.5t-31 8.5t-30 11t-34.5 11q-30 21 -47 33t-27 20t-15 15.5t-10 19t-13.5 31t-25.5 51.5l-14 11q-2 23 -8 45.5t-6 45.5
q0 24 10 48t26.5 43t39 31t47.5 12q19 0 40.5 -1t39.5 -7t30 -20t12 -39q0 -23 -7.5 -48.5t-21 -48.5t-33 -40t-43.5 -22l-1 -9q0 -34 16 -58t40.5 -39.5t54 -23.5t55.5 -9q30 9 58.5 44.5t54.5 85t48 108t38 115.5t25 106t9 80q0 16 -5 35.5t-14.5 36.5t-23.5 28.5
t-32 11.5q-31 0 -64 -16.5t-65.5 -40.5t-61.5 -50.5t-51 -45.5l-33 -3q-2 0 -10.5 2.5t-18 6t-17 7.5t-7.5 7q0 5 4.5 22t11 37.5t13 39.5t10.5 27l-1 -1l215 568q4 1 12.5 3l17 4t16 3.5t11.5 1.5q15 0 25 -15t27.5 -32.5t48 -32.5t86.5 -15q55 0 91.5 11t61 27.5
t40.5 35.5t29.5 35.5t27.5 27.5t35 11q19 0 26 -14.5t7 -30.5q0 -41 -22.5 -86t-56.5 -86t-74 -73t-76 -46q-25 -10 -49.5 -14.5t-48.5 -6.5l-48 -4t-49 -6q-8 2 -17 5.5t-14 10.5q-24 2 -47 9t-45 18q-35 -66 -59 -136t-45 -142q41 12 71 23t59 19.5t62 13.5t80 5
q40 0 70 -5t54.5 -17.5t47 -32.5t48.5 -50l-1 -1q10 -12 19 -25.5t16 -27.5l2 -36q0 -32 -7 -64.5t-7 -63.5zM455 1237q-11 5 -27.5 14t-27.5 9h-5q10 -14 27 -18.5t33 -4.5zM360 1211q-6 13 -20 16q-5 -12 -13.5 -32t-8.5 -32q0 -5 3 -11t7 -10l10 12q-3 18 0 37l18 11z
M504 1220l-28 6q14 -15 27 -26zM728 1211q-4 3 -10 5.5t-11 2.5h-6l20 -15zM570 1141l10 16q-3 8 -6.5 10.5t-11.5 4.5l-14 -4l-7 -15q0 -9 7.5 -20.5t12.5 -18.5l6 -3l8 19zM744 1162l-23 10h-12l10 -10h25zM512 793q-10 -1 -19.5 -2t-19.5 -3l30 -16zM692 722q0 8 -5 16
t-12.5 14.5t-15.5 11t-15 6.5q7 -15 16.5 -29.5t23.5 -23.5l8 2v3zM554 717l-27 16l-3 -16q3 -17 5 -33t4 -33l7 -2l-1 15q2 8 7 14.5t10 11.5zM721 657q-7 16 -7 30q-5 -12 -6.5 -24t-2.5 -25zM570 590q-2 5 -5 8.5t-8 4.5l-1 1l-4 -25zM690 602l-10 -11l5 -15l7 19z
M710 504q1 14 1 28.5t-2 28.5l6 19l-2 11l-8 -4l-16 -61zM684 558h-8l-5 -17l5 -15l7 15zM505 455q11 10 13.5 26t5.5 30l-23 -30zM668 418l8 47q-6 -11 -10 -23t-7 -24h9zM507 438q0 5 -6 7.5t-9 3.5q-2 -3 -2 -7v-8l1 -12zM39 348q2 15 5.5 23.5t8.5 14.5t12.5 11.5
t18.5 15.5l-14 10q-30 -31 -31 -75zM123 411q-8 -27 -24.5 -48t-33.5 -43q29 6 49.5 28.5t27.5 50.5zM490 392q-3 2 -11 2q-2 -2 -4 -4.5t-3 -5.5q6 0 9.5 2t8.5 6zM499 372q-11 -4 -21.5 -5.5t-21.5 -2.5l-1 -13v-4.5t1 -5.5l-20 -27q12 1 21.5 7t11.5 19q3 3 8 5t9 4
q2 6 5.5 12t7.5 11zM639 362h-9l-14 -13l12 -3zM563 293q-11 -20 -17 -39.5t-12 -40.5q14 10 25.5 23t13.5 30z" />
    <glyph glyph-name="six" unicode="6" horiz-adv-x="885" 
d="M927 1217q0 -38 -13 -73t-37 -61.5t-57.5 -42.5t-73.5 -16q-26 0 -42.5 7t-25.5 19.5t-12.5 31t-3.5 42.5q0 34 8.5 54t23 34t34 26.5t41.5 30.5q-4 19 -22 27.5t-41 11t-46 2.5t-38 3q-18 -5 -37.5 -29t-39 -59.5t-37.5 -77.5t-33.5 -82t-27.5 -74t-19 -53q19 2 37.5 7
t37.5 5q22 0 53 -3t62.5 -10.5t58.5 -20t41 -31.5q26 -3 51 -28t44.5 -58.5t31 -69t11.5 -58.5q0 -16 -6 -46t-15 -66t-20.5 -75.5t-23.5 -74t-23 -62t-18 -39.5q-23 -37 -46 -62.5t-48.5 -46t-55.5 -39.5t-66 -41q-23 -14 -48 -28t-52 -25.5t-55 -18.5t-55 -7
q-36 0 -76.5 11t-76 32t-61 52t-32.5 70q-15 21 -24.5 46t-14.5 51t-6.5 53t-1.5 52q0 31 6 77.5t16 100.5t23 111.5t28.5 109.5t32 94.5t32.5 67.5h-2q53 89 107 166t120.5 134t150 89.5t195.5 32.5q50 0 91.5 -25.5t59.5 -73.5q36 -31 36 -74zM348 1076q9 7 23.5 29
t27.5 47.5t22.5 49.5t9.5 37l-1 12q-8 -23 -19.5 -44t-23.5 -42t-22.5 -43t-16.5 -46zM875 1196l-6 22l-3 2l-13 -19zM850 1167q-16 -14 -31 -28.5t-26 -32.5l8 -1q21 0 36 14.5t15 35.5zM219 862q-14 -8 -25 -18.5t-14 -26.5l4 -11zM392 827q-14 -83 -33 -162.5t-36.5 -159
t-30.5 -161t-15 -167.5q15 -6 28.5 -12.5t26.5 -12t27 -9.5t31 -4q22 0 44 35.5t42 90.5t37 121t29.5 126t19.5 106.5t7 63.5t-0.5 46.5t-6.5 58.5t-19.5 50.5t-38.5 21.5q-31 0 -59 -6t-53 -26zM760 747l5 49l-17 11l3 -60h9zM172 778q-8 -8 -19.5 -25.5t-11.5 -29.5l3 -19
q6 19 12.5 37.5t15.5 36.5zM758 690v20l-8 9l-8 -24l3 -17l3 8zM166 657q-15 -8 -27.5 -23t-12.5 -33q0 -13 7 -29q14 12 24.5 27.5t13.5 34.5zM705 411q3 21 9 41.5t11.5 41t10 41.5t4.5 42l-1 28l13 23l-4 29q-10 -13 -16 -27q-1 -51 -13.5 -104t-26.5 -103zM142 519
l-4 26l-13 -26v-24zM127 399q2 14 3.5 27.5t1.5 27.5l-16 -29l4 -28zM683 388q-6 -31 -18 -61.5t-35 -52.5l7 -5q23 17 36.5 40t21.5 49zM121 378q-5 -9 -8.5 -19t-4.5 -21l7 -15l9 49z" />
    <glyph glyph-name="seven" unicode="7" horiz-adv-x="676" 
d="M863 1302q0 -8 -15 -37.5t-39 -71t-52.5 -88.5t-55.5 -90t-49 -76.5t-32 -47.5l2 1q-28 -30 -62 -64t-64 -71t-50.5 -77.5t-20.5 -84.5q0 -43 -8 -102t-24 -123.5t-41 -128t-59.5 -113.5t-78 -81t-97.5 -31q-17 0 -32 1t-26.5 6.5t-19.5 16.5t-11 31q-11 16 -19.5 27.5
t-8.5 32.5q0 50 23.5 110.5t62 125.5t86.5 131t97 126t94 110.5t77 85.5h-1q58 66 107 142t100 147q-28 -11 -58.5 -17.5t-60.5 -6.5q-18 0 -36.5 6t-36.5 14.5t-35 19t-32 19.5h1q-7 4 -17.5 9t-22 9.5t-23 7.5t-19.5 3q-20 0 -35.5 -16t-28.5 -40t-24.5 -52t-23.5 -52
t-26.5 -40t-32.5 -16q-8 0 -16.5 2.5t-15.5 6.5l-1 21q0 43 5.5 90t18.5 91.5t34 84.5t51.5 70.5t71 48t92.5 17.5q45 0 74 -12.5t48 -31t31.5 -40.5t25.5 -40.5t29.5 -31t43.5 -12.5q39 0 69 13.5t46 52.5q-1 10 -1 19.5t2 19.5q14 8 31 13t34 5q19 0 37 -10t18 -32z
M420 1312l-37 21l-4 -21l30 -20zM277 1285q-14 -6 -23 -12.5t-15.5 -14t-11.5 -17.5t-12 -23l9 2q14 14 26.5 32t26.5 33zM194 1132q5 18 10 32.5t7 33.5q-14 -18 -21 -39zM684 1170l-5 19l-32 -13l-2 -12zM350 462q14 22 18 47.5t9 50.5q-17 -5 -25 -18t-8 -30q0 -13 2 -25
t4 -25zM262 494q-8 -4 -10.5 -7.5t-6.5 -10.5q10 6 17 18zM266 211q29 42 49 88.5t20 98.5v21q-14 -18 -23 -44t-16.5 -55t-14 -58t-15.5 -51zM278 203q-12 -7 -17.5 -16.5t-8.5 -22.5q8 8 14.5 18t11.5 21zM230 158q-5 -2 -13 -6.5t-10 -9.5q-1 -2 -2 -5t1 -3h7l17 10v14z
M140 111l-37 -27l28 -24z" />
    <glyph glyph-name="eight" unicode="8" horiz-adv-x="909" 
d="M833 444q0 -58 -18.5 -114t-51 -106t-77 -92t-96 -73t-108 -48t-113.5 -17q-73 0 -135.5 6.5t-108.5 32t-72 75.5t-26 138q0 46 10 82t27 68.5t39 64.5t46 70q1 4 20 23t43 40t45 39.5t26 22.5q-24 7 -52 19t-53.5 28t-45.5 37t-28 48q3 17 -2 33.5t-8 33.5
q15 40 17.5 67.5t5 52.5t12.5 53t41 70h-1q30 40 72.5 85t92.5 82.5t104.5 62t107.5 24.5q45 0 84 -13t74 -34.5t66.5 -49.5t61.5 -58q3 -19 11.5 -35.5t17 -32t15 -32.5t6.5 -36l-1 -42q-6 -11 -8 -23.5t-4 -24.5q-6 -30 -26.5 -63t-48 -64.5t-57.5 -58.5t-54 -44
q0 -5 7.5 -13t17 -16t19.5 -15.5t14 -12.5q13 -16 25.5 -29.5t23.5 -28t19 -31t13 -37.5h-1q12 -57 12 -114zM542 796q49 24 85 46.5t59.5 51.5t35 68t11.5 98q0 26 -12.5 57.5t-33.5 59t-48 46t-56 18.5q-30 0 -57.5 -3t-58.5 2q-23 -9 -41.5 -42.5t-32 -74t-21 -80.5
t-7.5 -62q0 -40 13.5 -71.5t37.5 -55t56 -38t70 -20.5zM768 1157q6 -22 16 -40l6 13q-5 19 -22 27zM226 1002q6 33 18.5 63t30.5 59q-19 -9 -34.5 -20.5t-15.5 -34.5q0 -17 2 -33.5t-1 -33.5zM815 1038l4 49l-17 11l4 -60h9zM812 1001l-7 9l-9 -24l1 -34l13 12zM191 957
q0 -12 1.5 -25t3.5 -25l15 61l-9 12q-4 -4 -7.5 -11t-3.5 -12zM209 832q0 11 -3 21.5t-7 21.5l-9 -19q2 -11 6.5 -21.5t10.5 -19.5zM570 708q0 7 -4.5 12.5t-10.5 8.5l-5 -4q2 -7 5.5 -13.5t10.5 -9.5h3zM666 628q-2 14 -9.5 24.5t-22.5 10.5l-16 -16l14 -16q17 0 34 -3z
M771 460q0 38 -12 68.5t-29 65.5l-11 -34q9 -9 16.5 -24t14 -32.5t11 -34.5t7.5 -29l3 6v14zM395 579q-9 -4 -28.5 -15.5t-39 -25.5t-34 -28.5t-11.5 -25.5q-19 -23 -33.5 -60t-24.5 -76.5t-15.5 -77.5t-5.5 -64q0 -9 1.5 -23t6 -27t13 -22.5t21.5 -8.5l8 -23
q19 -8 39.5 -10.5t40.5 -2.5q53 0 101 19t84 52t57 79t21 100q0 49 -15.5 86t-43 65.5t-64 49.5t-78.5 39zM779 387l-1 20l-7 9l-8 -24l3 -17l3 8zM93 328q2 9 2.5 18.5t0.5 19.5v21q-4 -8 -7.5 -18t-3.5 -19q0 -14 8 -22zM87 231q4 10 8 20.5t4 21.5q0 6 -2.5 12t-5.5 11
l-15 -23l-2 -15q0 -8 3 -15t10 -12zM110 179l-13 21l-8 -16l6 -25z" />
    <glyph glyph-name="nine" unicode="9" horiz-adv-x="886" 
d="M886 924q0 -134 -35 -267t-102.5 -249t-167.5 -207t-229 -140h3q-26 -11 -53 -17.5t-55 -6.5q-27 0 -73.5 10t-91.5 28.5t-78 45t-33 60.5q0 28 16.5 65.5t42.5 71t58 57t63 23.5q16 0 33 -9t31 -22.5t23.5 -30t9.5 -32.5q0 -17 -8.5 -42t-20.5 -50.5t-25.5 -48
t-24.5 -33.5q12 -8 26.5 -13.5t28.5 -5.5q32 0 62 24.5t57.5 64t52 88t45.5 96.5t37.5 90.5t28.5 69.5q-17 -5 -38 -8.5t-43 -6.5t-43 -4.5t-39 -1.5q-47 0 -83.5 10.5t-63.5 32t-47 54t-34 76.5l1 -1q-25 51 -25 106q0 51 5 101.5t15 100.5q2 9 9.5 25.5t17 34t19 33
t15.5 21.5q42 45 89 90t100.5 81.5t112.5 59.5t125 23q28 0 57 -3t55 -13t47 -27.5t33 -46.5h-1q29 -47 47.5 -87.5t29 -82t14.5 -87t4 -100.5zM420 620q28 0 56.5 5.5t57.5 7.5q14 24 27.5 67.5t25 96t21 111t16 113t10 100.5t3.5 75q0 17 -1 34.5t-9 32.5q-6 5 -19 13
t-21 8q-31 0 -60.5 -34t-55.5 -87.5t-48 -119t-37.5 -127.5t-24.5 -114t-9 -78q0 -23 1.5 -45t6.5 -44q13 -9 29 -12t31 -3zM739 1205q0 -9 0.5 -18t2.5 -17l17 26l6 4l1 8q0 14 -7 24.5t-18 18.5zM238 1058q19 33 45 65.5t41 65.5q-32 -26 -62.5 -63.5t-49.5 -73.5z
M791 1072l14 11l-1 9l-10 2zM815 992q0 16 -6 30.5t-17 26.5q0 -17 7 -35t15 -34zM167 903q14 35 30.5 69t36.5 66q-18 -21 -43 -38q-8 -21 -16 -47.5t-8 -49.5zM818 872q0 18 -2.5 36t-0.5 36q-14 -31 -14 -64q0 -20 10 -42q3 9 5 17t2 17zM673 915q-13 -14 -20 -29t-7 -34
v-10.5t2 -10.5q8 20 14.5 41t10.5 43zM163 842q0 -9 3 -23.5t7.5 -29.5t10 -28.5t10.5 -20.5q-2 30 -6.5 66.5t-15.5 65.5q-2 -5 -5.5 -15t-3.5 -15zM790 673h9l13 57l-18 56zM735 526l41 34l9 57h-5zM156 214l-55 -16q-6 2 -13 2t-13 -2l9 -19q12 -1 23.5 -2.5t23.5 -3.5
q8 5 14 13t11 16v12zM386 118q29 5 50 29q-18 0 -31.5 -5t-18.5 -24z" />
    <glyph glyph-name="colon" unicode=":" horiz-adv-x="515" 
d="M372 596q0 -28 -2.5 -58t-13 -54.5t-32.5 -40.5t-62 -16q-11 0 -18 1.5l-14 3t-15 1.5t-20 -2l-9 10q-18 0 -30 9.5t-19 23.5t-10 30.5t-3 31.5q0 24 13.5 52.5t34.5 52.5t47 40.5t51 16.5q54 0 78 -23.5t24 -78.5zM326 600q9 -22 12 -47q7 0 7.5 5.5t0.5 10.5
q0 11 -2.5 21.5t-8.5 19.5zM310 527l-13 21l-8 -16l6 -25zM309 157q0 -22 -5 -42t-13 -40l-29 -11q-9 -14 -21 -26t-25 -23q-22 -5 -39 -5q-26 0 -55 7.5t-52 18.5l-14 23l-3 31q0 32 12.5 66t34.5 61.5t52 45t65 17.5q24 0 41.5 -11.5t29 -29.5t16.5 -39.5t5 -42.5z
M234 194l-3 38l-9 -26l11 -22zM255 158l-11 -16v-6q0 -15 10 -28q3 7 5.5 13.5t3.5 14.5z" />
    <glyph glyph-name="uni003B" unicode=";" horiz-adv-x="515" 
d="M270 698q54 0 78 -23.5t24 -78.5q0 -28 -2.5 -58t-13 -54.5t-32.5 -40.5t-62 -16q-11 0 -18 1.5l-14 3t-15 1.5t-20 -2l-9 10q-18 0 -30 9.5t-19 23.5t-10 30.5t-3 31.5q0 24 13.5 52.5t34.5 52.5t47 40.5t51 16.5zM338 553q7 0 7.5 5.5t0.5 10.5q0 11 -2.5 21.5
t-8.5 19.5l-9 -10q9 -22 12 -47zM310 527l-13 21l-8 -16l6 -25zM114 276q21 0 41.5 -12.5t37 -31.5t27 -41.5t10.5 -41.5t-8 -36t-16 -33q-8 -41 -40 -79.5t-75 -69.5t-90 -52.5t-86 -27.5q-5 5 -12.5 14t-7.5 17q0 11 11 20.5t26 18t31 16t25 13.5q12 17 23.5 33t19.5 36
q-24 10 -37 16t-19 11t-7 10t-2.5 14t-4.5 23t-13 37q5 22 23 47.5t42 47.5t51 36.5t50 14.5zM157 219q2 -16 5 -32t9 -30q6 12 6 26q0 26 -16 42zM33 157q0 11 -3 20l-9 -9q3 -10 11 -18zM182 131q-14 -5 -18.5 -18.5t-5.5 -25.5q5 0 9 -3t9 -3l2 8z" />
    <glyph glyph-name="less" unicode="&#x3c;" horiz-adv-x="650" 
d="M600 823q-79 -42 -160.5 -79t-158.5 -82q15 -9 31 -12q7 -6 26.5 -18.5t44.5 -28.5t52 -34.5t49 -35.5t36.5 -31t14.5 -22q0 -9 -12.5 -25.5t-29 -32.5t-33.5 -28t-26 -12q-11 3 -21 10.5t-19.5 16.5t-18 18t-16.5 16q-23 20 -49 36.5t-53 32.5t-53 33t-49 38
q-12 3 -26.5 10.5t-27.5 18t-21.5 23.5t-8.5 27q0 13 15.5 28.5t39.5 31.5t53.5 31t56.5 28.5t48.5 23.5t30.5 15q23 3 58.5 21t71.5 39t66 37.5t43 16.5q10 0 19 -11.5t16 -27.5t11.5 -31.5t5.5 -22.5z" />
    <glyph glyph-name="equal" unicode="=" horiz-adv-x="650" 
d="M623 820l-5 -27.5t-7 -34t-9 -33t-10 -24.5q-85 -10 -172.5 -7t-174.5 3l-134 2q-3 12 -5 24t-2 25q0 18 6 37t11 37l-2 11q53 0 106 0.5t105 -3.5q3 -3 16 -3t28.5 0.5t31 0t24.5 -3.5q47 2 97.5 5t95.5 -9zM582 589l-5 -27.5t-7 -34t-9 -33t-10 -24.5
q-85 -10 -172.5 -7t-173.5 3l-135 2q-3 12 -5 24t-2 25q0 18 6.5 37.5t11.5 36.5l-2 14q10 0 19.5 -2t18.5 -4q41 5 85.5 4t86.5 -4q5 -3 17.5 -3t27.5 0.5t30 0.5t25 -4q46 2 97 5t96 -9z" />
    <glyph glyph-name="greater" unicode="&#x3e;" horiz-adv-x="650" 
d="M140 841q4 8 14 23.5t22 31t25 27t23 11.5l10 -2q10 -6 35.5 -24t55 -36.5t57 -34t41.5 -17.5q7 -5 24 -15.5t38.5 -23.5t44 -28t41.5 -29t31 -27t12 -21q0 -17 -12.5 -32.5t-30.5 -28t-38 -21t-34 -11.5q-6 -5 -24.5 -16t-44 -26t-56.5 -32.5t-62 -35.5
q-73 -41 -162 -91q-11 0 -22.5 11t-22 26t-17 30.5t-6.5 24.5q0 10 21 26t53 35t71 39.5t74 38.5t62.5 31t37.5 18l-55 41q-15 4 -43 19.5t-59 34.5t-60 37.5t-44 28.5v18z" />
    <glyph glyph-name="question" unicode="?" horiz-adv-x="804" 
d="M812 1012q0 -39 -20.5 -89t-51 -100t-64.5 -94t-61 -70l4 1l-166 -240l-34 -3q-5 0 -17.5 1t-25.5 3.5t-23 7t-10 10.5q0 9 4 18t8 17q-2 22 8 46t25 48t31 46t28 39l-2 -1q29 40 48.5 92.5t31 109t16 113t4.5 105.5q0 23 -6 64.5t-19.5 82t-35.5 70.5t-53 30
q-45 0 -81.5 -25.5t-62.5 -64t-40 -83.5t-14 -84v-17q58 3 79 -22t21 -83q0 -43 -21 -81.5t-46 -71.5q-23 -6 -47 -8.5t-48 -2.5q-40 0 -66.5 16t-26.5 60q0 68 11 135t33.5 128.5t58 114t84 91.5t111.5 61t141 22q53 0 99 -28q35 -2 63 -21.5t49.5 -51t37.5 -70.5t26 -78.5
t15 -77t5 -65.5zM688 1055q2 11 2 21v21v15t-2 15l-22 15v-2q0 -18 8 -42.5t14 -42.5zM260 1015l-21 -4v-4q0 -13 7 -27q12 10 20 25zM730 1003l-9 -39h7l5 15zM276 977l-14 -16l8 -17l8 13zM663 813q3 31 11 58t8 59l-1 31l-5 3q-2 -29 -12 -55.5t-10 -53.5q0 -23 9 -42z
M720 883q5 16 8 25.5t2 26.5q-5 -12 -7.5 -25.5t-2.5 -26.5zM469 224q0 -41 -7 -74.5t-24.5 -57.5t-47 -37.5t-73.5 -13.5l-128 70q5 40 17.5 78t34 68t55 48.5t80.5 18.5t70 -27.5t23 -72.5zM372 242q-17 -5 -36.5 -14.5t-30.5 -24.5q21 0 39 4.5t35 16.5z" />
    <glyph glyph-name="at" unicode="@" horiz-adv-x="1935" 
d="M1862 898q-15 -91 -48.5 -177t-83 -162t-113.5 -140t-140.5 -109.5t-164.5 -71t-185 -25.5q-30 0 -60 9.5t-55 27t-40.5 43.5t-15.5 59l1 10q-20 -9 -53 -15.5t-68.5 -10.5t-69.5 -5.5t-57 -1.5q-41 0 -66.5 4.5t-44 15.5t-35.5 30.5t-42 49.5q-3 7 -5.5 22.5t-4 33.5
t-2.5 34t-1 25q0 40 13.5 82t35 82.5t48.5 76.5t53 65q13 14 29.5 24t33.5 18.5t34 17.5t32 22l38 7h-3q36 10 77 10q37 0 80.5 -8t86.5 -21.5t83 -32.5t70 -41l4 12l-7 37q4 3 11 6.5t14.5 7t15 5.5t11.5 2l15 -1q47 18 90 41.5t88 43.5l18 1q10 0 15.5 -3t9.5 -7.5
t7.5 -10t10.5 -9.5q-9 -9 -29.5 -37t-48 -68t-59.5 -88.5t-64 -100t-62 -102.5t-53 -95t-36.5 -78t-13.5 -51q0 -12 5 -21.5t19 -9.5q47 0 98 30t99.5 78t92 109t76.5 123t52 120t19 101q0 56 -20 99.5t-54 76.5t-78.5 56.5t-93.5 38t-99.5 21t-96.5 6.5q-63 0 -128.5 -14.5
t-130 -38t-125 -53t-114.5 -60.5h1q-34 -20 -70.5 -58t-71.5 -87t-67 -105t-56 -111.5t-38 -107.5t-14 -92q0 -66 18.5 -122t54 -97t88 -64.5t120.5 -23.5q23 0 42.5 -9.5t42.5 -9.5q44 0 88 8.5t87.5 18t87.5 18t89 8.5q30 0 57.5 -6.5t48.5 -20.5t33.5 -37t12.5 -57
q0 -23 -6 -40t-17 -30.5t-26.5 -25t-33.5 -23.5h1q-29 -19 -62.5 -28.5t-68.5 -9.5q-40 0 -62.5 20.5t-22.5 60.5l3 30q12 14 27 28.5t32 26.5t35.5 20.5t36.5 10.5l20 11l-20 12q-21 -3 -54 -13.5t-68 -24t-67.5 -27.5t-54.5 -23h1q-38 -15 -82.5 -22.5t-90 -9.5t-91 -1.5
t-85.5 0.5q-97 0 -166.5 36.5t-114 98t-65.5 141t-21 166.5q0 83 26.5 165.5t74 160.5t112 149.5t140.5 134t160 113.5t170.5 87t172 56t163.5 20q72 0 143.5 -4.5t141.5 -21.5h-1q73 -16 152.5 -44t146.5 -73.5t110.5 -110t43.5 -154.5zM1227 1272l5 18h-31l-8 -47z
M1371 1229l-35 43l-24 -6l16 -27zM1045 1225q13 0 26.5 1.5t26.5 2.5l-51 20l-40 -16q8 -2 19 -5t19 -3zM1463 1214h-39q13 -14 26 -22t27.5 -12t30.5 -5.5t34 -2.5zM1765 920l5 32v1l-8 10q-2 9 -8.5 18.5t-17.5 9.5h-4l-1 -16l22 -55h12zM953 860l-39 47l-16 -12z
M1320 872l-21 -4v-4q0 -13 7 -27q14 12 19 25zM998 480q19 41 36.5 78.5t36 73t41 71t51.5 72.5q-10 22 -27.5 34.5t-39.5 19t-45 8.5t-44 2q-51 0 -91 -25.5t-68.5 -64.5t-43.5 -86.5t-15 -91.5q0 -32 4 -50t11.5 -28t18.5 -14t23.5 -7.5t27.5 -9.5t31 -19q11 2 24.5 4
t27 6t24.5 10t18 17h-1zM849 835q-14 -3 -25.5 -11.5t-22 -20t-19.5 -24t-18 -22.5q25 8 39 19t27 34q11 1 22 3t20 7zM731 812l-65 -20q0 -6 -3 -15t-7.5 -18t-9 -17t-7.5 -13zM1756 685l32 110h-22q-2 -5 -6 -17.5t-4 -17.5v-75zM262 283l-20 49h-12l5 -49h27zM1185 105
l-14 -16l8 -17l8 13zM444 61l-39 35h-43z" />
    <glyph glyph-name="A" unicode="A" horiz-adv-x="1087" 
d="M989 169q-38 9 -79.5 9.5t-83.5 -2t-84 -6.5t-81 -4q-23 0 -49 2t-53.5 5.5t-54 8.5t-48.5 12l-3 26q0 5 5.5 12t13 13t15.5 10.5t13 4.5l119 -2q2 12 2.5 24.5t-3.5 24.5l5 25l3 -5q-11 30 -13.5 63t-2.5 65q0 18 1 41.5t0.5 47.5t-4 46.5t-12.5 38.5q-25 2 -50 2h-50
q-46 0 -93 -0.5t-92 -10.5v-4q-12 -30 -31.5 -74t-38.5 -91.5t-32.5 -91.5t-13.5 -74q0 -29 11.5 -51.5t36.5 -37.5q6 -1 14.5 -4t16 -7.5t13 -11t5.5 -13.5q0 -11 -16 -18.5t-36.5 -12t-40 -6.5t-25.5 -2h-36.5t-56.5 0.5t-64 3t-60.5 7.5t-45 13t-17.5 21l1 12
q37 21 72.5 46.5t65 57t50.5 69t29 81.5q10 16 21 36t20.5 41t17.5 41.5t11 39.5q35 59 61.5 120.5t56.5 122.5q60 118 122.5 237.5t126.5 235.5q20 36 42.5 68t36.5 72l20 8q10 23 14.5 41t12 30.5t22 19t44.5 6.5q14 0 31.5 -2.5t25.5 -16.5l-2 -12q3 -12 3 -25l-1 -42
l-5 5q8 -17 15.5 -56.5t15.5 -89.5t16 -105.5t16 -104t16 -85t16 -48.5q-1 -30 4 -79t12.5 -101.5t16.5 -102.5t17 -82q6 -27 8.5 -59t2.5 -65.5t-1 -66.5t-1 -61q0 -7 -0.5 -21t-0.5 -29.5t0.5 -28.5t3.5 -19q13 -5 26 -7.5t27 -4.5q15 -14 15 -33q0 -3 -3.5 -9t-8 -12.5
t-9.5 -11.5zM610 1308l1 -31q9 7 19.5 17t12.5 22zM580 1242l-1 -9q0 -10 4 -18l6 12zM598 1198l-6 9h-7l-1 -9h14zM624 1094q8 14 8 29q0 6 -3.5 11.5t-10.5 5.5q0 12 -2 23.5t-3 22.5l-11 -19l-1 -19q0 -15 5.5 -29.5t17.5 -24.5zM630 1055l-5 18h-8l-3 -18h16zM583 715
q-10 90 -26.5 177t-30.5 176q-30 -50 -53 -97.5t-43.5 -92.5t-40.5 -86.5t-43 -79.5q60 -7 121 -8t122 -1zM670 913l4 29h-5l-9 -15l5 -16zM700 805l1 16q0 7 -1.5 19.5t-5 25.5t-10 22.5t-16.5 9.5q-3 0 -3 -6q0 -22 2.5 -44t7.5 -43h25zM813 775q-4 17 -12 34l1 6l12 10
l-14 8l-8 -1l6 -10q-7 -15 -9.5 -31.5t-5.5 -33.5q18 5 30 18zM699 798v-7l1 -18q3 5 4.5 11t3.5 12zM725 682q0 18 -4 39.5t-17 35.5q-2 -5 -4 -9.5t-2 -9.5q0 -14 9 -31.5t17 -29.5zM779 425q-6 -3 -8.5 -9t-4.5 -12l15 13zM777 377l-11 2l-1 -15l1 -16q4 4 7 8.5t5 9.5z
M799 301q-2 22 -15 37l-8 -5q2 -12 3 -24.5t5 -23.5zM812 236q-17 12 -17 29l1 9l-29 -16q-2 -4 -3 -7.5t-1 -8.5q0 -10 8.5 -12.5t16.5 -2.5zM156 201q-7 15 -22 26q0 -9 3.5 -17.5t14.5 -8.5h4zM26 223l-9 -12l-1 -4l11 10z" />
    <glyph glyph-name="B" unicode="B" horiz-adv-x="1225" 
d="M1042 707q27 -13 47.5 -45t34.5 -70t21.5 -77t7.5 -67q0 -13 -3.5 -23t-9.5 -21v1q-11 -20 -17 -44t-16 -45v1q-2 -6 -5 -16.5t-7.5 -21t-10 -18.5t-13.5 -10q-32 -37 -57 -63t-51.5 -45.5t-59 -36t-80.5 -35.5q-23 0 -45.5 -5t-45 -11t-45.5 -10.5t-45 -4.5
q-36 0 -76 10t-78 15l-4 -1h5q-35 -5 -71 -8.5t-72 -3.5q-22 0 -42.5 2t-42.5 -3l2 -5q-11 -4 -23 -6.5t-23 -2.5l-201 3q-6 0 -19 0.5t-27 3t-24.5 8t-10.5 14.5q0 17 17.5 28.5t32.5 15.5h-2q14 3 27 5t27 2q30 0 51.5 25t36.5 67t24.5 97t16.5 116t12 123t10.5 118
t13 101.5t19.5 73.5l-8 14q2 3 8 28.5t14.5 62.5t18 80t18 82.5t15 70t8.5 41.5q-5 11 -5.5 26.5t-2.5 30t-9.5 24.5t-26.5 10q-9 0 -26.5 -4t-34.5 -5.5t-29.5 4t-12.5 23.5q0 25 11.5 34t36.5 14h-1q22 5 43.5 7t44.5 2q57 0 115.5 -3.5t116.5 -8t116 -8t115 -3.5
q35 5 81 -3t95 -25.5t96.5 -44t84.5 -59.5t60 -71t23 -78q0 -74 -15 -125t-45 -87.5t-75.5 -64t-107.5 -54.5q4 -2 19.5 -9t32.5 -14t31 -12.5t16 -5.5zM430 1292l7 11l-17 18l-12 -2l-1 -4l19 -23h4zM498 1319l-7.5 -7.5t-6.5 -8.5l8 -17l7 17zM737 798q24 25 49 58
t44.5 70t32 75.5t12.5 74.5q0 100 -54 155t-154 55h3q-14 4 -27 7.5t-27 5.5l-1 -28l-19 -34q-2 -27 -8.5 -63t-14 -72.5t-12 -68t-1.5 -49.5h-1l1 -10q-12 -16 -18 -34.5t-9 -38t-5.5 -39t-8.5 -38.5l50 2h-1q25 3 46.5 4.5t46.5 -2.5l11 -17q16 -4 32 -7.5t33 -5.5z
M515 1223q4 5 6.5 10.5t4.5 11.5l-11 -5v-17zM381 1227q-1 -17 -7 -31t-14 -28q4 -11 3.5 -23t-1.5 -23q12 15 18.5 35t6.5 39q0 17 -6 31zM452 1173l-7 14l-13 -19v-10l1 -23zM982 1136q0 -11 3.5 -21.5t7.5 -20.5q4 10 4 15q0 21 -14 40zM905 1028h4l2 14h-4zM427 1028
h-10l-6 -13h6zM889 831q38 34 63 80t25 98l-1 10l-5 5q-16 -48 -36.5 -98t-45.5 -95zM1006 932q-4 -16 -8 -31t-9 -31l22 15l1 7zM416 807l-11 29l-25 -89l5 -2zM840 811l-1 10l-12 -2q-3 -4 -5 -14zM616 157q49 37 84 76.5t57 84t32 97t10 116.5q0 49 -11 82.5t-32.5 56
t-54.5 37.5t-78 27l-7 -2q-10 5 -21 7t-22 2q-13 0 -26.5 -2.5t-26.5 -5.5q-2 -26 -4 -56.5t-5.5 -61.5t-8.5 -60.5t-13 -53.5q3 -38 -1 -76t-10 -75.5t-11 -75.5t-5 -76v-27t5 -26q7 2 22 7t20 5q28 0 53.5 -2.5t53.5 2.5zM365 611q9 23 18.5 48t12.5 49h-14zM874 683
q0 7 -10 7h-2q2 -4 5.5 -6t6.5 -4v3zM255 628l12 55h-6l-7 -13zM947 512q0 6 -2 19.5t-4.5 28t-6 26.5t-7.5 14l-6 -12q5 -14 8.5 -28.5t3.5 -29.5q0 -8 -1 -14.5t-2 -14.5l10 -5zM361 547l3 -44l7 51l-6 3zM932 449q3 9 4.5 18t3.5 18l-17 -24zM1019 371q9 15 15 33.5
t6 35.5q0 16 -3 31q-3 -5 -7 -12.5t-8 -15.5t-6.5 -16t-2.5 -13q0 -11 1 -22t5 -21zM364 393q-8 -12 -11.5 -27.5t-3.5 -29.5q0 -4 1 -10.5t3.5 -13t6 -11t9.5 -4.5h2l1 35q0 15 -1.5 31t-6.5 30zM828 338q11 8 13.5 17.5t3.5 22.5l-13 -20zM300 195q-4 3 -5.5 8t-0.5 10
l-3 -8l2 -18zM376 129q-5 3 -8 10t-5.5 16t-4 17.5t-2.5 13.5q-5 -9 -9 -20t-4 -22q0 -7 2.5 -14t8.5 -11zM725 119q7 1 27 5.5t40 10.5t36 13.5t16 13.5l-1 6q-14 -2 -28 -1.5t-24 13.5q-15 -15 -32 -28t-36 -23zM267 113q5 3 14 10t9 14l-2 18q-9 -8 -17.5 -18.5
t-13.5 -21.5l6 -2h4zM654 98l-29 17l-7 -15z" />
    <glyph glyph-name="C" unicode="C" horiz-adv-x="1122" 
d="M1190 1396l3 4q-12 -58 -26.5 -115l-29 -114t-27.5 -115t-21 -117v1q-2 -20 -5.5 -37t-11.5 -29.5t-22.5 -20t-38.5 -7.5q-23 0 -30 15t-12 34v-1q-1 6 -2 12.5t-1 12.5q0 27 6 54t16 53q-6 49 -9 98t-17 91t-45 73.5t-92 45.5l-34 8l-18 2h-7q0 2 -2 2q-23 -5 -43.5 -17
t-43.5 -18h2q-57 -18 -89.5 -56t-53 -86t-34 -102t-32.5 -105l2 3q1 -39 -10 -86.5t-24.5 -99t-25 -106.5t-11.5 -109q0 -24 7.5 -61t21.5 -79t33.5 -84t43 -76t51 -55.5t56.5 -21.5q26 0 50.5 8t46.5 22q28 4 55.5 25.5t52.5 53.5t46.5 71t38.5 78t28 75t16 61h-1
q10 22 16 48t15.5 48.5t26 38t48.5 15.5q14 0 23 -3.5t9 -19.5q0 -46 -14 -107t-37 -122.5t-52.5 -117t-59.5 -90.5v1q-7 -6 -24 -22t-35.5 -33.5t-34.5 -31.5t-21 -16q-17 -7 -37.5 -15t-42 -16.5t-41 -18t-32.5 -20.5q-37 0 -77 -8h1q-17 -3 -35 -5.5t-36 -2.5
q-54 0 -103.5 14.5t-95.5 38t-88 54t-81 62.5q-16 21 -30 58.5t-24.5 79.5t-16.5 82t-6 66q0 74 10 161.5t34 172t64.5 158.5t101.5 122l-7 -2q48 57 99.5 108.5t119.5 84.5h13q33 27 78 42t85 29q26 -2 52.5 -1t53 3l53 4t52.5 2q24 0 51.5 -8.5t53 -23t46 -34.5t30.5 -42
q8 14 13 31t8.5 35t7.5 35.5t11 33.5v2l30 9h-3l20 2q8 0 19 -2.5t21 -7.5t17.5 -12.5t8.5 -16.5zM349 1061h5l3 20h-5zM338 1055q-5 -9 -6 -20t0 -21l7 2l9 26zM184 637q6 35 9.5 72.5t8 74.5t11.5 73.5t20 69.5l-4 4l-7.5 -12.5t-8.5 -15.5t-7.5 -16t-3.5 -13l8 -20
l-14 -12q0 -18 -1 -37t-7 -36l2 -13l-15 -19l3 2q-2 -28 -7.5 -56t-10.5 -56zM228 688l-9 -26h6l7 26h-4zM257 381q-8 10 -8.5 21t1 21t2.5 19t-5 17q3 13 6.5 25.5t3.5 26.5t-5.5 28t-17.5 22q-2 -10 -7 -17.5t-10 -15.5l4 -10q-1 -10 -1.5 -34t2.5 -49t10 -44.5t21 -21.5z
M357 166q3 0 6.5 1.5t6.5 2.5l-1 16q-9 0 -17.5 6.5t-15.5 15.5t-12 19t-6 18l-12 1q1 -12 3 -26t7.5 -26t15 -20t25.5 -8zM413 164q-7 -8 -8 -17h17l7 5z" />
    <glyph glyph-name="D" unicode="D" horiz-adv-x="1286" 
d="M1255 683q0 -20 -4.5 -43.5t-11.5 -48t-15 -47.5t-15 -41h1q-28 -83 -70.5 -146.5t-96.5 -116t-118 -97.5t-135 -89h-21.5t-21.5 2q-18 -8 -36.5 -11t-38 -6t-39 -7.5t-37.5 -14.5l-16 -1h-68t-63 -1.5t-63.5 -5t-68.5 -10.5q-45 10 -92.5 10t-95.5 -0.5t-95.5 3
t-92.5 20.5q-5 13 -7 27l-4 28q18 10 38 10q21 0 44.5 -3t44.5 -7q8 20 12.5 37.5t2.5 40.5h1q-1 5 3.5 28t11.5 54t15 66.5t15.5 65t12.5 49.5t6 21q1 8 2 21.5t3 27t5.5 26t9.5 18.5q9 56 23 121t27 132.5t22 134t9 125.5v2q6 13 10.5 30.5t8 36t5.5 36.5t4 33
q-10 1 -23.5 2.5t-28 3.5t-27.5 5.5t-21 8.5q2 8 4.5 17.5t0.5 17.5q15 5 31.5 10t32.5 5q33 0 65 -7.5t65 -9.5q54 -4 119.5 -5.5t135 -4.5t140.5 -10t136.5 -22t123.5 -40.5t101 -64.5q18 -38 42.5 -72t50.5 -67v1q15 -67 28 -138t13 -140zM363 1149q2 11 6 21.5t6 21.5
l-22 -11l-11 13v-34l5 3zM528 1185l-7 -14l2 -18q7 6 14 12.5t12 14.5zM588 113q27 30 49 60.5t42.5 62.5t40 64.5t41.5 66.5q40 63 67.5 119t43.5 112.5t23 118.5t7 138q0 49 -4.5 98.5t-18.5 97.5q-23 28 -55.5 47.5t-69.5 32t-75.5 20t-72.5 10.5q-23 -74 -39.5 -156.5
t-35.5 -158.5q0 -2 -4.5 -34.5t-11.5 -80.5t-15 -104t-15 -104t-12.5 -81t-5.5 -34l2 1q-14 -81 -27.5 -159t-21.5 -159q22 3 43 4t41.5 2.5t41.5 4.5t42 11zM327 1142l-8 -16l5 -17q5 8 5 19zM357 997l-10 27l-28 -12q2 19 6.5 39t18.5 34l-9 21q-8 -23 -16 -48t-20 -45
l9 -16l-17 -31l13 -19h2q-6 -11 -11.5 -22t-7.5 -23l32 45l4 -16q3 5 9 13.5t11.5 17.5t9.5 18t4 15v2zM951 1074q-1 8 -2 15t-3 15l-8 -9zM377 1084l-17 -14l-3 2q-10 -10 -17.5 -22t-9.5 -26q7 2 13 6l12 8l4 -12l4 -5q3 5 9 17t6 18zM285 990q14 29 14 63v15
q-8 -17 -12.5 -35t-9.5 -35zM1029 795l13 75l-8 13l5 18l-9 8l1 9q-11 31 -12.5 46t-4.5 23t-14 15.5t-40 23.5l2 -12l18 -6l-6 -23l5 -20l-1 -4h2q14 -9 20.5 -26.5t6.5 -33.5q0 -12 -3 -24q7 -20 9.5 -39t9.5 -39zM1076 964l-23 60l4 -68l13 1zM413 924q1 15 1.5 30
t3.5 29l-15 -6q2 -12 -3 -21t-5 -19q0 -13 12 -13h6zM282 797q9 6 13.5 21.5t6.5 33.5t2.5 35.5t2.5 28.5l-1 -5l-36 -49l6 -18q-2 -5 -6.5 -15t-4.5 -15q0 -15 10 -30q-3 -9 -7 -16t-12 -13l2 -32q4 8 9.5 14.5t10.5 13.5q1 8 1.5 24t2.5 22zM403 899q-3 -8 -7 -19.5
t-8 -23.5t-6.5 -24t-2.5 -21q0 -8 1.5 -16t2.5 -16h5l26 93zM413 691v36t1 36l13 22l-5 5l-12 -11q-2 -12 -5.5 -23t-11.5 -22q1 9 -5 18.5t-14 13.5q-6 -23 -12 -46.5t-6 -46.5q0 -11 3 -21q5 20 10.5 39t16.5 38q3 -14 7 -26.5t6 -26.5zM1105 702q0 18 2.5 29.5t5.5 28.5
q-5 -1 -10.5 0t-10.5 2l-2 -10l7 -6q1 -11 2.5 -22t5.5 -22zM240 665q-7 0 -11 -7t-7 -16t-4 -18t-2 -14l2 -9q7 0 8 9t1 14l12 23l5 -1l11 47zM1005 648q-2 -7 -4.5 -13.5t-2.5 -13.5l2 -18l15 50zM1013 389q15 16 31.5 39.5t30.5 50t23 53t9 49.5q0 18 -6 33
q-8 -23 -17 -47t-14 -49h-6q-9 -5 -17.5 -22t-15.5 -38t-11.5 -40.5t-6.5 -28.5zM370 579q-6 -6 -12 -14t-8 -17l10 -24zM984 377l-2 -12t-1 -13q0 -12 8 -23l10 18zM837 231h-2q-20 -29 -44.5 -56t-53.5 -46l-6 -10l3 -8q4 0 11 3.5t14.5 8.5t14.5 10t12 8q6 19 18.5 34
t27.5 28zM253 160q-3 8 -8.5 14.5t-13.5 8.5l6 10t7 10l-23 -13l-11 -61l27 6z" />
    <glyph glyph-name="E" unicode="E" horiz-adv-x="1237" 
d="M1146 684h11.5t14.5 -1.5t12.5 -5t5.5 -10.5q0 -61 -19 -125.5t-42.5 -131t-42.5 -133.5t-19 -133q0 -15 2.5 -31t-0.5 -32q-18 -18 -43 -18q-29 0 -55.5 -7.5t-53.5 -7.5q-180 0 -358.5 -3t-358.5 -3q-24 0 -61.5 1.5t-77 2.5t-75 0.5t-55.5 -5.5l-20 9l-31 33
q3 15 14.5 24.5t26.5 14.5t31 6.5t28 1.5q26 28 50 80t44 111t36.5 116t28.5 95l-1 6q2 9 9 35t14 55t12 54t4 31q1 49 14.5 100.5t29.5 105t29 109t13 112.5q0 37 -3 73.5t-6 72.5l-25 24q-23 -5 -46 -5.5t-47 -0.5l-24 19l-2 6q4 25 22 37t41.5 16.5t49 4.5h43.5
q42 0 83 -4t83 -4q36 0 73.5 6.5t74.5 6.5q7 0 29 -0.5t51.5 -2t62 -2.5t60.5 -2.5t48 -3t24 -2.5l5 -3q33 7 65.5 1.5t65.5 -5.5q22 0 43 5t40.5 10.5t38.5 10.5t39 5q13 0 28 -4.5t15 -20.5q0 -15 -5.5 -43.5t-14 -66t-18 -79.5t-18 -84.5t-14 -81t-5.5 -68.5
q0 -14 -0.5 -29t3.5 -28q-6 -21 -13 -32.5t-18 -17t-26 -6.5t-37 -1q-10 23 -14 48.5t-4 49.5q0 47 2.5 93.5t2.5 94.5l3 -2q-11 37 -27.5 69.5t-41 57t-58 38.5t-77.5 14q-6 0 -13 -1.5t-13 -2.5h1q-20 -5 -42 -6t-45 0t-45.5 3t-42.5 3l3 -14q-7 -26 -15.5 -66t-18 -86.5
t-18.5 -96.5t-15.5 -96.5t-11 -86t-4.5 -64.5q0 -5 0.5 -15.5t-3.5 -12.5l-4 -24q22 1 46 2.5t46.5 7t41.5 17.5t33 33l34 24l-7 -2q15 18 31.5 46.5t32.5 61t32 65.5t30 59.5t26 43.5t22 17q2 0 9.5 -0.5t15.5 -2t14.5 -4t6.5 -7.5q0 -20 -6 -40.5t-13.5 -41.5l-15 -42
t-10.5 -41l-1 1q-8 -18 -17.5 -60.5t-20.5 -97.5t-22 -116t-20.5 -116.5t-17 -100t-10.5 -64.5q-5 -29 -24.5 -47t-50.5 -18q-2 0 -6.5 0.5t-4.5 4.5v2q-7 2 -12 6.5t-5 12.5q0 28 1.5 55t-0.5 55q2 19 5 48.5t1.5 58.5t-10.5 52.5t-32 31.5l2 -1q-23 8 -49 19t-51 11
q-8 0 -16.5 -2t-16.5 -4q-27 -130 -53.5 -258t-49.5 -259l7 -21l62 -2q41 0 77 3.5t70 11.5t67.5 21t69.5 31v-1q10 6 16.5 12.5t13.5 12t15.5 9t23.5 3.5q51 48 85.5 87.5t59.5 81t44 90.5t40 117l-1 -1q4 32 22.5 56.5t57.5 24.5zM1081 1291q7 14 12.5 28t10.5 28l-12 -6z
M1066 1341q-22 -1 -45 -8q7 -3 13 -8.5t8 -13.5l5 -2q6 7 11.5 15t7.5 17zM481 1300l6 -24l8 20l-9 20zM376 1304l-10 5h-9l-1 -5l-10 -30zM470 1217l-7 -17l7 -24q3 5 4.5 14t2 18.5t0.5 19v15.5l-8 -12zM320 1024q5 32 14.5 63.5t14.5 63.5q-3 12 -16 16l-9 -8
q-1 -2 -2.5 -20t-3 -40.5t-2.5 -42.5t-1 -25zM474 1132q-8 -3 -15.5 -20.5t-13 -40t-9 -44.5t-3.5 -32l3 -24q8 17 20 40.5t12 43.5q0 14 -2 26.5t-4 25.5l12 10v15zM427 934h4l4 20h-4zM768 798h11l3 17h-11zM771 787q-17 -18 -22 -37l15 -19zM408 786l-21 -2l4 -57h4z
M702 721q-18 -13 -23 -37l11 -14l14 2zM765 662h-10l-2 -27h10zM756 578q0 3 -4.5 6t-6.5 4l3 -21l7 2zM258 334q14 25 29.5 56.5t20.5 60.5l-10 16l-14 -8q-5 -32 -11.5 -63t-14.5 -62zM686 453v-2v-1v3zM1003 322q11 12 21.5 27t13.5 32l-28 -20zM278 115q3 7 7.5 16.5
t8.5 20t7 20t3 17.5q0 14 -6 26q-2 -7 -7.5 -22t-11.5 -31.5t-10.5 -30.5t-4.5 -18l2 -17l5 13zM949 127l19 18v5q0 15 -4 26l-22 -35zM185 111l-2 43l-7 -42zM886 93q0 9 -4.5 17t-13.5 10q-6 -6 -10.5 -12.5t-9.5 -13.5q1 -8 6.5 -12t12.5 -6l18 6zM963 96q5 0 7 4l-3 4
q-4 -3 -6 -8h2zM687 102q-20 -3 -30 -20q8 0 16.5 6t13.5 12v2z" />
    <glyph glyph-name="F" unicode="F" horiz-adv-x="1122" 
d="M1241 1351l-7 -7l2 1l3 2q-19 -68 -29.5 -133t-18 -130t-14.5 -130.5t-18 -133.5q-18 -10 -38 -10q-18 0 -35 1.5t-34 10.5q2 17 7.5 33t5.5 34q0 19 -2 37.5t-4 37.5l1 -2q2 51 4 101.5t7 101.5l1 7l3 -5q-5 15 -21 33.5t-36.5 35t-42 28t-37.5 11.5h-131l-15 -12
l-27 -2q-30 0 -48 0.5t-31.5 -5t-25 -21t-27.5 -48.5q-8 -16 -17 -48t-18 -72.5t-18 -85.5t-16 -85.5t-11 -72.5t-4 -47v-3q11 -2 22.5 -3t22.5 -1q29 0 46.5 2.5t31.5 8.5t28 14.5t37 20.5h1q35 64 63.5 131t56.5 134l56 39q13 -1 28 -8l1 -17q0 -27 -5 -65.5t-12 -83.5
t-15.5 -94t-15.5 -97t-12 -92.5t-5 -80.5l2 -49v1q4 -32 2 -65t-25 -59q-11 -5 -24.5 -10t-25.5 -5q-29 0 -35.5 12.5t-6.5 36.5q0 22 7 40l-2 -1q-5 36 -9.5 72t-7.5 72l-19 19q-6 6 -14.5 15.5t-18.5 18.5t-20.5 15t-19.5 6q-32 0 -64.5 -2.5t-63.5 -13.5
q-8 -44 -17.5 -89t-17.5 -90t-14 -90t-6 -90q0 -17 9 -38.5t24 -40.5t33.5 -32t36.5 -13q16 0 40.5 0.5t47 -4t38.5 -17t16 -39.5q0 -11 -6.5 -18t-15.5 -11t-19.5 -6.5t-18.5 -3.5h2q-81 -11 -170.5 -20.5t-180 -17t-179.5 -12t-170 -4.5h-34t-34 5q-4 11 -7.5 23.5
t-3.5 24.5q0 7 13.5 15t30.5 15t33 12t22 7q27 30 46.5 53.5t35.5 47.5t30 52t29 66l-1 3q4 21 10 66t14 102t17 120t18 119t17.5 100t15.5 63l-1 -1q11 35 15 71.5t9 71.5l3 -2l-5 15l12 127q-7 20 -21.5 32t-31.5 22t-34.5 19.5t-29.5 24.5q6 16 12.5 27.5t15.5 19
t21.5 11t32.5 3.5q25 0 48.5 -3.5t46.5 -8t46.5 -8t47.5 -3.5q248 0 494 15q25 1 70.5 1.5t93 2t87 6.5t53.5 16l-5 -1l12 8h40l1 2l2 -13q0 -12 -4 -23t-9 -22zM1181 1354l-12 2l-21 -11l15 -8zM1046 1337q-12 -3 -20.5 -0.5t-19.5 2.5q-8 0 -8 -11l41 -23zM1110 1257
q4 4 6 11q-5 0 -9 -4zM512 1169q18 18 29 42t30 40q-11 -2 -22 -9t-21 -17.5t-16 -22.5t-6 -22v-11h6zM505 1144q0 5 -3 9t-6 6l2 -22l7 6v1zM342 875q14 18 25 41.5t11 46.5q0 31 -18 57q-5 -11 -8.5 -26.5t-6 -32.5t-4 -33.5t-1.5 -28.5zM498 965h-7l-3 -17h7zM446 725
q12 13 16 33.5t6.5 43t4.5 44.5t9 39l-7 28q-3 -20 -8.5 -39t-11.5 -37.5t-10.5 -38t-4.5 -40.5q0 -8 1 -16.5t5 -16.5zM409 829q-9 -26 -18.5 -52t-14.5 -52q7 5 12.5 19t9.5 30.5t6.5 31.5t4.5 23zM846 817q-9 -11 -18 -25t-12 -28h24l4 26t2 27zM455 682l-16 18
q-2 -14 -4 -28.5t-7 -28.5l5 -6zM373 586q5 7 6.5 17t2.5 21.5t2.5 23t6.5 20.5l-14 24q-14 -50 -21.5 -99.5t-7.5 -101.5v-28q8 9 16 21.5t10 25.5q-8 16 -7.5 34t10.5 33zM260 582q2 5 5 12t3 12l-3 30l-8 -22t-4 -22l1 -10h6zM421 528q2 17 7.5 32.5t8.5 32.5l-5 19
q-3 -7 -8 -18.5t-10 -23.5t-9 -23.5t-4 -17.5q0 -11 5 -23l7 6l2 10zM345 404q7 17 7.5 25.5t-1.5 26.5q-5 -9 -6 -25t0 -27zM426 237q-2 7 -7 11.5t-10 9.5q0 -5 1.5 -12t6.5 -10zM87 131l-1 6h-10l-12 -8l9 -6z" />
    <glyph glyph-name="G" unicode="G" horiz-adv-x="1282" 
d="M1283 682q2 -27 -12.5 -43.5t-41.5 -18.5l-57 -44q-23 -45 -41.5 -102.5t-31.5 -119t-20 -121.5t-7 -109l2 -149q-11 -5 -23.5 -8.5t-24.5 -3.5l-24 3l6 1q-25 1 -34.5 4.5t-14.5 8.5t-9.5 11.5t-18.5 12.5q2 11 -6 30.5t-19.5 40.5t-23 40t-17.5 28l-67 -54
q-19 -1 -42 -12t-51.5 -23.5t-63 -23t-75.5 -10.5q-22 -8 -44.5 -14t-45.5 -11q-17 3 -54 10t-77.5 15.5t-75 18t-46.5 19.5h1q-48 37 -83 82.5t-57.5 97t-33.5 107.5t-11 115q0 55 10 124.5t29.5 139.5t49.5 132.5t69 104.5q9 27 31 54t52.5 53.5t66.5 50t72 43.5t69 34.5
t59 22.5l-6 -1q51 16 113.5 23.5t115.5 7.5q24 0 48 -5t48.5 -12t48.5 -14.5t47 -12.5q14 -14 31 -26.5t35 -20.5l5 -16q14 18 25.5 54t24 72.5t27 64t35.5 27.5q12 0 24.5 -4t23.5 -10q-5 -13 -15.5 -51.5t-24 -89.5t-27.5 -108.5t-25.5 -108.5t-19.5 -89t-8 -50
q-9 -16 -13.5 -26.5t-11 -16.5t-18 -8.5t-33.5 -2.5q-16 11 -28 20t-12 32q0 31 -1.5 53t-6 42t-13 41t-22.5 51q-1 12 -11.5 28.5t-24.5 33.5t-28 32t-22 24l10 -2q-7 3 -20 8t-27.5 10t-27 8.5t-19.5 3.5q-68 0 -107.5 -14.5t-66 -44t-47.5 -73t-52 -100.5
q-11 -21 -17.5 -41t-6.5 -44q0 -11 -2 -28t-6 -34.5t-9.5 -33.5t-12.5 -25l3 3q1 -29 -2 -56t-7 -56l1 -36h-1q0 -18 -1 -61t-0.5 -97t5 -112t16 -105.5t31.5 -78.5t52 -31q53 0 103 11t90.5 36.5t69 66.5t37.5 101q5 33 12 68.5t13 72t10 72t4 68.5v2q-31 -8 -63 -13.5
t-64 -5.5q-11 6 -21 15.5t-14 22.5l7 21l23 21q64 9 130 10t132 0.5t131 2t128 14.5q11 -5 21 -9t21 -7h-1zM1073 1075l15 13l8 22l-21 5zM329 965l-23 23l-3 -70zM201 743h-10l-13 -17l9 -4zM165 625q-1 6 -4.5 11.5t-10.5 6.5l2 -18t5 -17zM1017 611q2 -6 5 -11t7 -10
l19 24l-28 2zM1075 604l-4 12l-12 -7q3 -2 6.5 -3.5t7.5 -1.5h2zM1097 581q14 1 25.5 12.5t18.5 22.5q-13 -4 -25 -11t-23 -15zM250 537q0 9 -2 19.5t-13 12.5q-1 -17 -4 -35t-3 -34q0 -6 1.5 -12.5t3.5 -12.5h7l8 11zM176 471q3 20 6.5 40t8.5 40l-6 6q-17 -20 -17 -38.5
v-43.5zM1054 448q5 23 10.5 49.5t3.5 50.5l-23 -73zM171 328q-2 13 -3.5 30t-2 34.5t-0.5 34v30.5l-10 2q-2 5 -3 10t-1 10q0 11 2.5 22.5t4.5 22.5l-10 13l-2 -11l-9 -10q-2 -28 -4 -55.5t-2 -55.5q0 -8 3 -21.5t7.5 -28t9 -28l7.5 -22.5zM1014 367l-1 1l-16 -26v-23z
M189 350l-8 8l1 -14zM182 254q3 21 3 43l-11 -10zM998 295h-6l-10 -52l14 -29zM947 270l-22 -16l-14 14l-2 -11q0 -10 7 -19t18 -9l8 2zM875 225l-5 8l-14 -18v-14zM296 177q0 -12 5 -22t18 -12q-2 11 -8 21t-14 18z" />
    <glyph glyph-name="H" unicode="H" horiz-adv-x="1398" 
d="M1513 1443q8 -13 8 -28q0 -23 -15.5 -40t-38.5 -17l-63 1q-32 -44 -50.5 -87.5t-37.5 -95.5l4 4q-15 -34 -21.5 -72.5t-11.5 -78.5t-11.5 -79.5t-20.5 -75.5l1 2l-2 -9q-2 -18 -5.5 -39.5t-7 -43.5t-6 -42.5t-2.5 -38.5l1 -6q-8 -65 -17.5 -129t-15.5 -129l-4 4
q5 -25 5 -54.5t-3 -60t-8.5 -59.5t-12.5 -53q30 3 57.5 0.5t56.5 -2.5q9 -8 17.5 -16.5t13.5 -19.5q-4 -23 -19.5 -33t-36.5 -13t-43 -2t-40 1q-86 0 -171.5 -11t-170.5 -11q-31 0 -61.5 0.5t-60.5 7.5q-13 18 -13 38l2 7q29 24 66 26q39 60 62.5 143t39.5 173.5t27.5 179
t25.5 159.5q-35 0 -70 -8t-69 -8h-25q-2 2 -5.5 4t-6.5 2q-23 -6 -44 -10.5t-42 -7t-42.5 -4t-45.5 -2.5q-18 -1 -32 -6.5t-18 -25.5q-18 -101 -30.5 -202.5t-12.5 -203.5v-21t1 -27t3.5 -26.5t7.5 -18.5h2q23 -12 45 -17.5t47 -13.5l6 -16l-3 1l1 -27q-6 -3 -41 -9t-85 -13
t-109 -14t-113 -13t-97.5 -9.5t-61.5 -3.5q-10 0 -33 -0.5t-46.5 2t-41.5 9t-18 20.5q0 23 15 35t36.5 17.5t46 7t42.5 4.5q2 32 9.5 64t17 64.5t18.5 64.5t15 64q15 83 24.5 166.5t23.5 166.5q6 37 16 76.5t19 79t16 78.5t9 77h1l-4 10q1 25 4.5 51t8 51.5t8 50.5t3.5 49
q0 17 -7.5 22t-21.5 10q-10 -2 -23.5 -3.5t-26 0t-21 8t-8.5 21.5q0 19 25 33.5t66.5 24t96 15.5t112.5 9t116 4t108 1t86.5 -0.5t52.5 -0.5q7 0 15 -3t15 -8.5t11.5 -12.5t4.5 -14l-1 -5l-2 4l4 -10q-3 -15 -18 -22t-33 -9.5t-36.5 -2t-29.5 0.5h-36q-39 -29 -65 -65.5
t-43.5 -79t-28 -89t-19 -94.5t-16 -95.5t-18.5 -91.5q28 7 58.5 9.5t62 3.5t63 2.5t60.5 5.5h-1q32 5 64.5 10t65.5 5l25 -2q8 30 13 60t10 61q1 6 5.5 17.5t9 23.5t8 22.5t3.5 13.5q0 19 4 37.5t9 36.5t9 36.5t4 36.5t-12.5 21.5t-26.5 3.5q-11 0 -24 1.5t-24 6t-18.5 13.5
t-7.5 23q0 21 15.5 33t40 19t55 9.5t59.5 4t53.5 3t38.5 6.5h-2q31 7 67 14t72.5 12.5t73 9t68.5 3.5q20 0 36.5 -6t36.5 -11zM353 1417q0 -11 2.5 -20.5t5.5 -19.5l6 26l-14 20v-6zM1172 1323q14 12 19 25l-5 10l-22 -4v-1q0 -16 8 -30zM380 1327h-14l-21 -46h13zM1061 928
l-2 20l-14 -16l8 -17zM296 666q4 10 9 36t9.5 55.5t8 57t3.5 39.5t-2.5 25t-5.5 25l-30 -234zM1114 843q-17 -28 -20 -59l16 10zM1100 764l7 10h-5l-6 -10h4zM1110 752h-7l-2 -13h7zM1103 664q0 13 2.5 25.5t4.5 25.5l-11 12q-7 -3 -12 -8.5t-10 -11.5l-2 -2l-3 -5l3 1l2 1
l5 -16l-8 -24zM991 625l1 -4q4 7 9 12.5t7 13.5l-9 4zM1082 590l-3 24l-9 -39h7zM1002 466q0 -23 9 -42q8 29 14 57.5t6 58.5l-2 32l-4 3q-1 -14 -5 -27.5l-8 -27t-7 -27t-3 -27.5zM1069 494q5 14 7.5 26t2.5 26q-10 -23 -10 -52zM201 461l20 58h-10l-18 -46zM958 477
q-3 -10 -6 -19.5t-8 -19.5l10 -10q15 27 15 59l-1 10l-6 5l-6 -10zM233 292q8 38 9.5 81.5t11.5 79.5q-8 -16 -15.5 -36t-13.5 -41t-10 -42t-4 -38l1 -12l10 -5zM295 392q-2 -8 -2 -16t1 -16l4 10zM290 339l4 -29q4 20 1 44zM355 310l-17 9l-1 -2q1 -10 8 -20zM1051 193
q-2 31 -1.5 62t2.5 62l-12 2q-8 -23 -11 -47.5t-2 -48.5l-7 -18l5 -15zM146 239q14 12 17 28l-3 12l-15 -22zM997 266h-4l-5 -10l5 -2zM873 199q6 8 10.5 16.5t8.5 17.5l-21 23l11 -18q-6 -20 -9 -39zM289 232q8 0 17.5 2t15.5 8l-13 5zM348 244h-18l-2 -7h18zM985 219
q-13 -2 -25.5 -11t-12.5 -24l9 -2l29 27v10z" />
    <glyph glyph-name="I" unicode="I" horiz-adv-x="731" 
d="M617 83q-63 -17 -134 -21.5t-137 -4.5q-75 0 -147 -3t-147 -5q-15 0 -31 -6t-32.5 -12.5t-33.5 -12t-33 -5.5q-14 0 -22.5 6.5t-8.5 20.5q0 10 13.5 24.5t35.5 32.5t49 40t53.5 46.5t49.5 52.5t37 58q11 23 18 58.5t12.5 75.5t10 82t9.5 78.5t11.5 65.5t16.5 43
q2 13 7 43.5t11 70t12 83.5t11 83.5t8.5 71t3.5 46.5q0 37 3 69.5t11 68.5l1 -2q-2 10 -4.5 19.5t-5.5 18.5h1q-1 1 -5.5 6.5t-9.5 11t-10 10t-8 4.5q-15 0 -30.5 -2.5t-31.5 -4t-31.5 0.5t-31.5 11q4 37 20 57t40 29t54 10.5t62 1.5q48 0 94.5 -3t94.5 -6q35 -2 70 1.5
t70 8.5t69.5 9.5t68.5 4.5q10 0 17 -2.5t14 -5.5t14 -5.5t16 -2.5q5 -5 9.5 -12.5t4.5 -15.5q0 -17 -14 -31.5t-25 -24.5l-81 -5q-26 -2 -47 -31.5t-38.5 -77.5t-30.5 -110t-23.5 -128.5t-18.5 -132t-14 -122t-10 -98.5t-7 -60q-11 -64 -24.5 -127.5t-13.5 -129.5
q0 -39 10.5 -72t43.5 -57q15 3 31 3.5t32 0.5l-8 -3q6 0 17.5 -1.5t23.5 -5t20.5 -9t8.5 -14.5v-6zM376 1311l-4 24h-29l-1 -1l24 -27zM470 1315l-17 -2l-3 -18q0 -15 6 -27q14 26 31 45zM483 1200q-12 -17 -20.5 -34.5t-16.5 -36.5q0 -19 -5.5 -37t-11.5 -36t-11.5 -36.5
t-5.5 -38.5l3 -24l11 -3q14 60 29.5 117t31.5 117zM344 994l-13 -4q-1 -6 -2.5 -12.5t-1.5 -13.5q0 -12 7 -26q6 6 11.5 13.5t8.5 15.5zM350 911h-12l-19 -22h15zM479 897q-2 -10 -3.5 -19t-1.5 -19l7 18zM352 596q8 14 10.5 24t2.5 27l-1 17l-8 2q-6 -18 -7.5 -27t-1.5 -28
v-10l1 -5h4zM321 625l3 18h-7l-3 -18h7zM310 606q-4 17 -14 35q-26 -72 -42 -144t-38 -146q37 55 60 122.5t34 132.5zM374 416q4 48 11.5 90t15.5 88l-6 20q-4 -14 -10 -36.5t-12 -46t-10.5 -45.5t-4.5 -34t2 -24l4 -24zM212 328l-3 2l-18 -43l21 14v27zM279 250l-11 -51
q10 13 15 30zM349 123l7 4q-13 31 -8 63l-17 -30l-3 -38v-16l11 -2l15 19h-5zM235 115l-22 20h-11l-15 -16l43 -10l7 2zM88 102l-18 15l-11 -15l24 -10z" />
    <glyph glyph-name="J" unicode="J" horiz-adv-x="785" 
d="M903 1536q18 0 26.5 -3t12.5 -9t5.5 -15t6.5 -21q-11 -23 -25.5 -32t-31 -11.5t-35 -2.5t-37.5 -6q-33 -104 -52.5 -213t-36 -219.5t-35 -219.5t-51 -212.5t-83.5 -200t-131 -180.5q-33 -35 -63.5 -55t-63 -30.5t-70.5 -14.5t-86 -6q-21 11 -36 13.5t-29.5 5t-30.5 9
t-39 24.5h1q-24 21 -44.5 40.5t-34.5 41.5t-22 48t-8 60q0 53 15.5 99t46 80t74.5 53.5t101 19.5q18 0 35 -19t30.5 -45t22 -52t8.5 -41q0 -42 -12.5 -68t-34.5 -43.5t-51.5 -29.5t-62.5 -25q0 -9 3.5 -19.5t9.5 -19.5t14 -15t19 -7q17 -11 38 -14t41 -3q15 0 29.5 17t28 43
t25.5 58.5t21.5 64t16.5 57.5t10 41v-1q6 23 11.5 48t5.5 49q0 39 7.5 98t18 122.5t22 123.5t18.5 102q-1 3 0.5 9t3.5 12.5t4.5 12t3.5 8.5q6 3 8 17.5t2 22.5q0 33 -4 66.5t-6 66.5q6 18 7.5 46t-2 57t-11.5 55.5t-21 41.5q-14 2 -42 2t-55.5 3t-48 12t-20.5 29
q0 22 12.5 32t30.5 14t37.5 3t33.5 -2q60 -3 115.5 -0.5t113.5 2.5q27 0 53 -3t52 -5q26 -1 52.5 4t53.5 11.5t54.5 12t54.5 5.5zM595 1450q-16 0 -28 -14h16l23 -11h2l6 13zM591 1380q0 8 -5.5 13.5t-12.5 7.5l8 -41l9 12zM528 1116l11 58q-5 -11 -12.5 -28t-8.5 -30h10z
M588 1069q-5 10 -7.5 21t-4.5 22l-13 -39l4 -30l6 2zM558 1019l-25 -5l13 -31l17 36h-5zM529 962l-14 -3l-3 -43l22 46h-5zM576 857l-7 44l-16 -56l22 9zM509 510q14 71 28 142.5t14 144.5q0 5 -1 12.5t-6 9.5q-14 -81 -35 -161.5t-35 -161.5q17 4 35 14zM129 417
q15 6 20 23.5t5 31.5q0 10 -4 17.5t-15 7.5l-19 -52zM55 460l7 -14l16 22t13 23zM402 326q-11 -20 -19.5 -39t-13.5 -41q12 10 23.5 22t14.5 28z" />
    <glyph glyph-name="K" unicode="K" horiz-adv-x="1170" 
d="M1304 1407q20 0 34 -10.5t14 -31.5q0 -11 -3 -20q-17 -11 -30.5 -18.5t-27.5 -11.5t-30 -5.5t-38 -1.5q-1 0 -18.5 -13t-46 -34.5t-64.5 -49t-74.5 -57.5t-76.5 -59.5t-69.5 -54.5t-53.5 -43.5t-29 -25.5q21 -75 37 -154.5t24 -157.5l-2 3q4 -25 14.5 -66.5t25 -91.5
t32 -102.5t34 -100.5t31.5 -85.5t26 -56.5q6 0 19.5 0.5t27.5 -1t24.5 -5t10.5 -12.5q0 -27 -20 -42.5t-47 -23t-56 -9.5t-47 -2q-42 0 -82 -4.5t-80 -10t-79.5 -10t-79.5 -4.5q-6 0 -15.5 0.5t-17.5 3.5t-14 8.5t-6 14.5q0 16 8.5 31t16.5 27q15 2 24.5 12.5t14.5 25
t7.5 30.5t4.5 28q-8 38 -8 77t2 77l1 -1l-2 15l-11 18q-3 75 -20.5 151t-57.5 142l-23 11q-39 -24 -63.5 -75t-38 -112t-18 -122.5t-4.5 -106.5q0 -8 0.5 -17t2.5 -17q-5 -14 -7.5 -28t-2.5 -28q0 -18 5.5 -42t22.5 -35h-4q15 -5 34 -8.5t36 -10t28.5 -19t11.5 -33.5
q0 -16 -9.5 -31t-23.5 -22q-11 5 -22.5 8.5t-23.5 7.5h1q-7 3 -38.5 4t-69 2t-71.5 1h-47q-35 0 -68.5 -3.5t-67 -8t-67 -8t-67.5 -4.5q-7 8 -13.5 19.5t-6.5 22.5q0 12 9 20.5t22 13t27 6.5t24 2l12 -1q20 73 32.5 142.5t27.5 143.5q7 34 21 95.5t31 138t35 160.5t32.5 162
t24 143t9.5 104q0 18 -5.5 26t-18.5 19q-11 -3 -25.5 -5t-28.5 -0.5t-23.5 9.5t-9.5 25t23 30t60.5 22t87 15.5t102 10.5t105 5.5t97 2.5t77 1h45.5h13t16 -1.5t14.5 -5t9.5 -9.5q-2 -7 -5 -16.5t-7.5 -19t-10.5 -17t-13 -11.5q-14 1 -26.5 0t-24.5 -3.5t-24 -4.5t-25 -2
l-7 1q-19 1 -37.5 -25.5t-35.5 -68t-32 -92t-26 -97.5t-17 -84.5t-6 -52.5v-7q33 28 67.5 55.5t60.5 62.5h-1l23 25h-1q36 42 81.5 78.5t94.5 73t97.5 76t92.5 86.5q-12 0 -23 0.5t-19.5 3.5t-13 11t-4.5 24t12.5 27.5t30 20t35.5 13l30 7.5h-2q23 4 47 7.5t47 3.5
q47 0 92.5 8.5t90.5 8.5zM1059 1332q-16 0 -23.5 2t-21.5 10l-12 -45zM346 1268q-7 -23 -6.5 -51t1.5 -51l18 102h-13zM324 830q5 13 12.5 31.5t15 38.5t13 39.5t5.5 34.5q0 6 -0.5 12t-2.5 12l-12 -39l-15 -15q-9 -52 -29 -105l9 -9h4zM320 798h-9l-61 -104l62 57zM251 510
l-16 16h-11q-5 -12 -10 -25.5t-8 -26.5l11 -34l14 17l1 25l17 20zM204 426l2 -25h9l5 6l-6 21l-10 3v-5zM205 293q4 18 15 34t14 35l-11 25l-14 -5l-9 -13l7 -30l-13 -21q1 -7 3.5 -13.5t7.5 -11.5zM709 292v-10t1.5 -13.5t4 -12t7.5 -5.5l1 20q0 39 -11 80zM206 285h-8
l-4 -21h8zM734 121q4 24 8 47.5t4 48.5l-1 26q-8 -13 -13 -28t-9 -29zM142 166l9 29l-15 7l-2 -14zM305 136q0 17 -1.5 33t-3.5 33q-9 -22 -9.5 -47t-1.5 -48l6 -1l9 15zM865 170q2 -10 1.5 -20t-2.5 -20q8 2 23.5 5.5t23.5 1.5q-11 10 -22.5 17.5t-23.5 15.5zM798 147
q0 -16 14 -26l28 8q-18 15 -40 26zM187 108l-26 13l-13 -41q4 5 17 12t20 10zM131 84l-18 22l11 -32l3 -2z" />
    <glyph glyph-name="L" unicode="L" horiz-adv-x="1151" 
d="M1146 864q20 0 29 -17t9 -34q0 -9 -11 -51.5t-28.5 -104t-38.5 -134.5t-41.5 -141.5t-37.5 -125t-25 -86.5q-4 -5 -12 -13.5t-18 -16.5t-19.5 -14.5t-16.5 -6.5q-55 0 -110.5 4t-111 9t-111 9t-110.5 4l-15 -3h5l-190 -3q-72 -1 -148 -1.5t-146 10.5q-8 2 -21 5.5
t-13 14.5q0 20 16.5 39t30.5 31h82q10 22 23 67.5t27.5 106t30 132t30.5 145t28 145t23 133t16 109t6 71.5q0 21 -3 47.5t-12 51.5t-24.5 44.5t-39.5 26.5q-6 2 -18 4t-24 5.5t-21 8.5t-9 13q0 20 9.5 30t23.5 13.5t30.5 3t30.5 -0.5l5 3l319 3q11 0 22 -1t22 -5
q60 0 117.5 11t109.5 11q8 0 20.5 -0.5t24 -3t20 -8.5t8.5 -17q0 -22 -13.5 -39.5t-30.5 -30.5q-16 2 -34.5 -3t-36.5 -14.5t-34 -22t-27 -24.5h1q-33 -38 -58 -97t-44.5 -129.5t-33.5 -148t-25.5 -152t-20.5 -142t-18 -118.5q-5 -25 -13 -52t-15.5 -54t-13.5 -54t-6 -52
q0 -1 1.5 -4.5t3.5 -5.5q25 0 49.5 0.5t49.5 3.5h-2q60 11 104.5 27t82 39.5t71.5 56t73 77.5v-1q48 74 86 144t75 148l-3 -3q12 26 21.5 53t20.5 54q8 7 22 14t25 7zM463 1174q2 -11 6 -18q4 7 10 20.5t10.5 28.5t8 28.5t3.5 21.5l-6 1zM448 1207q-13 -17 -23 -44t-10 -48
h6zM262 676l49 159l-4 28l4 5q6 33 15.5 65.5t20 64l21 63t16.5 63.5q-14 -2 -28 -9t-26 -15q-6 -43 -17.5 -97.5t-23 -110.5t-20 -108.5t-8.5 -90.5zM445 840q8 14 21.5 24.5t25.5 18.5q2 19 4 31t5 22t8 21t12 30q2 4 2.5 19t0.5 33t0.5 35t1.5 25q-15 -9 -23.5 -31
t-11.5 -38l8 -15q-3 -19 -11.5 -42.5t-18 -46.5t-17 -43t-7.5 -33v-10zM427 1040q1 -6 -0.5 -18t-4 -26t-5.5 -26.5t-4 -19.5h23l2 114zM401 1012l-21 -62l25 32v30h-4zM418 907h-7l-16 -96h7zM362 734q5 22 10.5 43.5t8.5 43.5q-5 -13 -8.5 -23t-6 -20t-3.5 -20.5t-1 -23.5
zM321 507q-2 12 0.5 34.5t7 48.5t8.5 51t4 41l-11 -16q-14 -75 -28 -149.5t-30 -149.5l8 -12q7 16 11 37.5t7.5 43t8.5 40.5t14 31zM445 618l-13 -20l-1 -5l2 -17h5zM403 416l-4 8l-3 -17zM906 302q14 32 30.5 61t36.5 58q-8 -6 -19.5 -18.5t-22.5 -26.5t-20 -28.5
t-10 -23.5zM871 316q-5 -2 -13 -9t-15.5 -16t-13 -18t-5.5 -15v-22q4 4 11.5 14.5t15.5 22t14 22t6 15.5v6zM948 268l-22 -32v-3h3l8 5zM286 197q7 3 14.5 9.5t7.5 14.5l-2 19q-9 -6 -14.5 -15.5t-9.5 -19.5v-8h4zM699 185q23 0 45 8l-10 37l-38 -44zM187 205l-1 10
q-5 -2 -9.5 -5.5t-6.5 -8.5zM846 196l-11 -20h10z" />
    <glyph glyph-name="M" unicode="M" horiz-adv-x="1461" 
d="M1493 1468q6 0 21 0.5t31.5 -0.5t29 -5t12.5 -14q0 -38 -20.5 -53.5t-58.5 -15.5q-35 0 -52 -11t-25.5 -29t-13 -40.5t-13.5 -45.5q1 -7 -4 -31.5t-13.5 -58.5l-18.5 -74t-19 -78.5t-15 -72t-6 -53.5h-1q2 -40 -9 -85.5t-27 -82.5l3 -12q-13 -47 -24 -102t-19 -111.5
t-12.5 -112.5t-4.5 -104q0 -8 0.5 -22.5t3.5 -28.5t9.5 -24.5t18.5 -10.5t25.5 2.5t25 1t19 -9t7.5 -28.5q0 -7 0.5 -10.5t-1.5 -10.5q-8 -11 -33.5 -17t-60.5 -9.5t-76 -5t-80.5 -2t-74.5 -0.5t-57 -1l-11 -6l-167 -7q-5 0 -12.5 0.5t-14 2.5t-11.5 6.5t-5 11.5
q0 12 12 24.5t20 20.5q47 40 74 78.5t43.5 80t25.5 87.5t20 103l104 532h-7q-91 -203 -188 -401t-199 -396q-17 -13 -39 -17t-43 -4q-9 0 -17.5 1.5t-17.5 3.5q-10 22 -19.5 53t-19 65t-18.5 69t-18 66t-18.5 56.5t-19.5 39.5q0 5 -2.5 30.5t-7 62.5t-10 80t-11.5 82.5
t-11 71t-8 44.5q-14 -57 -28.5 -116t-19.5 -118v1q-6 -30 -14.5 -62t-15.5 -64t-12 -64t-5 -63q0 -46 2 -91.5t12 -88t29 -81.5t54 -71q23 0 35 -12.5t14 -35.5q-5 -5 -12.5 -11t-15.5 -12t-16.5 -10t-15.5 -4q-30 0 -61 8t-63 8q-11 0 -39.5 -1.5t-64.5 -2.5t-75.5 -1
t-72 3t-53.5 9.5t-21 18.5q0 11 2 20.5t4 19.5q56 7 96 26t77 63q9 26 22.5 78.5t28.5 121t31.5 149t32 163.5t29.5 163.5t24.5 149.5t16.5 121t6 79q0 32 -15.5 52.5t-39.5 39.5l10 -2l-10 3q-14 -2 -33.5 -2.5t-37.5 3t-31 14t-13 30.5q0 18 16.5 30t33.5 12h135t137 5
q45 -2 91.5 -3t91.5 -9l9 -18q2 -46 7 -97t20 -95l-1 1q30 -57 44.5 -120.5t24.5 -126.5t20 -122t30 -108q41 94 83.5 186t80.5 186h-1q15 39 39.5 93.5t54.5 110t63 104t65 75.5l25 3q80 0 159 -5.5t160 -5.5zM1119 1332q3 0 12 11t20 25.5t20 27.5t12 17l-1 8h-6
q-7 -8 -16.5 -18t-18.5 -21.5t-16 -23.5t-9 -22zM1315 1411l-13 6q-8 -1 -24 -13.5t-33.5 -29t-31 -32.5t-15.5 -23zM481 1314q5 5 10 10.5t8 12.5l-1 12l-21 -12zM490 1269v-5q0 -8 6 -13t14 -7l2 15zM484 1118l39 -57q-1 7 -4 22t-2 21l-23 16zM1183 1088q0 6 -7 6l1 -17
l5 2zM527 924l-12 82l-20 -2l25 -80h7zM1062 896h4l4 20h-4zM586 889h8l5 13h-5zM1062 892q-5 -23 -12 -48t-14 -50.5t-11.5 -51t-2.5 -48.5q-8 -22 -8 -47q0 -15 3 -28l3 -1q19 65 28.5 132.5t21.5 133.5zM594 877l15 -22l1 9q0 13 -15 18zM615 808q0 9 -3 17t-8 16v-5
q0 -19 11 -31v3zM657 679q0 -8 6.5 -14t12.5 -9l3 14l-4 26h-7zM763 670l-3 8l-4 -2l3 -6h4zM701 622h-8l-4 -24h8zM1024 579l-14 -8l-13 -99l27 106v1zM691 543l-24 10q-2 -4 -4 -8.5t-2 -8.5q0 -16 12 -30q5 8 8 17l6 18zM1077 295q-2 30 3.5 64t10.5 64l-16 6
q1 -23 -1.5 -46t-2.5 -46v-9t0.5 -13t1.5 -12.5t4 -7.5zM566 295q6 8 13 22t7 25q0 16 -14 28q-5 -9 -8.5 -18t-3.5 -20q0 -19 6 -37zM1043 158q10 0 21 3t19 11l-26 32q-5 -11 -8.5 -22.5t-5.5 -23.5zM1120 164q1 3 2 7t1 7l-1 8l-8 -2zM949 176q-11 0 -17.5 -6.5
t-8.5 -17.5q7 0 16.5 3.5t9.5 12.5v8z" />
    <glyph glyph-name="N" unicode="N" horiz-adv-x="1252" 
d="M1312 1324q4 0 11.5 -1t15 -3.5t13 -6.5t5.5 -10q0 -12 -11.5 -25t-19.5 -20q-8 -2 -24 -8.5t-32.5 -15t-28.5 -19t-12 -20.5q0 -1 4 -1q-8 -9 -20.5 -51.5t-27 -102.5t-30 -129.5t-29.5 -132.5l-25 -112.5t-16 -68.5l-3 5q1 -7 -2.5 -46.5t-11 -95.5t-16.5 -120
t-18.5 -119t-18 -93t-13.5 -43q-8 -7 -17.5 -10t-20 -5t-21 -3t-20.5 -4l-32 12q-3 10 -23 48t-52 94.5t-72.5 126t-84 143.5t-87.5 147.5t-81.5 137t-66.5 112t-43 72.5q-7 -67 -21.5 -134t-28.5 -134t-25 -134.5t-11 -135.5q0 -23 4 -46t12 -44q-7 -46 2.5 -77.5
t40.5 -66.5q7 -1 14 -6.5t12.5 -13.5t8.5 -17t3 -16t-2 -13.5t-4 -13.5q-17 -4 -37.5 -8.5t-38.5 -4.5q-11 0 -21 1t-21 2q0 -1 -3 2q-37 0 -78.5 -4t-84 -10.5t-84 -14.5t-78.5 -15q-8 3 -19 9.5t-11 17.5q0 13 7.5 23.5t19 19t23.5 15.5t21 13q14 1 28.5 2t28.5 6
q51 52 84.5 121.5t55 149t33.5 166t20.5 172t16 166.5t19.5 150l-11 47q-9 11 -18 23t-20 21.5t-24 15.5t-28 6h3q-7 -1 -25 -2t-37 0.5t-34 6t-15 15.5q0 22 19 34.5t45.5 19t54 8t44.5 1.5q77 0 150.5 9.5t150.5 9.5q28 0 56.5 -25t53.5 -59.5t45 -70t32 -55.5
q27 -46 51.5 -81.5t48 -66t46 -60t44.5 -65t44 -80t44 -104.5q9 43 22 88.5t25 91t20.5 91.5t8.5 90q9 23 14 53.5t5 56.5t-7 47q-13 24 -39 37t-52.5 23t-46.5 20.5t-20 30.5l1 9q5 8 22 13.5t40.5 9t50 5.5t51 3.5t43 1.5t25.5 1q40 3 81.5 12t80.5 9zM1136 1258l-4 8h-6
l-9 -10l12 -14l6 6zM1067 1250l-23 14l-14 -11l11 -7zM1096 1195q5 -1 6 2t1 7q0 9 -10.5 18t-17.5 14l-7 -2q0 -8 10.5 -21t17.5 -18zM469 1134l-38 26l-10 -34zM646 986l43 -55q3 6 3 13t-3.5 14.5t-9.5 14t-13 10.5t-14 4zM577 734q-2 8 -8 26.5t-15 42t-19.5 48.5
t-21 46t-20.5 35t-17 15q1 -15 12.5 -44.5t26 -62t29 -61t22.5 -41.5zM658 825q-2 7 -6 23.5t-8.5 34t-9.5 32t-9 18.5l-6 -10zM695 742l-14 41l-12 9l2 -15zM705 722q3 -9 7.5 -18t11.5 -16l13 8q-2 7 -11 16.5t-17 9.5h-4zM818 693q-2 -5 -3.5 -9.5t-1.5 -9.5
q0 -13 13 -27.5t20 -24.5l2 -1l11 7zM849 462q-15 19 -28 49t-27.5 60.5t-31.5 56t-41 35.5l-6 -8q8 -20 20.5 -37t24.5 -34l1 -8l77 -119zM915 148q10 27 8 55h-13l-19 -15l-1 -12q0 -11 7 -18.5t18 -9.5zM200 136q20 0 35 4q-5 11 -11 20t-16 16q-5 -9 -6.5 -19t-1.5 -21z
M270 158q0 -6 2.5 -11.5t9.5 -6.5q-2 14 -12 20v-2zM123 134l-9 16q-15 -13 -23 -28h10zM263 95q3 0 5 -1z" />
    <glyph glyph-name="O" unicode="O" horiz-adv-x="1208" 
d="M1207 844q0 -96 -34 -192t-90.5 -182.5t-130 -158t-152.5 -117.5l5 1l-37 -20l2 1q-22 -14 -49 -24t-55.5 -17t-57.5 -10.5t-55 -3.5q-41 0 -91 3.5t-100.5 14.5t-95 30.5t-72.5 52.5h1q-24 24 -38 49t-31 54q-13 23 -24 36.5t-19 23.5t-14 18.5t-10 22.5t-5.5 35.5
t-1.5 57.5q0 55 9 102.5t22.5 93t28 91.5t25.5 97l12 13q7 35 24 66.5t46 53.5l-11 -5l31 58q48 39 99 87t106.5 90t115 71t124.5 29q17 0 34.5 -1t34.5 -3q21 -12 43 -15.5t47.5 -7.5t56.5 -14t70 -37h-1q56 -36 100.5 -84.5t75 -106t46.5 -122t16 -131.5zM846 1051
q0 42 -1.5 83t-13.5 73.5t-38.5 52.5t-76.5 20q-42 0 -76 -20t-60 -50.5t-44.5 -68t-30.5 -71.5q1 -6 -5.5 -35t-17.5 -72t-24.5 -95.5t-25 -105.5t-19 -101.5t-7.5 -82.5q0 -51 3.5 -97.5t12.5 -91t25 -87.5t42 -87l45 -16q63 12 106.5 48.5t72 89t46 116t28 128
t17.5 125.5t16 108q10 54 15.5 99t0.5 101q2 6 6 19t4 18zM929 1191q-1 -14 11 -29t21 -24v3q0 12 -11 28.5t-21 21.5zM916 1111q0 -20 6.5 -41t17.5 -37q-2 26 -6.5 49t-16.5 46zM355 1059q8 9 15 18.5t13 20.5l-6 10q-8 -7 -14 -16t-11 -19zM972 1071l5 -155l1 -10v1l1 2
q0 1 1 3q1 5 2.5 9.5t1.5 9.5q0 7 1 18.5t2.5 22.5t4.5 21.5t7 16.5l11 -2l4 12l-14 20q-2 17 -3.5 34.5t-9.5 33.5zM231 916l52 48l-18 8zM1027 961l-17 -8l5 -57l14 13zM958 823q2 4 5.5 10.5t-0.5 10.5l3 52l-18 -6zM958 780l-5 29q-13 -16 -19 -34q1 -24 -2.5 -50
t-9 -51.5t-12 -51t-11.5 -48.5l11 -11q4 21 10 42l12 42t10.5 42.5t4.5 42.5l-1 23zM1072 789q-11 -5 -14.5 -14.5t-3.5 -20.5q0 -16 7 -27q4 9 8 20t4 22zM1032 661l20 -9l-7 32h-9zM175 648q-15 -11 -27 -31l13 -17zM994 543q17 20 29 43t19 48l-34 -24q-12 -25 -19 -51z
M162 536l-2 41q-4 -8 -8 -18t-4 -18q0 -7 3.5 -14t8.5 -12zM954 494l-2 25q-5 -7 -11.5 -18.5t-13.5 -23.5t-12.5 -23.5t-6.5 -19.5zM200 416q4 9 8.5 18.5t4.5 18.5q0 19 -15 29q-20 -11 -20 -33q0 -25 22 -33zM172 478l-5 1l-4 -13zM225 363l-11 38l-3 -6l4 -43zM286 291
l-26 39l-19 -19l25 -35zM757 258q11 0 20.5 5t12.5 16l-10 10q-9 -5 -13.5 -13.5t-9.5 -17.5zM473 166q-15 20 -41 32q2 -14 10 -23t23 -9h8z" />
    <glyph glyph-name="P" unicode="P" horiz-adv-x="1195" 
d="M1218 930q-8 -12 -13.5 -25.5t-11.5 -26.5l2 3q-9 -47 -41 -93t-76.5 -82t-96 -58.5t-98.5 -22.5l-8 2q-46 -8 -91.5 -10t-92.5 -2l-175 2q-7 -39 -14.5 -84t-12.5 -91.5t-6.5 -92t4.5 -84.5l-10 5l19 -37q2 -22 17 -49t23 -49h-1l9 -23q10 1 24.5 1.5t28 -2.5t23 -11
t9.5 -23q0 -23 -19 -35.5t-38 -16.5q-38 8 -76 10t-76 2q-44 0 -88 -4t-87.5 -9.5t-87.5 -9.5t-87 -4l-32 2q-17 -8 -35 -9.5t-36 -1.5q-6 0 -15 0.5t-19 2.5t-18 5t-12 9q1 9 10 23t13 22l29 8h-8q39 0 65.5 21.5t43 53.5t24 70t10.5 71h-1q20 91 46.5 180.5t43.5 180.5
q5 23 3.5 47.5t3.5 47.5q5 27 15 56.5t19.5 59.5t17 60t7.5 59q0 57 6.5 112t6.5 111q0 9 -2.5 20.5t-8 22t-13.5 17.5t-20 6q-6 2 -17.5 6.5t-22.5 10.5t-19.5 13.5t-8.5 16.5t13.5 16t34.5 12t47 8t49.5 5t42.5 2.5t27 0.5q131 0 261 -13.5t261 -24.5q23 -14 47 -22
t48 -15t48 -16.5t47 -25.5h-1q35 -30 62.5 -51t47 -44.5t29.5 -54.5t10 -79zM338 1307l-23 11h-1q0 -4 2 -12t5 -17t6 -17t5 -12h2l15 25zM848 913q20 25 25.5 62t5.5 69q0 36 -1 64t-8.5 51.5t-23.5 44.5t-46 42q-35 2 -69.5 5t-68.5 13l-9 -2q-6 -7 -16.5 -47t-23.5 -97.5
t-27 -124t-26 -127t-21 -107t-12 -63.5q64 1 116 10t92 32.5t68 65t45 109.5zM985 1217q-6 10 -15 17.5t-19 12.5q-11 0 -22.5 2t-22.5 4q7 -23 18.5 -29.5t34.5 -6.5h26zM523 1232q-8 -4 -17 -12.5t-9 -19.5l1 -35q18 24 29 52zM346 1084q4 25 11 51t7 52q0 11 -4.5 21.5
t-17.5 10.5q-5 -16 -7.5 -32t-2.5 -33q0 -36 14 -70zM1019 1186q9 -10 19 -18.5t21 -16.5l-21 35h-19zM999 985q8 9 13 18.5t5 21.5q0 15 -5.5 30t-13.5 29.5t-17.5 28t-17.5 24.5q0 -39 10 -77t20 -75h6zM1090 1037v15q-17 32 -40 58l-3 -33l13 3l6 -19q6 -7 11 -14.5
t7 -15.5zM475 1037l-4 -76l21 30zM1072 907q-2 8 -4.5 17.5t-10.5 14.5l3 -35l-1 -16q0 -2 -1.5 -4t0.5 -2h5zM204 386q11 40 24.5 86.5t13.5 88.5q0 9 -1.5 18t-6.5 17q-8 -48 -20 -94t-12 -95zM330 340q2 2 2 9q0 14 -3 28.5t-6 28.5q-2 -5 -4.5 -10.5t-2.5 -10.5
q0 -12 4 -23.5t10 -21.5zM383 148q-1 5 -3.5 15.5t-5.5 21t-7 19.5t-8 12q6 -22 6.5 -46.5t2.5 -46.5h5z" />
    <glyph glyph-name="Q" unicode="Q" horiz-adv-x="1266" 
d="M1108 125q0 -17 -3.5 -39.5t-9.5 -46t-13.5 -45t-15.5 -37.5v1q-24 -59 -54.5 -113t-71 -95.5t-94.5 -66t-124 -24.5q-52 0 -88.5 16.5t-59 46t-33 70t-10.5 88.5q0 54 9.5 107t18.5 107q-42 -6 -80 -6q-124 0 -217.5 58.5t-157.5 181.5l4 -1q-11 13 -19 36.5t-13.5 50
t-9 51.5t-6.5 40q0 3 1 20.5t2 38.5t2.5 39t1.5 22q-3 9 -3 22q0 32 15.5 77.5t35.5 93.5t40 92.5t28 74.5q30 25 60 62.5t53 70.5v1q-2 0 -2 1q0 2 5.5 7t15.5 16q45 48 100.5 84t117 60t126.5 36t131 12q17 0 33 -2t33 -4l8 -6q29 -6 57.5 -17t52.5 -28l-1 1
q40 -27 69.5 -59.5t64.5 -63.5h-1q37 -31 62 -71.5t40 -85.5t21.5 -93.5t6.5 -94.5q0 -58 -7.5 -107.5t-21 -96t-33 -92.5t-42.5 -97v1q-21 -50 -57.5 -89t-79.5 -74t-86.5 -67.5t-78.5 -68.5q-6 -63 -11 -126t-5 -127v-19.5t2.5 -25t8.5 -21.5t17 -9q27 0 46.5 28t35 70
t29 91t28.5 91t34 70t45 28q19 0 33.5 -12.5t14.5 -32.5zM902 776q3 12 6.5 23.5t3.5 24.5q0 11 -3 37t-8.5 58.5t-12.5 67.5t-15.5 65t-17.5 51.5t-18 26.5q1 4 1 14q0 18 -6.5 36t-18.5 32.5t-28 24t-34 9.5q-47 0 -87 -26t-74.5 -70.5t-63 -102.5t-50.5 -123t-38.5 -132
t-27.5 -128.5t-16.5 -113.5t-5.5 -86q0 -51 6 -102q6 -3 8 -14t3 -24.5t2.5 -26.5t5.5 -19q10 24 25.5 46t36 39t45 27t51.5 10h18q39 -15 59.5 -19.5t36.5 -11.5t33 -22.5t49 -50.5q17 21 27 42t18 43t15 44.5t18 45.5l-1 -1q14 34 20.5 70.5t11.5 73t11.5 72.5t19.5 69z
M514 1177q16 11 31.5 28.5t23.5 34.5q-48 -31 -87 -70zM851 1237q10 -20 18 -32t25 -27l6 31zM331 980q-6 -6 -16 -19t-19.5 -28t-17 -29.5t-9.5 -22.5l12 -15q14 24 26 48.5t25 48.5zM1080 674q8 43 17.5 88.5t9.5 90.5q0 12 -1.5 24.5t-6.5 23.5v7q0 16 -2.5 31t-7.5 30
l-8 -19v-9q0 -20 2.5 -40.5t2.5 -41.5q0 -17 -4.5 -34.5t-9.5 -36t-9.5 -37t-4.5 -36.5q0 -12 5 -24t17 -17zM238 931q-8 -23 -17 -44.5t-19 -43.5l29 28zM1018 843l-21 28l-7 -56q0 -2 1.5 -6t4.5 -4l4 8zM207 640q7 29 15 56t14 56l-12 7q-6 -11 -9.5 -26t-5.5 -31.5
t-2.5 -32.5t-0.5 -28v-8zM262 680q-8 -14 -9.5 -30.5t-3.5 -31.5l5 2q0 -8 1 -16t3 -16l14 65zM1040 578q-9 -7 -15.5 -17t-11.5 -21l2 -22q20 26 25 60zM150 554q0 -13 7 -20l5 9l-1 4zM173 518h-10l-2 -12h10zM1005 499l-18 -38h18l11 38h-11zM153 489h-9v-26h14zM203 311
q3 15 5.5 30.5t3.5 31.5h-2l-19 -18v-3q0 -11 6 -20.5t6 -20.5zM274 338q-1 8 -4.5 16t-10.5 12l-4 -6l15 -36zM568 167q4 23 6.5 45.5t2.5 45.5q0 15 -2 34t-14 30l-8 1q-22 0 -36 -11t-23.5 -27t-17 -35t-16.5 -34q5 -17 17 -27t27.5 -14.5t32 -6t31.5 -1.5zM889 313
q-22 -18 -38.5 -40.5t-30.5 -47.5q7 5 21.5 16t29.5 24t26 26t11 22v4zM279 307l-19 -40h12l19 40h-12zM656 302v-4q0 -13 3 -26q6 3 10 9.5t8 11.5l-6 14zM693 256q-5 -12 -6 -25.5t-1 -26.5v-3l14 24zM674 136l-8 -12l10 -18q6 5 10.5 12.5t6.5 15.5l-11 7zM694 97
q-18 -2 -26.5 -14t-13.5 -27l10 -21q8 14 17.5 30t12.5 32zM713 -90q1 17 -2 33.5t-8 33.5q-2 -17 -4.5 -35t-5.5 -35l19 -11z" />
    <glyph glyph-name="R" unicode="R" horiz-adv-x="1206" 
d="M1161 397q-9 -56 -18 -106.5t-23 -94t-35.5 -78.5t-54.5 -60t-80 -38.5t-113 -13.5q-33 0 -58.5 10.5t-45 28.5t-34.5 42t-28 51v-1q-15 36 -20 75.5t-5 78.5q0 59 7.5 116.5t7.5 116.5q0 34 -6 63.5t-21 50.5t-40 33t-64 12l-45 -1q-4 -35 -11.5 -70t-14.5 -70t-12 -70
t-5 -69l2 -53q-11 -33 -15 -65.5t-4 -67.5q0 -39 9.5 -58t24 -27t32 -9.5t33.5 -4.5t28 -12t16 -32q-8 -11 -22 -19t-28 -7q-61 2 -122 -3t-120 -3q-31 2 -61.5 4t-61.5 0q-8 -2 -24 -3t-24 -1q-9 0 -35 1.5t-53 5t-48.5 10t-21.5 16.5q0 4 9.5 14.5t12.5 12.5
q41 24 62.5 42t33.5 39t19 49.5t19 74.5q10 37 21.5 80.5t21.5 88.5t16.5 88.5t6.5 82.5q25 98 46 198t26 201h1q-1 22 2.5 43t3.5 41l-3 51h1l-7 51q-6 3 -15 7t-17.5 10t-14.5 13t-6 15q0 12 7.5 19.5t19 11.5t23.5 5.5t21 1.5q41 0 81 -3.5t81 -3.5q15 0 28.5 6.5
t28.5 6.5q39 0 80 -3t81 -3l-11 -3q12 3 25 6t25 3q90 0 174 -12t168 -44h-1l18 -7l-5 -1q27 -1 45 -21t30.5 -47.5t19.5 -57t12 -49.5q-6 -16 -8.5 -32.5t-5.5 -33.5q-8 -48 -31.5 -89.5t-56.5 -77.5t-72.5 -65.5t-78.5 -52.5q55 -45 75 -106t20 -129q0 -45 -5 -89
t-11 -87.5t-11 -87.5t-5 -89q0 -5 1 -15.5t10 -10.5q14 0 28.5 16t27.5 37t22.5 42.5t13.5 32.5l-2 -2v10q9 23 11.5 54t9 58.5t21.5 47t48 19.5h4l11 -6zM450 1023q7 24 14 52t12.5 56.5t9 56.5t3.5 52l-2 29l-11 -11q-8 -60 -16 -117.5t-10 -117.5zM400 1183q17 7 27 24.5
t10 34.5q0 14 -4 25q-11 -20 -18 -41t-15 -43zM798 1117l-14 38v-1q-9 26 -32 44t-52 29.5t-60 17t-57 7.5q-23 -125 -43 -251t-37 -252q70 3 118 14t79 31t48 49.5t26 69.5t12.5 91.5t8.5 115.5zM1019 1099l11 10q0 26 -7 47zM415 1129l-3 12q-4 -19 -7 -38t-8 -38z
M896 1050l3 -2l15 73l-11 16zM1024 1026q-16 -25 -27 -52t-22 -55q7 6 15.5 16.5t16 22t13 23t5.5 21.5zM865 808l53 71h-17l-40 -69zM401 813l9 34l-18 31q-11 -34 -17 -75t-9 -83.5t-3.5 -84.5t-0.5 -78q0 -20 3.5 -41.5t7.5 -41.5q4 12 8 28t7 33t4.5 33.5t1.5 30.5v7
q-7 11 -9 24.5t-2 26.5q0 11 2 31.5t5.5 41.5t8 38.5t9.5 23.5zM857 846l-53 -42l31 -2zM245 739q-6 -8 -9.5 -24.5t-5.5 -35t-3.5 -36t-2.5 -28.5q8 25 13.5 50t10.5 50zM752 550q6 0 11 5.5t7 10.5l-40 75l-28 -14v-3q0 -15 6 -27l24 11q4 -14 7 -28.5t5 -29.5h8zM220 522
h-4l-19 -59h6zM154 193q7 30 15 62t15 64.5t11.5 64.5t4.5 62q-8 -9 -16.5 -41t-15.5 -69.5t-11 -72t-4 -47.5zM266 374h12l12 43h-8zM275 353q-14 -16 -20 -36t-10 -40l11 -5q6 13 12.5 30t6.5 32v19zM268 209h-6l-7 -10l5 -4zM283 192l-8 3l-5 -13l5 -3zM374 100l-6 74
q-3 -17 -5.5 -34t-2.5 -34l1 -18l10 4zM257 127q6 6 8 10l-5 7l-7 -7zM127 129l-13 -16l7 -23zM902 68l-21 54l-10 -29l25 -35zM311 92l-1 17q-6 -4 -11 -8t-10 -9l11 -2z" />
    <glyph glyph-name="S" unicode="S" horiz-adv-x="1022" 
d="M950 721q2 -34 12 -66.5t10 -67.5q0 -41 -11.5 -80.5t-29.5 -77t-40.5 -72.5t-43.5 -66h1q-26 -42 -62.5 -77t-80 -60.5t-92 -39.5t-97.5 -14q-32 0 -64.5 9t-65 20.5t-64 20.5t-62.5 9q-22 0 -34 -9t-19 -23t-12.5 -31.5t-15 -34t-26 -30.5t-45.5 -21q-40 14 -40 53
q0 23 6 44.5t10 43.5q18 107 24 213t8 215q0 8 10.5 15t24.5 12.5t27.5 9t19.5 3.5h21q12 0 18.5 -16.5t10 -37.5t4.5 -41t3 -28q4 -27 20 -59.5t39 -66.5t51.5 -65.5t59.5 -56.5t62.5 -40t60.5 -15q15 0 31 7t31.5 17t29 21.5t24.5 20.5q7 20 16.5 32t17.5 27t14 37.5
t6 63.5q0 34 -11.5 61.5t-30 51.5t-42 44t-48.5 39l11 -2q-33 8 -58 27l15 -2q-66 15 -124.5 36t-120.5 47l3 -1q-26 11 -54 18.5t-55 15.5q-25 23 -38 43.5t-20.5 41t-12 43t-11.5 51.5q7 64 20.5 118t24.5 116q24 34 50.5 76.5t58 81t69 68t83.5 39.5h-2q17 5 37 9.5
t40.5 9t40 10t35.5 13.5q-4 0 -1 1.5l5 2.5h57q7 5 25 5.5t25 0.5q22 0 45 -5.5t45.5 -14t44 -18.5t41.5 -18q6 0 17 10.5t22 24t21.5 26.5t15.5 18l30 1q13 0 26.5 -2t26.5 0q6 -4 7 -10t1 -12q0 -8 -7 -29.5t-17.5 -50t-23.5 -61.5t-25 -65t-21.5 -59.5t-13.5 -44.5
l-28 -129q-5 -21 -21.5 -32t-37.5 -11q-14 0 -24.5 4.5t-17 12t-7.5 18.5t6 24l-10 42q3 25 -4 50t-13 49q4 6 4.5 21t0.5 23q3 38 -10.5 62.5t-36 41t-51.5 27t-58 20.5q-31 -1 -73.5 -15t-81 -37.5t-65.5 -55t-27 -67.5q0 -23 3 -47t5 -47l-5 4q12 -22 16 -45
q8 -47 39.5 -67.5t78 -30.5t103.5 -19t117 -34t118 -74.5t106 -140.5zM921 1415q-15 -18 -17 -37t-3 -41q6 7 15.5 19t9.5 22q0 9 -1.5 18.5t-3.5 18.5zM280 1257q-9 -10 -15.5 -22.5t-11.5 -24.5l11 -30zM876 1251q-6 -12 -9 -18.5t-4.5 -12.5t-2 -14t-0.5 -22q9 9 14.5 18
t8.5 21zM375 924q-20 13 -39 26.5t-37 30.5l-10 -18q-1 -5 7.5 -13.5t20 -18.5t23.5 -18.5t18 -13.5l13 2zM197 916q8 -17 20.5 -31.5t25.5 -28.5q-1 7 -6 16t-12 18t-14.5 16t-13.5 11v-1zM536 896q0 -6 13 -13.5t32.5 -16.5t43.5 -18.5t46 -17.5t39 -15t23 -10
q-25 18 -47 33.5t-45 28t-48.5 22t-56.5 14.5v-7zM473 783q14 -14 32.5 -24.5t39.5 -18.5t42 -13.5t39 -9.5q-11 14 -26 24.5t-32 19t-34.5 16t-32.5 15.5zM843 621q2 13 5.5 26.5t3.5 27.5q0 7 -7 18t-17 22t-19.5 20t-15.5 13l-2 -1q11 -33 24 -64t28 -62zM814 484
q8 14 14 31.5t6 34.5q0 11 -4 24.5t-18 15.5l-3 -29q0 -20 1.5 -38.5t3.5 -38.5zM815 461l-13 10l5 -24zM185 382q-1 -9 1 -22t5.5 -27t7.5 -27t7 -21l-3 97h-18zM272 199l-14 41l-30 6l32 -47h12z" />
    <glyph glyph-name="T" unicode="T" horiz-adv-x="1147" 
d="M1234 1400q0 -17 -6.5 -32.5t-2.5 -34.5q-13 -38 -21.5 -79.5t-14 -84.5t-8 -86t-2.5 -83l1 -14l1 1q1 -16 2 -39t-3.5 -44t-15.5 -35.5t-34 -14.5q-38 0 -51 20t-10 55l1 -1l-4 41l3 5q2 15 -5 38.5t-17.5 49t-22 48t-17.5 36.5q-26 19 -41.5 37.5t-31 33t-35.5 23
t-55 8.5l-17 1q-8 -45 -17 -89.5t-9 -91.5v-7.5t2 -7.5q-14 -75 -29.5 -150t-28.5 -150t-21.5 -151t-8.5 -153q0 -11 2 -44t6.5 -69t11.5 -66t17 -35q3 -13 8 -25t10 -23l31 1q10 -2 22 -5.5t22 -9.5t16.5 -13.5t6.5 -17.5q0 -18 -16.5 -28t-39 -15t-44.5 -6.5t-32 -1.5
q-69 0 -146 -3t-155.5 -9.5t-154.5 -16.5t-142 -24q-9 2 -19 10t-10 19q0 28 14 38.5t36 16t48.5 11.5t52.5 24.5t47.5 55.5t33.5 104q23 135 41.5 270t42.5 270q17 96 45 193t50 194q-8 2 -16.5 4.5t-16.5 2.5q-60 0 -110 -34.5t-85.5 -87t-56 -114t-22.5 -114.5h-1
q0 -38 -17 -61.5t-60 -23.5q-13 0 -20 6.5t-17 13.5l-6 32q0 2 2 8t3.5 12.5t1 12t-3.5 6.5q21 98 39 194t18 196q0 6 -0.5 12t1.5 12q5 6 12.5 13t16.5 13.5t18 11t17 4.5q3 0 7 -2t7 -3l12 -13q135 3 269 14.5t269 12.5l7 4l29 -1l2 -1l-3 -1q1 -2 3 -2h3q20 -2 40.5 -1.5
t40.5 0.5q54 0 107.5 2.5t107.5 10.5q11 21 24.5 32t39.5 11q7 0 16 -0.5t17 -3t13.5 -8t5.5 -14.5zM1122 1345q8 0 15 -7t7 -15l7 32zM858 1323q-17 -1 -38 -3t-43 -3t-43 -0.5t-36 4.5l-7 -8q-1 -6 10 -9.5t26 -5t29 -2t18 -0.5q22 0 41.5 5t40.5 10zM378 1286l-5 2
q-8 0 -14.5 -4.5t-12.5 -10.5t-11.5 -13t-10.5 -11l-11 -2v-14h8zM882 1264q5 2 11 6t9 9l-23 9l-12 -14zM1156 1275h-12l-9 -29h8zM698 1221q5 2 10 5.5t7 8.5q-5 8 -10.5 11.5t-13.5 6.5zM608 1247q-2 -6 -3.5 -12t-1.5 -12q0 -16 10 -29q2 5 4 11.5t2 11.5q0 17 -11 30z
M1118 1155q4 11 6.5 23.5t2.5 25.5l-2 23q-11 -8 -20 -17.5t-17 -20.5zM612 1165q-7 -15 -10 -31.5t-7 -33.5q2 1 6 6.5t8.5 12t8.5 12t6 8.5zM229 1153h-6l-25 -73h6zM1133 1076q6 32 5 61q-11 -31 -5 -61zM578 1063q-4 -23 -5 -46t-1 -46l23 68zM558 868q-9 -47 -15 -93
t-14 -93q10 8 18 31t14 49t9 48.5t3 30.5t-5 15t-10 12zM580 512q1 14 -1 29t2 29l-18 18l-15 -6q-4 -13 -4 -27v-27zM581 394l-8 8l-10 95l-9 8q-1 -20 -2.5 -41t-5.5 -41q10 -11 14.5 -25.5t7.5 -28.5zM476 318q2 11 3 22t1 22l-1 32l-14 18q-5 -17 -12 -37t-7 -38
q0 -22 19 -22zM589 343q0 -5 1.5 -14.5t4.5 -19.5t6.5 -18.5t6.5 -11.5l-12 70h-6zM564 264l-1 6q-3 7 -17 19t-20 26l-1 -7q0 -5 3.5 -13t8.5 -16.5t10.5 -16.5t8.5 -12h2zM414 168q-11 9 -11 25v4q-12 -10 -21 -23t-11 -29zM677 167l-82 7l37 -27z" />
    <glyph glyph-name="U" unicode="U" horiz-adv-x="1236" 
d="M1358 1360q0 -24 -21.5 -39t-50.5 -25t-58.5 -15.5t-45.5 -10.5q-11 -89 -19.5 -177t-16.5 -176t-18.5 -176t-26.5 -177q-17 -26 -28 -54t-26 -54q-36 -63 -83 -124t-104.5 -108t-126.5 -76t-148 -29q-24 0 -50 4t-52.5 11.5t-51 18.5t-43.5 24l13 -1q-33 4 -63 22
t-54.5 43t-43.5 54.5t-31 58.5l21 -4q-10 7 -16.5 16.5t-6.5 21.5q0 78 -4.5 153.5t-4.5 152.5q0 11 3 22t5.5 22t4 21.5t-1.5 21.5l10 -7l-2 4l-10 7q14 51 21.5 106t12.5 111l10 112t14 109l4 -3q-13 31 -18 50.5t-8.5 31t-8 17.5t-14.5 9.5t-29.5 6t-52.5 8.5l-12 17
q4 24 20.5 36t38 17t44.5 5h41q66 0 130.5 7.5t129.5 7.5q21 0 41.5 -2t41.5 -3q3 1 11 2t17 1t16.5 -0.5t9.5 -2.5q21 1 41.5 1.5t41.5 2.5q8 -4 15 -12.5t7 -18.5q0 -11 -7 -21t-17 -17.5t-22 -12.5t-21 -7q-42 -9 -63 -30.5t-28.5 -50.5t-7 -64.5t0.5 -72.5
q0 -61 -6 -122t-14 -121.5t-16 -121.5t-13 -122l-9 -16l-10 8q5 -11 8.5 -24t3.5 -26q0 -42 -8.5 -83.5t-8.5 -84.5q0 -15 1.5 -30.5t3.5 -30.5q-2 -8 -2 -21t1 -27.5t3 -28t4 -21.5q8 -3 20.5 -6.5t25.5 -7.5t25 -6.5t20 -2.5q37 0 75 21t73.5 51.5t66.5 65t54 60.5l-6 -4
q8 23 20 45l24 44t22.5 44.5t15.5 46.5q20 100 35.5 204.5t15.5 207.5q0 36 -9.5 73t-9.5 70q-3 12 -4 27.5t-3.5 30t-9 26.5t-19.5 16q-12 4 -37 6.5t-49.5 5.5t-43 8t-18.5 14q0 19 11.5 30t28 17t35 8t32.5 3q6 3 35 7.5t63 8t64.5 6.5t41.5 3q16 0 35 -2.5t38 -4.5
t36.5 -1.5t32.5 6.5h-2q8 2 15.5 4t15.5 2h13t15.5 -1.5t13 -6t5.5 -12.5zM457 1334q8 3 15.5 8.5t14.5 10.5l-54 7l-3 -8v-12l6 2zM1063 1278q0 22 -17 36q5 -17 5.5 -35.5t10.5 -33.5zM1092 1296q-3 -17 -9 -32l8 -1l7 9zM509 1057l2 20t1 20q0 11 -1 23t-6 23l-4 -26
t-2 -27q0 -8 1 -18t9 -15zM310 1071q-6 -23 -6 -47l1 -16q8 5 13.5 14t9.5 18zM369 849q4 28 5.5 55.5t2.5 55.5l-14 6q-8 -32 -8 -62q0 -14 3 -28.5t11 -26.5zM464 695q5 25 12.5 48.5t7.5 49.5q0 34 -6 67l26 89l-8 3h-15l-7 -13q2 -53 -5 -105.5t-7 -106.5zM298 902l-7 6
l-10 -36l13 -14l1 1zM349 765q2 5 4 9.5t2 9.5q0 13 -3 25t-7 24q-4 -3 -8 -6.5t-6 -8.5zM322 734h-11l-4 -13q2 -8 7 -16t13 -11zM276 715l-12 -14l18 -33l8 17zM317 676l-5 3l-8 -11h6zM472 651l-3 -5l-1 -8q0 -3 2 -11l10 11zM319 414q0 12 -0.5 32t-1.5 41.5t-4 40.5
t-7 29q0 12 1.5 26t-6.5 25l-1 -54v-42t1.5 -51t5.5 -50t12 -38v41zM407 543h-9l-5 -13l4 -3zM444 429q4 15 7.5 31t3.5 32q0 11 -1.5 16t-4.5 7.5t-6 4.5t-6 7q-8 -8 -15.5 -20t-7.5 -24q0 -13 12 -20h8zM373 269l5 30l-27 51l-2 -14zM441 336q-8 -7 -12.5 -17t-6.5 -20
q7 0 13 5.5t6 12.5v19z" />
    <glyph glyph-name="V" unicode="V" horiz-adv-x="1051" 
d="M1237 1313q1 -4 -2.5 -9t-8 -10t-9 -9t-5.5 -5q-35 -4 -63 -21.5t-49.5 -43.5t-38.5 -56.5t-30 -59.5q-16 -35 -35.5 -69.5t-40.5 -66.5q-25 -37 -44 -75.5t-36.5 -78.5t-34 -79.5t-36.5 -78.5q-50 -97 -102.5 -193.5t-112.5 -187.5q-35 -54 -69.5 -107.5t-60.5 -111.5
q-12 -2 -26 -5.5t-25 -3.5q-31 0 -52.5 23.5t-21.5 53.5l1 19q-11 50 -23 106.5t-22 115t-16.5 115.5t-6.5 108q0 25 -4 51t-8.5 51.5t-8 51.5t-3.5 52q0 18 -1 43.5t-3.5 52.5t-6 52.5t-7.5 43.5q-10 38 -25 77.5t-15 80.5v12h1q-19 32 -42.5 42t-44.5 12.5t-35 5.5t-14 21
t15.5 30.5t40.5 21.5t55 14t59 8t53.5 4t37.5 1q75 0 149.5 3t149.5 3q8 0 25 -2t34.5 -6.5t30.5 -12t13 -19.5q0 -10 -13 -17t-33 -12t-44 -8t-45.5 -5.5t-38.5 -3.5t-22 -2l-3 -31q0 -11 1 -21t3 -20q0 -8 -1 -18t2 -18l-3 -15q5 -39 14 -83.5t9 -82.5q0 -53 5.5 -109.5
t14.5 -113t20.5 -112t24.5 -106.5q15 29 33 56.5t36 55.5q0 1 9.5 23t26 58.5t38 83.5t44 98.5t45 104.5t41 100t31.5 85t17 61q-8 16 -27 22t-35 6l-32 -2l-11 30q4 19 24 31t48.5 20t62 11.5t66 4.5t59.5 1h43h8q0 -4 16.5 -3t37 0.5t37 -6t16.5 -22.5zM1077 1267
q15 6 23 20l-11 3l-20 -13zM996 1260q-1 7 -5 12t-11 5q-2 -5 -2 -9v-9l1 -12zM381 1119q1 6 0.5 13t-2.5 13q2 5 4.5 10t2.5 11q0 15 -4.5 29.5t-5.5 29.5l-10 4l-10 -4zM241 1202l-14 26l-19 -6l29 -43zM436 1183h8l5 25q-5 -5 -10 -10.5t-9 -12.5zM341 1074
q-5 28 -9.5 60.5t-16.5 58.5l-11 1l-38 -11q11 -8 18.5 -19.5t17.5 -21.5l35 -76zM439 1126q9 4 17.5 9t14.5 13h-14l1 6l-5 16q-2 -11 -7 -22t-7 -22zM465 1056h-6l-3 -16h6zM363 1049q5 -12 9.5 -24.5t10.5 -23.5l1 7l-15 41h-6zM398 866h-12l-1 -48v-18.5t1.5 -26.5
t5 -25t10.5 -14q-1 20 1.5 39.5t2.5 39.5q0 25 -3 49zM379 544l4 21h-7l-4 -21h7zM373 510l8 -46q4 8 6 21l3 4q0 8 -3.5 16.5t-8.5 16.5zM378 423l4 -5h16l-14 38zM407 325l-13 15l-22 -49l31 13z" />
    <glyph glyph-name="W" unicode="W" horiz-adv-x="1565" 
d="M1640 1230l-28 -11q-20 -32 -50 -77t-60 -94t-54 -96t-33 -82q-11 -10 -32 -48.5t-49 -92.5t-59.5 -118t-62 -124t-58 -110.5t-46.5 -78.5l1 1l-29 -41h1q-10 -20 -23 -50t-30.5 -58t-39 -48t-48.5 -20q-32 0 -42.5 19t-12.5 48q-18 25 -20 52t-2 57l1 -1q-8 39 -8 79
t-8 79l-2 9l1 -1q-11 51 -13.5 103t-6.5 103v-1l-14 140q-13 -31 -37.5 -84.5t-55.5 -116.5t-65.5 -130.5t-67 -127t-61.5 -105.5t-49 -67q-10 -3 -26.5 -8t-27.5 -5q-8 0 -16.5 2t-16.5 4q-20 17 -33 42.5t-21 54t-11.5 57.5t-3.5 54q0 28 -6.5 73.5t-16.5 99.5
t-22.5 112.5t-24.5 112.5t-22 99.5t-16 74.5l3 -1q-15 32 -19.5 65t-8.5 68h1q-3 25 -5.5 61t-8.5 72t-18.5 66.5t-36.5 46.5q-15 0 -28 4t-13 23q0 18 11 32q16 6 46.5 10t68.5 6t80.5 3.5t82 1.5h73h53.5q6 0 27.5 0.5t45.5 -1t43 -7.5t19 -18q0 -23 -16.5 -32.5
t-36.5 -11.5q-26 -22 -39 -54.5t-13 -65.5q0 -28 3.5 -55t8 -54.5t8.5 -54.5t4 -55l-2 -40q17 -28 17 -62v-8l-4 5q9 -21 16.5 -54t13 -69t8.5 -70t3 -57v-1l5 -8q1 3 15.5 33.5t35 75t44.5 96t44 96t33.5 75t13.5 33.5q0 55 -16.5 106t-36 92.5t-36 69t-16.5 36.5
q0 22 14.5 31t34.5 9q30 0 64 -1.5t69 -4.5t69 -7t64 -9q10 3 32 5.5t47 4t48.5 2t36.5 0.5h23t29.5 -3t25 -9.5t10.5 -19.5q0 -17 -8.5 -26.5t-21 -15t-28 -9.5t-29 -10.5t-23 -18t-11.5 -31.5l-11 -130q17 -48 20.5 -103t4 -112t2.5 -113t16 -107l12 7q16 30 40.5 76
t52 99.5t55 110t50 108t36.5 93.5t14 66q0 18 -10.5 29t-25.5 19t-32 15t-30 18l-1 33q6 5 11 10.5t10 10.5q8 1 15 2.5t15 1.5q52 0 104 -1t104 -3l49 -2l13 -1h2l-3 -1q15 -2 31 -1t31 3q4 -11 6.5 -22t2.5 -22q0 -15 -7.5 -24.5t-19 -15t-25 -7.5t-25.5 -3zM501 1315
q-9 0 -19 -3.5t-15 -11.5l17 -18l16 25zM291 1286q1 2 2.5 6t1.5 6v11l-26 2h-22q-5 0 -11.5 -2t-11.5 -4l11 -13q5 2 15 5t15 1zM194 1300l-3 7l-12 -4l-1 -9zM987 1272l-3 6l-40 8l2 -21zM1636 1265l-38 16l-5 -5v-27l47 17zM790 1255l-24 21v-20zM383 1031l-19 74l8 24
q-5 8 -6.5 18t0.5 18l-5 6q2 13 -0.5 27t-10.5 25l-8 -11v-1q0 -14 8 -25h-4l-2 -12q9 -20 8 -37l-2 -34t4 -36t26 -43zM442 1166l9 -12l-11 41q-16 -15 -16 -39q0 -7 1.5 -14.5t6.5 -13.5l14 -4zM925 1060q2 20 2.5 39t-4.5 39l-11 4q3 -17 4.5 -36t-1.5 -37
q-7 -5 -15.5 -18t-8.5 -23q0 -22 6 -44.5t13 -43.5l9 -8q1 31 0.5 61t13.5 59zM973 1056q2 8 3 17.5t1 18.5q0 20 -3 40l-20 -14l-2 -23q0 -4 0.5 -11t2 -13.5t4.5 -11.5t9 -5zM358 801q-4 -1 -3.5 5t5.5 6l3 20l-6 9q-6 56 -18 105t-20 103l-11 22q-2 -7 -3 -13.5t-1 -14.5
q0 -35 4.5 -71t11.5 -72t15 -71.5t15 -69.5l8 18v24zM462 1039q-3 14 -15 26l-3 -20l6 -23l7 5zM1000 986l1 41l-20 17l12 -58h7zM465 935q0 20 -2.5 40t-5.5 40q-9 -23 -9 -48q0 -34 15 -62zM928 782q0 7 -2.5 27t-6.5 41.5t-10 38.5t-12 18q5 -32 11 -66t20 -64v5z
M903 751q0 18 -6 39.5t-13 38.5q-3 -20 1 -47.5t15 -45.5zM971 696q-3 15 -7.5 29.5t-15.5 25.5l-2 -12l-3 -4q5 -12 8 -25l6 -26zM931 531q3 11 6.5 22t3.5 22q0 17 -4 33.5t-9 33t-8.5 32.5t-3.5 32q-5 -11 -7 -24t-2 -24q0 -32 7.5 -64t16.5 -63zM547 518l-24 119l-9 6
q4 -33 8.5 -66.5t6.5 -66.5l8 -12zM1143 511l36 48l-42 -36l2 -12h4zM408 475l-2 23h-6l4 -23h4zM1023 381l-33 92v-15q0 -26 2.5 -51t6.5 -51l11 -4zM444 388q-6 5 -6 15t2 17l-6 2l-12 -9q7 -20 8 -36zM465 217q-13 -3 -22.5 -12.5t-11.5 -22.5l9 -14q8 11 15 23t10 26z
M945 117q14 8 24.5 18.5t15.5 26.5l-21 18l-33 -24l-1 -4q0 -20 15 -35z" />
    <glyph glyph-name="X" unicode="X" horiz-adv-x="1251" 
d="M1192 77q-76 -11 -162.5 -19.5t-164.5 -12.5q-32 -2 -63 -7.5t-62.5 -11.5t-62.5 -11t-63 -5q-15 0 -35 1t-34 8l-8 28q7 16 18.5 23t24.5 10.5t26.5 8t24 16t17.5 33t7 60.5q0 38 -11.5 81t-27.5 86.5t-33 86t-28 80.5q-13 -11 -34 -34t-45.5 -53t-49.5 -63t-45.5 -63.5
t-33.5 -55.5t-13 -38q0 -11 10 -16t18 -8q10 1 29.5 2t39.5 -1t35 -8t15 -19q0 -23 -12 -35t-31 -23q-23 -5 -43 -5q-47 0 -94.5 -5.5t-95 -11.5t-95.5 -11.5t-96 -5.5h-22.5t-33 2.5t-29.5 8.5t-13 17q0 8 5.5 17t10.5 16q75 17 126.5 39.5t92 54t78 72t84.5 93.5
q37 42 75.5 90t64.5 98q11 22 24 42t31 37q-12 49 -22.5 108t-25 120.5t-33.5 121.5t-47.5 111.5t-67.5 90.5t-93 58h1q-11 3 -22.5 10t-17.5 18q16 19 53.5 31.5t87 20.5t105.5 12t109.5 6t99.5 2h75q6 0 16 -1.5t19 -5t15.5 -9t6.5 -14.5q0 -19 -8.5 -27.5t-20 -12.5
t-24 -7t-20.5 -11l-2 -24q0 -8 6 -30.5t15 -53t20 -66t21 -68.5t18 -60.5t11 -42.5q47 51 89 113t81 117l-5 -4q9 12 14 28.5t5 30.5q0 18 -13 24t-31 8.5t-37 4.5t-31 13q4 6 10.5 15.5t14.5 19t16.5 16t16.5 6.5q38 0 72.5 -0.5t72.5 3.5h-3q44 4 87.5 5t87.5 1
q7 0 19 0.5t23 -1.5t19 -7.5t8 -17.5q0 -9 -4 -19t-11 -18.5t-16 -14t-19 -5.5l-17 1q-64 -34 -119 -85t-105 -109t-97.5 -117.5t-95.5 -110.5q9 -69 31.5 -154.5t53.5 -172t67.5 -167t72.5 -139.5h-1q8 -12 23 -22t33 -17t36.5 -11t32.5 -4q6 0 14.5 1t16.5 0t13.5 -5.5
t5.5 -14.5q0 -15 -7 -29t-15 -27zM614 1306l-18 18l11 -28zM478 1117q-6 17 -13.5 34t-21.5 31q8 -17 16.5 -33t18.5 -32zM617 1123q-6 26 -18 50v-11q0 -11 2.5 -23.5t15.5 -15.5zM554 1056q-4 26 -10.5 53t-25.5 47l-1 -10q0 -25 11.5 -47.5t25.5 -42.5zM485 1098l-3 16
l-4 -2l3 -14h4zM634 1075l-7 33l-9 -6l-2 -27h18zM568 1008l1 2l-1 10l-4 -2zM621 804q0 11 -2 19.5t-9 16.5l-32 155l-10 9q-6 -6 -10.5 -13.5t-7.5 -15.5q14 -45 32 -89.5t39 -86.5v5zM707 273q2 8 3 17t1 17q0 30 -6 59.5t-13 58.5q-8 5 -14 16t-11 23.5t-9 25t-7 20.5
q0 -9 4 -28.5t9 -44t11.5 -51t12.5 -50t11 -41t8 -22.5zM898 240l-20 43q2 -10 6.5 -25t12.5 -22zM715 178l14 20l-19 41l-3 -30zM220 162l-14 10l-16 -16q5 -1 10 -2.5t10 -1.5h6zM801 98l5 41h-6l-17 -53zM873 102l-18 28l13 -36z" />
    <glyph glyph-name="Y" unicode="Y" horiz-adv-x="1226" 
d="M1379 1396q-12 -30 -41 -48q-24 -3 -38 -6.5t-24.5 -10t-21 -18.5t-25.5 -31q-102 -128 -204.5 -256t-193.5 -265q-24 -36 -39 -92t-23.5 -118t-12 -121.5t-3.5 -102.5q0 -17 1.5 -34.5t7 -34t15 -31t24.5 -24.5q10 -2 24 -4t27 -6t22 -11t9 -20q0 -25 -9.5 -45.5
t-38.5 -20.5q-23 0 -46 5t-44 11h1q-25 7 -50.5 14.5t-51.5 7.5q-63 0 -124 7t-122 7q-20 0 -40 -3.5t-39 -9.5h2q-20 -6 -41 -6q-31 0 -61 2t-61 2q-8 5 -10.5 13.5t-2.5 16.5q0 18 12 29.5t29 17.5t35.5 7.5t32.5 0.5q21 17 44 29.5t46 26.5q19 12 33.5 42t25.5 70.5
t19.5 87.5t14.5 91.5t11 82.5t9 62q-24 52 -45 105t-37 108l2 -1l-13 31h1q-11 24 -25 48t-28.5 48.5t-28 48.5t-22.5 48l2 -2q-26 46 -43.5 66.5t-36.5 30.5t-44.5 18t-67.5 29q4 24 13.5 38t24.5 21t33.5 9t40.5 2q103 0 204 9.5t204 9.5q10 0 30 -1t40 -5.5t35 -12.5
t15 -21q0 -26 -8.5 -39t-20.5 -18t-27 -5.5t-27 -2t-20.5 -7t-8.5 -19.5q0 -5 1 -12.5t5 -12.5q-2 -22 8 -47.5t19 -45.5l1 1l4 -9h-1q18 -34 31 -70t24.5 -72t24 -72t28.5 -70q17 23 44.5 57t59 74t64 82.5t58.5 83.5t42.5 76.5t16.5 60.5q0 24 -6 48h1q-5 18 -17 27
t-28 12.5t-33 5t-31 4.5l-6 14l2 23q18 28 51 35.5t64 7.5q15 0 47 -0.5t71 -2.5t81 -5t76 -9t56 -14t22 -20zM1092 1339q0 14 -9.5 30.5t-17.5 27.5l27 -62v4zM1250 1394l-13 -4l-1 -3l12 -7l6 6t5 7zM1178 1362q-4 11 -16 16t-21 10q1 -11 10 -20t20 -10zM540 1325
l-19 -18q-8 -2 -15 -6t-13 -9l8 -26h11q1 6 3.5 14.5t6.5 16.5t9.5 14t13.5 8zM1094 1287l-11 -14l4 -18q7 10 17 20zM453 1087v4q0 10 -7.5 30.5t-19 41t-24.5 36t-24 15.5v-4q0 -9 6 -20.5t13 -22l13 -19.5t5 -13zM540 742q6 13 6 29q0 25 -9 48h-10q-8 29 -22.5 52
t-36.5 44q19 -40 33 -80.5t28 -82.5zM692 768q-12 9 -27 14l-6 -14l16 -26zM710 715h-7q-20 -38 -30 -80.5t-14 -85.5l8 -2q9 42 21.5 83t23.5 83zM554 639l-1 67l-5 -2q-2 -17 -3 -33.5t-1 -33.5l1 -28l16 24zM524 424q8 29 13.5 58.5t5.5 59.5q0 7 -2 14.5t-4 13.5
q-3 -14 -6 -39t-6.5 -50.5t-8 -47.5t-11.5 -30l2 -10l10 25zM592 377q8 49 14.5 93t8.5 95q-9 -6 -16 -27t-12.5 -46t-8.5 -49.5t-3 -37.5q0 -9 5 -15.5t12 -12.5zM663 353q-5 12 -9 24.5t-4 25.5q-3 -8 -5 -17l-4 -18q3 -12 5.5 -24.5t4.5 -24.5zM699 202l-20 -9l18 -9
l19 4z" />
    <glyph glyph-name="Z" unicode="Z" horiz-adv-x="1196" 
d="M1138 575q-6 -34 -13 -77.5t-15 -92t-16.5 -99t-18 -97.5t-20 -88.5t-21.5 -71.5q-8 -22 -18.5 -25.5t-33.5 -3.5q-33 0 -65 7.5t-64 17t-64.5 17t-66.5 7.5q-5 0 -19.5 -0.5t-31 -2t-30.5 -3.5t-17 -5q-50 2 -96.5 0t-96.5 -7q-8 -4 -23.5 -6t-33 -2.5t-33.5 0t-25 0.5
q-32 0 -74 3.5t-75 8.5q-8 -2 -26.5 -4.5t-41 -4t-46.5 -1.5t-44 3t-32.5 10t-12.5 20q0 15 17 42.5t40.5 57.5t47.5 57t38 41l3 -1q28 36 73.5 89.5t101 117.5t117 135t121.5 142t114.5 138.5t96 124t66 98.5t24.5 63q0 20 -14 25.5t-30 5.5q-68 0 -133 -14t-119 -45.5
t-93.5 -82.5t-54.5 -124q-4 -18 -8 -41t-12 -43.5t-21.5 -35t-37.5 -15.5q-15 -7 -35 -7q-9 0 -20.5 3.5t-15.5 13.5q3 51 16.5 102t30 103t31.5 104t20 103q1 18 15.5 28t33.5 16t38.5 9t32.5 7v-1q85 7 170.5 10.5t170.5 3.5h46.5t88.5 -1.5t108 -5t105 -10t79.5 -18
t31.5 -27.5q0 -17 -10 -33t-18 -31h1q-2 -5 -12 -22t-25.5 -40t-33.5 -49t-35.5 -49.5t-32.5 -41.5t-24 -25l-13 -16l-42 -59h1q-32 -47 -67.5 -87.5t-74.5 -82.5q-42 -44 -80.5 -90.5t-75.5 -93.5t-74.5 -94.5t-76.5 -93.5v1q-34 -42 -70.5 -83t-65.5 -86q9 -7 25 -11
t34.5 -6.5t35.5 -3t28 -0.5q32 0 67.5 2.5t71 8.5t69.5 16t63 25q42 39 73 79.5t56 84t46 90.5t42 99q6 14 10.5 24t11 16t17 8.5t28.5 2.5q8 0 18.5 -1.5t17.5 -7.5zM650 1232q6 4 12.5 8t11.5 10l-12 11q-5 0 -11 -2.5t-11 -4.5l-3 -13zM484 1257q-6 -2 -10 -9.5t-6 -12.5
l15 -7q13 5 18 18zM567 1257h-7l-4 -25zM908 1237l-20 8l-3 -8l1 -13zM1044 1242q-16 -6 -21 -23l1 -3q7 2 12 8.5t9 12.5zM991 1174q15 16 19 35q-7 -5 -13 -11.5t-10 -14.5zM935 1140l-9 -11l-1 -5h7l6 7zM974 1057q4 11 9 20.5t10 19.5v10q-15 -15 -27.5 -31.5
t-23.5 -33.5l-25 -18q-14 -23 -30 -43t-32 -41l-1 -9v-8q13 13 23 19.5t19 13.5t18 16.5t20 28.5q8 15 18 29.5t22 26.5zM414 1087l-5 2q-13 -10 -17.5 -24t-5.5 -29q9 6 18.5 16.5t9.5 22.5v12zM783 945q5 8 6.5 17t3.5 18q-12 -7 -18.5 -19.5t-9 -27.5t-3.5 -30t-3 -27h9
l24 58zM482 490l-22 -27v-10q15 17 22 35v2zM267 245q29 21 51.5 50.5t44.5 58.5l2 14q-7 -3 -23.5 -18t-33.5 -32.5t-30 -34t-13 -22.5zM1015 305q-11 -13 -23.5 -28t-19.5 -30v-2q3 -3 7 -5t8 -5q11 16 19 33t9 37zM191 273q-10 -5 -23.5 -22t-28.5 -37t-30 -39.5
t-27 -29.5l-1 -6l3 -8q7 8 15 14t16 11q7 9 18.5 24.5t23.5 33t22 33.5t12 26zM883 218l-22 -15l14 -2q11 4 14 17h-6zM200 182l6 21h-9l-8 -26zM980 92q5 25 8.5 50t3.5 51v6q-6 -4 -13 -17.5t-13 -30t-10.5 -31.5t-4.5 -22zM849 191q-17 -5 -32 -16t-28 -25q17 7 31.5 18
t28.5 23zM254 141l-18 -6l2 -11q7 0 13.5 4t11.5 9zM340 135l-17 -12l19 -3l20 4zM917 121l-22 2l-18 -2l33 -13z" />
    <glyph glyph-name="bracketleft" unicode="[" horiz-adv-x="645" 
d="M665 1360q-33 0 -64 -2.5t-63 -4.5q-5 0 -13 -19.5t-16.5 -49t-17.5 -65.5t-16.5 -69.5t-12.5 -60.5t-7 -38q-4 -28 -13.5 -81t-22.5 -122.5t-27.5 -150t-29.5 -162.5t-28.5 -161t-24 -144.5t-17 -114t-6.5 -69.5t9.5 -30.5t23.5 -12.5t30 -3t30 -3t23.5 -12t9.5 -29
q0 -14 -22.5 -22t-57.5 -12.5t-77.5 -6t-82.5 -1.5t-72 0.5t-47 0.5q-7 0 -14 1.5t-14 2.5v-1q-26 -2 -52 3l-2 23l1 19q9 16 21 23.5t30 7.5q4 14 13.5 59t22.5 112.5t28.5 153t32.5 179.5t34.5 192.5t33.5 191.5t30 176t24.5 147.5t16.5 105.5t6 49q-11 8 -23.5 19
t-12.5 26q0 9 11 19t18 14q101 9 211 6t212 -3q8 0 16 -3t8 -13q0 -17 -13 -37t-27 -28zM330 1233l26 160l-11 -7l-23 -111zM314 620l4 24h-8l-4 -24h8zM303 605l-7 -18l7 -5q1 10 8 20zM185 252q23 81 42.5 157.5t24.5 161.5q-5 -19 -9 -39t-9 -39.5t-11.5 -38.5t-16.5 -36
q-7 -38 -14.5 -76t-7.5 -76zM289 523l-7 -14h4l9 6zM271 425l2 10l-2 10l-10 -18zM271 401l-10 13l-4 -26zM235 218q3 10 6.5 28t7 36.5t7.5 34.5t8 22l-11 41q-10 -29 -16.5 -62t-6.5 -64q0 -9 1 -18.5t4 -17.5zM179 195l9 54h-4l-9 -54h4z" />
    <glyph glyph-name="backslash" unicode="\" horiz-adv-x="1075" 
d="M841 187q9 1 27.5 1t36.5 -3t32 -10t14 -20q0 -9 -4 -17t-5 -17q-11 -3 -41 -10.5t-68.5 -16.5t-81.5 -19t-80.5 -18t-64.5 -13t-34 -5q-23 0 -23 26q0 27 9.5 38.5t35.5 19.5l1 13q0 26 -6.5 52t-14.5 51h1q-56 176 -115 348.5t-119 346.5q-25 72 -54 144.5t-46 146.5
q-7 0 -19.5 1t-24.5 4t-21 9t-9 17q0 13 6.5 25t12.5 23q90 14 179.5 24.5t180.5 23.5q10 -4 15.5 -12.5t5.5 -19.5q0 -12 -7.5 -24t-21.5 -11q-11 -5 -18.5 -7.5t-12 -6.5t-6.5 -11t-2 -20q0 -26 6 -51.5t12 -50.5l-2 3q40 -114 79.5 -226t77.5 -227l-2 2q22 -45 36 -97
t32 -100h-1q19 -47 35.5 -94.5t31.5 -95.5h1q17 -61 36 -116zM438 1277q-5 0 -7 -3.5t-4 -7.5l23 -50l-6 59zM348 1105q1 -17 11.5 -37.5t18.5 -35.5l-19 91zM438 967q0 28 -9 55t-20 53h-4q0 -2 0.5 -2.5t0.5 -1.5v-1l4 -36q2 -20 7.5 -41t19.5 -38zM449 778q4 0 6 4t3 7
q-17 66 -35.5 121.5t-44.5 118.5l-2 -13q4 -14 10 -28.5t17 -25.5l15 -51l-5 -4q5 -7 9 -28t8 -43.5t8.5 -40t10.5 -17.5zM459 927l-7.5 7.5t-8.5 5.5l-5 -10l19 -13zM469 884l-1 12l-9 13l-5 -11zM512 774q0 22 -8.5 49.5t-22.5 44.5q5 -29 14 -51t17 -47v4zM583 674l-9 27
l-13 -20zM555 670l-12 16v-7q0 -4 0.5 -8t2.5 -8zM578 617l-12 37l-2 -31zM601 626l7 15l-19 13zM595 599q0 -24 10 -48.5t21 -45.5q-5 25 -13 49.5t-18 47.5v-3zM650 576q10 -33 18.5 -65.5t19 -64.5t24 -63.5t33.5 -63.5q-3 10 -5.5 20t-3.5 21l-59 132l5 6
q-10 19 -17.5 38.5t-14.5 39.5zM639 518q0 -6 4 -14h5q-1 5 -2.5 9.5t-6.5 6.5v-2zM666 464l-17 32l-3 -11l19 -30zM667 439q2 -30 9 -62.5t20 -60.5q-1 30 -8 63t-21 60zM662 130l-2 59l-11 -23v-43z" />
    <glyph glyph-name="bracketright" unicode="]" horiz-adv-x="645" 
d="M373 1327q0 16 -17.5 23t-41 9.5t-46.5 1.5t-34 -1q-13 8 -16 24t-3 30t10.5 20.5t22.5 6.5q51 0 104 1t107 2t107 -0.5t103 -5.5q14 -10 19 -29q-4 -17 -22 -29.5t-32 -19.5q-3 -9 -11.5 -50.5t-21 -106.5t-27.5 -148.5t-32 -176.5t-34 -191t-33.5 -192t-31 -179
t-25 -152t-17 -112t-7.5 -58q17 0 27 -6.5t14 -24.5l-15 -42q-27 -5 -54 -3v1q-7 -1 -14 -2.5t-14 -1.5q-14 0 -45.5 -0.5t-70 -0.5t-79.5 1t-74.5 5t-55 11t-21.5 18q0 24 10 32.5t26 10.5t35.5 2.5t39 9t36 29.5t26.5 64q15 65 30 142t29.5 160t28.5 169t28 170.5
t27.5 164t27.5 148.5q4 20 10.5 58.5t12.5 80.5t10 80t4 57zM525 1233q9 11 16 31.5t12 43t7.5 44t3.5 34.5l-9 7zM333 620l4 24h-8l-4 -24h8zM322 602q2 -5 1.5 -10t-1.5 -10l9 5l-1 18zM369 571q-24 -81 -32 -158t-13 -161q17 39 23 81.5t14 84.5q-4 16 -4 35.5t2.5 40
t5.5 40.5t4 37zM313 509h4l-1 14q-7 -2 -10 -8zM310 427l-4 18q-3 -4 -5.5 -9.5t-2.5 -10.5zM300 388l4 26l-14 -13zM275 339q1 -6 0 -22t-3.5 -35t-5.5 -37t-4 -27q10 16 17.5 36.5t12 42t7 43t3.5 40.5q-8 -10 -14 -20t-13 -21zM314 195l9 54h-4l-9 -54h4z" />
    <glyph glyph-name="asciicircum" unicode="^" horiz-adv-x="1075" 
d="M983 1070q0 -9 -6.5 -18t-16 -15.5t-20 -10.5t-18.5 -4q-5 0 -15 3t-19.5 7.5t-16.5 10.5t-6 12l-44 16q-22 32 -46.5 61t-50.5 58h1q-14 20 -28.5 39t-27.5 39q-31 -24 -76 -60t-95 -69.5t-100 -57.5t-90 -24q-5 0 -11.5 0.5t-13 2.5t-11 5.5t-4.5 10.5q0 26 18.5 42
t39.5 28h-1l26 20h-3q20 19 40.5 40t43.5 36l-2 -1q46 38 85 76.5t80 82.5h-1q29 34 64.5 61t79.5 38q32 -9 50 -33t26 -55l-1 1q7 -24 22.5 -54t34 -62.5t39 -65t37 -62.5t27 -55.5t10.5 -42.5zM709 1299v1q-1 0 -2 -1h2z" />
    <glyph glyph-name="underscore" unicode="_" 
d="M897 -148q0 -13 -6.5 -30.5t-15.5 -35.5t-18.5 -35t-15.5 -28q-33 -3 -65.5 -4t-65.5 -1h-655q-23 0 -56 -2t-63 2t-51.5 18.5t-21.5 47.5q0 7 3.5 18.5t8.5 23.5t10.5 22t9.5 16l-11 19q251 0 503 -1.5t503 -14.5l-3 6q10 -6 10 -21zM669 -215l2 12l-116 14t-117 7
q-8 0 -17 -5.5t-15 -10.5q42 -9 84.5 -15t85.5 -6h88z" />
    <glyph glyph-name="grave" unicode="`" 
d="M681 916l-34 -9q-2 0 -11 5t-21 11.5t-23 13t-16 8.5q-3 4 -20 18t-40.5 32.5t-51 39.5t-51.5 39t-42 30.5t-22 15.5l-11 19q6 8 15.5 21t20.5 25.5t22 21.5t22 9q23 14 47.5 25t50.5 19l12 -7q9 -12 14 -26.5t8.5 -29.5t8 -30t13.5 -30q10 -18 29.5 -42.5t39 -50
t35.5 -49t19 -38.5z" />
    <glyph glyph-name="a" unicode="a" horiz-adv-x="909" 
d="M454 994q43 0 80 -15t66 -43q5 18 11.5 28.5t18 16t28 7t40.5 1.5h11.5t13.5 -1h-1q27 -2 48.5 -2t36 -1.5t22.5 -6t8 -15.5q0 -12 -3 -26.5t-7 -29.5t-9 -29.5t-8 -25.5l-6 -20l1 1q-9 -35 -14.5 -70t-9.5 -66t-6 -56.5t-3 -40.5q0 -10 -2.5 -18t-6 -16.5t-6.5 -19.5
t-4 -28q-1 -18 -6.5 -38.5t-13 -48.5t-14.5 -66t-11 -92q-1 -5 -1 -12q0 -18 11 -18q17 0 32.5 8.5t28 22t23 30t17.5 33.5q7 15 18.5 28.5t30.5 13.5q20 0 25 -12t5 -22q0 -11 -9 -26t-18 -29l2 1q-17 -23 -34 -44t-38 -38.5t-49 -31t-67 -21.5l-52 -9q-8 -2 -15 -3t-18 -1
q-15 0 -35 4.5t-38 14.5t-30.5 26.5t-12.5 41.5v8l-27 -22q-11 -9 -30 -19t-41 -19t-44.5 -14.5t-41.5 -5.5q-77 0 -115 11.5t-56 31.5h1l-29 30q-25 19 -40 45t-22.5 55t-10 58t-2.5 53q0 8 0.5 15.5t0.5 14.5v18q0 10 3.5 37t9 57t12 57t11.5 38q4 9 16 25.5t24 32.5h-1
l7 9q3 6 7 13q3 6 6 13t7 13h-1q5 9 11.5 19t21.5 27q2 2 12 9t32 34q18 23 44.5 44.5t59 38.5t69.5 27t76 10zM370 950q-2 -3 -9.5 -11.5t-9.5 -15.5q1 0 3 -1t3 -1q4 0 11.5 7.5t10.5 13.5l-1 8h-8zM696 937q0 3 -1 5.5t-6 7.5l-6 -2l-1 -2l8 -12zM510 456q2 16 4 35.5
t5 39.5t7.5 38.5t12.5 33.5q8 32 12.5 59t8 53t8 54t12.5 61l2 9q-17 41 -38.5 62.5t-43.5 21.5q-12 0 -19 -2.5t-14.5 -11.5t-18 -25.5t-30.5 -44.5q-3 -5 -6 -11t-8.5 -16.5t-15 -27t-25.5 -41.5q-9 -13 -18.5 -39t-18.5 -58.5t-17 -69t-14 -70.5t-9.5 -62.5t-3.5 -45.5
q0 -33 3.5 -61.5t10 -49.5t17 -33t25.5 -12q9 0 28 5.5t40.5 14t41.5 20t31 23.5l12 24q5 34 9.5 67.5t9.5 59.5zM655 712h-6q-2 -2 -6 -13.5t-8 -28t-8 -35.5t-8 -35.5t-6.5 -27.5t-2.5 -12q3 -12 10 -13l35 159v6zM121 566q-5 -24 -6 -48.5t-1 -47.5q0 -8 3.5 -18.5
t6.5 -11.5q1 0 2 15t2.5 38.5t4.5 50.5t7 50q1 10 8.5 24.5t7.5 19.5l-1 1q-4 0 -16.5 -21t-17.5 -52zM597 430q2 16 4.5 41.5t2.5 40.5q0 3 -0.5 5.5t-0.5 4.5l-9 -53l-10 -31q0 -10 1 -12t8 -4zM143 391l-16 4l5 -26h6l5 2v20zM157 330l-7 -4l-1 -9l7 -2l5 5zM641 195
q4 0 11.5 7t9.5 12q-2 -5 -14 -8.5t-15 -7.5q1 -1 4 -2t4 -1z" />
    <glyph glyph-name="b" unicode="b" horiz-adv-x="874" 
d="M821 551q0 -43 -6.5 -80.5t-18 -73t-27 -70.5t-33.5 -74q-13 -11 -36 -36.5t-48.5 -52.5t-49.5 -47.5t-38 -20.5l-6 3q-10 -10 -24 -15.5t-27.5 -9.5t-25 -7.5t-15.5 -9.5l-33 -3h-22q-35 0 -68.5 -9.5t-68.5 -9.5q-10 0 -32 1t-48.5 7t-55.5 18t-52.5 35t-38.5 57.5
t-15 85.5q0 17 1.5 36t6.5 40q2 6 5 23.5t3 28.5q0 2 -0.5 3.5t-0.5 3.5q14 78 31 172t32 190.5t25 188.5t10 166q0 23 -4 47t-21 42q-6 1 -18 2t-24 3.5t-21 6.5t-9 12q0 10 5.5 17.5t13.5 13t17.5 8.5t17.5 6l18 -1h-4q1 -1 5 -1q7 0 17 1.5t13 2.5h-2q24 5 48 8.5t49 3.5
q38 0 75.5 5.5t72.5 5.5h11t16 -1.5t14 -4.5t6 -9q0 -7 -4 -14t-8 -12q1 -7 1.5 -13.5t0.5 -13.5q0 -35 -7.5 -69.5t-7.5 -68.5q0 -20 4 -35q-4 -9 -9.5 -34.5t-10 -54t-7.5 -54t-3 -36.5q23 4 45 6t45 2q68 0 129.5 -18.5t108.5 -57t75 -97t28 -138.5zM249 1225l2 -22
l22 22h-24zM362 1178q-5 -7 -7.5 -22t-4 -32t-2.5 -33t-1 -25q11 20 13.5 44t6.5 47zM322 823q0 2 -0.5 4.5t-0.5 4.5q0 10 2.5 20.5t4.5 19.5l-5 25l-12 -66zM287 103q53 6 92 37t67.5 76.5t46.5 102t29 113.5t15 110.5t4 93.5q0 27 -2 48t-14 46q-16 9 -27 20t-22.5 20.5
t-25.5 15.5t-35 6q-16 0 -30 -36.5t-25.5 -93t-21.5 -125t-17 -134t-11.5 -119t-6.5 -79.5l-10 -18h1q-4 -12 -6.5 -24t-1.5 -25zM323 783l-14 2l-5 -42l8 3zM259 746l-11 -31l11 -33l10 13zM728 635q-5 14 -8 29t-3 30v4q-8 6 -14.5 13t-14.5 14h-6l-4 -4q10 -27 21 -54
t22 -53l4 4zM311 667q0 5 -1.5 12t-3.5 12q-8 -15 -7 -31.5t-1 -33.5l11 3zM661 662l-15 -8l8 -33zM666 539q4 1 5.5 4t1.5 6q0 6 -1 14.5t-3 17t-6 15.5t-10 10q-2 -6 -4 -13t-2 -13q0 -11 6 -22t13 -19zM233 410q15 44 23 90t12 92l-17 6q-8 -47 -13 -93.5t-5 -94.5z
M149 339l-4 2l-1 -1q-4 -8 -10 -21.5t-11.5 -28t-10 -28.5t-4.5 -23l9 2zM475 180q10 7 23 15.5t25 18t20.5 21t10.5 25.5h-11q-17 -20 -38 -34.5t-38 -34.5l-3 -11h11zM449 163l-31 -4l-31 -27l14 -3z" />
    <glyph glyph-name="c" unicode="c" horiz-adv-x="748" 
d="M493 729q2 0 5 4t6 9.5t7 10t7 6.5q12 6 21 11t15 13t9 19.5t3 30.5q0 16 -11.5 24t-49.5 8q-40 0 -71.5 -33t-55.5 -84.5t-41.5 -114t-28.5 -123t-16 -110.5t-5 -76q0 -48 15 -85.5t48 -72.5l46 -3q46 0 73.5 20t43 49.5t23.5 64.5t15.5 64.5t19 49.5t33.5 20h13
t15.5 -2t13 -6.5t5.5 -12.5q0 -21 -7.5 -46.5t-12.5 -45.5q-19 -70 -44.5 -116t-63 -73.5t-90 -38.5t-125.5 -11t-125.5 25.5t-86.5 70t-50 103.5t-16 126q0 59 10 111.5t29.5 101.5t48 94.5t64.5 91.5l9 2q26 28 63.5 51t79.5 38.5t85.5 24t81.5 8.5q16 0 43 -5.5t46 -10.5
q19 -8 42.5 -21t44 -33.5t34.5 -47.5t14 -61q0 -31 -9 -58t-25 -47t-39.5 -31.5t-51.5 -11.5q-50 0 -80.5 26.5t-30.5 77.5q0 16 4 25zM277 826l-3 -15l25 21zM667 761l-14 -14l20 -10zM666 716h-7v-4q0 -5 0.5 -11t2.5 -11h6l9 15zM255 609l-4 4q-6 -11 -10 -24t-4 -25
l13 17zM244 458q0 13 -0.5 24.5t-0.5 23.5q0 6 0.5 12.5t0.5 12.5q-5 -9 -9.5 -20t-4.5 -22q0 -20 8 -38h5zM93 495l-14 -20l8 -4zM84 457l-16 -22l22 -35l3 17zM198 396q2 -7 5 -14t8 -12l5 12zM233 331h-9l-4 -21q7 -16 21 -28l2 8zM544 264l-11 -40h11v40zM262 175v-22
l13 -18l9 10l-6 15z" />
    <glyph glyph-name="d" unicode="d" horiz-adv-x="940" 
d="M932 1207q-20 -30 -55 -30q-3 -20 -9.5 -39t-14.5 -37.5t-15.5 -37.5t-10.5 -39l-2 -11q0 -2 -1 -3t-1 -2t1 -1l1 1v-8q0 -32 -8.5 -61.5t-20 -58.5t-22.5 -57.5t-15 -59.5q-11 -69 -21 -136.5t-23 -136.5l-47 -248q-3 -8 -5.5 -22.5t-3.5 -30t-1.5 -30t-0.5 -23.5
q0 -20 4 -33.5t10 -13.5q25 0 45.5 21.5t36.5 48t27 48t19 21.5q2 0 3 -1q1 -2 5 4t13 6q8 -2 14 -5q5 -2 9.5 -6t4.5 -10q0 -14 -12.5 -46t-43 -68t-82 -69t-128.5 -48q-5 -1 -11 -1.5t-12 -0.5q-21 0 -43 6t-41.5 18.5t-33 30.5t-17.5 42q-24 -24 -49.5 -39.5t-49.5 -24.5
t-44.5 -12.5t-33.5 -3.5q-54 0 -93.5 24t-75.5 69q-11 13 -17 32.5t-11 40t-10 40.5t-12 35q-2 22 -3 43.5t-1 43.5q0 52 14.5 108.5t41.5 110.5t64.5 102t83 84.5t98 58t109.5 21.5q25 0 50 -3l50 -6q20 91 40.5 180t36.5 180q-7 4 -14 10.5t-9 14.5q4 20 13.5 32.5
t32.5 12.5q17 0 33.5 -3.5t32.5 -7.5h-2l13 -1q36 0 71.5 7.5t72.5 7.5q9 0 19.5 -1.5t18.5 -5.5l28 -2zM767 1066q13 21 16.5 37.5t3.5 41.5q-6 -10 -9.5 -22.5t-5.5 -23.5l-2 6zM768 1012q-1 5 -1.5 9.5t-0.5 9.5q0 8 1 12q-5 -4 -9 -9t-6 -11l5 -40q4 7 6.5 14t4.5 15z
M551 802q3 0 5 1zM426 191q14 134 40 273.5t56 276.5q-13 4 -29 4q-42 0 -76 -32t-60.5 -82.5t-45 -113t-30.5 -124t-17.5 -115t-5.5 -86.5q0 -24 1.5 -43t9 -32t22.5 -20t43 -7q32 0 50 15.5t33 36.5zM573 735q-5 -8 -10 -21.5t-9.5 -28.5t-8 -28.5t-3.5 -22.5l2 -30l11 13
zM124 561l4 -20q9 17 14.5 35.5t18.5 32.5l-1 8zM540 576l-6 -10l-2 -31l10 13zM186 556l-10 -15l5 -11l7 11zM124 501l-4 18l-4 -23h7zM527 519l-13 -45l8 -2l12 43zM173 506l-6 -16h7l4 8zM219 483l-9 2q-2 -7 -5 -14.5t-3 -14.5v-16l10 3zM167 409q3 5 6 11t4 12l-4 15
l-10 -15zM158 310q0 23 4.5 47t6.5 47l-9 -1q-3 -15 -7.5 -33.5t-4.5 -33.5q0 -17 6 -33zM593 268q11 29 16.5 59t10.5 60l-10 2q-15 -50 -24 -100zM474 266l-8 -11l4 -24l4 7v28zM185 211l4 25l-10 3l-12 -17l11 -15h9zM109 238l-5 -20l12 -2zM561 130q8 14 12 34.5t6 36.5
l-15 -6l3 -12l-18 -47z" />
    <glyph glyph-name="e" unicode="e" horiz-adv-x="706" 
d="M525 475q-59 -24 -123 -53t-128 -46q-4 -38 -5.5 -76t-1.5 -80q0 -22 6 -51.5t24 -45.5q14 -5 30 -10t32 -5q43 0 71 25.5t46.5 63t32 79t28.5 73.5q9 20 17.5 32t23.5 12q10 0 21 -5t11 -17q0 -5 -0.5 -10.5t-2.5 -10.5q-9 -47 -24.5 -90.5t-37 -81t-50.5 -67.5t-65 -50
q-17 -9 -38.5 -10.5t-39.5 -8.5h-84q-11 4 -32.5 7t-44 7.5t-41 12.5t-22.5 22q-15 20 -32.5 42t-32.5 45t-25 48t-10 51q0 74 7 157.5t36 161.5q6 16 18.5 31.5t20.5 29.5q23 46 54 85.5t70 68t87 45t106 16.5q63 0 108 -20.5t74.5 -56.5t43 -84.5t13.5 -105.5
q0 -27 -4.5 -44t-19 -29.5t-42.5 -25t-75 -31.5zM288 481q-2 -12 -3.5 -23t-3.5 -22q19 5 42.5 13.5t46.5 20t43 24t32 24.5q4 21 7 46.5t5 52.5t3 53t1 47q0 8 0.5 18.5t-0.5 21.5q-1 23 -8.5 42t-24.5 19q-23 0 -41 -22t-33 -55.5t-26 -74t-19 -78t-13.5 -67t-7.5 -40.5z
M254 774l-7 -8l-1 -19l7 2zM552 602q6 11 9.5 15.5t5.5 8.5t2.5 9.5t0.5 18.5l-3 35zM492 554q4 3 8.5 4.5t8 3.5t5.5 5.5t2 11.5q0 17 -6 34q-3 -15 -8 -30t-10 -29zM142 567h3q6 0 9.5 8t5.5 12h-14zM546 560l-10 -4l1 -7l11 -3zM161 552q-4 -11 -8 -23t-7 -24l8 -3l18 38
l-1 12h-10zM128 311q2 10 4.5 20t2.5 21t-2 21.5t-4 21.5h-4q-4 -8 -4.5 -17.5t-0.5 -18.5q0 -12 1.5 -23.5t3.5 -23.5zM98 267l-13 22l-1 -10l7 -23h6zM541 284l-11 -4l2 -7l10 -3zM144 238q-3 10 -6.5 19.5t-8.5 18.5v-4q0 -11 4 -23t10 -22zM534 256l-9 -10l-11 -30h10z
M205 113l-2 -2l2 -13h10z" />
    <glyph glyph-name="f" unicode="f" horiz-adv-x="554" 
d="M-25 -151q33 78 51.5 162t18.5 168q0 14 -0.5 29t-0.5 28v17t2 10q3 19 3 39q0 55 3.5 126t11 149t20.5 159t32 155t45.5 137t60.5 106q6 22 18 40t28 32t35 26t38 22h-1q22 22 50 35.5t59 21.5t62.5 11t60.5 3q24 0 46 -8.5t42.5 -21.5t39.5 -28t36 -28q10 -15 18.5 -38
t8.5 -42q0 -29 -11 -74t-31.5 -87t-49.5 -72t-65 -30q-16 0 -35.5 2t-36.5 8.5t-28.5 19t-11.5 33.5q0 28 10 44t25.5 27t33 19t33 19.5t25.5 30t10 49.5q0 18 -7.5 38t-20 36.5t-30 27t-37.5 10.5q-21 -11 -42 -23t-40 -27l3 1q-36 -29 -57.5 -85.5t-34.5 -121.5t-20 -129
t-14 -108q18 4 37 8t39 4q28 3 58 3q7 0 19.5 -0.5t24.5 -2.5t21 -8t9 -16q0 -2 -2.5 -7.5t-5.5 -12t-5.5 -12.5t-3.5 -8l-25 -1h-20l-2 2q-35 -5 -69.5 -7t-69.5 -9q-9 -54 -14 -109t-8.5 -110l-7 -110t-10.5 -110h1q2 0 2 -3q0 -106 -34.5 -208.5t-92.5 -196.5
q-35 -57 -84 -98.5t-101 -79.5q-7 -5 -13.5 -10.5t-14.5 -7.5q-23 -5 -52 -8.5t-57 -3.5q-39 0 -67.5 13t-47.5 34t-28 48.5t-9 57.5q0 25 7 48.5t20.5 42t33.5 29.5t46 11q14 0 28 -7t25 -18.5t18 -25.5t7 -29q0 -29 -19 -46.5t-40 -31.5q-1 0 -2 -2.5t-1 -3.5
q4 -17 21.5 -31.5t37.5 -14.5q18 0 33 14.5t26.5 35t20.5 43zM336 1159l-14 -20l-4 -24l13 3l5 18v23zM691 1053q5 22 9 39t6 39l-32 -84q-2 -4 -2 -5t1 -1h8zM657 995q-2 4 -4.5 9.5t-6.5 7.5l-7 -27q-2 -4 -2 -5t1 -1h8l10 12zM209 702q3 10 4 22t1 26v49l-6 -2
q-3 -15 -8 -32.5t-5 -31.5q0 -16 10 -33zM148 780h-4l-9 -53h8zM285 622q-8 -16 -16.5 -38t-15.5 -45.5t-11.5 -46.5t-4.5 -41l1 -9l6 18l10 -5zM242 394q0 -11 0.5 -22.5t4.5 -22.5l2 56zM135 295l-21 -3v-3l9 -5h10zM236 254q1 5 1 22q-1 3 -1 5q-8 -8 -10 -12t-2 -11
q0 -8 2 -16.5t2 -12.5q4 8 5.5 14t2.5 11zM152 -55q-1 1 -1 5q0 19 7.5 43t16 50.5t16 55.5t7.5 58q0 22 -5 26q-3 -20 -11.5 -55t-17.5 -71.5t-16 -66t-8 -37.5l3 -8h9zM-252 -130q1 -16 8 -16q1 0 5 5.5t8.5 12.5t9 12.5t7.5 5.5h1q-3 9 -10 9q-8 0 -16 -9.5t-13 -19.5z
" />
    <glyph glyph-name="g" unicode="g" horiz-adv-x="849" 
d="M870 869q0 -28 -11 -50.5t-25.5 -43.5t-28 -43t-18.5 -48l-20 -103q-11 -65 -19 -140.5t-19 -155t-29 -157.5t-48 -147.5t-75.5 -126.5t-112.5 -92q-38 -20 -79.5 -29t-81.5 -23q-23 -8 -42.5 -13.5t-45.5 -5.5q-68 0 -126.5 17t-108.5 64l-14 25h1q-32 52 -32 113
q0 28 11.5 54t30.5 45.5t44.5 31t54.5 11.5q35 0 59.5 -20t24.5 -56q0 -22 -7 -37.5t-18.5 -27.5t-27 -21t-33.5 -17q13 -26 25 -45.5t28 -32t37.5 -18.5t52.5 -6q44 0 81 19.5t66 51t50 73t35.5 85.5t21.5 87.5t8 79.5q-22 -13 -45.5 -20.5t-47.5 -13.5h1
q-25 -7 -50.5 -11.5t-51.5 -4.5q-44 0 -88 12.5t-80.5 37t-61 62t-29.5 88.5l4 -1q-16 44 -16 92q0 117 42 213.5t132 172.5h-1q27 23 63 41.5t75.5 31t80 19t75.5 6.5q53 0 105 -20t91 -55l19 32q-2 15 16 23.5t41.5 12t47 4.5t32.5 1l24 -2l12 -6zM746 852l-2 4h-13v-9
l2 -19zM303 186q51 0 88 27t63 70.5t41.5 98.5t24 111t11.5 108.5t3 91.5q0 20 -5 43.5t-15.5 43.5t-28 33.5t-42.5 13.5q-36 0 -61 -14.5t-41.5 -38t-27 -54t-18 -62.5t-14 -63.5t-14.5 -56.5q-8 -52 -13 -103.5t-5 -104.5q0 -14 0.5 -27.5t4.5 -27.5l-2 2q3 -14 3.5 -29.5
t4.5 -29.5t13.5 -23t29.5 -9zM617 691q0 -17 2 -35t4 -35q8 20 8 45.5v46.5l-7 2l-6 -10zM126 636q-14 -30 -19.5 -56t-11.5 -59q2 7 7 20.5t10.5 28.5t9.5 28t4 18v20zM576 481q7 9 11.5 26t7.5 28h-4l-18 -43zM89 398q9 37 15 75l-22 9l-3 -88zM559 306q5 23 9 45.5
t6 45.5l-8 -8q-3 -18 -5.5 -36.5t-2.5 -36.5zM99 274q1 4 3 9t2 9q0 15 -4 30.5t-9 29.5h-6q-1 -4 -2 -7.5t-1 -8.5q0 -14 7 -30.5t10 -31.5zM667 281l-9 10l-10 -55h2zM651 207q1 5 -1 11t-3 11l-37 -174l20 24zM159 206l-22 14l9 -22zM4 -43l-5 23l-18 -23l2 -14h18z
M552 -57q-4 -11 -14.5 -24.5t-22 -27.5t-20 -26.5t-8.5 -21.5l1 -8h7q8 6 16.5 18t15.5 24t12 21t7 10z" />
    <glyph glyph-name="h" unicode="h" horiz-adv-x="926" 
d="M381 892q19 8 50 18.5t64.5 19.5t65 15t53.5 6q55 0 89.5 -16t53.5 -47t25.5 -75t6.5 -100q0 -53 -6 -94t-14.5 -78.5t-18.5 -74.5t-17 -81q0 -2 -4 -25.5t-8.5 -51.5t-8.5 -51t-4 -24q0 -18 11 -18q17 0 36.5 10.5t37 26t32 34.5t21.5 36q7 15 15 20.5t27 5.5
q20 0 24 -9.5t4 -19.5q0 -5 -5.5 -16t-12.5 -21.5t-13.5 -18.5t-8.5 -8q-17 -23 -35 -43t-44.5 -37t-65.5 -31t-97 -25q-8 -2 -15 -3t-18 -1q-15 0 -35 4.5t-38 14.5t-30.5 26.5t-12.5 41.5q0 23 1.5 48.5t6.5 60.5l14 76q10 31 19.5 83t16.5 108.5t11 110t4 88.5
q0 10 0.5 25.5t-2 29.5t-10 24t-22.5 10q-14 0 -40 -6.5t-51.5 -17t-45.5 -24t-23 -28.5q-26 -143 -49 -291t-50 -290l2 -36q1 -11 -16.5 -19t-41.5 -13.5t-48.5 -8t-36.5 -2.5q-26 0 -53 2.5t-45 2.5q-12 0 -19 5.5t-7 21.5q0 26 23 88q34 106 55.5 220t38 230t31.5 231.5
t35 225.5q-5 -1 -16 -1.5t-22.5 0.5t-20 4.5t-8.5 11.5q0 18 15.5 33t29.5 24q16 4 33.5 15.5t35.5 26.5t36.5 32.5t36.5 34.5q30 29 58 49.5t54 20.5q7 0 16.5 -2.5t18 -7t14.5 -11t6 -15.5q0 -13 -1 -21t-3.5 -16.5t-6 -21.5t-8.5 -35q-2 -7 -4 -22t-5 -32.5t-5.5 -33
t-4.5 -22.5q-18 -75 -34.5 -148.5t-16.5 -127.5zM277 1223q0 -14 5 -28.5t12 -27.5l-7 86q-3 -6 -6.5 -14.5t-3.5 -15.5zM212 865q5 9 8 17.5t3 19.5q0 14 -3 28l-14 -65h6zM669 867l-8 -32l22 -25zM701 731q2 6 3.5 12.5t1.5 12.5q0 10 -4.5 17.5t-7.5 16.5h-11l-5 -12z
M212 776l-18 8l-1 -117l10 -2zM570 423q13 40 19 86.5t6 88.5q0 10 -1 20t-3 19q-5 -13 -8 -42t-5.5 -61.5t-4.5 -63.5t-3 -47zM183 568q3 6 4.5 13t2.5 14l-13 -6zM174 518l4 -35l10 20l-3 40zM662 379q3 5 5 18t3.5 27.5t2.5 28t2 20.5l-21 -66q0 -2 1.5 -6t3 -8.5
t2.5 -8.5t1 -5zM168 363q8 18 10.5 30t2.5 32q0 2 -0.5 9.5t-1.5 15.5t-3 14.5t-5 6.5l-4 -7l8 -21l-10 -14q2 -17 1 -33t2 -33zM122 332l-7 -4l3 -18l8 -2l5 5zM554 203q-4 5 -4 20q0 7 -0.5 16t-1.5 18t-1.5 16t-0.5 10v5q-6 -32 -8 -48t-4 -29l3 -7z" />
    <glyph glyph-name="i" unicode="i" horiz-adv-x="471" 
d="M445 1107q0 -40 -19 -68t-54 -47h3q-14 -11 -32.5 -15t-35.5 -4q-20 0 -41.5 6t-39 17.5t-28.5 29t-11 40.5q0 11 9 29t14 29q11 7 17.5 21.5t19 29t37 26t72.5 11.5q16 -7 32 -17t28.5 -23t20.5 -29.5t8 -35.5zM249 1111l-17 -5l-2 -9l8 -3zM288 1104q-8 -8 -19 -18.5
t-23 -11.5l-1 -7l6 -10h16q4 4 7.5 8t8.5 7q1 5 3 10t2 10v12zM278 1018l1 5l-18 2l-4 -7h21zM461 175q0 -20 -17.5 -49t-50.5 -58q-21 -19 -48.5 -36t-61 -30.5t-72.5 -21.5t-84 -8q-26 0 -42 4t-25 13t-12.5 23.5t-3.5 36.5q0 20 3 47.5t8 62.5q12 59 23 124t19.5 126.5
t13.5 114.5t7 88q-14 -8 -25 -20.5t-22 -23.5q-16 0 -27.5 8t-11.5 20l12 33q15 26 40 50.5t53.5 48t56.5 44.5t49 40h-1q14 12 32.5 33.5t39 42t41.5 35.5t40 15t22.5 -15t3.5 -31q0 -12 -4.5 -32.5t-10.5 -42.5t-12 -41.5t-9 -30.5q-6 -24 -15 -72t-20 -107.5
t-21.5 -125.5t-19 -124.5t-13.5 -104t-4 -65.5q-5 -29 0.5 -40t15.5 -11q8 0 17 5t17.5 11t14 11.5l6.5 6.5q11 15 19.5 29t17 24t17 16t19.5 6q8 0 16.5 -3.5t8.5 -25.5zM348 796q-8 -12 -17 -23t-12 -26l6 -26l14 19zM246 757l-29 -24h10q2 0 6.5 1t2.5 4l20 19h-10z
M153 583q4 5 5.5 12.5t2.5 14.5l-13 -6zM273 329q11 69 19.5 139.5t13.5 140.5q-11 -23 -19 -59t-13.5 -76t-9 -78.5t-5.5 -64.5l-3 -4l5 -8zM156 558l-12 -25l4 -35q8 10 11 20zM272 291l-1 6h-6l-12 -13l7 -30zM218 175q1 4 4.5 11t6.5 15t5.5 15t2.5 11l-10 2h-12
q2 -13 3.5 -27t-0.5 -27z" />
    <glyph glyph-name="j" unicode="j" horiz-adv-x="504" 
d="M532 1018q0 -17 -14 -37t-34.5 -38t-43.5 -30t-41 -12t-40.5 5.5t-42 16.5t-33 27.5t-13.5 39.5q0 31 15.5 59.5t39.5 50.5t54 35t60 13q17 0 33.5 -6t29.5 -16.5t21 -25t8 -32.5zM421 1106l-9 9l-4 1l-6 -8l7 -12zM381 1104h-10q-9 0 -14 -10t-13 -15l-26 -46l5 -4
q7 17 22 29.5t29 22.5l8 15zM534 858q-20 -54 -36 -103t-29.5 -96.5t-25.5 -96.5t-24 -104l-1 1q1 -23 -1 -41.5t-6 -36t-8.5 -35.5t-8.5 -39q-12 -64 -25 -138.5t-33 -147.5t-49 -141t-73 -120t-106 -83t-148 -31q-33 0 -67 9.5t-61.5 28t-45.5 46.5t-18 65q0 30 8.5 64.5
t25.5 64.5t43 50t61 20q14 0 31.5 -2.5t32.5 -9.5t25.5 -19t10.5 -30q0 -20 -8.5 -43t-23 -42t-34.5 -31t-42 -11l-1 -15q0 -26 18 -47t45 -21h2q43 22 62 43.5t28.5 45.5t17 53.5t27.5 67.5q8 62 25 122t28 122q17 102 35 202.5t38 202.5q-9 -5 -22.5 -10.5t-24.5 -5.5
q-16 0 -22 10t-6 24q0 15 19 33t43.5 36.5t48.5 34.5t34 26h-1l42 36t59 49t60.5 45.5t46.5 25.5q11 -5 19.5 -11t14.5 -17zM355 553q12 20 15.5 38t5.5 41q-6 -10 -9.5 -22.5t-5.5 -23.5l-2 6q-2 -10 -3 -19.5t-1 -19.5zM331 385q7 14 11 32.5t6.5 38t4 39t3.5 35.5
q-12 -10 -17 -28.5t-6.5 -39.5t-1 -41.5t-0.5 -35.5zM305 232q8 20 17 41.5t9 44.5l-3 24l-29 -110h6zM169 -76l-1 6q-14 -20 -24 -41t-21 -43v-9zM-48 -100l2 14l-9 15q-5 0 -8.5 -6t-5.5 -9l3 -14h18zM145 -207l-4 2q-16 -15 -29 -33l-26 -36h6q11 16 24 29.5t27 27.5z
M-162 -268l-10 55l-6 -10l-1 -12q0 -11 4 -22t12 -19z" />
    <glyph glyph-name="k" unicode="k" horiz-adv-x="826" 
d="M484 682q21 21 47 43.5t54 41t57 31t55 12.5q18 0 35.5 -5t31.5 -15t23 -25t9 -34q0 -34 -9 -56.5t-22.5 -36t-29.5 -19.5t-29 -6q-23 0 -40 8t-29 17.5t-19.5 17.5t-11.5 8q-30 -2 -58 -17t-59 -40q5 -26 16 -55t23.5 -58.5t24 -59t17.5 -56.5h-1l52 -150q3 -5 8 -21.5
t12.5 -35t17 -33t19.5 -14.5q16 0 28.5 8t23.5 20t21.5 26t23.5 25q7 6 16 6q11 0 20.5 -7.5t9.5 -18.5q0 -15 -11.5 -31.5t-27 -32t-31.5 -28.5t-26 -22q-22 -14 -45.5 -27t-47.5 -23.5t-46.5 -17t-42.5 -6.5q-33 0 -56.5 16t-40.5 47t-30 77.5t-26 106.5q-11 36 -22 70.5
t-22.5 62t-22 44t-19.5 16.5t-16 -24t-12.5 -60.5t-9.5 -80.5t-7.5 -83.5t-5.5 -69.5t-3 -39q-2 -21 -1.5 -34.5t-7 -22t-27.5 -12t-62 -3.5q-13 0 -28 -5.5t-33 -5.5q-8 0 -16 0.5t-15 0.5h-23q-17 0 -27 3t-10 17q0 19 20 63q2 5 8.5 44t15.5 100t19.5 138t21 158
t20.5 160t18 144t12.5 110t4.5 58q-11 -5 -24 -11t-25 -6q-7 0 -16 3t-9 13q0 11 14.5 31t34 39.5t38.5 34t29 15.5q25 19 51 40t48.5 45.5t40 52t27.5 58.5l16 1q20 1 37.5 -13t25.5 -30q-25 -89 -40 -181t-27 -185t-24.5 -185.5t-32.5 -182.5q2 0 21 15t46 38t57.5 49.5
t55.5 49.5zM349 1163l-6 31l-7 -33l10 -14zM300 951q15 29 21 61t11 64q-3 -10 -9 -23.5t-11.5 -28.5t-9.5 -29t-3 -26zM258 937q-18 -41 -18 -57q0 -7 2 -11q5 10 8 20.5t8 32.5l5 26zM708 765l-28 -32l40 23zM754 717q2 -3 1.5 -11t4.5 -8q3 0 5 7t2 15q0 12 -5 12
q-1 0 -5.5 -2.5t-4.5 -4.5zM141 656l-12 -15l5 -35zM115 454q4 9 6.5 23.5t3.5 30.5t1.5 31t0.5 25l-6 -7l-4 -46t-2 -46v-11zM392 476l-20 30l-7 -4l21 -39l4 2zM506 418q0 4 -1.5 12.5t-4 17.5t-5.5 16.5t-6 11.5l-1 -10q0 -30 17 -55zM454 342q-5 14 -10.5 27.5
t-13.5 25.5h-6l-1 -15q8 -9 16.5 -18t14.5 -20zM165 294q0 4 -1 9t-2 8q-2 -4 -5 -17t-5.5 -28t-4.5 -27.5t-2 -15.5l2 -22h2zM575 197q0 3 -4 19t-9.5 35t-10 36.5t-5.5 22.5l-8 -47zM71 99q5 29 8.5 58.5t6.5 59.5q0 2 1 4t1 4l-1 1h-9l-8 -11q-4 -21 -5 -41.5t-1 -41.5
q0 -8 1 -19.5t6 -13.5zM622 82q-2 7 -5 16.5t-6.5 18.5t-6 15t-3.5 8l-4 9h-6l-2 -8q8 -16 15.5 -30.5t17.5 -28.5z" />
    <glyph glyph-name="l" unicode="l" horiz-adv-x="496" 
d="M62 399q14 69 26.5 151t23 162t20 150.5t18.5 116.5q11 55 26 108.5t26 108.5q-6 -4 -13.5 -10t-16 -12t-17 -10.5t-14.5 -4.5q-5 0 -14 1.5t-17.5 5t-15 8.5t-6.5 13q0 16 23.5 40.5t54 49t60 45t41.5 28.5t35.5 32.5t49.5 50t49.5 45.5t35.5 20q15 0 26 -10t11 -26
q0 -17 -5 -59.5t-12.5 -97.5t-16.5 -117t-18 -119t-17 -102.5t-12 -68.5q-5 -23 -15 -45t-13 -46q-6 -51 -12 -101t-13.5 -101t-17 -103.5t-22.5 -108.5q-1 -9 -4 -21.5t-6 -27t-5 -29t-2 -26.5q0 -14 2 -23t9 -9q2 0 4 1q21 7 42.5 29t42 46t41 43t40.5 19q5 0 13.5 -2.5
t8.5 -10.5q0 -11 -10.5 -30.5t-27.5 -42.5l-9 -11q-18 -20 -50.5 -50t-69 -58t-72.5 -48.5t-63 -20.5q-22 0 -40.5 7t-38.5 12q-43 11 -58.5 34.5t-15.5 56.5q0 15 2.5 31.5t5.5 34.5q1 8 5 22t8 29t7 29t3 22zM287 1332l-15 -21l4 -18h8l10 24zM262 1191l-17 4l-6 -37
l12 -11zM238 1115l-6 -9l-13 -72l19 28v53zM273 859l-17 -49l17 14l5 35h-5zM307 718q6 18 11 36t5 37q0 29 -3 58q-9 -19 -13 -43.5t-4 -45.5q0 -23 4 -42zM250 740q-14 -47 -21.5 -93t-7.5 -95l34 129zM298 680l-8 -48l17 23zM216 474v4q0 6 -2 16l-12 -16l-13 -94l10 -6
l5 4zM139 278q-1 3 -1 7q-1 4 -1 11v2q-10 -5 -12 -16l-2 -55l10 -6l5 4z" />
    <glyph glyph-name="m" unicode="m" horiz-adv-x="1221" 
d="M1184 282q5 0 11.5 -4t6.5 -14q0 -12 -7.5 -30.5t-18 -36.5t-20.5 -33t-16 -21q-15 -17 -30.5 -33.5t-33.5 -30.5q-28 -21 -67.5 -34t-84.5 -13q-41 0 -70 17.5t-29 63.5q0 28 6.5 63t9.5 60q0 1 2 13l4.5 27t5 27t2.5 13q17 97 23.5 167t6.5 102q0 24 5 58t5 65.5
t-9.5 54t-37.5 22.5q-12 0 -29 -4.5t-33.5 -10.5t-28.5 -12t-14 -9q-4 -6 -9.5 -32.5t-12.5 -66.5t-14 -89t-14.5 -100.5t-14 -102.5t-11.5 -93.5t-8.5 -73.5t-4.5 -44q-2 -13 -2.5 -21.5t-0.5 -14.5q0 -22 -10.5 -34t-28.5 -18t-42.5 -7t-53.5 -1h-20.5t-32 2.5t-29.5 7.5
t-13 15q2 17 9.5 39.5t14.5 48.5q14 69 22.5 131.5t14.5 124.5t9.5 125.5t6.5 133.5q0 5 0.5 11t0.5 13q0 13 -1 28t-5 28t-10.5 21t-16.5 8q-43 0 -73.5 -11.5t-47.5 -31.5q-11 -43 -19.5 -112.5t-16 -151t-16 -167t-19.5 -158.5q-2 -10 -2 -27.5v-25.5q0 -24 -32 -34.5
t-99 -10.5q-27 0 -49.5 0.5t-39 3.5t-26 8.5t-9.5 16.5q0 6 6 17q6 10 4.5 25t6.5 30q12 65 24 137.5t21.5 140.5t15.5 125t6 90q0 9 -0.5 15.5t-1.5 11.5q-16 -9 -29.5 -22t-33.5 -13q-10 8 -16 17.5t-6 21.5q0 7 7 13.5t12 10.5q34 31 66 61.5t62.5 62t59 65.5t55.5 72
l17 2q11 0 20 -3t19 -7q3 -15 4 -33.5t2 -37.5t2.5 -37.5t4.5 -33.5q42 28 98 41t111 13q28 0 50 -8t38.5 -21.5t29 -30.5t22.5 -34q48 37 105 61t135 24q55 0 89 -17t52.5 -49t24.5 -77.5t4 -103.5q-2 -77 -10.5 -158t-22.5 -159q-3 -20 -6.5 -42.5t-7 -42t-5.5 -33.5
t-2 -18q0 -5 2.5 -10.5t7.5 -5.5q11 0 26 21t31.5 46.5t34 46.5t32.5 21zM270 818q3 6 4.5 13t2.5 14l-13 -6zM566 762l10 -14l4 10t2 10l-12 2zM950 649q1 6 6 15t11 19t11.5 20.5t6.5 19.5l-22 -5q-4 -14 -8.5 -30.5t-4.5 -31.5v-7zM619 688l-1 8l-6 -2l-11 -26l2 -15z
M192 640l-1 10l-9 -2l-14 -33l2 -18zM639 453q13 21 15.5 50.5t6.5 52.5q-11 -19 -18 -42t-5 -45zM138 461q0 2 3 12.5t6.5 23.5t7.5 25t5 17l-9 -5q-5 -14 -10.5 -28.5t-5.5 -28.5zM1020 485l4 -35q3 4 6.5 9.5t3.5 10.5l-3 40zM117 322q9 19 11.5 29.5t2.5 31.5
q0 2 -0.5 9.5t-1.5 16t-3 15t-6 6.5l-3 -7l7 -21l-9 -14q1 -17 0.5 -33t1.5 -33zM1037 376q0 3 -0.5 8t-5.5 5l-17 -123l7 -4l1 6q5 26 10 54t5 54zM570 116q5 27 12.5 53t14.5 52t12 52.5t5 54.5q0 2 -1 2l-4 -9l-9 -34q-11 -41 -19.5 -82t-19.5 -82zM90 189
q13 23 15.5 53.5t7.5 56.5q-13 -18 -20 -41t-7 -45q0 -13 4 -24zM882 167l-16 4l5 -26h6l5 2v20zM900 96l-4 10l-7 -4l-1 -9l7 -2z" />
    <glyph glyph-name="n" unicode="n" horiz-adv-x="902" 
d="M500 287q9 50 20 98t16 102q5 66 14.5 118t9.5 102q0 13 -1 25.5t-5.5 22t-14 15t-27.5 5.5q-20 0 -43 -6t-44 -16.5t-37 -26.5t-21 -35q-26 -97 -44.5 -193t-35.5 -186l-14 -73q-5 -28 -11 -56t-12 -57q1 -3 1.5 -11t0.5 -17v-16.5v-10.5q0 -14 -24.5 -22t-55.5 -12
t-58 -5t-32 -1q-17 0 -33 0.5t-28 4.5t-17.5 12t-0.5 22q2 7 8 36t22 65l15 71q12 62 22 118t19.5 111.5t21 114t28.5 124.5q-7 -1 -19 -2t-24 0.5t-20.5 6t-8.5 14.5t19 28.5t49 40.5t65.5 45.5t69 42.5t59.5 31t36 12h10.5t12.5 -1.5t10 -5t4 -9.5q0 -11 -2.5 -26
t-6.5 -31t-8 -31t-7 -25q12 5 26 12.5t34.5 15t50 13t71.5 5.5q26 0 62 -6t69 -26.5t56 -59t23 -104.5q0 -47 -5.5 -101t-14 -109.5t-19 -109.5t-20.5 -102q-3 -17 -5 -36.5t-4 -42.5q-1 -5 -1 -12q0 -18 11 -18q17 0 32.5 8.5t28 22t23 30t17.5 33.5q7 15 18.5 28.5
t30.5 13.5q20 0 25 -12t5 -22q0 -11 -9 -26t-18 -29l2 1q-17 -23 -34 -44t-38 -38.5t-49 -31t-67 -21.5l-52 -9q-8 -2 -15 -3t-18 -1q-15 0 -35 4.5t-38 14.5t-30.5 26.5t-12.5 41.5q0 32 5 78t12 90zM615 743q7 -13 15 -23l8 11zM296 692l-12 -3l-17 -33l4 -19l27 45z
M261 537q0 10 -1.5 20t0.5 19l-12 -5q-2 -16 -3 -39t-10 -37l1 -2q8 7 16.5 20t8.5 24zM679 456q13 20 17 37t4 42q-6 -10 -9.5 -22.5t-5.5 -23.5l-2 6q-2 -10 -3 -19.5t-1 -19.5zM681 402q-2 8 -2.5 15.5t1.5 15.5q-4 -3 -9.5 -9t-5.5 -11q0 -10 1.5 -20t3.5 -20
q4 7 6.5 14t4.5 15zM195 236q14 45 24.5 90t22.5 90q-8 -15 -16.5 -36.5t-15.5 -45t-11.5 -46t-4.5 -39.5zM665 258q-12 49 -9 99q-8 -46 -12 -91l6 -8h15zM181 197q-6 -15 -5 -32.5t-5 -29.5l18 21zM98 194l-21 -3v-3l9 -5h10zM539 85q-4 5 -4 20q0 14 2.5 33.5t2.5 25.5v5
q-6 -32 -8 -48t-4 -29l3 -7h8zM73 101q2 4 4 9t2 9v23l-14 -20l-4 -24z" />
    <glyph glyph-name="o" unicode="o" horiz-adv-x="864" 
d="M818 581q0 -102 -38 -186.5t-103 -145.5t-151.5 -94.5t-184.5 -33.5q-68 0 -125.5 24.5t-98.5 67t-64 101.5t-23 128q0 109 35 198t98 152.5t151.5 98t196.5 34.5q82 0 140.5 -23.5t95.5 -68t54 -108.5t17 -144zM363 876q-17 -5 -33 -12t-31 -16v-10h8q15 6 29 15.5
t28 18.5zM350 178q37 0 67 30.5t53.5 79t40 108.5t27 118.5t15.5 108.5t5 80q0 26 -0.5 54t-7.5 51.5t-23.5 38.5t-49.5 15q-37 0 -65.5 -32.5t-50 -83t-36 -112t-24 -120.5t-13.5 -107.5t-4 -72.5l4 -59q7 -24 10.5 -42t8 -30t14 -18.5t29.5 -6.5zM676 832l-11 11h-7v-4
q0 -5 0.5 -11t2.5 -11h6zM276 801l-31 -31l6 -6q12 9 23 19.5t22 21.5zM718 737l-6 24l-14 -14zM265 741l-2 4l-22 -20l-3 -18v-17h6zM726 674l-16 8l-3 -15l12 -10zM627 589q-8 -11 -16 -31.5t-7 -34.5q-11 -24 -21 -52.5t-16 -54.5h7q12 40 26.5 78.5t28.5 77.5zM93 553
q-13 -16 -20 -33l7 -36zM730 456q12 20 15.5 38t5.5 41q-6 -10 -9.5 -22.5t-5.5 -23.5l-2 6q-2 -10 -3 -19.5t-1 -19.5zM230 418l1 7q0 17 -0.5 33.5t0.5 33.5q-4 -8 -8.5 -18.5t-4.5 -20.5q0 -19 8 -35h4zM205 354l-16 13q2 -6 4.5 -12.5t7.5 -11.5zM681 338q6 5 10.5 11.5
t7.5 12.5l-13 -2zM230 269l-9 38h-8l-4 -19q4 -8 8.5 -14.5t11.5 -11.5zM645 279l-6 6l-33 -38l1 -8zM545 226l1 4l-19 -9l-1 -6zM256 197l1 6l-16 10l-1 -6z" />
    <glyph glyph-name="p" unicode="p" horiz-adv-x="769" 
d="M725 575q0 -168 -75 -279.5t-233 -166.5h1q-17 -8 -40.5 -14t-49 -10.5t-50.5 -9t-44 -9.5q-8 -46 -18.5 -92t-19.5 -92t-15.5 -92.5t-6.5 -93.5q0 -11 1.5 -23t2.5 -23q7 -3 20 -7.5t25 -10t21 -13t9 -17.5q0 -8 -1 -15t-3 -15q-8 -6 -17.5 -10.5t-19.5 -4.5l-209 3
q-42 0 -82.5 -8.5t-82.5 -8.5q-9 0 -21 4t-12 16q0 20 11.5 30t26.5 16t30.5 11t24.5 16q8 9 21 60t28.5 129t33.5 174.5t35 197t32.5 198t27.5 176t19 131t7 64.5v4.5t-0.5 8t-1.5 8t-4 3.5q-11 0 -25.5 -3.5t-27 -3.5t-21 6.5t-8.5 26.5q0 11 16 19.5t40.5 15t54 11
t57.5 7t51 3.5t34 1q18 0 47 -1.5t63 -5.5t70 -10t69 -14.5t59 -20t41 -25.5q14 -14 26 -31.5t26 -32.5v-1q32 -37 44.5 -82.5t12.5 -93.5zM291 862l-24 2l-6 -8l10 -14l25 10zM489 809q0 5 -4.5 8.5t-9.5 5.5l-8 -8q10 -8 22 -8v2zM435 401q9 48 15.5 97t6.5 99q0 9 -2 28
t-6 42t-10 47t-13.5 44t-17.5 32.5t-21 12.5q-13 0 -25 -23.5t-23.5 -62.5t-21.5 -89.5t-19 -105t-17 -109t-14.5 -101.5t-11 -82t-7.5 -51q42 0 74 17.5t54.5 46t36.5 65t20 73.5q1 5 -1 13t3 8v-1zM556 747v7l-3 7l-19 13q6 -14 15 -27h7zM628 653q-8 11 -13 24.5t-9 26.5
h-8l-4 -7q7 -13 12.5 -26t10.5 -26l7 -2zM132 541l19 76l-5 29q-4 -8 -7.5 -21.5t-6 -29.5t-5 -30.5t-3.5 -23.5h8zM99 377q11 27 17 57t13 58l-8 24q-6 -29 -14.5 -60t-8.5 -61zM625 440q-8 -32 -21 -66t-32 -61q14 11 24.5 26t19.5 30v-7zM535 303l-2 8l-20 -15l4 -8z
M74 172l6 33l-9 29l-11 -72zM462 205l1 6l-5 9l-12 -11v-4h16zM203 126l-22 9h-13v-4l17 -9zM34 28q1 3 0 7.5t-2 7.5l-8 -10q-2 -8 -4 -15.5t-2 -15.5q0 -12 1.5 -24.5t2.5 -24.5zM-5 -216l8 44l-13 -22zM52 -198l-13 18l-4 -21l4 -15zM-11 -231q-7 -4 -13 -15.5t-10.5 -25
t-7.5 -27t-4 -20.5h6q3 0 5.5 8t3.5 10q4 18 8 35.5t12 34.5z" />
    <glyph glyph-name="q" unicode="q" horiz-adv-x="844" 
d="M819 771q-22 -66 -43 -140t-30 -143q-11 -87 -35 -173.5t-50.5 -173t-51 -173.5t-37.5 -175q14 9 35 22t44 25t45 20.5t39 8.5q21 0 35 -8.5t14 -31.5q0 -14 -6 -26t-16 -21t-22.5 -14t-25.5 -5q-8 0 -16.5 1.5t-16.5 3.5q-62 -50 -123.5 -98t-119.5 -102h1
q-7 -6 -18 -17t-23.5 -21t-25.5 -17.5t-23 -7.5q-22 0 -41 4l-1 18q0 66 11.5 139t27.5 147t33.5 146t28.5 136q-72 0 -142 15.5t-125.5 51t-89.5 93.5t-34 144q0 32 2.5 54.5t7.5 42.5t12.5 41.5t18.5 51.5h-1q27 61 58 120.5t73.5 106t99 75.5t134.5 29q7 0 28 -1t49 -2.5
t59 -3.5t58.5 -4t47 -4t24.5 -3l112 24q8 2 20 0t23 -7t18.5 -13t7.5 -18q0 -2 -7 -17t-15.5 -34.5t-16.5 -38.5t-11 -27zM777 811l12 17l5 28l-4 4l-12 -28zM442 227q6 11 17.5 52.5t25.5 99t28.5 125t27.5 130.5t22 114t12 77q-9 5 -19 9t-21 4q-37 0 -70 -25.5t-60 -66
t-48.5 -91.5t-36 -102t-22.5 -97t-8 -76v-12l1 1q7 -59 18 -117q5 -7 14 -17t19 -19t20.5 -15.5t19.5 -6.5q18 0 34.5 8.5t25.5 24.5zM314 766l21 13l2 25zM308 751q-18 -16 -33 -41t-26.5 -53t-19.5 -57t-12 -52h11q8 12 15 24.5t13 25.5l-3 19q4 18 11.5 34.5t16 32.5
t16.5 32.5t11 34.5zM133 567q4 18 10.5 35.5t9.5 36.5l-4 18l-14 -12l-14 -80l6 -2zM201 465l19 51v8l-8 2zM559 435q-15 -27 -22.5 -50t-18.5 -55l1 -17l38 98zM143 306q0 3 -4 15t-9 26t-10 26.5t-7 15.5l-7 -19q2 -20 9.5 -38.5t16.5 -35.5h11v10zM518 289l-6 10l-13 -48
l19 36v2zM490 179l-8 41q-6 -15 -5 -32.5t-5 -29.5zM276 154l-42 24h-18l45 -28zM388 -316q22 51 31 107t20 110q-8 -21 -17 -47t-17 -53t-13 -54t-5 -50z" />
    <glyph glyph-name="r" unicode="r" horiz-adv-x="757" 
d="M625 750q0 27 -14 47t-43 20q-60 0 -100.5 -23t-67 -60.5t-41.5 -85.5t-24 -99t-14.5 -101t-12.5 -91q-8 -47 -19.5 -92t-11.5 -93v-27t5 -27q7 -3 15 -6.5t15 -8t12 -11t5 -15.5q0 -13 -10 -23t-21 -15q-32 0 -58.5 5t-57.5 -2q-12 4 -34.5 4.5t-49 -1t-54.5 -2.5
t-51.5 -0.5t-40 4.5t-20.5 13q3 17 10 25t16.5 12.5t20.5 8.5t21.5 13.5t19.5 28t15 52.5q7 42 20 101.5t25.5 122t21.5 122t9 101.5v19.5t-1.5 28t-4 25.5t-8.5 11h-14.5t-14.5 -3q-8 0 -16 0.5t-15.5 3.5t-12 8.5t-4.5 15.5q0 11 4 24t19 13q47 0 88.5 14t79 30.5t72 30.5
t68.5 14l12 -21l-7 -33q48 32 104.5 50.5t115.5 18.5q35 0 69 -10t60.5 -30t43 -50t16.5 -70q0 -39 -12.5 -74.5t-35.5 -63t-55.5 -44t-72.5 -16.5q-20 0 -38 4t-31.5 13t-22 24t-8.5 37q0 24 13.5 41.5t34 30t43.5 21t42 13.5zM690 787q-4 16 -15 22l-6 -2l11 -33zM239 768
l-24 12l16 -23zM202 752l-10 10l-7 -4l-1 -8l12 -9zM578 672q-8 -5 -14.5 -15.5t-6.5 -19.5l1 -16l7 5q10 20 21 35zM290 621l11 37l-8 2l-12 -42zM135 504l12 59l-6 25l-11 -66zM240 371q14 45 24.5 90t22.5 90q-8 -15 -16.5 -36.5t-15.5 -45t-11.5 -46t-4.5 -39.5z
M226 240q5 22 6 43.5t1 44.5l-16 -66l3 -26zM211 224q-6 -15 -5 -32.5t-5 -29.5l18 21z" />
    <glyph glyph-name="s" unicode="s" horiz-adv-x="669" 
d="M498 906q39 -12 62 -26.5t36 -33t19 -41t11 -49.5q1 -3 1 -10q0 -17 -7.5 -35.5t-21.5 -34.5t-35.5 -26.5t-49.5 -10.5q-20 0 -38.5 7t-32.5 19t-23 28.5t-9 34.5q0 7 3.5 18t9.5 22.5t14.5 21t19.5 14.5q4 1 11 1.5l14 1t12 3t5 8.5q0 16 -17.5 27t-34.5 16q-20 6 -46 6
q-67 0 -97.5 -30t-30.5 -89q0 -33 24 -57.5t60 -46.5t77.5 -45t77.5 -53.5t60 -71.5t24 -98q0 -72 -30.5 -125t-79.5 -87t-112 -50.5t-127 -16.5q-17 0 -38 1.5t-41 6.5h-11q-5 1 -13.5 3l-17 4t-15.5 4t-10 4q-60 38 -87.5 80t-27.5 96q0 29 9.5 51.5t24.5 38t34.5 23.5
t39.5 8q19 0 37.5 -6t33.5 -18.5t24 -31t9 -43.5t-11 -41t-24.5 -27t-24.5 -19.5t-11 -19.5q0 -14 15.5 -23t38.5 -16q20 -6 37.5 -7t34.5 -1q27 0 52.5 11.5t45.5 30.5t32 44t12 52q0 15 -13 37t-31.5 42.5t-40 36t-39.5 19.5q-41 31 -72 51.5t-60 42.5q-16 12 -31 23
t-27 28t-19 42.5t-7 64.5q0 69 32 115t80.5 73.5t107.5 39.5t113 12q7 0 18.5 -1.5t24 -3.5t24 -4.5t19.5 -4.5q0 -5 11 -7t13 -2zM260 879q-35 -11 -63 -28v-10h8q15 6 29 15.5t28 18.5zM129 773l6 -6q12 10 23 20t22 21l-21 -4zM561 774l-4 -8l10 -14l5 12l1 8zM132 714
q-5 -13 -9 -25.5t-7 -26.5l4 -6l16 14zM133 604l-4 -4q5 -9 13 -22.5t18 -18.5l1 5zM271 510l6 -25l28 -12l1 -1q2 0 3.5 2t2.5 4l-35 33zM520 462q-8 9 -15.5 23.5t-21.5 16.5l31 -43zM356 471l-27 -4l63 -31l5 2zM547 387q-2 10 -8.5 19t-14.5 16h-7l1 -2l19 -41h6z
M141 376l-16 4l5 -26h6l5 2v20zM155 315l-7 -4l-1 -9l7 -2l5 5zM463 212l-33 -38l1 -8l38 40zM347 155q-15 -5 -29 -13.5t-26 -18.5l57 17z" />
    <glyph glyph-name="t" unicode="t" horiz-adv-x="782" 
d="M733 459q0 -79 -29 -154t-80 -133t-121 -93t-152 -35q-72 0 -131.5 15.5t-102.5 50t-67 88t-24 130.5q0 50 10.5 111t25.5 124.5t30 125.5t24 115q-10 1 -19.5 2.5t-20.5 1.5q-9 0 -19 1t-17.5 4.5t-12.5 10.5t-5 20l1 9q3 21 21 32t36 17q39 13 73.5 41.5t64 64t54.5 74
t46 71.5v-1q13 23 28 44.5t29 43.5q9 -2 25 -4t31.5 -7.5t27 -14t11.5 -22.5l-2 -10q-6 -8 -13.5 -29t-14.5 -49t-14 -60t-12.5 -61t-9.5 -52t-6 -34h104q10 0 39.5 2.5t60 2t53 -7t19.5 -24.5l-46 -54q-54 -7 -108.5 -8.5t-108.5 -1.5q-15 0 -20 -1.5t-9 -18.5
q-15 -59 -29.5 -124t-26 -132t-18.5 -132.5t-7 -126.5q0 -26 3 -53.5t13.5 -50.5t30 -37.5t52.5 -14.5q36 0 65.5 24t52.5 59t37.5 74t20.5 69q-14 18 -32.5 28t-35 21.5t-28 29t-11.5 50.5q0 29 10.5 54.5t29 45t43.5 31t54 11.5q36 0 60.5 -11.5t39 -32t21 -48.5t6.5 -61z
M347 1053l-8 10l-10 -10l-6 -28l7 -15zM179 801q14 29 17 68t5 71q-3 -9 -8 -25.5t-10 -35.5t-8.5 -36t-3.5 -26v-16h8zM232 895q0 8 -7 8l-7 -6l2 -28q2 5 7 13t5 13zM152 689q3 6 7.5 16.5t9 21.5t7.5 22t3 17l-1 18h-10q0 -17 -9.5 -33t-9.5 -34zM261 530q3 17 8 36.5
t9.5 39.5t8 39t3.5 36l-3 27q-8 -34 -19.5 -75t-11.5 -76q0 -7 1 -14t4 -13zM617 563q-13 -6 -22 -20q22 3 38 15zM682 483q0 11 -10.5 25.5t-16.5 22.5h-6q3 -11 12.5 -27.5t20.5 -20.5zM108 295q14 45 21 82t8 85q-5 -9 -11.5 -23.5t-13 -30.5t-11 -31t-4.5 -24
q0 -32 11 -58zM136 219l-9 38h-8l-4 -19q4 -8 8.5 -14.5t11.5 -11.5zM161 130h13l-26 47l-2 -20z" />
    <glyph glyph-name="u" unicode="u" horiz-adv-x="889" 
d="M757 658q-4 -42 -10 -85.5t-13.5 -87t-16 -85.5t-15.5 -79q-3 -17 -5 -36.5t-4 -42.5q-1 -5 -1 -12q0 -9 5.5 -13.5t10.5 -4.5q17 0 31.5 8.5t26.5 22t21.5 30t16.5 33.5q7 15 16 27.5t23 11.5q17 -1 26.5 -11t9.5 -20q0 -11 -9 -26t-18 -29l2 1q-17 -23 -33.5 -44.5
t-41 -39.5t-61.5 -33.5t-95 -26.5q-8 -2 -15 -3t-18 -1q-15 0 -35 4.5t-38 14.5t-30.5 26.5t-12.5 41.5v13q-30 -21 -62.5 -39t-66 -31t-66.5 -20.5t-64 -7.5q-94 0 -135.5 40t-41.5 118q0 14 1.5 28t3.5 30q5 34 13.5 80t19 96t21 101.5t20 95.5t17 77t10.5 48t-2.5 21.5
t-16.5 4.5q-5 0 -15 -4t-22 -9t-24 -9t-21 -4q-7 0 -15 3t-8 8q0 13 2 22t7 15.5t14.5 12t23.5 12.5q12 6 39.5 15t59 18t63 15.5t52.5 6.5q24 0 45.5 -7.5t36 -22.5t21 -37t2.5 -52q-2 -16 -5 -28.5t-7 -27.5t-9 -36t-11 -52q-4 -31 -14.5 -78.5t-22 -100t-20.5 -104.5
t-9 -92l-7 -48q-1 -5 -1 -9v-9q0 -29 17.5 -40.5t51.5 -11.5q9 0 24 8t34 21t39 30t38 34q2 17 5 34l6 34l1 19q9 50 20 98t16 102q2 25 4.5 48t8.5 44q3 26 6.5 53.5t5.5 51.5t4 42.5t2 25.5q2 13 2.5 21.5t0.5 14.5q0 22 10.5 34t28.5 18t42.5 7t53.5 1q5 0 21 -0.5
t33 -2.5t30.5 -7t13.5 -15q-1 -8 -3 -25t-4.5 -37t-6 -39t-6.5 -32q-7 -32 -12 -63.5t-10 -61.5zM764 897l-10 -2l1 -15l6 -2l10 7zM197 882q-3 -28 -6 -55.5t-3 -55.5v-16q7 35 13.5 69.5t19.5 67.5l-17 2zM305 843l-11 -40h4l17 40h-10zM601 702l-13 -60l7 -14l39 180z
M291 729l-10 -2l-2 -27l6 -2l10 7zM262 580q8 25 10 48t7 48l-7 -6q-9 -23 -11.5 -47t-5.5 -48zM583 575q2 -8 2.5 -15.5t-1.5 -15.5q4 3 9.5 9t5.5 11q0 10 -1.5 20t-3.5 20q-4 -7 -6.5 -14t-4.5 -15zM256 554h-2l-19 -49l18 19zM585 521q-13 -20 -17 -37t-4 -42
q6 10 9.5 22.5t5.5 23.5l2 -6q2 10 3 19.5t1 19.5zM90 300l5 -25h7l-4 41zM122 239l-13 24l-4 -4l11 -42zM538 196q11 -12 20 -16t20 -15q-11 14 -21 24.5t-12 31.5l-9 -5zM147 212l-9 2l3.5 -7t5.5 -10.5t5.5 -10t4.5 -4.5h9z" />
    <glyph glyph-name="v" unicode="v" horiz-adv-x="767" 
d="M696 851q21 -28 28 -65.5t7 -72.5q0 -40 -10.5 -86.5t-27.5 -100.5q-14 -42 -28.5 -83.5t-31.5 -83t-38.5 -83t-49.5 -82.5q-19 -27 -44 -53.5t-58 -46.5t-74 -32.5t-91 -12.5q-46 0 -67.5 2.5t-32.5 13.5q-4 3 -8 6.5t-11.5 8t-19 10.5t-29.5 14q-29 23 -47 62.5
t-18 74.5q0 38 4.5 65t12.5 51q0 3 3 20t7.5 40t10.5 48t12 44l-2 -1l16 46h-1q7 23 18 53t21.5 59t17.5 52t7 32q0 16 -6.5 20t-11.5 4t-11 -4t-12.5 -10t-13.5 -13t-14 -11q-9 -6 -17.5 -14.5l-16.5 -16.5t-16.5 -14t-17.5 -6q-10 0 -19.5 8.5t-9.5 19.5q0 17 16 38.5
t40 43.5l31 22q13 16 39 31.5t55 27.5t56.5 19t45.5 7q30 0 50.5 -7.5t32.5 -20.5t17.5 -29.5t5.5 -34.5t-4 -39t-10 -42.5t-11.5 -41t-8.5 -33.5q-10 -48 -27 -104t-34 -112.5t-30 -110.5t-14 -97q0 -26 5.5 -43.5t14.5 -27.5t19.5 -14t20.5 -4q12 0 32.5 9t42 22t40.5 28
t28 28q23 33 43 65t44 76q4 7 12 28.5t18 51.5t20.5 64.5t19.5 66.5t14.5 58.5t5.5 41.5q0 22 -9.5 35.5t-23 22.5t-28.5 14t-26 10q-33 13 -52.5 30t-19.5 52q0 31 25 51.5t73 20.5q34 0 51.5 -9t34.5 -25zM562 893q-2 0 -6.5 -3t-10 -7t-10.5 -8.5t-6 -7.5q0 -2 2.5 -9.5
t7.5 -7.5t5.5 10.5t2.5 12.5q1 1 8 9t7 10v1zM666 788q3 0 6 1q7 2 7 4q0 3 -6 8.5t-8 10.5q-3 -5 -7 -5t-5 1q4 -2 6.5 -11t6.5 -9zM218 682l-7 -2q-3 -3 -6 -11t-3 -15v-15l16 35v8zM202 557l-10 -4q-1 -5 -5.5 -15.5t-9.5 -21.5q-6 -13 -14 -29q0 -3 1 -3q4 0 8 3.5
t6 3.5v1q1 4 4 12t6.5 17t7 17t5.5 13zM135 286q-1 -6 -1.5 -10t-0.5 -7q0 -5 2 -7q1 3 2 6.5t3 11.5l9 54q-8 -12 -11 -32zM157 165q2 0 2 4q0 7 -1.5 10.5t-4 5.5t-4.5 4.5t-3 7.5q-1 4 -1.5 10.5t-1.5 6.5t-2.5 -7.5t-7.5 -14.5q4 -8 8 -14q4 -5 8 -9t8 -4z" />
    <glyph glyph-name="w" unicode="w" horiz-adv-x="1182" 
d="M759 601q-12 -46 -27.5 -99.5t-28.5 -107t-22 -102t-9 -84.5q0 -26 5.5 -43.5t14.5 -27.5t19.5 -14t20.5 -4q24 0 59.5 20t73.5 67q26 32 48 75t46 88q4 7 12 28.5t18 51.5t20.5 64.5t19.5 66.5t14.5 58.5t5.5 41.5q0 22 -9.5 35.5t-23 22.5t-28.5 14t-26 10
q-33 13 -52.5 30t-19.5 52q0 31 25 51.5t73 20.5q34 0 52.5 -12.5t36.5 -28.5l16 -14q10 -14 19.5 -32.5t16.5 -38.5t11 -40t4 -37q0 -40 -10.5 -86.5t-27.5 -100.5q-14 -42 -28.5 -82t-31.5 -79.5t-38.5 -79t-49.5 -80.5q-19 -27 -42.5 -55t-54.5 -50.5t-70.5 -36.5
t-89.5 -14q-86 0 -140 29t-72 106q-45 -62 -103 -97t-123 -35q-37 0 -72 11.5t-62 34t-43.5 54.5t-16.5 73q0 38 4.5 65t12.5 51q0 3 3 20t7.5 40t10.5 48t12 44l-2 -1l16 46h-1q7 23 18 53t21.5 59t17.5 52t7 32q0 16 -1 27.5t-14 11.5q-16 0 -28 -5t-21 -12t-16.5 -14.5
t-14.5 -11.5q-9 -6 -16.5 -16t-14.5 -20t-14.5 -17.5t-16.5 -7.5q-10 0 -19.5 8.5t-9.5 19.5q0 9 8 21t20 25t26 26t26 24l31 22q13 16 38.5 29t53.5 22.5t55 14.5t45 5q30 0 50.5 -7.5t32.5 -20.5t17.5 -29.5t5.5 -34.5t-4 -39t-10 -42.5t-11.5 -41t-8.5 -33.5
q-10 -48 -27 -104t-34 -112.5t-30 -110.5t-14 -97q0 -26 3 -42.5t8.5 -25.5t13 -12t17.5 -3q6 0 27 11t48 39t55.5 76.5t49.5 123.5q5 27 16 74t27 99l19 86q2 20 7 43.5t10 45t9 38t5 22.5q3 25 3 36q0 22 10.5 34t28.5 18t42.5 7t53.5 1q5 0 18.5 -1t28 -4.5t25.5 -9
t11 -14.5q-2 -17 -9.5 -46t-16.5 -64t-17.5 -73t-13.5 -72zM983 856q0 2 -6.5 7.5t-8.5 10.5q-1 -5 -6 -5q-3 0 -4 1q3 -3 5.5 -11t6.5 -8q3 0 6 1q7 2 7 4zM295 844q7 -1 7 -6q0 -10 -2 -15t-5 -12q5 2 9 5q4 2 7 5.5t3 7.5q0 7 -5.5 13t-9.5 6t-4 -4zM705 805q0 2 -2 5
t-4 7l-2 2l-5 -14q1 -1 3 -7.5t4 -8.5l6 12v4zM686 694h-6q-2 -2 -5.5 -13.5t-8 -28t-8.5 -35.5t-8 -35.5t-6.5 -27.5t-2.5 -12q3 -12 10 -13l35 159v6zM267 682l-7 -2q-3 -3 -6 -11t-3 -15v-15l16 35v8zM245 627q-1 -5 -4 -16.5t-7 -25.5q-4 -16 -10 -34q0 -3 1 -3
q4 0 8 3.5t6 3.5v1q1 4 3 14t4 20.5t4 20t4 14.5l1 6zM616 328q2 16 4.5 41.5t2.5 40.5q0 3 -0.5 5.5t-0.5 4.5l-9 -53l-10 -31v-6q0 -5 2 -6.5t7 -3.5zM193 334q-8 -12 -11 -32l-3 -16q-1 -6 -1.5 -10t-0.5 -7q0 -5 2 -7q1 3 2 6.5t3 11.5zM177 192q4 -8 8 -14q4 -5 8 -9
t8 -4q2 0 2 4q0 7 -1.5 10.5t-4 5.5t-4.5 4.5t-3 7.5q-1 4 -1.5 10.5t-1.5 6.5t-2.5 -7.5t-7.5 -14.5zM765 84q2 0 9 3t15.5 7.5t15.5 9t8 7.5q-1 -3 -10.5 -5.5t-21 -4.5t-21.5 -4t-11 -4q1 -1 8 -5t8 -4z" />
    <glyph glyph-name="x" unicode="x" horiz-adv-x="865" 
d="M836 216q0 -6 -8.5 -18t-20 -25.5l-23 -27t-16.5 -22.5h1q-1 -1 -16 -20.5t-42 -43t-64 -43t-81 -19.5q-20 0 -39 5.5t-35 15t-28.5 22t-18.5 25.5q-4 9 -10.5 25l-13 32t-10.5 28t-4 13l-25 67q-8 20 -14.5 39t-10.5 35q-35 -54 -63.5 -97t-44.5 -72
q-15 -22 -32.5 -47.5t-40 -47.5t-51.5 -36.5t-65 -14.5q-41 0 -70.5 24.5t-29.5 80.5q0 15 7 30.5t19 29t28 22t35 8.5q23 0 37 -8.5t21.5 -18.5t11.5 -18.5t8 -8.5q9 1 18.5 11t19.5 24t19.5 29t18.5 26l122 191q-8 25 -16.5 52.5t-16.5 53t-15.5 47.5t-12.5 37l-4 11
q-9 32 -15 58t-11.5 44.5t-12.5 28.5t-17 10q-11 0 -23 -12.5t-37 -45.5q-26 -35 -41.5 -50t-27.5 -15q-20 0 -27.5 10t-7.5 25q0 6 8.5 18t20 25.5t22.5 27t17 22.5h-1q1 1 15 21t39.5 43t60.5 42.5t77 19.5q41 0 70.5 -15t42.5 -41q4 -9 11 -26t13 -34t10.5 -30t4.5 -14
l25 -67l7 -18q15 22 29.5 41.5t26.5 38.5q14 22 33 50.5t43 54t52 43t61 17.5q21 0 42 -5t37.5 -14.5t27 -24.5t10.5 -34q0 -55 -24.5 -87t-65.5 -32q-25 0 -40.5 7t-25 16t-14.5 16t-8 7q-9 -1 -19.5 -12.5t-21.5 -27.5t-22 -32.5t-20 -26.5l-65 -94q8 -22 12.5 -36.5
t9 -29.5t11.5 -35t19 -54l38 -110q11 -32 18 -59t13 -46.5t13.5 -30.5t18.5 -11t23 12.5t37 45.5q26 35 41.5 49.5t27.5 14.5q20 0 27.5 -9.5t7.5 -24.5zM700 841q-3 0 -3 -4q0 -3 3 -5.5t6 -2.5q1 0 4 4t6 9t5.5 9.5l2.5 4.5q0 2 -3 2q-5 0 -13 -4.5t-8 -12.5zM384 602
q-1 11 -10 40.5t-29 77.5l-9 22h-5q2 -22 12 -48t26 -61l15 -33v2zM435 485l-18 35l-1 -23l14 -15zM470 339q2 0 2 8q0 22 -8.5 48t-13.5 50v13.5t-2 8.5q-1 0 -2 -4t-1.5 -9t-1.5 -9t-2 -4q1 -9 5.5 -26t9.5 -34q6 -20 14 -42zM521 246q-2 0 -5 4t-6 9t-5.5 9.5t-3.5 6.5
q1 -2 2 -7.5t3 -11.5t4 -11.5t4 -6.5zM524 220l31 -45h3l-22 51zM601 120l-10 25l-29 12zM25 75q2 0 5 1.5t3 5.5q0 5 -6 9t-6 10q0 2 -2 2t-2.5 -6.5t-5.5 -6.5q0 -5 4.5 -10t9.5 -5zM580 66l-24 12l-3 -13l27 -10v11z" />
    <glyph glyph-name="y" unicode="y" horiz-adv-x="892" 
d="M772 784q-14 0 -28.5 -19t-28 -46t-24 -55.5l-17.5 -47.5q-5 -13 -15 -41t-23 -63t-27.5 -72.5t-27 -70.5t-22 -57.5t-12.5 -32.5l-47 -104q-16 -35 -37 -73t-44.5 -76.5t-48 -74.5t-46.5 -67q-30 -42 -62.5 -75.5t-69 -57t-79.5 -36.5t-95 -13q-63 0 -96 33t-33 80
q0 31 11 51t26 32t31 16.5t27 4.5q24 0 39.5 -8t26.5 -20.5t18 -27t13.5 -27t14.5 -20.5t21 -8q11 0 22.5 3.5t25.5 13.5q15 11 42 49t58.5 88.5t63.5 106t55 101.5q-7 22 -17 52.5t-22.5 64t-26 68t-25.5 65.5t-22.5 56t-16.5 39q-8 23 -18.5 51t-21.5 55q-14 35 -22 68.5
t-12 50.5q-3 16 -8 31.5t-11 27.5t-13.5 19.5t-16.5 7.5q-15 0 -39 -31q-27 -35 -48.5 -52.5t-29.5 -17.5q-14 0 -22.5 3t-12.5 7.5t-5 10t-1 10.5q0 8 7 18t17.5 21t22.5 22t23 21l36 38q27 32 70 52t103 20q34 0 58.5 -9t41 -23t26.5 -31.5t15 -33.5q8 -25 18.5 -53
t22.5 -57q8 -21 16.5 -41.5t15.5 -39t12 -34t7 -25.5q4 -21 12 -39.5t18 -37.5q3 -7 6.5 -13.5t6.5 -14.5q23 57 44 111.5t36 88.5q32 74 57 121.5t50 75t53 38t67 10.5q51 0 79 -22t28 -56q0 -17 -6 -36.5t-16.5 -36t-24.5 -28t-31 -11.5q-20 0 -32 5t-21 11.5t-17.5 11.5
t-21.5 5zM826 899l-1 -27l21 13zM214 862q0 -5 2.5 -9.5t7.5 -4.5t8 4t3 9q0 10 -7 10q-6 0 -14 -9zM298 841l-4 -5q0 -5 4 -13t10 -13l10 -11l-15 37zM352 703q7 -6 11.5 -17.5t8 -23t6 -20t4.5 -8.5t3 6.5t2 9.5q-3 4 -6.5 12t-7.5 17t-7 17t-5 13l-4 4zM373 606l-1 -23
l14 -15l5 3zM397 527q1 -9 5.5 -26t9.5 -34q6 -20 14 -42q2 0 2 8q0 22 -8.5 48t-13.5 50v13.5t-2 8.5q-1 0 -2 -4t-1.5 -9t-1.5 -9t-2 -4zM451 472q1 -2 8.5 -28.5t17 -58.5t18 -58t11.5 -26v1l1 2q0 5 -1.5 14.5t-3 20t-3 20t-1.5 12.5t-5.5 21.5t-12.5 39.5t-13.5 38
t-7.5 17t-5.5 -2.5t-4.5 -4.5zM-45 -153l-3 2l-9 -16v-12l10 10zM-17 -199q0 -8 -2 -15.5t-2 -15.5q0 -6 4 -6q6 0 13.5 6.5t7.5 14.5q0 12 -21 16z" />
    <glyph glyph-name="z" unicode="z" horiz-adv-x="725" 
d="M428 486q-1 -1 -5 -8t-12 -18l-177 -198q-5 -5 -9 -10.5t-8 -10.5q45 -9 98.5 -23t100.5 -27.5t81 -23.5t39 -11q4 -1 12 -1q22 0 38 12t16 23q0 3 -2 7q-11 15 -35.5 21.5t-50.5 15t-45.5 22.5t-19.5 44q0 45 30.5 74.5t82.5 29.5q56 0 87 -41t31 -138q0 -18 -7.5 -38.5
t-19 -40t-25.5 -37t-26 -30.5q-22 -22 -40 -39.5t-39 -29.5t-47.5 -18.5t-64.5 -6.5q-43 0 -82 9t-76 22t-72.5 27.5t-71.5 25.5q-10 -12 -25 -21.5t-48 -9.5q-22 0 -32 15t-10 26q0 22 13 35t24 23l123 142q7 9 24.5 30t37 46t37.5 48t27 37l189 229q-31 -5 -71.5 -8
t-78 -5t-67 -3t-39.5 -1q-5 0 -16.5 2t-25 5t-25.5 5t-18 2q-4 0 -6.5 -6.5t-6 -20t-9.5 -33.5t-16 -47q-7 -17 -22.5 -22t-20.5 -5h-9q-6 0 -10.5 3.5t-7.5 14.5q6 39 11 66.5t9.5 48.5t8.5 37t7 32l14 75l-6 17l52 64h30q0 -24 9 -24q10 0 26.5 -2t34 -5t34 -6.5
t27.5 -6.5q18 -6 54 -15t74.5 -17t73.5 -14t52 -6h14.5t13.5 1q9 24 24 42.5t53 18.5q5 0 14.5 -1.5t18.5 -5.5t15.5 -9.5t6.5 -13.5q0 -4 -0.5 -7t-0.5 -6l-10 -12.5t-25.5 -32t-34 -42.5t-35.5 -44.5t-30 -38t-18 -22.5t-19 -22t-30.5 -35.5t-33 -40.5t-26.5 -37zM236 791
q8 -14 7 -18t8 -4q5 0 17.5 0.5t38.5 2.5h8.5t13 0.5t11 1t3.5 1.5q-6 5 -20.5 6t-31.5 1.5t-32.5 1.5t-22.5 7zM174 787l-16 -10l21 -10zM396 781l-21 -3v-3l9 -5h10zM607 341q0 -2 1.5 -6t2.5 -6q1 -9 3 -9t11.5 6t9.5 8q0 3 -4 8.5t-5 10.5q0 -1 -7 -5.5t-12 -6.5z
M185 145q-3 -3 -3 -4q0 -4 20 -9.5t48 -12t58.5 -13t51.5 -10.5q8 -2 19 -6.5t21 -4.5q3 0 -0.5 2t-3.5 10q0 2 -12 5.5t-28.5 7.5t-34.5 7t-30 4q-27 3 -52.5 12.5t-53.5 11.5zM83 101q2 4 4 9t2 9v23l-14 -20l-4 -24zM569 102q-7 0 -11.5 -3t-11.5 -3q0 -2 6 -5.5t11 -3.5
q2 0 4.5 5t2.5 9z" />
    <glyph glyph-name="braceleft" unicode="{" horiz-adv-x="645" 
d="M727 1441q0 -22 -17 -33.5t-41 -17.5t-49 -9t-40 -6q-21 -5 -40 -28t-34.5 -52.5t-26.5 -59t-14 -47.5q-9 -49 -11.5 -99.5t-3.5 -101.5t-4 -101t-13 -98q-4 -18 -16.5 -33t-29 -27t-35 -21t-33.5 -16q13 -5 28.5 -12t29 -17t22 -23t8.5 -30l-1 -10l-4 -11
q-27 -93 -57 -188.5t-46 -190.5q-2 -14 -3.5 -27.5t-1.5 -27.5q0 -42 7 -71.5t23.5 -49t43.5 -30.5t66 -15l1 -41q0 -9 -8 -16t-19 -11t-22.5 -6t-18.5 -2q-28 0 -61 2.5t-67.5 9.5t-66.5 19t-57 31t-40 46t-15 64q0 63 18.5 126.5t40.5 127.5t40.5 128t18.5 128
q0 27 -9.5 39.5t-22.5 18.5t-26 10t-20 15q12 8 24.5 15t26.5 14q42 21 57.5 64.5t19 101t1 123.5t4 132t28.5 127t73.5 107.5t139.5 74.5t227 28q11 0 18.5 -6t7.5 -17zM412 1304l8 42l-27 -36zM417 1266l-16 25q-5 -6 -11.5 -16.5t-5.5 -18.5l8 -15zM365 1188
q-2 10 -4.5 19.5t-7.5 18.5q-8 -28 -15 -60.5t-7 -61.5q0 -13 4 -24q7 24 11.5 48t8.5 49zM182 236q18 48 37 94t34.5 92.5t27 94.5t15.5 99q-15 -11 -22 -25t-12.5 -30t-10.5 -31.5t-15 -28.5q4 -36 -3.5 -68.5t-18.5 -65t-21 -65t-11 -66.5zM198 143v67l-16 -34l4 -46z
" />
    <glyph glyph-name="bar" unicode="|" horiz-adv-x="735" 
d="M721 1561q3 -11 4 -22t1 -22v-5l-27 -20q-24 -4 -36 -14t-18 -25t-8.5 -34.5t-6.5 -41.5q-29 -156 -53 -311.5t-53 -311.5q-18 -96 -39.5 -198.5t-41.5 -207t-36.5 -208.5t-23.5 -203q7 -3 17 -7.5t19 -10.5t16.5 -14t9.5 -17q-7 -11 -15 -21.5t-16 -20.5l-30 -3h-74
h-35.5t-51.5 1t-57.5 2.5t-54 5.5t-40 9.5t-15.5 14.5q0 12 6.5 22.5t16 18.5t21 13t22.5 7q29 106 46 216.5t36 218.5q50 280 96.5 556.5t94.5 556.5q-9 3 -19.5 5.5t-18.5 7t-13.5 11.5t-5.5 20l1 13q7 11 19.5 17t27 9t29 3.5t26.5 0.5q67 0 140.5 -1t139.5 -10z
M443 1184q9 13 14 28t7 30.5t4 31.5t5 31h-6q-5 -27 -15 -55.5t-10 -56.5zM408 1210q0 -30 -5 -59.5t-8 -59.5q4 21 13.5 40t9.5 41q0 10 2 19t4 19q2 8 1 16.5t-2 16.5q-2 -8 -3 -15.5t-3 -13.5zM445 1072q16 39 16 80l-1 18q-5 -24 -10 -48.5t-5 -49.5zM427 1085l-4 11
l-8 -9l6 -10zM423 1061l-5 10l-5 -8l-4 -98zM397 535q0 45 8.5 91t12.5 91q-8 -48 -17 -94t-17.5 -92.5t-15.5 -93.5t-11 -96q13 19 15 40.5t2 44.5q0 26 3.5 50t8.5 50zM354 690q-3 -2 -6.5 -22.5t-6.5 -46t-5.5 -48.5t-2.5 -29q14 35 16.5 72t4.5 74zM366 650l4 -11l7 17
l-6 3zM355 544h7l3 13l-3 12zM357 532l-9 -16l1 -17l10 14zM316 305q11 41 22.5 87.5t11.5 88.5v12q-7 -12 -11.5 -25t-9.5 -26l4 -13l-22 -127zM358 338h-2l-11 -64h2z" />
    <glyph glyph-name="braceright" unicode="}" horiz-adv-x="645" 
d="M221 1420q0 17 10.5 30.5t28.5 13.5q33 0 73 -4.5t81.5 -15t81 -27t70 -41.5t49 -58t18.5 -76q0 -58 -19.5 -116.5t-42.5 -117.5t-42.5 -118.5t-19.5 -119.5q0 -22 6 -35t16.5 -22t23.5 -16.5t28 -19.5q-14 -14 -26.5 -20t-24 -9.5t-21.5 -7.5t-18.5 -13.5t-15.5 -27.5
t-13 -50q-15 -86 -18.5 -166.5t-9 -151t-21.5 -129.5t-57.5 -101t-115.5 -65.5t-196 -23.5q-9 0 -18.5 1.5t-18 5t-14 10.5t-5.5 18q0 7 6 21t9 20q64 5 107 39t70 86t41 116t19.5 130t6 128t0.5 110v2q3 19 16 34t30.5 26t37 19t35.5 13q-12 7 -26.5 15.5t-26.5 19.5
t-20 24.5t-8 29.5q0 49 18 106.5t40 117.5t40 120.5t18 116.5q0 11 -3 32t-9.5 42.5t-17 39t-24.5 20.5q-7 1 -27.5 4.5t-43 9t-40 13.5t-17.5 18zM512 1310l-13 36l-8 -42zM489 1241l14 15l2 10l-7 25l-24 -25zM504 1177l-8 -48t-6 -49q8 11 14 30t10 40.5t6.5 42t3.5 33.5
q-8 -8 -15 -17.5t-11 -20.5zM365 616q-8 -32 -16.5 -63.5t-8.5 -64.5q0 -63 1.5 -126t3.5 -126q12 30 13 61t1 63t4 67t22 74q-5 13 -4.5 28.5t1 31.5t-2 30t-14.5 25zM303 130l22 46l-4 34l-24 -67z" />
    <glyph glyph-name="asciitilde" unicode="~" 
d="M935 950q0 -54 -16.5 -99t-47 -77t-75 -50t-99.5 -18q-56 0 -95.5 16.5t-67 41.5t-46.5 53.5t-32.5 53.5t-25 41.5t-25.5 16.5q-15 0 -24 -6t-13.5 -16t-5.5 -21.5t-1 -23.5q0 -46 2.5 -65.5t-7 -25.5t-38 -5t-90.5 -2q-10 -1 -20.5 1.5t-20.5 5.5q7 56 26 107.5
t51.5 90.5t79.5 62.5t110 23.5q11 0 32.5 -7t43.5 -17.5t38.5 -23t18.5 -24.5q3 -6 14.5 -18.5t27 -28.5t33.5 -33t34.5 -31t29 -23t17.5 -9q9 0 15 6.5t9.5 15.5t5 19t1.5 16q0 19 -7.5 39t-19.5 38.5t-27 34t-30 27.5q28 -1 58 -0.5t60.5 0t60.5 -2.5t57 -8q5 -18 7 -37
t2 -38zM626 783q-20 26 -38.5 46t-41.5 41l8 -38l47 -46l20 -3h5zM860 812h-38q-10 0 -22.5 -0.5t-17.5 -10.5l6 -18q14 2 28 7t28 7z" />
    <glyph glyph-name="uni00A0" unicode="&#xa0;" horiz-adv-x="520" 
 />
    <glyph glyph-name="exclamdown" unicode="&#xa1;" horiz-adv-x="602" 
d="M428 1066q54 0 79.5 -24.5t25.5 -85.5q0 -36 -10.5 -73t-42.5 -77q-39 -49 -105 -49q-30 0 -51 13.5t-33.5 33.5t-18.5 43t-6 42q0 33 13.5 64.5t36 56.5t52 40.5t60.5 15.5zM498 939q0 25 -32 25q0 -40 17 -40l15 12v3zM430 830q29 23 35 55l-1 13q-14 -18 -25 -37.5
t-11 -25.5q0 -3 1 -4q0 -1 1 -1zM392 421q0 -2 -0.5 -4t-0.5 -5q0 -9 2 -27.5t2 -30.5q0 -13 -1 -23t-2 -31v-54q0 -74 -3.5 -143.5t-11.5 -134.5q-5 -8 -7 -13.5t-3 -7.5l-20 -55q-1 1 -3.5 -9.5t-6.5 -26t-9.5 -33t-12.5 -30.5q-5 -11 -21.5 -34t-39.5 -45.5t-50.5 -39.5
t-54.5 -17q-11 0 -24.5 2.5t-25.5 7t-20.5 10t-10.5 11.5q-26 13 -39.5 53t-13.5 113q0 17 1 35.5t1 37.5q0 7 -1.5 13.5t-1.5 14.5q0 11 4 24.5t5 15.5q1 4 4.5 17t11.5 35.5t21.5 56.5t34.5 81q38 89 62 138t35 61l25 64v12t2 13q0 4 4.5 16t10 27.5t10.5 31.5t7 27l1 30
q-1 5 -1 10v10q0 13 3.5 27t12 26t23 19.5t36.5 7.5q9 0 19 -3t21 -11l-1 -14q7 -5 11 -10t6 -10q3 -5 3 -10q-5 -13 -5.5 -22t-0.5 -23q0 -36 5.5 -83.5t7.5 -97.5zM337 191q1 6 1.5 11.5t0.5 10.5q0 20 -10 33l-12 -66zM325 146l-2 -1q-3 -3 -8 -16.5t-9.5 -31t-8.5 -35.5
t-5 -29l-5 -33q9 10 16 25.5t12 34.5t7.5 38.5t2.5 37.5v10zM84 -76q11 4 19 13t11 29l3 19l-12 -16q-17 -23 -20 -38zM301 -41q0 8 -11 26q-1 -3 -6 -3t-7 -11l6 -52q2 0 4.5 6t4.5 12.5t4.5 12.5t4.5 6v3zM255 -73h-9l-27 -65l21 -2zM130 -272q20 0 39 34h-3
q-11 0 -28.5 -5t-25.5 -6q3 -23 18 -23z" />
    <glyph glyph-name="cent" unicode="&#xa2;" horiz-adv-x="734" 
d="M545 925q17 -2 37 -6.5t34 -7.5q18 -8 40.5 -21t42 -33.5t31.5 -47.5t10 -61q-2 -31 -12.5 -58t-28 -47t-41.5 -31.5t-52 -11.5q-38 0 -63.5 15t-36.5 44q-7 -46 -18.5 -117t-30.5 -182q-1 -7 -4.5 -21.5t-7.5 -30.5t-7.5 -30.5t-4.5 -21.5q-2 -10 -4 -25.5t-4 -36.5
l-4 -24q32 10 52.5 33.5t33.5 52.5t21.5 60t17.5 56.5t21 42t32 16.5h13t15.5 -2t12.5 -6.5t5 -12.5q-2 -21 -11 -46.5t-15 -45.5q-18 -53 -38 -91.5t-45 -66t-57 -44.5t-72 -26l-41 -244q-2 -12 -13.5 -18t-37.5 -6q-35 0 -42.5 9.5t-3.5 31.5q2 10 5.5 18.5t8 18t9 21.5
t7.5 30q2 14 3 31t2 37l11 60h-35q-73 0 -124 25.5t-82 70t-43 103.5t-8 126q4 59 17.5 111.5t36 101.5t54 94.5t70.5 91.5l9 2q21 21 48.5 39.5t58.5 32.5t64.5 25t65.5 17l18 152q1 12 8 24.5t16.5 23t21 17.5t22.5 7q28 0 37 -13t1 -55q-2 -7 -6.5 -27.5t-6.5 -33.5z
M518 742l8 10t8 7q12 6 21.5 11t16 13t10.5 19.5t5 30.5q1 14 -8.5 22t-41.5 10l-13 -93zM277 826l-3 -15l25 21zM408 655q8 43 14.5 80t11.5 75q-25 -30 -46 -72.5t-38 -89.5t-30.5 -96t-23 -93t-15 -79.5t-6.5 -55.5q-3 -48 9.5 -85.5t43.5 -72.5q1 20 2 42.5t3 31.5
q13 74 24 134.5t20 111t17 92t14 77.5zM667 761l-14 -14l20 -10zM666 716h-7v-4q0 -5 0.5 -11t2.5 -11h6l9 15zM255 609l-4 4q-6 -11 -10 -24t-4 -25l13 17zM244 458q0 13 -0.5 24.5t-0.5 23.5q0 6 0.5 12.5t0.5 12.5q-5 -9 -9.5 -20t-4.5 -22q0 -20 8 -38h5zM93 495
l-14 -20l8 -4zM84 457l-16 -22l22 -35l3 17zM198 396q2 -7 5 -14t8 -12l5 12zM233 331h-9l-4 -21q7 -16 21 -28l2 8zM544 264l-11 -40h11v40zM262 175v-22l13 -18l9 10l-6 15z" />
    <glyph glyph-name="sterling" unicode="&#xa3;" horiz-adv-x="1079" 
d="M1072 1010q-8 -33 -10.5 -46.5t-4.5 -21.5q-31 -172 -165 -172q-49 0 -74.5 22t-25.5 60q0 3 0.5 5.5t0.5 5.5l2 28v6q0 11 -2 26.5t-2 20.5q0 10 20.5 25.5t53.5 32.5q17 4 29.5 19.5t16.5 38.5q-4 28 -7.5 50.5t-9.5 42t-14 37.5t-21 38q-3 9 -21 15t-40 9.5t-41.5 5.5
t-24.5 2q-16 0 -39 -34t-46 -111q-5 -18 -10.5 -52t-16.5 -69l-10 -32l6 -99q4 -57 8 -107t3 -82q0 -8 -0.5 -14t-0.5 -11l98 -1q53 -4 73 -16.5t20 -26.5q0 -16 -14.5 -26t-30.5 -10q-7 0 -20 -4.5t-27 -6.5q-15 -2 -27 -3t-26 -1q-13 0 -29.5 1t-39.5 4q-11 -41 -23 -74.5
t-26 -62t-31 -53.5t-38 -50q4 -8 23.5 -18t44 -19t49.5 -15.5t40 -6.5q12 0 28.5 3.5t44.5 12.5q24 10 35.5 17.5t18.5 18t13 29t19 51.5q-1 3 -1 8q0 54 31.5 81t97.5 27q9 0 13.5 -2t4.5 -10q0 -11 -2.5 -17t-5.5 -12.5t-7 -16.5t-7 -28q-1 -4 -1 -13q0 -12 1.5 -27
t1.5 -28q0 -4 -0.5 -7t-0.5 -6q-17 -98 -44.5 -163.5t-67.5 -105t-93.5 -56t-123.5 -16.5q-32 0 -54.5 2t-39.5 7t-29 13t-21 19q-5 1 -17 7.5t-28.5 18t-36 27.5t-38.5 36q-20 -21 -38.5 -38.5t-40.5 -29.5t-50.5 -18.5t-67.5 -6.5q-38 0 -70 10t-55.5 29t-36.5 47.5
t-13 66.5q0 34 12.5 53t26.5 38q41 28 67 43.5t46.5 22.5t39.5 8.5t46 1.5q10 0 30 -0.5t40.5 -1t37 -1.5t19.5 -1q18 49 25 79.5t7 52.5q0 14 -3 27.5t-8 27.5q-12 -4 -34 -4q-32 0 -59 2t-59 21q-12 -2 -14.5 -2h-15.5h-12t-20.5 1t-18.5 2.5t-7 3.5l1 6q3 17 18 31t38 24
t50.5 15.5t56.5 5.5q20 0 28.5 -2.5t20.5 -4.5l8 -3q0 16 -4 32t-9.5 29t-9.5 21.5t-4 9.5q-3 16 -4.5 37.5t-1.5 46.5q-1 34 2.5 71t9.5 71q6 36 20.5 69t43.5 70.5t76 83t120 106.5q23 6 49 18t54.5 24t59 21t63.5 9q54 0 95 -9t72 -30t53.5 -55t40.5 -83q10 -28 12 -48
t2 -36v-23v-13.5t2 -13.5zM549 1154q-11 -8 -16.5 -16.5t-9 -19.5t-5 -25t-3.5 -32q13 21 22 47.5t12 45.5zM498 1072q0 6 -4 12t-10 8q0 -2 -0.5 -3.5t-0.5 -3.5q0 -11 3 -20t6 -19zM1008 935q0 10 -8 16.5t-23 6.5q-1 -4 -1 -10q0 -15 6 -22.5t12 -7.5l14 12v5zM975 892
q-14 -18 -25 -37.5t-11 -25.5q0 -3 1 -4q0 -1 1 -1q14 11 23 24.5t11 30.5v13zM471 816l-13 18q-2 -10 -2 -15q0 -10 2.5 -17t5.5 -8l7 18v4zM478 682q-11 37 -18 53q0 -13 1.5 -34t4 -43.5t6 -42t6.5 -29.5l12 20zM477 494l-36 -94h13l23 46v48zM304 200q-7 15 -16 25
t-17 16t-13.5 8.5l-5.5 2.5h-16q-15 0 -41.5 -5t-51.5 -13.5t-43.5 -21t-18.5 -27.5q0 -16 17.5 -29.5t38 -24t37.5 -16.5l17 -6q6 0 22.5 11t35 26t34.5 30.5t21 23.5zM762 166q22 0 42 10.5t23 27.5l-62 -18zM589 123q-17 27 -32 44t-31 27l-4 -22v-4q0 -13 15.5 -29
t51.5 -16z" />
    <glyph glyph-name="currency" unicode="&#xa4;" horiz-adv-x="1123" 
d="M183 628q11 63 42.5 125t79.5 110l-125 152q-20 23 -19 34q-1 8 6 14t19 17l24 21q21 18 31 18q11 0 32 -24l127 -154q110 72 238 72q132 0 215 -72l183 154q28 24 39 24q5 -1 11.5 -4.5t14.5 -13.5l16 -21q15 -15 15 -25q0 -8 -8 -17t-25 -23l-177 -152q20 -37 32 -79.5
t12 -90.5q0 -84 -32.5 -160t-90.5 -137l124 -145q9 -11 13 -18.5t5 -13.5q0 -8 -6.5 -14.5t-19.5 -17.5l-23 -18q-12 -10 -19.5 -16t-12.5 -5q-5 0 -11.5 7t-16.5 18l-124 145q-56 -36 -118.5 -56.5t-131.5 -20.5q-66 0 -122 20.5t-97 56.5l-173 -145q-14 -12 -23.5 -18.5
t-16.5 -6.5q-10 0 -25 21l-17 18q-15 15 -15 26q0 8 7.5 16t23.5 22l170 145q-19 33 -28.5 73t-9.5 84q0 18 1.5 37t5.5 38zM298 626q-2 -14 -3.5 -26.5t-1.5 -25.5q0 -49 17 -90.5t47.5 -72t73 -47.5t93.5 -17q62 0 121 26t104.5 70.5t73.5 104t28 127.5q0 49 -17 91
t-47 72.5t-72 48t-93 17.5q-58 0 -112 -22t-97.5 -59.5t-74 -88t-40.5 -108.5z" />
    <glyph glyph-name="yen" unicode="&#xa5;" horiz-adv-x="1226" 
d="M169 476q0 1 19.5 2.5t46.5 3t57 3.5t53 4l81 1q8 25 14.5 47.5t13.5 41.5l-138 -2l-95 -1q-10 0 -18.5 1t-15 4.5t-10 10.5t-3.5 20q0 31 8.5 45t31 19t62.5 6.5t104 6.5l62 1q-8 32 -13 65.5t-9 67.5l1 -1l-7 31h1q-14 48 -37 96.5t-33 96.5l2 -2q-18 46 -32 66.5
t-31.5 30.5t-41.5 18t-62 29q8 24 20 38t28 21t35 9t41 2q103 0 206 9.5t206 9.5q9 0 28 -1t38 -5t33 -11.5t14 -19.5v-3q-5 -28 -16.5 -40.5t-26 -17.5t-30 -5t-28.5 -2.5t-21 -10.5t-8 -28q0 -8 3 -12q-3 -11 -3 -23q0 -18 4.5 -37t9.5 -33l1 1l2 -9h-1q12 -34 18.5 -70
t12 -72t11.5 -72t16 -70q21 23 54.5 57t72 74t78.5 82.5t73.5 83.5t56 76.5t27.5 60.5q2 8 2 15v15v18h1q-1 18 -12 27t-26 12.5t-32 5t-30 4.5l-4 13l6 24q23 28 57.5 35.5t65.5 7.5q15 0 46 -0.5t69.5 -2t79 -5t73.5 -9t54.5 -13.5t21.5 -19q0 -6 -6 -14t-14 -15
t-16.5 -12.5t-12.5 -8.5q-24 -3 -39 -6.5t-27 -10t-24 -18.5l-31 -31q-117 -120 -234.5 -240t-226.5 -247q55 4 92 9.5t43 5.5q61 0 61 -42q0 -24 -4.5 -36t-11.5 -18t-16.5 -9t-18.5 -9t-18.5 -7t-22.5 -3q-8 1 -14 1.5t-13 1t-16 0.5h-23q-30 0 -60.5 -2t-55.5 -3
q-9 -21 -18.5 -43.5t-17.5 -46.5l70 1q5 0 22.5 1.5t37 4t36 4.5t20.5 3q8 1 14.5 1.5t12.5 0.5q62 0 62 -43q0 -24 -4.5 -35.5t-12 -17.5t-17 -9t-18.5 -9t-18 -7t-22 -3q-8 1 -14 1.5t-13 1t-16 0.5h-23q-35 0 -71 -1.5t-61 -3.5l-20 -1q-17 -65 -28 -117.5t-11 -87.5
q0 -23 6.5 -42.5t24.5 -32.5q9 -2 21.5 -3.5t24.5 -5.5t20 -10t8 -17q0 -26 -15 -48.5t-44 -22.5q-23 0 -45 5t-42 11h1q-24 7 -48.5 14.5t-50.5 7.5q-63 0 -122.5 7t-120.5 7q-20 0 -40.5 -3.5t-40.5 -9.5h2q-21 -6 -42 -6q-31 0 -61 2t-61 2q-8 5 -8 19q0 19 10.5 32
t26 20.5t33.5 11t34 3.5q5 0 8.5 -0.5t6.5 -0.5q24 17 49.5 29.5t50.5 26.5q16 9 31.5 28.5t30 47t28 60.5t25.5 68l-108 -1l-95 -1q-20 0 -33.5 5t-13.5 30q0 17 3 27t7.5 16.5t9.5 11t10 10.5zM1210 1245q0 13 -6 27t-11 25l16 -62l1 4v6zM1364 1290l-2 -3l11 -7
q4 3 7.5 6t5.5 7l-8 1zM1300 1262q-2 11 -13 16t-19 10v-4q0 -10 6.5 -17.5t17.5 -8.5zM633 1207q-8 -2 -15.5 -6t-14.5 -9l3 -26h11q4 13 15.5 31.5t26.5 21.5l-3 6zM1189 1173l1 -18q5 5 10.5 10t10.5 10l-8 12zM527 991v7q0 13 -4.5 32.5t-12 38t-17 32t-19.5 13.5l-1 -4
v-5q0 -9 3.5 -18.5t8 -19t8.5 -17.5t4 -13v-2l30 -48v4zM511 815q9 -31 15 -61.5t11 -62.5h28v8q0 5 -0.5 10t-1.5 10h-10q-2 29 -13 52t-29 44zM690 582q-12 -21 -22 -43.5t-18 -45.5h14l41 89h-15zM555 580h-7q-2 -11 -5 -21.5t-5 -21.5l-4 -28l20 24l-5 6zM540 277
q9 27 18 52.5t17 51.5h-24q-10 -24 -16.5 -48t-6.5 -32t3.5 -13.5t8.5 -10.5zM481 324q6 14 11.5 28t11.5 28h-12q-9 -26 -17.5 -47.5t-16.5 -29.5v-10l15 25zM607 253q-2 9 -3.5 18t-1.5 19v6.5t1 6.5q-5 -8 -8 -17t-7 -18q1 -8 1 -17v-18v-14zM595 93l16 -9l20 4l-15 14z
" />
    <glyph glyph-name="brokenbar" unicode="&#xa6;" horiz-adv-x="735" 
d="M614 848q-1 -3 -8 -13t-22 -29q-5 -1 -14.5 -2t-16.5 -1h-74q-9 3 -67 4.5t-159 1.5q-18 2 -23 11t-5 14q0 6 3 15t10.5 18.5t20.5 17.5t33 12q1 0 8 30.5t17 77.5t21.5 105t21 113t16 100t6.5 68q0 11 -1 14q-12 4 -23 7t-18.5 7t-12 10.5t-4.5 17.5q0 3 0.5 9.5
t5.5 13.5t17.5 12.5t36.5 5.5l44 4l29 -2q13 0 40.5 -1t57 -2t56.5 -2t41 -1h24q8 0 18 -0.5t14 -2.5q3 -10 4 -20.5t1 -18.5q0 -4 1.5 -5.5t0 -4t-7.5 -7t-22 -13.5q-14 -8 -22 -13t-13 -13t-9 -21t-9 -36q-5 -21 -12 -53.5t-16.5 -83t-22 -123t-27.5 -172.5
q38 -14 49.5 -26.5t11.5 -20.5v-2zM468 985q3 17 8 35t10 33.5t8.5 27t3.5 16.5q0 1 -0.5 1t-0.5 1v1l6 86l10 9q1 27 8.5 76t12.5 106l-3 -20q-8 -14 -13.5 -36.5t-13.5 -64.5l-10 -58zM462 1243q1 4 2.5 18t3 30t2.5 31t1 23q0 5 -1 5q-2 0 -5 -16.5t-6 -39.5t-6 -48
t-3 -42q7 18 8.5 24.5t3.5 14.5zM487 1319l-5 -9l5 -11l7 17zM481 1217l-3 12l-6 -25h7zM474 1192l-8 -16v-17l8 14v19zM463 1102q2 11 3 23.5t1 27.5q-5 -7 -17 -40q-2 -4 -2.5 -7t-1.5 -4l4 -13l-23 -127l6 3q13 51 19 82.5t11 54.5zM459 -32q0 1 -3 -6t-10 -15.5
t-18.5 -16t-29.5 -7.5h-74q-9 3 -67 4.5t-159 1.5q-18 2 -23 11t-5 14q0 6 3 15t10.5 18.5t20 17.5t32.5 12q1 0 8 30.5t17 78t21.5 106t21.5 113.5t16.5 100t6.5 67q0 10 -1 13q-13 4 -23.5 7t-18 7t-12 10.5t-4.5 17.5v9t5.5 14t18 12.5t36.5 5.5l43 4l30 -2q13 0 40.5 -1
t57 -2t56.5 -2t41 -1h24q8 0 18 -0.5t13 -2.5q4 -10 5 -21t1 -19q0 -3 1.5 -5t0 -4t-7.5 -6.5t-22 -13.5q-14 -8 -22 -13t-13 -13t-9 -21t-9 -36q-5 -21 -11.5 -53.5t-16.5 -83t-22.5 -122.5t-28.5 -173q38 -14 50 -26.5t12 -20.5v-2zM313 105q3 17 8 35t10 33.5t8.5 27
t3.5 16.5q0 1 -0.5 1t-0.5 1v1l5 86l11 9q0 27 8 76.5t13 105.5l-3 -20q-8 -14 -13.5 -36.5t-13.5 -64.5l-10 -58zM307 363q1 4 2.5 18t3 30t2.5 31t1 23q0 5 -1 5q-2 0 -5 -16.5t-6 -39.5t-6 -48t-3 -42q7 18 8.5 24.5t3.5 14.5zM332 439l-5 -9l4 -11l7 17zM326 337l-3 12
l-6 -25h7zM319 312l-8 -16v-17l8 14v19zM308 222q2 11 3 23.5t1 27.5q-5 -7 -17 -40q-2 -4 -2.5 -7t-1.5 -4l3 -13l-22 -127l5 3q13 51 19.5 82.5t11.5 54.5z" />
    <glyph glyph-name="section" unicode="&#xa7;" horiz-adv-x="1075" 
d="M961 760q-17 -92 -88.5 -159t-180.5 -94q73 -51 107 -99t34 -101v-14t-2 -15q-11 -62 -43.5 -112t-83 -85t-116.5 -53.5t-145 -18.5q-22 0 -40 4.5t-35.5 12t-36 17.5t-41.5 21l-16 7q-9 -2 -19 -16t-18.5 -31.5t-15 -34t-9.5 -22.5l-18 -15q-11 -10 -23 -14.5t-32 -4.5
q-21 3 -29.5 6t-8.5 9q0 8 14 32q20 35 35.5 71.5t22.5 76.5q2 12 4.5 41.5t5 62t5 60.5t4.5 38l21 21q5 1 16 1.5t19 0.5q28 -4 38 -7.5t10 -13.5v-5q0 -4 -3.5 -15.5t-7 -26.5t-7 -31.5t-3.5 -28.5q0 -37 19.5 -64.5t48.5 -45.5t62.5 -27t61.5 -9q5 0 15 7q20 4 44.5 16.5
t46.5 33.5t36.5 50t14.5 66t-17 63.5t-45.5 45t-65 31t-74.5 22.5q-27 3 -59 10t-62.5 18.5t-55.5 28t-37 38.5q-15 26 -21 54.5t-6 59.5q0 28 3 59t10.5 61.5t20.5 60t33 54.5q15 20 48.5 42t93.5 48q-37 39 -55.5 89.5t-18.5 109.5q0 50 9.5 90t32 73.5t59.5 63t93 59.5
q17 5 33 9.5t21 4.5q23 2 39 4t30 3.5t29 2t36 0.5q13 0 30.5 -2.5t36.5 -6.5t37 -9.5t33 -11.5q21 -9 34 -15t21 -9.5t11.5 -5t5.5 -1.5q-1 0 8.5 13.5t21.5 30.5t22.5 32.5t13.5 20.5l-1 1q1 4 10 10.5t32 6.5q5 0 12.5 -3t14.5 -6.5t12 -7.5t5 -6q-15 -46 -32 -90
t-25 -88q-5 -26 -7 -57.5t-8 -59.5t-19.5 -46.5t-41.5 -18.5q-21 0 -27.5 11.5t-6.5 29.5q0 14 2 29t2 30q0 21 -5 35q-15 35 -39 60.5t-51.5 42t-54.5 24.5t-47 8q-29 0 -54 -15.5t-43.5 -44.5t-29 -70.5t-10.5 -92.5t30.5 -77.5t92.5 -38.5q15 -5 26 -7.5l22 -5t24 -7
t32 -13.5q97 -56 136.5 -112t39.5 -116q0 -19 -3 -38zM424 1013q-10 14 -15.5 23.5t-16.5 13.5l-10 -11q2 -18 45 -46zM751 705q3 19 3 38q0 46 -19 79t-49.5 54t-67.5 31t-73 10q-23 0 -44 -18.5t-36.5 -49.5t-25 -72.5t-9.5 -87.5q0 -56 30 -77q6 -4 14 -8.5t24 -10
t41 -13t66 -18.5q17 6 39.5 16.5t44.5 28t39 41.5t23 57zM908 855q1 4 1 9q0 2 -2 8q-12 -9 -12 -39v-10t2 -12q2 4 3.5 8.5t3.5 12.5zM290 724q0 4 -1.5 13t-3.5 18.5t-4 17.5t-4 11q-8 -8 -13.5 -21.5t-9.5 -37.5l-2 -12l9 -14q24 6 27 22h2v3zM912 767q0 15 -17 15h-4
l-3 -21zM884 740q-15 -14 -22 -17q-10 -15 -15.5 -35t-5.5 -28q0 -9 5 -11q29 41 45 97zM267 614q2 8 3 53l-17 -61l10 -2zM296 559q-12 17 -27 22l-11 -9q0 -8 5.5 -15.5t12.5 -13t14 -9.5t11 -5l3 18zM653 438q-4 4 -6.5 9.5t-7.5 12.5t-12.5 10.5t-22.5 4.5q7 -17 19 -29
l7 -8q2 -1 7 -9l3 -5zM529 459l-71 -10l26 -5q13 -1 21.5 -4.5t15 -7t12 -6t12.5 -2.5l14 6zM645 336l-6 4q-5 6 -6 8.5t-3 5.5h-16q3 -17 6.5 -26t9.5 -17h14l7 17z" />
    <glyph glyph-name="dieresis" unicode="&#xa8;" horiz-adv-x="1075" 
d="M576 1052q-3 -17 -10 -36.5t-19 -42.5q-7 -15 -20 -24t-28.5 -13.5t-31.5 -5.5t-28 -1q-25 0 -40 13t-23.5 31t-11 36t-2.5 27q0 24 14 44.5t35.5 36.5t48.5 25t53 9q33 0 49 -22t16 -54q0 -5 -0.5 -11t-1.5 -12zM861 1034q-2 -10 -11.5 -29t-26 -37.5t-39.5 -32.5
t-51 -14q-54 0 -66 34l-16 31l-1 12q-3 28 -3 38q0 12 15 37l30 34q37 37 86 37q40 0 62.5 -24.5t22.5 -62.5q0 -6 -0.5 -11.5t-1.5 -11.5zM731 1102h-10l-30 -25l-3 -20q6 0 10.5 3.5t8.5 8t8 8.5t8 4h4zM441 1084l-7 4l-25 -29l2 -15l12 9z" />
    <glyph glyph-name="copyright" unicode="&#xa9;" horiz-adv-x="1434" 
d="M713 211q-93 0 -182 26t-161 72.5t-122.5 110.5t-67.5 141q-2 11 -6 26.5t-10 37.5q-28 97 -28 161q0 66 48 153t148 205q87 101 160 160t133 80q56 20 107 30.5t93 10.5q120 0 223 -37t179.5 -103t120 -158.5t43.5 -203.5q0 -58 -10 -114q-23 -130 -83 -239.5t-148 -189
t-199.5 -124.5t-237.5 -45zM1194 1173q-4 -12 -7 -19t-10 -16q-32 -32 -54.5 -72.5t-30.5 -88.5q-7 -36 -17 -51t-24 -15q-21 0 -21 21q0 7 3 21.5t7 29.5t7 26t3 13q0 22 -17 50t-41.5 52.5t-51.5 41t-46 16.5q-111 0 -190 -124t-121 -362q-5 -28 -5 -48q0 -32 10 -56
t25 -43t32.5 -35t32.5 -31q47 -14 99 -14q15 0 28 5t27 15q27 9 76 67q26 31 37 49.5t15 32.5t3.5 27t2.5 31q1 4 6.5 11t12.5 14t14 11.5t11 4.5q11 0 14.5 -1.5t3.5 -6.5q0 -20 -7 -46t-18 -55t-24.5 -57.5t-26.5 -52.5q-14 -8 -24 -15.5l-18 -13.5l-31 -22
q-26 -19 -43.5 -30t-37 -17t-45.5 -7.5t-70 -0.5q-134 0 -206 79t-72 221q0 100 39 200t135 192l10 2q24 24 61 45.5t79 38.5t83.5 27t73.5 10q49 0 120 -37q22 -12 34.5 -19t20 -11t11 -5.5t8.5 -1.5q25 0 43.5 10.5t18.5 27.5q0 16 -17.5 32.5t-45 31.5t-62.5 28t-69.5 23
t-66 15.5t-52.5 5.5q-112 0 -215 -46.5t-182 -128.5t-126 -192.5t-47 -238.5q0 -77 25 -142t73 -117t117.5 -90t157.5 -61q26 -7 41 -9.5t29 -2.5q23 0 56 5t89 18q110 25 273 187q53 52 89 96t57.5 83t31 73.5t9.5 69.5q0 42 -10 92t-26 97.5t-36 88t-41 64.5z" />
    <glyph glyph-name="ordfeminine" unicode="&#xaa;" horiz-adv-x="650" 
d="M731 916q11 0 15 -5t4 -11q0 -9 -8 -20t-19 -23q-15 -15 -30 -29t-32.5 -25.5t-40 -20.5t-52.5 -13l-39 -6q-7 -1 -12 -2t-13 -1q-11 0 -24 2.5t-25 8.5t-20 15.5t-8 23.5v3l-7 -4q-9 -6 -24 -13t-32.5 -12.5t-35.5 -9.5t-32 -4q-57 0 -84 7.5t-38 21.5h1l-18 19
q-22 16 -29.5 40t-7.5 50q0 20 3.5 37t6.5 33l2 11q1 7 7 24.5t13.5 37.5t15.5 37.5t13 25.5q4 6 15 17t22 21h-1l6 6q2 5 6 9q3 4 6.5 8.5t6.5 8.5h-1q7 8 9.5 10t7.5 5.5t16.5 12.5t35.5 31q16 15 38.5 29t48 25.5t54 18t58.5 6.5q56 0 91 -29q11 17 26.5 21.5t48.5 4.5h9
t10 -1h-1q38 -3 60.5 -2.5t22.5 -11.5q0 -7 -4 -17t-9 -21t-10.5 -21t-9.5 -17l-7 -13l1 1q-10 -23 -19 -46t-15.5 -44t-11 -37.5t-6.5 -26.5q-2 -7 -4.5 -12t-6 -10.5t-7 -13t-6.5 -18.5q-3 -12 -9.5 -25.5t-15 -32t-18 -43.5t-18.5 -61q-2 -4 -2.5 -7t-0.5 -5q0 -8 6 -8
q24 0 40.5 14t30.5 31t27 31t30 14zM441 1293q-2 -2 -9 -7.5t-9 -10.5l5 -1q3 0 9.5 4.5t9.5 9.5v5h-6zM673 1290l5 -8l5 2q0 2 -0.5 3.5t-4.5 5.5l-4 -1zM512 1064q9 21 15.5 39t12.5 35t12.5 35.5t16.5 40.5l9 25q-17 36 -44 36q-9 0 -14.5 -1.5t-11.5 -7.5t-16 -17
t-28 -29q-3 -3 -6 -7t-8 -11.5t-14.5 -18.5t-24.5 -27q-12 -13 -28 -44t-31 -66t-26.5 -68t-14.5 -49q-2 -14 -3.5 -26t-1.5 -23q0 -24 7 -39t22 -15q6 0 18.5 2.5t27.5 7t30 11t26 13.5q8 26 18 55.5t18 51.5q7 21 16 49t23 48zM574 1036q1 -8 7 -9l44 105l1 4h-4
q-3 -2 -10.5 -17.5t-15.5 -33.5t-14.5 -33t-7.5 -16zM228 1058q3 7 9.5 16t7.5 13l-1 1q-2 0 -13.5 -14t-19.5 -34q-6 -17 -11.5 -36t-5.5 -35q0 -11 4 -13q1 0 3.5 10t6.5 25.5t9 33.5t11 33zM565 1011l-1 -1q1 0 1 1zM540 948q0 -2 6 -3l4 5q2 11 7.5 27.5t7.5 26.5
q0 2 -0.5 2.5t-0.5 2.5q-1 -3 -3 -8t-3.5 -10.5t-3 -9.5t-1.5 -5l-12 -21q-1 -3 -1 -7zM201 910l4 1l2 13l-11 3v-17h5zM212 877l-2 7l-5 -3l-2 -6l5 -1zM723 857l1 1zM556 795q2 0 8.5 4t8.5 8q-2 -3 -11 -5.5t-12 -4.5q0 -1 2.5 -1.5t3.5 -0.5zM592 685q0 -1 1 -1v-4.5
t-1 -5.5v-4v-2l-1 -9l-2 -8q0 -3 -1.5 -8.5t-3.5 -8.5v-3q0 -2 -2 -5t-2 -6l-9 -17q-7 -8 -11 -17t-7 -9h-2q-5 0 -10.5 -1.5t-14.5 -1.5h-18q-9 0 -28.5 3t-37.5 3l-11 -2q-3 0 -5.5 -1t-4.5 -1l-7 -2h-135q-25 0 -46 1t-40 1h-80l-5 2q-10 10 -15 16.5t-5 22.5
q0 21 7.5 34t13.5 30l-3 30q13 0 28 -2.5t51 -9.5h1l2 1l4 1q4 0 6 1h2l2 1l20 2q3 0 7.5 -1t10.5 -1l16 -3q6 0 11 -1t9 -1q9 0 26.5 2t26.5 2q14 0 27 -3t24 -3h2q2 0 5.5 1.5t4.5 1.5h3q3 1 8 1t9 -0.5t9 -1.5h2q1 -1 11.5 -3.5t20.5 -6.5l10 2q3 0 10.5 0.5t12.5 2.5h6
q2 0 4.5 0.5t4.5 0.5h22q16 -2 31.5 -4t31.5 -6v1q0 1 1 1l3 1l-1 -1h1v-1z" />
    <glyph glyph-name="guillemotleft" unicode="&#xab;" horiz-adv-x="680" 
d="M332 554l-10 -20t-9 -12.5t-13.5 -6.5t-23.5 -2q-5 0 -11.5 -5.5t-13.5 -12t-13.5 -13t-11.5 -7.5l-109 -52q18 -9 26.5 -14.5t15 -9.5t13 -7t19.5 -7q1 0 7 -5t13.5 -11t13.5 -12t6 -9q30 0 41 -1.5t11 -22.5q0 -17 -4 -40q-9 -49 -14 -77.5t-9.5 -43t-9.5 -18.5t-14 -4
q-15 0 -20 3.5t-5 14.5q0 8 1.5 18.5t1.5 27.5q0 7 -12.5 14.5t-34 20.5t-51 32.5t-62.5 50.5q-5 6 -14 13.5t-17.5 17t-15 22.5t-6.5 30q0 5 2 15q0 3 3.5 7.5t13.5 12.5t28.5 19.5t49.5 28.5q23 12 42 23t33 21q18 15 23.5 19t10 6t12.5 4.5t30 14.5v1q19 12 28 17.5
t12.5 9.5t3.5 8.5t3 14.5q8 19 14 34t23 15h6q15 0 15 -18v-5q-5 -29 -9 -50.5t-9 -49.5zM632 554l-10 -20t-9 -12.5t-13.5 -6.5t-23.5 -2q-5 0 -11.5 -5.5t-13.5 -12t-13.5 -13t-11.5 -7.5l-109 -52q18 -9 26.5 -14.5t15 -9.5t13 -7t19.5 -7q1 0 7 -5t13.5 -11t13.5 -12
t6 -9q30 0 41 -1.5t11 -22.5q0 -17 -4 -40q-9 -49 -14 -77.5t-9.5 -43t-9.5 -18.5t-14 -4q-15 0 -20 3.5t-5 14.5q0 8 1.5 18.5t1.5 27.5q0 7 -12.5 14.5t-34 20.5t-51 32.5t-62.5 50.5q-5 6 -14 13.5t-17.5 17t-15 22.5t-6.5 30q0 5 2 15q0 3 3.5 7.5t13.5 12.5t28.5 19.5
t49.5 28.5q23 12 42 23t33 21q18 15 23.5 19t10 6t12.5 4.5t30 14.5v1q19 12 28 17.5t12.5 9.5t3.5 8.5t3 14.5q8 19 14 34t23 15h6q15 0 15 -18v-5q-5 -29 -9 -50.5t-9 -49.5zM270 554q-4 0 -9.5 -3t-10.5 -7t-9.5 -7.5t-6.5 -4.5q10 2 16.5 3.5t16.5 1.5zM570 554
q-4 0 -9.5 -3t-10.5 -7t-9.5 -7.5t-6.5 -4.5q10 2 16.5 3.5t16.5 1.5zM85 366q-2 2 -7 9.5t-11 15t-11.5 13.5t-7.5 6h-6l-2 -9q0 -2 5.5 -7.5t13 -11.5t13.5 -11t8 -5h5zM385 366q-2 2 -7 9.5t-11 15t-11.5 13.5t-7.5 6h-6l-2 -9q0 -2 5.5 -7.5t13 -11.5t13.5 -11t8 -5h5z
M204 311q0 2 -3.5 5.5l-7.5 7.5l-7 7l-3 3l-6 -11q4 -7 6.5 -9t8.5 -4zM504 311q0 2 -3.5 5.5l-7.5 7.5l-7 7l-3 3l-6 -11q4 -7 6.5 -9t8.5 -4z" />
    <glyph glyph-name="logicalnot" unicode="&#xac;" horiz-adv-x="650" 
d="M572 520q-23 -29 -64 -29q-11 0 -25.5 1.5t-19.5 3.5q-10 -2 -10.5 -2.5t-4.5 -0.5q-16 0 -16 14q0 17 6.5 43.5t12.5 60.5l16 70l-1 9q-11 0 -27 -0.5t-42 -0.5h-33t-49 0.5t-55.5 0.5t-54 0.5t-44 0.5h-24.5h-37q-20 12 -20 46q0 4 2 12.5t4.5 17.5t4.5 17.5t2 11.5
q-2 4 -2 9q0 10 6.5 18t17.5 8q22 0 40 -5q5 1 18.5 1h44.5l165 -4h158q26 0 42 -1.5t25 -4.5t12.5 -6.5t3.5 -6.5v-2l-18 -92z" />
    <glyph glyph-name="uni00AD" unicode="&#xad;" horiz-adv-x="650" 
d="M567 534q-3 -15 -8 -36t-11.5 -42.5t-14 -41.5t-14.5 -33q-8 -2 -17.5 -3t-30.5 -1q-6 0 -14.5 1t-18.5 2t-18.5 2t-14.5 1q-5 0 -17 -3t-17 -3q-17 0 -51 0.5t-72 0.5t-72.5 0.5t-50.5 0.5h-49q-11 7 -16 21t-5 31q0 13 3 27.5t7.5 28.5t8.5 27t7 23l-3 28q27 0 66 -10
q10 -2 13 -2q7 2 17.5 4t19.5 2q4 0 11.5 -1t15.5 -2.5t15 -2.5t12 -1h10q20 3 28.5 3.5t16.5 0.5q28 0 51 -6q7 2 12.5 3t8.5 1q12 0 26.5 -3.5t25.5 -8.5q36 6 79 6q1 0 11 -1t21 -2.5t20 -4t9 -6.5zM444 493l-28 5q-64 11 -92 11q-4 0 -7 -2t-10 -9l19 -6q24 -8 41.5 -10
t27.5 -3h45l3 4z" />
    <glyph glyph-name="registered" unicode="&#xae;" horiz-adv-x="819" 
d="M874 1081q-11 -57 -32 -110.5t-51 -99.5t-69 -82.5t-84 -59.5l-33 -18q-53 -29 -91.5 -44t-64.5 -14q-24 0 -55 9t-64.5 24.5t-67 35.5t-61.5 42t-47.5 44.5t-25.5 43.5q-11 33 -15.5 60t-4.5 50q0 11 1 21t3 21q16 97 57.5 176t103 135t140 86.5t169.5 30.5
q65 0 120 -20.5t94.5 -58t61.5 -89t22 -113.5q0 -34 -6 -70zM815 1081q3 15 3 33q0 34 -9 72q-7 29 -36 63t-68 63t-80 48.5t-72 19.5q-20 0 -47.5 -8.5t-65.5 -24.5l-33 -14q-47 -17 -89.5 -56t-74.5 -90t-51 -108t-19 -111q0 -52 19 -94.5t53.5 -73t82.5 -47t107 -16.5
q46 0 88 10t78 29q-52 39 -52 139q0 8 0.5 17t0.5 17q0 104 -90 104q-2 -9 -3 -24t-3 -23q-3 -16 -7.5 -34.5t-8.5 -35.5t-7 -30.5t-3 -19.5q0 -23 11 -32.5t24 -14t24.5 -8.5t12.5 -16l-10 -12q-17 0 -25.5 0.5t-15.5 1.5l-13 -12l-10 12h-29q-7 0 -11 -0.5t-9 -1.5l10 -2
q-7 0 -22.5 1t-22.5 1q-2 -2 -14 -2q-9 0 -19 0.5t-30 3.5l-3 10l12 14l9 5q9 11 17.5 26.5t16 37.5t15 52t14.5 70l-1 4q3 8 3.5 16.5t2.5 16.5l4 2l10 57q2 13 4 19.5t4 11.5l-2 11q2 7 6 24.5t4 40.5q0 10 -1 21t-3 26q-6 2 -15 9t-11 9l17 21h8q9 0 27.5 -2t27.5 -2
q6 0 9.5 3t10.5 3q3 0 4.5 -0.5t3.5 -1.5q6 0 20.5 1t32 1.5t34.5 2t28 3.5l-1 -8q14 0 29.5 -4t29.5 -11l1 -4q25 -10 59 -71l2 -3q-9 -15 -14 -33t-13 -36t-22 -36t-40 -34q32 -32 32 -97q0 -20 -4 -46.5t-4 -37.5q0 -5 1 -6v-3q-3 -15 -3 -27q0 -15 4 -25t12 -10
q14 0 30 14t32.5 36.5t32.5 51t29 57t22 54t12 43.5zM595 1153q1 6 1.5 14.5t0.5 18t0.5 18.5t1.5 15v10q-6 17 -24.5 29t-37.5 12h-4v6q-14 2 -21.5 3t-13.5 1q-5 -32 -12.5 -79t-16.5 -110l-1 -6q63 0 92 17t35 51z" />
    <glyph glyph-name="macron" unicode="&#xaf;" 
d="M849 1121q-3 -15 -8 -36t-11.5 -42.5t-14 -41.5t-14.5 -33q-7 -2 -17 -3t-31 -1q-6 0 -14.5 1t-18 2t-18 2t-14.5 1q-5 0 -17.5 -3t-17.5 -3q-17 0 -51 0.5t-71.5 0.5t-72 0.5t-50.5 0.5h-49q-12 7 -17 21t-5 32q0 26 11 55.5t16 49.5l-3 28q26 0 66 -10q10 -2 13 -2
q6 2 17 4t20 2q8 0 26 -3.5t27 -3.5h10q20 3 28.5 3.5t16.5 0.5q29 0 52 -6q7 2 12.5 3t8.5 1q12 0 26.5 -3.5t25.5 -8.5q17 3 38 4.5t41 1.5q1 0 11 -1t20.5 -2.5t19.5 -4t9 -6.5zM727 1080l-28 5q-32 5 -54.5 7.5t-37.5 3.5q-4 0 -7.5 -2t-9.5 -9l19 -6q24 -8 41 -10
t27 -3h45l3 4z" />
    <glyph glyph-name="degree" unicode="&#xb0;" horiz-adv-x="530" 
d="M549 1189q-6 -34 -25.5 -67.5t-47 -59.5t-60.5 -42.5t-66 -16.5q-29 0 -58 11t-52 30t-38 43.5t-15 50.5q0 5 0.5 8.5t1.5 8.5q15 85 74.5 134.5t146.5 49.5q31 0 57 -9t45 -25t29.5 -38.5t10.5 -49.5q0 -13 -3 -28zM423 1171q1 4 1 14q0 13 -4.5 27.5t-12 26t-16.5 19
t-18 7.5q-3 0 -9 -2.5t-9 -2.5q-25 -35 -38 -61t-13 -48q0 -9 1.5 -21t1.5 -20v-3l10 -13q1 -2 10.5 -4t11.5 -3q10 0 23.5 9t26.5 22.5t22.5 27.5t11.5 25z" />
    <glyph glyph-name="plusminus" unicode="&#xb1;" horiz-adv-x="650" 
d="M616 750q-3 -14 -7 -33t-8.5 -38t-9.5 -35t-9 -22q-3 -1 -9 -1.5t-21 -0.5q-7 0 -19.5 0.5t-25 0.5t-22.5 0.5t-12 0.5h-64l-29 -164q-2 -3 -12.5 -6t-23.5 -5t-26.5 -3t-22.5 -1q-8 0 -23.5 3t-22.5 3l-15 -4q3 17 6.5 34.5t10.5 50.5q7 34 10 47t5 17q-1 7 -1 10.5v5.5
q1 2 2.5 6t1.5 6q-10 -1 -22 -1.5t-35 -0.5h-19t-29.5 0.5t-30 1t-19.5 0.5l-23 1q-3 2 -4.5 11t-1.5 20q0 35 7 55t12 41l-2 15q18 0 39 -6q2 0 12.5 1t24.5 1.5t29 1t26 0.5q10 0 23.5 -0.5t30.5 -1.5h11q1 2 2 5q1 2 2 5t1 8q0 2 -0.5 3t-0.5 3q0 3 2.5 15.5t6 29.5t8 36
t8 35t6 27t2.5 12q21 0 43.5 -0.5t41 -2t30.5 -3.5t12 -6q0 -2 -1.5 -9.5l-5 -25t-9 -46.5t-12.5 -74v-8.5t-1 -7.5l5 -2q5 0 42.5 1t103.5 1q10 0 22 -4zM350 372l11 0.5t27.5 0.5t36.5 1t38 1t31.5 0.5t17.5 0.5q7 0 17.5 -3.5l13.5 -4.5q-2 -14 -6 -32.5t-8.5 -37.5
t-9.5 -34.5t-9 -21.5q-5 -1 -15 -1.5t-35 -0.5h-138q-9 -1 -24.5 -1.5t-49.5 -0.5q-15 0 -44.5 0.5t-59.5 0.5t-55 0.5t-31 0.5h-28q-12 7 -12 26q0 -1 3 11t6.5 28.5t7.5 34.5t7 30l-2 15q18 0 39 -6q2 0 15.5 0.5t52.5 0.5q45 0 64 -0.5t27.5 -1.5t13.5 -1.5t21 -0.5h51
q13 0 17 -0.5t4 -1.5z" />
    <glyph glyph-name="uni00B2" unicode="&#xb2;" horiz-adv-x="625" 
d="M612 882q-3 -16 -9.5 -47.5t-25.5 -84.5q-17 -45 -46 -72t-60.5 -40.5t-58.5 -17.5t-39 -4q-37 0 -66 16t-37 51q-3 13 -5.5 21.5t-6.5 13.5t-10 7.5t-17 4.5q-9 0 -16.5 -17t-16.5 -37t-22 -37t-32 -17l-38 9q-14 5 -18.5 11t-4.5 14q0 21 9.5 48t27.5 54.5t45 54
t62 47.5v-1l5 2.5t18.5 14t36.5 35.5t59 66q13 16 19 27t10 22.5t8 25.5t14 35q24 63 29.5 106.5t5.5 63.5q0 16 -10 21t-26 5q-3 0 -6 -0.5t-5 -0.5h-4q-7 0 -17 -2.5t-24.5 -13.5t-33 -34t-42.5 -65q7 -5 16 -12t17 -17t13.5 -22.5t5.5 -28.5q0 -17 -6.5 -36.5t-20 -36.5
t-36 -28.5t-53.5 -11.5q-14 0 -25.5 0.5t-16.5 2.5q-18 22 -29 40t-11 32q0 7 2.5 21.5t7 31t10.5 32.5t12 27q25 41 54.5 78.5t68 66.5t86 46t108.5 17q85 0 127.5 -35t42.5 -88q0 -14 0.5 -31t-3.5 -41.5t-15 -59t-35 -83.5q0 -1 -11 -11.5t-25 -24t-27 -26.5l-19 -19
q-13 -14 -21 -19.5t-22 -11.5t-38.5 -18t-69.5 -40l-48 -39q10 -10 22.5 -20t27 -18.5t29.5 -14t30 -5.5q13 0 27 3t26.5 11.5t21.5 24t14 40.5q4 26 7 41.5t7.5 23.5t13.5 11.5t26 5.5q29 0 43 -12t14 -26v-5zM535 1287q0 6 -6 13t-13.5 13t-13.5 10t-7 4h-2q-2 3 -3.5 4.5
t-6.5 1.5h-2q0 -3 3.5 -9.5t8 -13l9 -13t7.5 -9.5q2 1 5 1.5t10 0.5q5 -3 7.5 -3.5t3.5 -0.5v1zM561 1244q-7 3 -22 6t-18 6q7 -32 17 -41t14 -9q2 0 2 1q-1 0 -2 1q-1 0 -2 0.5t-3 0.5l12 6t10 16l-1 1q-2 3 -3 6zM492 1132l-15 -58h4l22 47zM171 1058q-5 7 -3.5 22.5
t-0.5 38.5l-10 -28q-2 -1 -4 -4.5t-4 -8.5q-3 -5 -5 -12zM519 1040q-7 -1 -9 -13l-21 -43q1 0 5.5 6t10 13.5t9.5 14t4 7.5zM319 747l8 -16q2 -2 18 -2l-31 35zM351 686q1 -1 5 -1q8 0 20 3t20 4q-11 2 -25.5 8t-19.5 6q-2 0 -2 -1zM469 706q-2 0 -10.5 -6t-19 -13.5
t-19 -14l-8.5 -6.5l-1 -4h2q1 0 8 3t15.5 6.5t16 7l7.5 3.5l12 4z" />
    <glyph glyph-name="uni00B3" unicode="&#xb3;" horiz-adv-x="620" 
d="M686 1183q-8 -21 -20 -44t-29.5 -44t-39.5 -39.5t-50 -30.5q25 -10 40.5 -23t24.5 -28t12.5 -31t3.5 -32q0 -39 -10.5 -77.5t-29 -71.5t-43 -57t-51.5 -34q-8 -7 -32.5 -18.5t-55 -22t-61.5 -18t-52 -7.5q-39 0 -69.5 12.5t-53.5 31.5t-39 41.5t-26 43.5t-14.5 37
t-4.5 22q0 12 3 28.5t11.5 33.5t24.5 33t42 28h6q7 3 18.5 5.5t31.5 2.5q34 0 50 -18.5t16 -44.5q0 -6 -2 -21.5t-9 -33.5t-19 -34t-33 -22q10 -33 25.5 -48.5t34.5 -15.5q34 0 65 42t48 137q3 18 3 35q0 29 -8.5 50.5t-19.5 31.5l-65 5q-19 0 -30.5 5.5t-11.5 16.5
q0 10 3 18t12 13t25 8t42 3h23q16 0 27.5 3t21.5 14.5t20.5 34.5t25.5 63q5 21 7 34.5t2 22.5q0 15 -7 26.5t-17 19.5t-21 12.5t-19 7.5q-8 -4 -26 -9.5t-30 -16.5q5 -11 9 -24.5t4 -24.5q0 -7 -6.5 -18.5t-17.5 -25t-24.5 -27t-28.5 -24.5q-17 3 -35 8.5t-33 14.5t-24.5 21
t-9.5 28q0 9 6.5 24.5t21.5 33.5t40 38t63 38h-2q3 2 24 6.5t48.5 9.5t56.5 8.5t47 3.5q49 0 84 -13t57 -30t32.5 -33.5t10.5 -24.5q8 -24 8 -50v-9.5t-1 -9.5zM594 1279q0 8 -20 19q2 -7 7.5 -16.5t10.5 -9.5q0 1 1 2t1 2v3zM269 1256q0 2 -1.5 5.5t-1.5 4.5
q-14 -11 -24.5 -26t-10.5 -26q0 -3 1 -6t1 -6v-2q18 19 26 32t10 24zM568 1222l2 -8t1 -9q0 -7 -1 -12q0 -2 -3.5 -8t-7.5 -13t-7.5 -13.5t-3.5 -9.5h10q20 15 27 27t7 24q0 13 -10 22h-14zM255 1194q-9 -1 -15.5 -10t-8.5 -22l21 14zM497 989q0 18 -17 20l-2 -2
q0 -1 -0.5 -2t-0.5 -3q0 -7 3.5 -18t10.5 -22q2 4 3 8t3 13v6zM547 974q-1 10 -3 14t-7 9q-1 -4 -1 -11q0 -12 11 -12zM557 961q-3 0 -5 -0.5t-4 -0.5q-1 0 -1 0.5t-1 0.5q2 -4 5 -14l6 -20t5.5 -17.5t3.5 -7.5zM567 849v16v5q-5 -14 -15 -30.5t-23 -37.5l13 -9q20 23 25 52
v4zM121 783q0 12 4.5 34.5t4.5 42.5v7l-10 -28q-2 -1 -3.5 -4.5t-3.5 -8.5q-3 -5 -5 -12l13 -34v3z" />
    <glyph glyph-name="acute" unicode="&#xb4;" 
d="M881 1127q-6 -2 -23.5 -14t-35.5 -26t-32 -25t-13 -11q-47 -24 -75 -35t-52 -24q-14 -8 -28 -18t-26 -19t-22 -15t-14 -6q3 0 -10 -5t-29.5 -11.5t-30.5 -11.5t-15 -5q-5 0 -11 10t-6 30q0 8 2 11q4 7 22 24t40 35.5t42 35t28 23.5q5 0 15.5 11.5t41.5 47.5l12 14
q19 10 28 34q3 8 9.5 21t15 25t18 20.5t19.5 8.5q-1 0 11 -7t27.5 -15t29 -15t15.5 -7q12 0 17.5 -8t9 -18.5t7 -22t11.5 -17.5l2 -15v0z" />
    <glyph glyph-name="uni00B5" unicode="&#xb5;" horiz-adv-x="889" 
d="M484 253q2 17 5 34l6 34l1 19q9 50 20 98t16 102q2 25 4.5 48t8.5 44q3 26 6.5 53.5t5.5 51.5t4 42.5t2 25.5q2 13 2.5 21.5t0.5 14.5q0 22 10.5 34t28.5 18t42.5 7t53.5 1q5 0 21 -0.5t33 -2.5t30.5 -7t13.5 -15q-1 -8 -3 -25t-4.5 -37t-6 -39t-6.5 -32
q-7 -32 -12 -63.5t-10 -61.5q-4 -42 -10 -85.5t-13.5 -87t-16 -85.5t-15.5 -79q-3 -17 -5 -36.5t-4 -42.5q-1 -5 -1 -12q0 -9 5.5 -13.5t10.5 -4.5q17 0 31.5 8.5t26.5 22t21.5 30t16.5 33.5q7 15 16 27.5t23 11.5q17 -1 26.5 -11t9.5 -20q0 -11 -9 -26t-18 -29l2 1
q-17 -23 -33.5 -44.5t-41 -39.5t-61.5 -33.5t-95 -26.5q-8 -2 -15 -3t-18 -1q-15 0 -35 4.5t-38 14.5t-30.5 26.5t-12.5 41.5v13q-60 -42 -127.5 -69.5t-128.5 -28.5q-12 -93 -16.5 -148t-6.5 -77q-2 -13 -2.5 -21.5t-0.5 -14.5q0 -22 -13.5 -34t-35 -18t-49.5 -7t-57 -1
h-20.5t-32 2.5t-29.5 7.5t-13 15q1 8 4.5 22.5t8 30.5t9 32.5t7.5 29.5q23 101 40.5 213t40.5 243q6 37 15 80.5t19 88t20 87.5t18 79t13.5 63.5t6.5 40.5q3 36 6.5 58t9 33.5t13 15.5t18.5 4q10 0 24 -1.5t32 -1.5h20t19 -0.5t24 -0.5h36q29 0 39.5 -6t10.5 -23
q0 -11 -3 -28t-7 -41q-2 -16 -5 -28.5t-7 -27.5t-9 -36t-11 -52q-4 -31 -14.5 -78.5t-22 -100t-20.5 -104.5t-9 -92l-7 -48q-1 -5 -1 -9v-9q0 -29 17.5 -40.5t51.5 -11.5q9 0 24 8t34 21t39 30t38 34zM764 857l-10 -2l1 -15l6 -2l10 7zM305 803l-11 -40h4l17 40h-10z
M186 761q-3 -28 -6 -55.5t-3 -55.5v-16q7 35 13.5 69.5t19.5 67.5l-17 2zM601 662l-13 -60l7 -14l39 180zM291 689l-10 -2l-2 -27l6 -2l10 7zM262 540q8 25 10 48t7 48l-7 -6q-9 -23 -11.5 -47t-5.5 -48zM583 535q2 -8 2.5 -15.5t-1.5 -15.5q4 3 9.5 9t5.5 11q0 10 -1.5 20
t-3.5 20q-4 -7 -6.5 -14t-4.5 -15zM256 514h-2l-19 -49l18 19zM585 481q-13 -20 -17 -37t-4 -42q6 10 9.5 22.5t5.5 23.5l2 -6q2 10 3 19.5t1 19.5zM90 284l6 -30h8l-5 49zM128 210l-15 29l-5 -5l13 -50zM538 156q11 -12 20 -16t20 -15q-11 14 -21 24.5t-12 31.5l-9 -5z
M158 178l-11 2q1 -2 4 -8.5t6.5 -13t7 -11.5t5.5 -5h10zM63 -40q1 3 0.5 11t1.5 11q-5 -7 -9.5 -21.5t-11.5 -39.5l-11 -11v-10q27 31 30 60z" />
    <glyph glyph-name="paragraph" unicode="&#xb6;" horiz-adv-x="1003" 
d="M1091 1288q-1 -2 -1 -7.5v-8.5q-3 -9 -8 -13t-11 -6t-12.5 -4t-12.5 -6q-13 0 -25 -24t-23 -64.5t-21 -93t-19.5 -110.5t-18.5 -117.5t-17 -112.5l-14 -76l-4 -2l-39 -219q-1 -6 -2 -19t-2 -28.5t-3 -33.5t-5 -34q-1 -6 -5.5 -25t-9 -42t-8.5 -45.5t-4 -35.5
q0 -23 11 -33.5t24 -16t24 -9.5t11 -14v-2q-3 -18 -24 -39h-26q-11 0 -19.5 0.5t-14.5 -0.5h-36q-8 0 -24 0.5t-32.5 1.5t-30.5 1.5t-20 0.5q-17 0 -29 -4h-72q-17 1 -45.5 2.5t-60 2t-62 1t-50.5 0.5h-31l-7 8q2 8 2.5 15.5t3.5 15.5l30 14q11 0 24.5 31.5t21.5 85.5l2 13
q5 24 9 45.5t9.5 49t12 63.5t15.5 89l8 45q-110 1 -180.5 16.5t-111 51t-56 92t-15.5 138.5q0 24 3 42q9 54 25.5 100.5t45 91.5t71.5 92t105 103l41 22q25 14 41 21q1 1 19 2.5t44 4t56 5t55 4.5t41 3.5t14 1.5q11 0 14 -14q13 0 32.5 -1.5t39.5 -3t38 -3t27 -1.5
q21 4 34 5t22 1.5t15 0.5t12 2q15 0 40 -1t51 -2.5t49 -2.5t33 -1h29zM432 595q13 0 19 1t11 3q2 11 6.5 34t9.5 51t11 58.5t11.5 58t9.5 49t6 31.5l21 120q8 46 13.5 82t9 65.5t5 54t2.5 47.5l-18 5q-9 -2 -15 -5.5t-11 -10t-11 -16.5t-16 -24q-8 -5 -17.5 -10.5
t-20.5 -22.5t-19 -31.5t-13 -27.5q-24 -27 -47.5 -99t-40.5 -174q-2 -6 -2 -14v-18q0 -100 27 -153.5t69 -53.5zM415 1222q10 0 19 3t11 8l-7 10q-13 -4 -17 -7.5t-5 -10.5zM836 1147q4 17 4 30t1 23q0 22 -7 23l-6 8h-30q-6 -5 -15 -19.5t-18.5 -32.5t-17 -36t-9.5 -28
l-9 -52q-2 -11 -6 -35.5t-9.5 -57t-12 -69.5t-12 -72t-11 -64.5t-8.5 -47.5l-69 -377q-12 -70 -18.5 -120t-6.5 -76t6 -27h2q3 0 11.5 -1t18.5 -2t18.5 -2.5t11.5 -2.5q8 19 20.5 65.5t23.5 110.5l6 37q6 37 17.5 101.5t24.5 142.5t27.5 163t28 163t24.5 141.5t17 99.5z
M313 1146q16 14 22 20.5t8 13.5q-13 -2 -22 -11t-17 -14l-2 -12zM565 745q3 6 6 12.5t7 15.5l-1 6l23 93v2q0 2 -4 3t-5 2l-5 -2l4 -5l-27 -107v-9.5t2 -10.5zM160 741q-2 6 -2 13q0 10 1 21t1 19q0 6 -6 9t-12 3l-8 -1q6 -29 12.5 -46.5t13.5 -17.5zM214 721l-13 17l-4 -9
l11 -16zM761 564q0 21 3 49.5t13 78.5l-13 -44q-10 -34 -13 -51l-10 -54q-1 -4 -2.5 -15.5t-3.5 -26.5t-3.5 -31t-1.5 -29q0 -25 7 -25q2 11 4 31.5t4.5 41.5t4 37.5t1.5 18.5l10 9v10zM700 571v17t1.5 28t6 33.5t13.5 34.5q-2 -7 -3 -17.5t-2 -21.5t-2.5 -21t-2.5 -17
l-5 -23q-2 -11 -3 -15.5t-3 -6.5v9zM560 653l-17 -18l-8 -58l14 5zM241 626l-5 11l-8 -16h10zM723 550l1 -15l-9 -9l-5 12zM718 521q1 -5 1 -10v-9q0 -8 -0.5 -13t-1.5 -10q-4 -20 -9.5 -44t-16.5 -66l-11 -2q2 11 5.5 26.5l7 31t6 27.5t2.5 16q0 5 -4 11zM532 435
q0 5 0.5 9t0.5 7q0 4 -0.5 6.5t-0.5 4.5q0 -1 -2 -6t-2 -7l-19 -91h8q0 1 2 13t5 25.5t5.5 25t2.5 13.5zM617 180h10l-19 -61h-10z" />
    <glyph glyph-name="periodcentered" unicode="&#xb7;" horiz-adv-x="515" 
d="M276 522q-16 -11 -24 -19t-15.5 -14t-18.5 -10.5t-33 -7.5q-25 -16 -56 -16q-27 0 -45 12l-26 3q-7 18 -11 38.5t-4 42.5v13.5t2 13.5q4 24 25 49.5t48.5 46.5t57.5 34.5t54 13.5q45 0 70 -28t25 -70q0 1 -1.5 -13t-7 -32.5t-15 -35.5t-25.5 -21zM264 624q3 -17 3 -35
v-12q4 0 7 4t4 9t1.5 10t0.5 8q0 14 -6 26zM225 572l-9 -16v-25l19 20z" />
    <glyph glyph-name="cedilla" unicode="&#xb8;" 
d="M422 -66q22 -1 44 -3.5t46 -11.5q15 -14 31.5 -21.5t29.5 -17.5t21.5 -26t8.5 -45q0 -31 -21.5 -59t-52.5 -49.5t-66.5 -34t-63.5 -12.5q-49 0 -89.5 8.5t-82.5 30.5l-9 4q-48 22 -48 40q0 8 3 13l21 20q24 26 35.5 40t24.5 14q10 0 15 -9q17 -34 40.5 -55.5t56.5 -21.5
q16 0 28 9.5t20.5 21.5t13 24t4.5 17q0 12 -7 26t-32 24q-8 3 -18 7q-8 2 -18.5 4.5t-21.5 2.5q-16 0 -16 15q0 -2 5.5 9t16.5 28t26 38.5t35 42.5l76 -1zM479 -132q7 0 7 4q0 3 -4.5 9t-6.5 6q-3 0 -3 -3q0 -2 3 -7t4 -9zM489 -149q4 -5 7 -15t5.5 -19.5t5 -16.5t4.5 -7
q6 0 6 17q0 3 -2 12t-4.5 18t-6 16.5t-6.5 7.5q-5 0 -9 -13z" />
    <glyph glyph-name="uni00B9" unicode="&#xb9;" horiz-adv-x="482" 
d="M414 642q-1 0 -3.5 -0.5t-5.5 -0.5q-8 0 -18 0.5t-15 1.5q-41 0 -87 -5.5t-86 -5.5q-7 1 -13 1h-12q-11 0 -22 -0.5t-22 -0.5q-35 11 -48.5 21t-13.5 19q0 7 6 15t14 15t16 11t11 4q7 0 15 -0.5t15 -2.5q8 4 17.5 27.5t18.5 53t16 59t10 44.5q1 6 2.5 22t3 33.5t2.5 32.5
t2 18q0 6 4.5 28t9 52.5t8.5 65t4 64.5q0 50 -12 50q-43 0 -61.5 10.5t-18.5 24.5q0 4 6 11.5t16 15t23 13t28 5.5q11 0 17.5 -2t17.5 -2q28 0 61 9.5t63 20.5t53 20.5t30 9.5q21 0 33 -6.5t18 -15t7.5 -15l1.5 -6.5q-1 -5 -5 -16t-8 -31q-3 -32 -12.5 -76t-20.5 -87
t-20 -78.5t-12 -50.5q-4 -22 -10 -53t-13 -62t-12.5 -58.5t-8.5 -41.5q-4 -20 -4 -37q0 -31 12 -41t26.5 -12.5t26.5 -5t12 -18.5q0 -23 -11.5 -31.5t-51.5 -15.5zM435 1216q-13 -6 -14 -12v-3.5t2 -4.5q3 2 8 3t5 3zM415 1149v4q0 5 -2.5 11t-5.5 9q-14 -28 -20 -65l-2 -10
q-1 -3 -1 -8q0 -3 2 -7q6 4 10 11t8 14.5t9 14.5t12 12l-12 2zM389 1051q1 5 1 12q0 5 -2 8q-5 -5 -9.5 -9t-4.5 -7q0 -6 5 -13l9 2zM367 1020q-1 -6 -3.5 -15t-6 -19.5t-6.5 -20t-4 -15.5l6 -10q16 23 21 51l4 23zM323 700q-5 7 -8.5 24t-5.5 42l-19 -43q-2 -1 -3.5 -4.5
t-3.5 -8.5q-3 -5 -5 -12z" />
    <glyph glyph-name="ordmasculine" unicode="&#xba;" horiz-adv-x="650" 
d="M697 1096q-13 -73 -52 -134t-95.5 -104.5t-125 -68t-141.5 -24.5q-45 0 -81 13.5t-61.5 38.5t-39 59t-13.5 75q0 11 1 22t3 23q14 79 51 143t92 109.5t125.5 70.5t150.5 25q102 0 147.5 -46t45.5 -129q0 -17 -2 -35t-5 -38zM395 1309q-27 -8 -51 -20l-2 -8h6
q12 5 24 11.5t24 13.5zM297 806q28 0 54 22t49.5 57t43.5 78t35 85t25 78.5t14 57.5q3 16 6 32.5t3 32.5q0 21 -9.5 35.5t-38.5 14.5q-27 0 -52.5 -23.5t-48 -60t-41.5 -81t-33.5 -86.5t-23.5 -77t-12 -52l-5 -43q3 -17 3 -30t2 -22t8 -13.5t21 -4.5zM616 1285h-5v-3
q-2 -8 -2 -12l1 -4h4l9 11zM294 1233l3 -5q11 7 21 14.5t18 15.5l-15 -3zM640 1226l-12 -10l14 -7zM304 1215l-19 -15l-6 -25h4l22 37zM629 1169l-6 -11l9 -7l8 12zM556 1102q-8 -8 -16 -22.5t-10 -24.5q-12 -17 -22.5 -37.5t-18.5 -39.5h5q14 29 29.5 56t31.5 56zM153 1076
q-9 -9 -19 -24l1 -25zM615 1006q11 14 16 27.5t10 29.5q-6 -7 -10 -16t-7 -17l-1 4q-2 -7 -4 -13.5t-4 -14.5zM240 984q2 13 4 24.5t4 23.5q-6 -9 -11 -18t-5 -22q0 -7 3 -13h3zM201 942q1 -4 2 -9t4 -8l4 8zM564 921q5 4 9 8.5t7 9.5l-10 -2zM217 899h-6l-5 -14
q3 -12 11 -18l2 5zM525 883l-29 -27v-6l33 29zM449 844l-15 -7l-2 -4l16 8zM231 824l-11 7l-2 -4l11 -7zM601 659q-3 -13 -8 -30t-12 -26l-12 -16.5t-9 -8.5t-14.5 -3.5t-27.5 -0.5q-6 0 -14.5 1t-18.5 2t-18.5 2t-14.5 1q-5 0 -16.5 -3t-17.5 -3q-20 0 -61 0.5t-86.5 0.5
t-86.5 0.5t-61 0.5q-25 8 -25 42q0 20 7.5 33t13.5 30l-3 30q14 0 30 -2.5t49 -9.5q16 4 37 6q9 0 27 -3.5t27 -3.5t26.5 2t26.5 2q26 0 53 -6q11 4 21 4q11 0 22.5 -2.5t29.5 -9.5q31 6 60 6q36 0 73 -10q1 3 3 3t2 -7q0 -4 -0.5 -9t-1.5 -12zM506 645l-52 3q-15 1 -46.5 2
t-64.5 2t-60.5 2t-34.5 1q-11 0 -18 -12l14 -4q12 -3 41.5 -5t63.5 -2.5t64 -0.5h44h45l2 4z" />
    <glyph glyph-name="guillemotright" unicode="&#xbb;" horiz-adv-x="680" 
d="M-9 264l10 20t9.5 12.5t13.5 6.5t23 2q5 0 11.5 5.5t13.5 12t13.5 12.5t11.5 8l109 52q-6 3 -17.5 7t-12.5 9q-8 11 -17.5 14t-26.5 8q-1 0 -7 5t-13.5 11t-13.5 12t-6 9q-15 0 -25 -0.5t-16 1.5t-8.5 7t-2.5 16q0 7 1.5 16.5t3.5 23.5q8 49 13 77.5t9.5 43t9.5 18.5
t14 4q16 0 20.5 -4t4.5 -16q0 -8 -1 -18.5t-1 -27.5q0 -6 12.5 -14t34.5 -20.5t51 -32t61 -49.5q5 -6 14 -14t17.5 -17.5t15 -22.5t6.5 -30q0 -9 -1 -14q-1 -3 -4.5 -7.5t-13.5 -12.5t-28.5 -19.5t-48.5 -28.5q-23 -13 -42.5 -23.5t-33.5 -20.5q-18 -15 -23.5 -19t-10 -6
t-12.5 -4.5t-30 -14.5v-1q-20 -12 -28.5 -17.5t-11.5 -9.5t-3.5 -8.5t-3.5 -14.5q-7 -19 -13.5 -34t-23.5 -15h-6q-16 0 -16 18q0 1 0.5 2t0.5 3q8 29 10.5 50.5t7.5 49.5zM291 264l10 20t9.5 12.5t13.5 6.5t23 2q5 0 11.5 5.5t13.5 12t13.5 12.5t11.5 8l109 52
q-6 3 -17.5 7t-12.5 9q-8 11 -17.5 14t-26.5 8q-1 0 -7 5t-13.5 11t-13.5 12t-6 9q-15 0 -25 -0.5t-16 1.5t-8.5 7t-2.5 16q0 7 1.5 16.5t3.5 23.5q8 49 13 77.5t9.5 43t9.5 18.5t14 4q16 0 20.5 -4t4.5 -16q0 -8 -1 -18.5t-1 -27.5q0 -6 12.5 -14t34.5 -20.5t51 -32
t61 -49.5q5 -6 14 -14t17.5 -17.5t15 -22.5t6.5 -30q0 -9 -1 -14q-1 -3 -4.5 -7.5t-13.5 -12.5t-28.5 -19.5t-48.5 -28.5q-23 -13 -42.5 -23.5t-33.5 -20.5q-18 -15 -23.5 -19t-10 -6t-12.5 -4.5t-30 -14.5v-1q-20 -12 -28.5 -17.5t-11.5 -9.5t-3.5 -8.5t-3.5 -14.5
q-7 -19 -13.5 -34t-23.5 -15h-6q-16 0 -16 18q0 1 0.5 2t0.5 3q8 29 10.5 50.5t7.5 49.5zM119 507q0 -2 3.5 -5.5l7.5 -7.5l7 -7t3 -4l6 12q-4 7 -6 9t-9 4zM419 507q0 -2 3.5 -5.5l7.5 -7.5l7 -7t3 -4l6 12q-4 7 -6 9t-9 4zM238 452q1 -2 6.5 -9.5t11.5 -15t11.5 -13.5
t7.5 -6h6l2 9q0 1 -5.5 7t-12.5 12t-14 11t-8 5h-5zM538 452q1 -2 6.5 -9.5t11.5 -15t11.5 -13.5t7.5 -6h6l2 9q0 1 -5.5 7t-12.5 12t-14 11t-8 5h-5zM53 264q3 0 8.5 3t11 7t10 7.5t6.5 4.5q-11 -2 -17.5 -3.5t-15.5 -1.5zM353 264q3 0 8.5 3t11 7t10 7.5t6.5 4.5
q-11 -2 -17.5 -3.5t-15.5 -1.5z" />
    </font>
</defs>
</svg>
