<?xml version="1.0" standalone="no"?>
<!DOCTYPE svg PUBLIC "-//W3C//DTD SVG 1.1//EN" "http://www.w3.org/Graphics/SVG/1.1/DTD/svg11.dtd" >
<svg xmlns="http://www.w3.org/2000/svg" xmlns:xlink="http://www.w3.org/1999/xlink" version="1.1">
<metadata>
Created by FontForge 20201107 at Tue Nov 15 12:42:11 2022
 By 
</metadata>
<defs>
<font id="KZGropledBold" horiz-adv-x="698" >
  <font-face 
    font-family="KZ Gropled"
    font-weight="700"
    font-stretch="normal"
    units-per-em="1000"
    panose-1="0 0 0 0 0 0 0 0 0 0"
    ascent="800"
    descent="-200"
    x-height="498"
    cap-height="664"
    bbox="-91 -219 1037 835"
    underline-thickness="0"
    underline-position="0"
    unicode-range="U+000A-20BD"
  />
<missing-glyph horiz-adv-x="527" 
d="M477 700v-700h-427v700h427zM263 371l186 309h-371zM71 650v-601l180 301zM79 21h370l-185 308zM457 47v605l-181 -302z" />
    <glyph glyph-name=".notdef" horiz-adv-x="527" 
d="M477 700v-700h-427v700h427zM263 371l186 309h-371zM71 650v-601l180 301zM79 21h370l-185 308zM457 47v605l-181 -302z" />
    <glyph glyph-name=".null" horiz-adv-x="0" 
 />
    <glyph glyph-name=".null" horiz-adv-x="0" 
 />
    <glyph glyph-name="nonmarkingreturn" unicode="&#xd;" horiz-adv-x="353" 
 />
    <glyph glyph-name="controlLF" unicode="&#xa;" horiz-adv-x="0" 
 />
    <glyph glyph-name="space" unicode=" " horiz-adv-x="353" 
 />
    <glyph glyph-name="exclam" unicode="!" horiz-adv-x="207" 
d="M173 665l-14 -513h-111l-14 513h139zM48 0v97h111v-97h-111z" />
    <glyph glyph-name="quotedbl" unicode="&#x22;" horiz-adv-x="317" 
d="M27 668h111l-14 -194h-97v194zM290 668l-14 -194h-97v194h111z" />
    <glyph glyph-name="numbersign" unicode="#" horiz-adv-x="618" 
d="M493 416l-21 -166h80v-97h-92l-19 -152h-111l19 152h-125l-19 -152h-111l19 152h-88v97h100l21 166h-80v97h92l19 152h111l-19 -152h125l19 152h111l-19 -152h88v-97h-100zM382 416h-125l-21 -166h125z" />
    <glyph glyph-name="dollar" unicode="$" horiz-adv-x="693" 
d="M401 367q57 -11 105 -26t83.5 -36t55 -49.5t19.5 -65.5t-20 -70.5t-55.5 -59.5t-84 -44t-104.5 -24v-86h-111v86q-56 6 -104.5 24t-84 44t-55.5 59.5t-20 70.5v6h111v-6q0 -18 11.5 -34t32 -29.5t48.5 -23t61 -13.5v201q-53 11 -98 27t-79 38t-53 51.5t-19 67.5t19 72.5
t52.5 61.5t79.5 45.5t99 25.5v87h111v-87q53 -7 99 -25.5t79.5 -45.5t52.5 -61.5t19 -72.5h-97v6q0 41 -43.5 72t-109.5 42v-227v-1zM291 595q-66 -11 -109.5 -42t-43.5 -72q0 -20 11.5 -35t32 -26.5t48 -19.5t60.5 -14zM401 91q33 4 61 13.5t48.5 23t32 29.5t11.5 34
t-11.5 31t-32 22t-48 15.5t-60.5 12.5v-181h-1z" />
    <glyph glyph-name="percent" unicode="%" horiz-adv-x="686" 
d="M620 568l-443 -568h-111l443 568h111zM162 277q-29 0 -54 12t-43.5 32.5t-29.5 48t-11 59.5q0 31 11 59t29.5 48.5t44 32.5t54.5 12t54.5 -12t44 -32.5t29.5 -48.5t11 -59q0 -32 -11 -59.5t-29.5 -48t-44 -32.5t-54.5 -12h-1zM162 499q-17 0 -29.5 -20t-12.5 -49
t12.5 -49t29.5 -20t29.5 20t12.5 49t-12.5 49t-29.5 20zM520 291q29 0 54.5 -12t44 -32.5t29.5 -48.5t11 -59q0 -32 -11 -59.5t-29.5 -48t-44 -32.5t-53.5 -12q-29 0 -54 12t-43.5 32.5t-29.5 48t-11 59.5q0 31 11 59t29.5 48.5t44 32.5t54.5 12h-2zM520 69q17 0 29.5 20
t12.5 49t-12.5 49t-29.5 20t-29.5 -20t-12.5 -49t12.5 -49t29.5 -20z" />
    <glyph glyph-name="ampersand" unicode="&#x26;" horiz-adv-x="773" 
d="M737 3h-121l-54 50q-14 14 -17.5 33.5t-3.5 39.5h-22q0 -20 -3.5 -40t-18.5 -33q-17 -15 -35.5 -27.5t-43 -21t-56 -13.5t-74.5 -5q-76 0 -127 18.5t-82 48t-44 65t-13 68.5q0 63 45 114.5t144 85.5q-56 39 -76.5 73t-20.5 65q0 68 50 109.5t143 41.5q44 0 79 -12.5
t60 -33.5t38 -49t13 -60q0 -21 -6 -42t-22 -42t-43 -41t-70 -39l173 -155q14 16 22 28.5t12.5 24.5t6.5 24t2 26h94q0 -48 -14 -90.5t-48 -79.5zM310 588q-42 0 -65.5 -21t-23.5 -45q0 -23 22.5 -48.5t54.5 -52.5q53 21 75 44t22 52q0 28 -20.5 49.5t-64.5 21.5zM290 98
q56 0 92.5 14.5t60.5 31.5l-179 170q-68 -30 -95.5 -57.5t-27.5 -59.5q0 -16 7 -33.5t24.5 -32t46 -24t71.5 -9.5z" />
    <glyph glyph-name="quotesingle" unicode="'" horiz-adv-x="164" 
d="M138 668l-14 -194h-97v194h111z" />
    <glyph glyph-name="parenleft" unicode="(" horiz-adv-x="217" 
d="M187 666q-42 -186 -42 -373.5t42 -373.5h-113q-39 186 -39 374.5t39 374.5h113v-2z" />
    <glyph glyph-name="parenright" unicode=")" horiz-adv-x="217" 
d="M142 670q39 -186 39 -374.5t-39 -374.5h-113q42 186 42 373.5t-42 373.5h113v2z" />
    <glyph glyph-name="asterisk" unicode="*" horiz-adv-x="426" 
d="M250 480q9 -3 20 -5t18 -10l68 -90l-64 -48l-65 77q-7 8 -6 19t1 21h-20q0 -10 1 -21t-5 -19l-63 -77l-64 48l66 90q6 8 17 10t20 5l-5 19q-10 -3 -20 -7.5t-19 -1.5l-107 39l27 76l98 -34q10 -3 15 -13t11 -18l17 12q-6 8 -13.5 16.5t-7.5 19.5l1 94h80l3 -94
q0 -11 -7.5 -19.5t-13.5 -16.5l17 -12q5 8 10.5 18t14.5 13l99 34l28 -76l-108 -39q-9 -3 -19 1.5t-20 7.5l-5 -19v0z" />
    <glyph glyph-name="plus" unicode="+" horiz-adv-x="436" 
d="M412 419v-97h-139v-125h-111v125h-139v97h139v125h111v-125h139z" />
    <glyph glyph-name="comma" unicode="," horiz-adv-x="157" 
d="M51 0h83l-10 -111h-73v111zM23 0v97h111v-97h-111z" />
    <glyph glyph-name="hyphen" unicode="-" horiz-adv-x="296" 
d="M23 266v111h249v-111h-249z" />
    <glyph glyph-name="period" unicode="." horiz-adv-x="157" 
d="M23 0v97h111v-97h-111z" />
    <glyph glyph-name="slash" unicode="/" horiz-adv-x="402" 
d="M368 776l-222 -776h-111l222 776h111z" />
    <glyph glyph-name="zero" unicode="0" horiz-adv-x="524" 
d="M262 679q47 0 88.5 -20.5t72.5 -56.5t49 -84t18 -102v-166q0 -54 -18 -102t-49 -84t-72.5 -56.5t-88.5 -20.5t-88.5 20.5t-72.5 56.5t-49 84t-18 102v166q0 54 18 102t49 84t72.5 56.5t88.5 20.5zM262 83q24 0 45.5 13t37.5 35.5t25.5 52.5t9.5 65v166q0 34 -9.5 64.5
t-25.5 53t-37.5 35.5t-45.5 13t-45.5 -13t-37.5 -35.5t-25.5 -53t-9.5 -64.5v-166q0 -35 9.5 -65t25.5 -52.5t37.5 -35.5t45.5 -13z" />
    <glyph glyph-name="one" unicode="1" horiz-adv-x="231" 
d="M191 665v-665h-111v502q0 20 16 31l2 1l-8 12l-17 -11q-6 -4 -14 -6q-17 -3 -33 -3v97q23 0 39.5 12.5t16.5 29.5h109z" />
    <glyph glyph-name="two" unicode="2" horiz-adv-x="489" 
d="M155 85q12 12 29 12h250v-97h-390v97q0 63 49 102t133 50q26 3 49 17t40 36.5t26.5 51.5t9.5 62q0 34 -9.5 64.5t-25.5 53t-37.5 35.5t-45.5 13q-26 0 -48.5 -14.5t-39.5 -40.5h-120q13 34 34.5 62t48 48t58 31t66.5 11q47 0 88.5 -20.5t72.5 -56.5t49 -84t18 -102
t-17.5 -98t-48.5 -77.5t-74.5 -56t-95.5 -32.5q-5 -1 -14.5 -3.5t-19.5 -6.5t-19.5 -11t-13.5 -17q-3 -7 -9 -13l-13 -13l10 -10z" />
    <glyph glyph-name="three" unicode="3" horiz-adv-x="484" 
d="M326 477q12 0 23 -8q48 -35 76 -93t28 -127q0 -54 -18 -102t-49 -84t-72.5 -56.5t-88.5 -20.5q-35 0 -66.5 11t-58 31t-48 48t-34.5 62h120q17 -26 39.5 -40.5t48.5 -14.5q24 0 45.5 13t37.5 35.5t25.5 52.5t9.5 65q0 34 -9.5 64.5t-25.5 53t-37.5 35.5t-45.5 13h-62v97
h76l18 28q12 19 32 33l3 2l-8 12l-2 -1q-27 -18 -61 -18h-196v97h360v-97l-37 -58q-11 -18 -32 -18v-15h12h-3z" />
    <glyph glyph-name="four" unicode="4" horiz-adv-x="512" 
d="M485 222v-97h-55v-125h-111v125h-305v97l291 443h125v-443h55zM319 449q0 17 4 30l17 58l-14 4l-14 -47q-4 -15 -14 -30l-135 -206q-16 -24 -43 -38l-12 -6l7 -13l18 9q22 12 49 12h137v227z" />
    <glyph glyph-name="five" unicode="5" horiz-adv-x="494" 
d="M236 511q47 0 88.5 -20.5t72.5 -56.5t49 -84t18 -102t-18 -102t-49 -84t-72.5 -56.5t-88.5 -20.5q-35 0 -66.5 11t-58 31t-48 48t-34.5 62h120q17 -26 39.5 -40.5t48.5 -14.5q24 0 45.5 13t37.5 35.5t25.5 52.5t9.5 65q0 34 -9.5 64.5t-25.5 53t-37.5 35.5t-45.5 13
q-26 0 -48.5 -14.5t-39.5 -40.5h-120l21 305h345v-97h-255l-2 -27q-2 -31 -20 -57l-26 -36l12 -9l17 24q22 30 57 41q28 9 59 9z" />
    <glyph glyph-name="six" unicode="6" horiz-adv-x="521" 
d="M264 513q47 0 88.5 -20.5t72.5 -56.5t49 -84t18 -102t-18 -102t-49 -84t-72.5 -56.5t-88.5 -20.5t-88.5 20.5t-72.5 56.5t-49 84t-18 102v166q0 54 18 102t49 84t72.5 56.5t88.5 20.5q34 0 66 -11t58.5 -31t47.5 -48t35 -62h-120q-17 26 -39.5 40.5t-48.5 14.5
q-32 0 -58 -21t-42 -56q-2 -5 -5 -9t-6 -9l-28 -39l12 -9l18 25q25 35 67 44q10 2 20 3t21 1zM264 84q24 0 45.5 13t37.5 35.5t25.5 52.5t9.5 65q0 34 -9.5 64.5t-25.5 53t-37.5 35.5t-45.5 13t-45.5 -13t-37.5 -35.5t-25.5 -53t-9.5 -64.5q0 -35 9.5 -65t25.5 -52.5
t37.5 -35.5t45.5 -13z" />
    <glyph glyph-name="seven" unicode="7" horiz-adv-x="576" 
d="M513 666v-97l-235 -568h-111l223 538q4 11 14 21l17 17l-10 10q-19 -19 -46 -19h-309v97z" />
    <glyph glyph-name="eight" unicode="8" horiz-adv-x="512" 
d="M383 405q16 0 29 -11q32 -31 51 -75t19 -100q0 -54 -18 -97.5t-49 -74t-72.5 -47t-88.5 -16.5t-88.5 16.5t-72.5 47t-49 74t-18 97.5q0 56 19 100t51 75q13 11 29 11h26v15q-26 0 -37 23q-19 35 -19 74q0 34 13 63.5t35.5 51.5t53 34t64.5 11q31 -1 58 -13.5t47.5 -32.5
t33 -47t14.5 -58q1 -44 -19 -82q-11 -21 -36 -21v-15h26zM253 579q-20 0 -34.5 -18t-14.5 -44t14.5 -44t34.5 -18t34.5 18t14.5 44t-14.5 44t-34.5 18zM253 80q49 0 83.5 35t34.5 104t-34.5 104t-83.5 35t-83.5 -35t-34.5 -104t34.5 -104t83.5 -35z" />
    <glyph glyph-name="nine" unicode="9" horiz-adv-x="521" 
d="M257 677q47 0 88.5 -20.5t72.5 -56.5t49 -84t18 -102v-166q0 -54 -18 -102t-49 -84t-72.5 -56.5t-88.5 -20.5q-35 0 -66.5 11t-58 31t-48 48t-34.5 62h120q17 -26 39.5 -40.5t48.5 -14.5q32 0 58 21t42 56q2 5 5 9.5t6 9.5l28 39l-12 9l-18 -25q-25 -35 -67 -44
q-10 -2 -20 -3t-21 -1q-47 0 -88.5 20.5t-72.5 56.5t-49 84t-18 102t18 102t49 84t72.5 56.5t88.5 20.5zM257 248q24 0 45.5 13t37.5 35.5t25.5 52.5t9.5 65q0 34 -9.5 64.5t-25.5 53t-37.5 35.5t-45.5 13t-45.5 -13t-37.5 -35.5t-25.5 -53t-9.5 -64.5q0 -35 9.5 -65
t25.5 -52.5t37.5 -35.5t45.5 -13z" />
    <glyph glyph-name="colon" unicode=":" horiz-adv-x="165" 
d="M27 0v97h111v-97h-111zM27 360v97h111v-97h-111z" />
    <glyph glyph-name="semicolon" unicode=";" horiz-adv-x="165" 
d="M27 356v97h111v-97h-111zM55 -4h83l-10 -111h-73v111zM27 -4v97h111v-97h-111z" />
    <glyph glyph-name="equal" unicode="=" horiz-adv-x="458" 
d="M28 169v111h402v-111h-402zM28 363v111h402v-111h-402z" />
    <glyph glyph-name="question" unicode="?" horiz-adv-x="497" 
d="M152 0v97h111v-97h-111zM244 679q47 0 88.5 -20.5t72.5 -56.5t49 -84t18 -102t-13 -87.5t-34 -55.5t-48.5 -36t-56.5 -29q-18 -9 -34.5 -20.5t-20.5 -34.5h-113q2 28 12.5 49t26 37.5t34.5 29t39 22.5q21 10 38.5 21.5t30.5 25.5t20.5 33t7.5 45q0 34 -9.5 64.5t-25.5 53
t-37.5 35.5t-45.5 13q-26 0 -48.5 -14.5t-39.5 -40.5h-120q13 34 34.5 62t48 48t58 31t66.5 11h2z" />
    <glyph glyph-name="at" unicode="@" horiz-adv-x="1072" 
d="M532 749q105 0 197 -38t160.5 -104t108 -154.5t39.5 -188.5v-139q0 -29 -13 -54t-35.5 -43.5t-53 -29.5t-64.5 -11q-35 0 -65 11t-52.5 29.5t-35.5 44t-13 54.5v139q0 34 -14.5 64.5t-40 53t-59.5 35.5t-73 13t-73 -13t-59.5 -35.5t-40 -53t-14.5 -64.5q0 -35 10 -65
t27 -52.5t39.5 -35.5t48.5 -13t48.5 11t39.5 29.5t27 43.5t10 54h111q0 -49 -18.5 -91.5t-50.5 -74.5t-74.5 -50.5t-91.5 -18.5t-91.5 20.5t-74.5 56.5t-50.5 84t-18.5 102t23.5 102t63.5 84t94 56.5t116 20.5q35 0 68 -7t63 -20q40 -17 57 -56l20 -44l14 6l-25 56
q-9 21 -9 45v7h111v-388q0 -17 16.5 -29.5t39.5 -12.5t39.5 12.5t16.5 29.5v139q0 80 -31 151t-84.5 123.5t-125.5 83t-154 30.5t-154 -30.5t-125.5 -83t-84.5 -123.5t-31 -151t31 -151t84.5 -123.5t125.5 -83t154 -30.5q47 0 90.5 10t82.5 29v-107q-82 -29 -173 -29
q-105 0 -197 38t-160.5 104t-108 154t-39.5 189q0 100 39.5 188.5t108 154.5t160.5 104t197 38z" />
    <glyph glyph-name="A" unicode="A" horiz-adv-x="688" 
d="M694 0h-120l-51 125h-360l-51 -125h-120l274 665h155zM483 222l-124 301q-8 21 -8 41v32h-15v-28q0 -23 -9 -44l-125 -302h281z" />
    <glyph glyph-name="B" unicode="B" horiz-adv-x="639" 
d="M521 421q53 -32 84 -88t28 -123q-2 -45 -20 -85t-48.5 -70.5t-70.5 -49t-85 -20.5q-51 -2 -95.5 15.5t-78 50t-53 76.5t-19.5 94h111q0 -29 10 -54t27 -43.5t39.5 -29.5t48.5 -11t48.5 11t39.5 29.5t27 44t10 54.5t-10 54.5t-27 44t-39.5 29.5t-48.5 11h-249v-360h-111
v665h305q37 0 70 -12t57.5 -32.5t38.5 -48.5t14 -59q0 -26 -11 -51q-8 -19 -29 -22l-18 -3l2 -15l28 5q14 2 25 -6v-1zM342 455q29 0 49 16.5t20 39.5t-20 39.5t-49 16.5h-194v-111h194v-1z" />
    <glyph glyph-name="C" unicode="C" horiz-adv-x="720" 
d="M398 83q50 0 94.5 15t80.5 41h147q-53 -69 -137 -110.5t-185 -41.5q-80 0 -151 27t-123.5 74t-83 110t-30.5 135t30.5 135t83 110t123.5 74t151 27q101 0 185 -41.5t137 -110.5h-147q-36 26 -80.5 41t-94.5 15q-57 0 -107.5 -19.5t-88 -53.5t-59.5 -79.5t-22 -97.5
t22 -97.5t59.5 -79.5t88 -53.5t107.5 -19.5z" />
    <glyph glyph-name="D" unicode="D" horiz-adv-x="712" 
d="M326 667q78 0 146 -26t118.5 -71.5t80 -106t29.5 -129.5t-24 -129.5t-65 -106t-96.5 -71.5t-118.5 -26q-49 0 -91.5 18.5t-74.5 50.5t-50.5 74.5t-18.5 91.5h111q0 -29 10 -54t27 -43.5t39.5 -29.5t48.5 -11q40 0 75.5 18.5t61.5 50.5t41.5 74.5t15.5 91.5t-20.5 91.5
t-56.5 74.5t-84 50.5t-102 18.5h-180v-568h-111v665h291z" />
    <glyph glyph-name="E" unicode="E" horiz-adv-x="528" 
d="M148 568v-111h249v-97h-249v-263h374v-97h-485v665h485v-97h-374z" />
    <glyph glyph-name="F" unicode="F" horiz-adv-x="515" 
d="M148 568v-166h249v-97h-249v-305h-111v665h485v-97h-374z" />
    <glyph glyph-name="G" unicode="G" horiz-adv-x="772" 
d="M757 264v-263h-111v27q0 26 12 49l9 18l-13 7l-8 -15q-15 -31 -45 -48q-45 -25 -96 -38.5t-108 -13.5q-80 0 -151 27t-123.5 74t-83 110t-30.5 135t30.5 135t83 110t123.5 74t151 27q101 0 185 -41.5t137 -110.5h-147q-36 26 -80.5 41t-94.5 15q-57 0 -107.5 -19.5
t-88 -53.5t-59.5 -79.5t-22 -97.5t22 -97.5t59.5 -79.5t88 -53.5t107.5 -19.5q62 0 115.5 22.5t91.5 60.5h-123v97z" />
    <glyph glyph-name="H" unicode="H" 
d="M660 665v-665h-111v360h-402v-360h-111v665h111v-208h402v208h111z" />
    <glyph glyph-name="I" unicode="I" horiz-adv-x="185" 
d="M37 0v665h111v-665h-111z" />
    <glyph glyph-name="J" unicode="J" horiz-adv-x="486" 
d="M455 665v-416q0 -54 -23.5 -102t-63.5 -84t-94.5 -56.5t-115.5 -20.5q-35 0 -65 11t-52.5 29.5t-35.5 44t-13 54.5h111q0 -17 16.5 -29.5t39.5 -12.5q39 0 73 13t59.5 35.5t40 52.5t14.5 65v416h109z" />
    <glyph glyph-name="K" unicode="K" horiz-adv-x="596" 
d="M605 -2h-132l-292 319l-33 -28v-291h-111v665h111v-201q0 -20 -8 -41l-13 -32l14 -5l6 16q11 26 32 44l260 221h150l-334 -283z" />
    <glyph glyph-name="L" unicode="L" horiz-adv-x="515" 
d="M522 97v-97h-485v665h111v-568h374z" />
    <glyph glyph-name="M" unicode="M" horiz-adv-x="795" 
d="M757 664v-665h-111v520q0 20 8 41l13 32l-14 5l-12 -29l-6 -12l-178 -321h-122l-175 316l-6 12l-14 34l-14 -5l13 -32q8 -21 8 -41v-520h-111v665h172l167 -302q14 -25 14 -53v-18h15v20q0 28 14 53l167 301z" />
    <glyph glyph-name="N" unicode="N" 
d="M549 664h111v-665h-111l-377 494q-11 16 -17 33l-15 45l-14 -5l15 -46q6 -17 6 -35v-485h-111v665h111l377 -494q11 -16 17 -33l15 -44l14 5l-15 46q-6 16 -6 35v484z" />
    <glyph glyph-name="O" unicode="O" horiz-adv-x="796" 
d="M398 678q80 0 151 -27t123.5 -74t83 -110t30.5 -135t-30.5 -135t-83 -110t-123.5 -74t-151 -27t-151 27t-123.5 74t-83 110t-30.5 135t30.5 135t83 110t123.5 74t151 27zM398 82q57 0 107.5 19.5t88 53.5t59.5 79.5t22 97.5t-22 97.5t-59.5 79.5t-88 53.5t-107.5 19.5
t-107.5 -19.5t-88 -53.5t-59.5 -79.5t-22 -97.5t22 -97.5t59.5 -79.5t88 -53.5t107.5 -19.5z" />
    <glyph glyph-name="P" unicode="P" horiz-adv-x="639" 
d="M396 663q49 0 91.5 -18.5t74.5 -50.5t50.5 -74.5t18.5 -91.5t-18.5 -91.5t-50.5 -74.5t-74.5 -50.5t-91.5 -18.5t-91.5 18.5t-74.5 50.5t-50.5 74.5t-18.5 91.5h111q0 -29 10 -54t27 -43.5t39.5 -29.5t48.5 -11t48.5 11t39.5 29.5t27 44t10 54.5t-10 54.5t-27 44
t-39.5 29.5t-48.5 11h-249v-568h-111v665h360z" />
    <glyph glyph-name="Q" unicode="Q" horiz-adv-x="800" 
d="M786 331q0 -64 -24.5 -121t-67.5 -102q22 -12 50 -12v-97q-38 0 -71.5 11.5t-62.5 31.5q-46 -26 -99.5 -41t-112.5 -15q-80 0 -151 27t-123.5 74t-83 110t-30.5 135t30.5 135t83 110t123.5 74t151 27t151 -27t123.5 -74t83 -110t30.5 -135v-1zM625 191q23 30 36 66t13 75
q0 52 -22 97.5t-59.5 79.5t-88 53.5t-107.5 19.5t-107.5 -19.5t-88 -53.5t-59.5 -79.5t-22 -97.5t22 -97.5t59.5 -79.5t88 -53.5t107.5 -19.5q39 0 75 9t68 26q-31 54 -31 118h111q0 -24 6 -45z" />
    <glyph glyph-name="R" unicode="R" horiz-adv-x="647" 
d="M482 209q4 -24 15 -44.5t27.5 -36t37 -24t43.5 -8.5v-97q-44 0 -82.5 15t-69.5 41t-52 61.5t-28 76.5h-225v-194h-111v665h360q49 0 91.5 -18.5t74.5 -50.5t50.5 -74.5t18.5 -91.5q0 -38 -11 -72t-31 -62.5t-47.5 -50t-60.5 -34.5v-1zM397 289q26 0 48.5 11t39.5 29.5
t27 44t10 54.5t-10 54.5t-27 44t-39.5 29.5t-48.5 11h-249v-277h249v-1z" />
    <glyph glyph-name="S" unicode="S" horiz-adv-x="661" 
d="M333 374q67 -11 125.5 -25.5t101.5 -36.5t67.5 -52.5t24.5 -72.5t-25 -78.5t-68.5 -63.5t-101.5 -43t-124 -16t-124 16t-101.5 43t-68.5 63.5t-25 78.5v6h111v-6q0 -21 16.5 -40t44.5 -33.5t66 -22.5t81 -8t81 8t66 22.5t44.5 33.5t16.5 40t-16.5 35t-45 24t-66.5 17
t-80 14q-62 10 -117.5 25.5t-97 38.5t-66 55t-24.5 75t24 81t65 66t96.5 44.5t118.5 16.5t118.5 -16.5t96.5 -44.5t65 -66t24 -81h-97v6q0 24 -16.5 45.5t-44.5 37.5t-66 25.5t-81 9.5t-81 -9.5t-66 -25.5t-44.5 -37.5t-16.5 -45.5t16.5 -41t44.5 -28.5t66 -19.5t80 -14h3z
" />
    <glyph glyph-name="T" unicode="T" horiz-adv-x="568" 
d="M574 665v-97h-235v-568h-111v568h-235v97h581z" />
    <glyph glyph-name="U" unicode="U" horiz-adv-x="640" 
d="M611 665v-429q0 -52 -23 -97.5t-62.5 -79.5t-92.5 -53.5t-113 -19.5t-113 19.5t-92.5 53.5t-62.5 79.5t-23 97.5v429h111v-429q0 -32 14 -59.5t38.5 -48t57.5 -32.5t70 -12t70 12t57.5 32.5t38.5 48t14 59.5v429h111z" />
    <glyph glyph-name="V" unicode="V" horiz-adv-x="607" 
d="M616 665l-242 -665h-137l-242 665h103l193 -531q6 -18 6 -38v-27h15v27q0 20 6 38l193 531h105z" />
    <glyph glyph-name="W" unicode="W" horiz-adv-x="922" 
d="M824 663h101l-203 -665h-137l-113 369q-5 17 -5 32v28h-15v-28q0 -15 -5 -32l-113 -369h-137l-203 665h101l158 -518q5 -17 5 -32v-45h15v45q0 15 5 33l129 421h106l129 -421q5 -17 5 -32v-45h15v45q0 15 5 33l158 518z" />
    <glyph glyph-name="X" unicode="X" horiz-adv-x="579" 
d="M583 0h-119l-148 209q-20 29 -20 64v4h-15v-4q0 -35 -20 -64l-148 -209h-119l241 339l-231 326h119l139 -196q20 -29 20 -64v-4h15v4q0 35 20 64l139 196h119l-231 -326z" />
    <glyph glyph-name="Y" unicode="Y" horiz-adv-x="610" 
d="M621 667l-261 -523v-144h-111v144l-261 523h108l189 -379q12 -23 12 -49v-19h15v19q0 26 12 49l189 379h108z" />
    <glyph glyph-name="Z" unicode="Z" horiz-adv-x="552" 
d="M157 117q-16 -19 -36 -29l-22 -11l7 -13l18 9q22 12 49 12h373v-83h-540v83l375 466q15 18 37 29l21 10l-7 13l-18 -9q-23 -12 -49 -12h-359v83h540v-83l-389 -467v2z" />
    <glyph glyph-name="backslash" unicode="\" horiz-adv-x="402" 
d="M368 0h-111l-222 776h111z" />
    <glyph glyph-name="a" unicode="a" horiz-adv-x="643" 
d="M607 497v-499h-111v249q0 34 -14.5 64.5t-40 53t-59.5 35.5t-73 13t-73 -13t-59.5 -35.5t-40 -53t-14.5 -64.5q0 -35 10 -65t27 -52.5t39.5 -35.5t48.5 -13t48.5 11t39.5 29.5t27 44t10 54.5h111q0 -49 -18.5 -91.5t-50.5 -74.5t-74.5 -50.5t-91.5 -18.5t-91.5 20.5
t-74.5 56.5t-50.5 84t-18.5 102t23.5 102t63.5 84t94 56.5t116 20.5q35 0 68 -7t63 -20q40 -17 57 -56l20 -44l14 6l-25 56q-9 21 -9 45v7z" />
    <glyph glyph-name="b" unicode="b" horiz-adv-x="643" 
d="M329 512q61 0 115.5 -20.5t94.5 -56.5t63.5 -84t23.5 -102t-18.5 -102t-50.5 -84t-74.5 -56.5t-91.5 -20.5t-91.5 18.5t-74.5 50.5t-50.5 74.5t-18.5 91.5h111q0 -29 10 -54t27 -43.5t39.5 -29.5t48.5 -11t48.5 13t39.5 35.5t27 52.5t10 65q0 34 -14.5 64.5t-40 53
t-59.5 35.5t-73 13t-73 -13t-59.5 -35.5t-40 -53t-14.5 -64.5v-249h-111v665h111v-173q0 -24 -9 -45l-25 -56l14 -6l20 44q17 39 57 56q30 13 63.5 20t68.5 7h-3z" />
    <glyph glyph-name="c" unicode="c" horiz-adv-x="587" 
d="M310 83q42 0 77.5 14.5t61.5 40.5h131q-18 -34 -45.5 -62t-62.5 -48t-76 -31t-86 -11q-62 0 -116 20.5t-94 56.5t-63.5 84t-23.5 102t23.5 102t63.5 84t94 56.5t116 20.5q45 0 86 -11t76 -31t62.5 -48t45.5 -62h-131q-26 26 -61.5 40.5t-77.5 14.5q-39 0 -73 -13
t-59.5 -35.5t-40 -53t-14.5 -64.5q0 -35 14.5 -65t40 -52.5t59.5 -35.5t73 -13z" />
    <glyph glyph-name="d" unicode="d" horiz-adv-x="643" 
d="M607 663v-665h-111v249q0 34 -14.5 64.5t-40 53t-59.5 35.5t-73 13t-73 -13t-59.5 -35.5t-40 -53t-14.5 -64.5q0 -35 10 -65t27 -52.5t39.5 -35.5t48.5 -13t48.5 11t39.5 29.5t27 44t10 54.5h111q0 -49 -18.5 -91.5t-50.5 -74.5t-74.5 -50.5t-91.5 -18.5t-91.5 20.5
t-74.5 56.5t-50.5 84t-18.5 102t23.5 102t63.5 84t94 56.5t116 20.5q35 0 68 -7t63 -20q40 -17 57 -56l20 -44l14 6l-25 56q-9 21 -9 45v173z" />
    <glyph glyph-name="e" unicode="e" horiz-adv-x="619" 
d="M608 251q0 -21 -3 -42h-475q8 -27 25 -50t41 -39.5t53 -26t62 -9.5q42 0 77.5 14.5t61.5 40.5h131q-18 -34 -45.5 -62t-62.5 -48t-76 -31t-86 -11q-62 0 -116 20.5t-94 56.5t-63.5 84t-23.5 102t23.5 102t63.5 84t94 56.5t116 20.5q55 0 105 -17t89 -47t65 -70.5
t35 -87.5q3 -21 3 -42v2zM166 292h326q-8 27 -25 50t-41 39.5t-53 26t-62 9.5q-62 0 -110 -31.5t-67 -80.5q-2 -5 -4.5 -10t-5.5 -10l-20 -29l12 -8l19 29q11 16 31 16v-1z" />
    <glyph glyph-name="f" unicode="f" horiz-adv-x="267" 
d="M159 523q0 -15 -11 -26l-22 -22l10 -10l22 22q11 11 26 11h85v-83h-111v-416h-111v416h-28v83h28v42q0 29 13 54.5t35.5 44t52.5 29.5t65 11h69v-97h-69q-23 0 -39.5 -12.5t-16.5 -29.5v-16z" />
    <glyph glyph-name="g" unicode="g" horiz-adv-x="642" 
d="M606 498v-416q0 -54 -23.5 -102t-63.5 -84t-94.5 -56.5t-115.5 -20.5h-173v97h173q39 0 73 13t59.5 35.5t40 52.5t14.5 65v166q0 34 -14.5 64.5t-40 53t-59.5 35.5t-73 13t-73 -13t-59.5 -35.5t-40 -53t-14.5 -64.5q0 -35 10 -65t27 -52.5t39.5 -35.5t48.5 -13t48.5 11
t39.5 29.5t27 43.5t10 54h111q0 -49 -18.5 -91.5t-50.5 -74.5t-74.5 -50.5t-91.5 -18.5t-91.5 20.5t-74.5 56.5t-50.5 84t-18.5 102t23.5 102t63.5 84t94 56.5t116 20.5q35 0 68 -7t63 -20q40 -17 57 -56l20 -44l14 6l-25 56q-9 21 -9 45v7h108z" />
    <glyph glyph-name="h" unicode="h" horiz-adv-x="594" 
d="M332 509q49 0 91.5 -18.5t74.5 -50.5t50.5 -75t18.5 -92v-276h-111v277q0 29 -10 54.5t-27 44t-39.5 29.5t-48.5 11q-39 0 -73 -13t-59.5 -35.5t-40 -53t-14.5 -64.5v-249h-111v665h111v-173q0 -23 -9 -44l-25 -56l14 -6l20 44q17 39 56 56q62 28 133 28z" />
    <glyph glyph-name="i" unicode="i" horiz-adv-x="179" 
d="M34 0v499h111v-499h-111zM34 526v111h111v-111h-111z" />
    <glyph glyph-name="j" unicode="j" horiz-adv-x="179" 
d="M33 497h111v-540q0 -29 -13 -54t-35.5 -43.5t-53 -29.5t-64.5 -11h-69v97h69q23 0 39.5 12.5t16.5 29.5zM33 525v111h111v-111h-111z" />
    <glyph glyph-name="k" unicode="k" horiz-adv-x="522" 
d="M526 -1h-132l-217 236l-33 -28v-208h-111v665h111v-284q0 -24 -9 -45l-25 -56l14 -6l20 46q11 24 30 40l165 139h150l-237 -200z" />
    <glyph glyph-name="l" unicode="l" horiz-adv-x="266" 
d="M265 83v-97h-69q-35 0 -65 11t-52.5 29.5t-35.5 44t-13 54.5v540h111v-540q0 -17 16.5 -29.5t39.5 -12.5h68z" />
    <glyph glyph-name="m" unicode="m" horiz-adv-x="892" 
d="M634 512q49 0 91.5 -18.5t74.5 -50.5t50.5 -74.5t18.5 -91.5v-277h-111v277q0 29 -10 54.5t-27 44t-39.5 29.5t-48.5 11t-48.5 -13t-39.5 -35.5t-27 -53t-10 -64.5v-249h-111v277q0 29 -10 54.5t-27 44t-39.5 29.5t-48.5 11t-48.5 -13t-39.5 -35.5t-27 -53t-10 -64.5
v-249h-111v499h110q-1 -5 -2 -10.5t-3 -10.5l-29 -87l14 -5l16 48q9 26 29 45t47 26q25 6 53 6q56 0 103.5 -24t79.5 -65q32 41 77.5 64.5t98.5 23.5h4z" />
    <glyph glyph-name="n" unicode="n" horiz-adv-x="594" 
d="M332 509q49 0 91.5 -18.5t74.5 -50.5t50.5 -75t18.5 -92v-276h-111v277q0 29 -10 54.5t-27 44t-39.5 29.5t-48.5 11q-39 0 -73 -13t-59.5 -35.5t-40 -53t-14.5 -64.5v-249h-111v499h111v-7q0 -23 -9 -44l-25 -56l14 -6l20 44q17 39 56 56q62 28 133 28z" />
    <glyph glyph-name="o" unicode="o" horiz-adv-x="620" 
d="M310 512q61 0 115.5 -20.5t94.5 -56.5t63.5 -84t23.5 -102t-23.5 -102t-63.5 -84t-94.5 -56.5t-115.5 -20.5q-62 0 -116 20.5t-94 56.5t-63.5 84t-23.5 102t23.5 102t63.5 84t94 56.5t116 20.5zM310 83q39 0 73 13t59.5 35.5t40 52.5t14.5 65q0 34 -14.5 64.5t-40 53
t-59.5 35.5t-73 13t-73 -13t-59.5 -35.5t-40 -53t-14.5 -64.5q0 -35 14.5 -65t40 -52.5t59.5 -35.5t73 -13z" />
    <glyph glyph-name="p" unicode="p" horiz-adv-x="643" 
d="M329 513q61 0 115.5 -20.5t94.5 -56.5t63.5 -84t23.5 -102t-18.5 -102t-50.5 -84t-74.5 -56.5t-91.5 -20.5t-91.5 18.5t-74.5 50.5t-50.5 74.5t-18.5 91.5h111q0 -29 10 -54t27 -43.5t39.5 -29.5t48.5 -11t48.5 13t39.5 35.5t27 52.5t10 65q0 34 -14.5 64.5t-40 53
t-59.5 35.5t-73 13t-73 -13t-59.5 -35.5t-40 -53t-14.5 -64.5v-416h-111v665h111v-7q0 -24 -9 -45l-25 -56l14 -6l20 44q17 39 57 56q30 13 63.5 20t68.5 7z" />
    <glyph glyph-name="q" unicode="q" horiz-adv-x="643" 
d="M496 497h111v-665h-111v416q0 34 -14.5 64.5t-40 53t-59.5 35.5t-73 13t-73 -13t-59.5 -35.5t-40 -53t-14.5 -64.5q0 -35 10 -65t27 -52.5t39.5 -35.5t48.5 -13t48.5 11t39.5 29.5t27 43.5t10 54h111q0 -49 -18.5 -91.5t-50.5 -74.5t-74.5 -50.5t-91.5 -18.5t-91.5 20.5
t-74.5 56.5t-50.5 84t-18.5 102t23.5 102t63.5 84t94 56.5t116 20.5q35 0 68 -7t63 -20q40 -17 57 -56l20 -44l14 6l-25 56q-9 21 -9 45z" />
    <glyph glyph-name="r" unicode="r" horiz-adv-x="571" 
d="M332 510q49 0 91.5 -18.5t74.5 -50.5t50.5 -74.5t18.5 -91.5h-111q0 29 -10 54.5t-27 44t-39.5 29.5t-48.5 11q-39 0 -73 -13t-59.5 -35.5t-40 -53t-14.5 -64.5v-249h-111v499h111v-7q0 -23 -9 -44l-25 -56l14 -6l20 44q17 39 57 56q30 13 63 20t68 7v-2z" />
    <glyph glyph-name="s" unicode="s" horiz-adv-x="526" 
d="M441 258q35 -22 54.5 -51t19.5 -62t-19.5 -62t-53.5 -50.5t-79.5 -34t-97.5 -12.5t-97.5 12.5t-79.5 34t-53.5 50.5t-19.5 62v6h111q-1 -2 -1 -6q0 -13 11 -24t29.5 -19.5t44 -13.5t54.5 -5q28 0 53.5 5t44 13.5t29.5 19.5t11 24t-12 22t-31.5 16.5t-44 13t-50.5 10.5
q-51 10 -97 19t-78 32q-28 20 -44 46.5t-16 55.5q0 31 18.5 59t50.5 48.5t74.5 32.5t91.5 12t91.5 -12t74.5 -32.5t50.5 -48.5t18.5 -59h-111q0 12 -10 22t-27 17.5t-39.5 12t-48.5 4.5t-48.5 -4.5t-39.5 -12t-27 -17.5t-10 -22t10 -20t27 -14t39.5 -11t48.5 -10
q52 -11 96.5 -18t78.5 -29h3z" />
    <glyph glyph-name="t" unicode="t" horiz-adv-x="288" 
d="M277 82v-97h-69q-35 0 -65 11t-52.5 29.5t-35.5 44t-13 54.5v291h-28v83h28v166h111v-166h111v-83h-85q-15 0 -26 11l-22 22l-10 -10l22 -22q11 -11 11 -26v-265q0 -17 16.5 -29.5t39.5 -12.5z" />
    <glyph glyph-name="u" unicode="u" horiz-adv-x="593" 
d="M558 499v-499h-111v7q0 24 9 45l25 56l-13 6l-20 -44q-17 -39 -56 -56q-62 -28 -133 -28q-49 0 -91.5 18.5t-74.5 50.5t-50.5 75t-18.5 92v276h111v-277q0 -29 10 -54t27 -43.5t39.5 -29.5t48.5 -11q39 0 73 13t59.5 35.5t40 52.5t14.5 65v249z" />
    <glyph glyph-name="v" unicode="v" horiz-adv-x="603" 
d="M607 498l-248 -499h-118l-248 499h108l180 -361q12 -23 12 -49v-19h15v19q0 26 12 49l180 361h107z" />
    <glyph glyph-name="w" unicode="w" horiz-adv-x="839" 
d="M839 498l-168 -499h-119l-121 361q-6 16 -6 35v33h-15v-33q0 -19 -6 -35l-121 -361h-119l-168 499h102l112 -332q6 -17 6 -35v-62h15v62q0 18 6 35l112 332h138l112 -332q6 -17 6 -35v-62h15v62q0 18 6 35l112 332h101z" />
    <glyph glyph-name="x" unicode="x" horiz-adv-x="471" 
d="M472 0h-119l-90 126q-20 29 -20 64v4h-15v-4q0 -35 -20 -64l-90 -126h-119l182 256l-172 242h119l80 -112q20 -29 20 -64v-4h15v4q0 35 20 64l80 112h119l-172 -242z" />
    <glyph glyph-name="y" unicode="y" horiz-adv-x="603" 
d="M608 499l-332 -666l-87 43l57 115l-253 508h108l180 -361q12 -23 12 -49v-19h15v19q0 26 12 49l180 361h108z" />
    <glyph glyph-name="z" unicode="z" horiz-adv-x="440" 
d="M163 113q-14 -17 -33 -26l-24 -12l7 -13l18 9q22 12 49 12h248v-83h-416v83l250 300q16 19 36 29l22 11l-7 13l-18 -9q-23 -12 -49 -12h-234v83h416v-83l-264 -301z" />
    <glyph glyph-name="braceleft" unicode="{" horiz-adv-x="320" 
d="M214 372q0 -23 -16.5 -39.5t-39.5 -16.5v-28q23 0 39.5 -16.5t16.5 -39.5v-125q0 -35 24 -59t59 -24v-97q-40 0 -75.5 15.5t-61.5 41.5t-41.5 61.5t-15.5 75.5v87q0 16 -11 27t-27 11h-46v111h46q16 0 27 11t11 27v87q0 40 15.5 75.5t41.5 61.5t61.5 41.5t75.5 15.5v-97
q-35 0 -59 -24t-24 -59v-125v1z" />
    <glyph glyph-name="verticalbar" unicode="|" horiz-adv-x="185" 
d="M37 -72v748h111v-748h-111z" />
    <glyph glyph-name="braceright" unicode="}" horiz-adv-x="320" 
d="M299 356v-111h-46q-16 0 -27 -11t-11 -27v-87q0 -40 -15.5 -75.5t-41.5 -61.5t-61.5 -41.5t-75.5 -15.5v97q35 0 59 24t24 59v125q0 23 16.5 39.5t39.5 16.5v28q-23 0 -39.5 16.5t-16.5 39.5v125q0 35 -24 59t-59 24v97q40 0 75.5 -15.5t61.5 -41.5t41.5 -61.5
t15.5 -75.5v-87q0 -16 11 -27t27 -11z" />
    <glyph glyph-name="asciitilde" unicode="~" horiz-adv-x="478" 
d="M190 601q-13 0 -22.5 -11.5t-9.5 -28.5h-70q0 22 8.5 41t23 33t34 22t41.5 7q20 0 38 -9q16 -7 27 -18.5t23 -11.5q13 0 22.5 11.5t9.5 28.5h72v-6q-1 -20 -9 -37.5t-21.5 -30.5t-31 -21t-37.5 -8t-32 6t-21.5 13.5t-19.5 13.5t-25 6z" />
    <glyph glyph-name="nonbreakingspace" unicode="&#xa0;" horiz-adv-x="370" 
 />
    <glyph glyph-name="exclamdown" unicode="&#xa1;" horiz-adv-x="203" 
d="M171 -73h-139l14 513h111zM46 495v97h111v-97h-111z" />
    <glyph glyph-name="cent" unicode="&#xa2;" horiz-adv-x="616" 
d="M365 100q58 12 97 51h131q-32 -60 -92 -100t-137 -50v-72h-111v76q-49 10 -91 34t-72.5 58t-47.5 75.5t-17 88.5q0 46 17 88t47.5 76t72.5 57.5t91 34.5v76h111v-72q77 -10 137 -50t92 -100h-131q-39 39 -97 51v-324v2zM254 416q-52 -18 -85 -59.5t-33 -94.5t33 -94.5
t85 -59.5v308z" />
    <glyph glyph-name="sterling" unicode="&#xa3;" horiz-adv-x="633" 
d="M607 108v-97h-582v97h125v194h-125v97h125q0 54 23.5 102t63.5 84t94 56.5t116 20.5q35 0 68.5 -7t63.5 -20v-118q-26 23 -59.5 35.5t-71.5 12.5q-39 0 -73 -13t-59.5 -35.5t-40 -53t-14.5 -64.5h263v-97h-263v-194h346z" />
    <glyph glyph-name="yen" unicode="&#xa5;" horiz-adv-x="706" 
d="M487 316h100v-97h-148l-21 -42h169v-97h-180v-69h-111v69h-180v97h169l-21 42h-148v97h100l-180 362h108l189 -379q12 -23 12 -49v-19h15v19q0 26 12 49l189 379h108z" />
    <glyph glyph-name="section" unicode="&#xa7;" horiz-adv-x="562" 
d="M456 186q35 -22 54.5 -51t19.5 -62t-19.5 -62t-53.5 -50.5t-79.5 -34t-97.5 -12.5t-97.5 12.5t-79.5 34t-53.5 50.5t-19.5 62v6h111q-1 -2 -1 -6q0 -13 11 -24t29.5 -19.5t43.5 -13.5t54 -5q28 0 53.5 5t44 13.5t29.5 19.5t11 24t-12 22t-31.5 16.5t-44 13t-50.5 10.5
q-51 10 -97 19t-78 32q-28 20 -44 46.5t-16 55.5q0 31 17.5 64.5t48.5 60.5l-6 3q-35 22 -54.5 51t-19.5 62t19.5 62t53.5 50.5t79.5 34t97.5 12.5t97.5 -12.5t79.5 -34t53.5 -50.5t19.5 -62v-6h-111q1 2 1 6q0 13 -11 24t-29.5 19.5t-44 13.5t-53.5 5q-29 0 -54 -5
t-43.5 -13.5t-29.5 -19.5t-11 -24t12 -22t31.5 -16.5t44 -13t50.5 -10.5q25 -5 49.5 -9.5t47 -9.5t42.5 -12.5t36 -19.5q28 -20 44 -46.5t16 -55.5q0 -31 -17.5 -64.5t-48.5 -60.5zM288 231q24 1 45.5 10.5t37.5 22t25 26.5t9 25q0 12 -10 20t-27 14.5t-40 11.5t-48 10h-6
q-24 -2 -45.5 -11t-37.5 -21.5t-25 -26.5t-9 -25q0 -12 10 -20t27 -14.5t39.5 -11.5t48.5 -10h6z" />
    <glyph glyph-name="dieresis" unicode="&#xa8;" horiz-adv-x="616" 
d="M106 554v111h111v-111h-111zM397 554v111h111v-111h-111z" />
    <glyph glyph-name="copyright" unicode="&#xa9;" horiz-adv-x="833" 
d="M425 451q-26 0 -48 -8.5t-39 -23.5t-26.5 -35t-9.5 -42q0 -23 9.5 -42.5t26.5 -34.5t39 -23.5t48 -8.5q27 0 51 9.5t41 26.5h86q-23 -45 -70.5 -72.5t-107.5 -27.5q-41 0 -76.5 13.5t-62 37.5t-42 55.5t-15.5 67.5t15.5 67.5t42 55.5t62 37.5t76.5 13.5q60 0 107.5 -27.5
t70.5 -72.5h-86q-17 17 -41 26.5t-51 9.5v-2zM416 688q81 0 152 -27t124 -74t83.5 -110t30.5 -135t-30.5 -135t-83.5 -110t-124 -74t-152 -27t-152 27t-124 74t-83.5 110t-30.5 135t30.5 135t83.5 110t124 74t152 27zM416 65q64 0 121 22t99.5 59.5t67 88t24.5 107.5
t-24.5 107.5t-67 88t-99.5 59.5t-121 22q-65 0 -121.5 -22t-99 -59.5t-67 -88t-24.5 -107.5t24.5 -107.5t67 -88t99 -59.5t121.5 -22z" />
    <glyph glyph-name="ordfeminine" unicode="&#xaa;" horiz-adv-x="450" 
d="M419 678v-328h-73v164q0 22 -9.5 42t-26.5 35t-39.5 23.5t-47.5 8.5q-26 0 -48 -8.5t-39 -23.5t-26.5 -35t-9.5 -42q0 -23 6.5 -42.5t17.5 -34.5t26 -23.5t32 -8.5q34 0 58 26.5t24 64.5h73q0 -32 -12 -60.5t-33 -49.5t-49.5 -33t-60.5 -12t-60.5 13.5t-49.5 37.5
t-33 55.5t-12 67.5t15.5 67.5t42 55.5t62 37.5t76.5 13.5q46 0 86 -17q26 -11 37 -37l13 -29l9 4l-16 37q-6 13 -6 29v4z" />
    <glyph glyph-name="guillemotleft" unicode="&#xab;" horiz-adv-x="486" 
d="M145 260l125 -180h-125l-125 180l125 180h125zM339 260l125 -180h-125l-125 180l125 180h125z" />
    <glyph glyph-name="softhyphen" unicode="&#xad;" horiz-adv-x="0" 
 />
    <glyph glyph-name="registered" unicode="&#xae;" horiz-adv-x="833" 
d="M416 689q81 0 152 -27t124 -74t83.5 -110t30.5 -135t-30.5 -135t-83.5 -110t-124 -74t-152 -27t-152 27t-124 74t-83.5 110t-30.5 135t30.5 135t83.5 110t124 74t152 27zM416 66q64 0 121 22t99.5 59.5t67 88t24.5 107.5t-24.5 107.5t-67 88t-99.5 59.5t-121 22
q-65 0 -121.5 -22t-99 -59.5t-67 -88t-24.5 -107.5t24.5 -107.5t67 -88t99 -59.5t121.5 -22zM561 314q-11 -8 -21.5 -12t-21.5 1l-4 -8l12 -6q11 -6 18 -19l39 -86h-78l-47 106h-111v-106h-71v319h186q59 0 95.5 -28.5t36.5 -76.5q0 -23 -9 -47t-26 -38zM464 344
q16 0 27.5 5.5t19 13.5t11.5 17.5t4 18.5q0 17 -15 34t-47 17h-116v-106h116z" />
    <glyph glyph-name="macron" unicode="&#xaf;" horiz-adv-x="577" 
d="M192 582v83h194v-83h-194z" />
    <glyph glyph-name="degree" unicode="&#xb0;" horiz-adv-x="373" 
d="M186 676q33 0 62 -12.5t50.5 -34t34 -50.5t12.5 -62t-12.5 -62t-34 -50.5t-50.5 -34t-62 -12.5t-62 12.5t-50.5 34t-34 50.5t-12.5 62t12.5 62t34 50.5t50.5 34t62 12.5zM186 427q38 0 64 26t26 64t-26 64t-64 26t-64 -26t-26 -64t26 -64t64 -26z" />
    <glyph glyph-name="twosuperior" unicode="&#xb2;" horiz-adv-x="270" 
d="M91 393q6 6 14 6h125v-48h-195v48q0 32 24.5 52t66.5 25q26 3 44 26t18 56q0 35 -17 59t-42 24q-13 0 -24.5 -7.5t-19.5 -20.5h-60q14 34 41.5 55t62.5 21q24 0 44.5 -10.5t36 -28.5t24.5 -42t9 -51q0 -54 -32.5 -87t-84.5 -44q-5 -1 -17 -4.5t-17 -14.5q-1 -2 -5 -6
l-7 -7l5 -5l4 4h2z" />
    <glyph glyph-name="threesuperior" unicode="&#xb3;" horiz-adv-x="268" 
d="M190 585q23 -17 37.5 -46t14.5 -64q0 -27 -9 -51t-24.5 -42t-36 -28.5t-44.5 -10.5q-35 0 -62.5 21t-41.5 55h60q8 -13 19.5 -20.5t24.5 -7.5q25 0 42 24t17 59t-17 59t-42 24h-31v48h38l9 14q6 11 15 17l2 1l-4 6l-1 -1q-14 -9 -31 -9h-98v48h180v-48l-18 -29
q-6 -9 -17 -9v-7h6q6 0 11 -3h1z" />
    <glyph glyph-name="acute" unicode="&#xb4;" horiz-adv-x="306" 
d="M120 668h103l-53 -125h-90z" />
    <glyph glyph-name="onesuperior" unicode="&#xb9;" horiz-adv-x="141" 
d="M55 683h55v-332h-55v251q0 10 8 15h1l-4 6l-9 -6q-4 -2 -7 -2q-4 -1 -8 -1h-9v48q11 0 19 6t8 14z" />
    <glyph glyph-name="ordmasculine" unicode="&#xba;" horiz-adv-x="446" 
d="M223 689q40 0 76 -13.5t62.5 -37.5t42 -55.5t15.5 -67.5t-15.5 -67.5t-42 -55.5t-62.5 -37.5t-76 -13.5q-41 0 -76.5 13.5t-62 37.5t-42 55.5t-15.5 67.5t15.5 67.5t42 55.5t62 37.5t76.5 13.5zM223 407q25 0 47.5 8.5t39.5 23.5t26.5 34.5t9.5 42.5q0 22 -9.5 42
t-26.5 35t-39.5 23.5t-47.5 8.5q-26 0 -48 -8.5t-39 -23.5t-26.5 -35t-9.5 -42q0 -23 9.5 -42.5t26.5 -34.5t39 -23.5t48 -8.5z" />
    <glyph glyph-name="guillemotright" unicode="&#xbb;" horiz-adv-x="486" 
d="M465 260l-125 -180h-125l125 180l-125 180h125zM271 260l-125 -180h-125l125 180l-125 180h125z" />
    <glyph glyph-name="Aacute" unicode="&#xc1;" horiz-adv-x="688" 
d="M694 0h-120l-51 125h-360l-51 -125h-120l274 665h155zM483 222l-124 301q-8 21 -8 41v32h-15v-28q0 -23 -9 -44l-125 -302h281zM337 835h103l-53 -125h-90z" />
    <glyph glyph-name="Adieresis" unicode="&#xc4;" horiz-adv-x="688" 
d="M694 0h-120l-51 125h-360l-51 -125h-120l274 665h155zM483 222l-124 301q-8 21 -8 41v32h-15v-28q0 -23 -9 -44l-125 -302h281zM143 721v111h111v-111h-111zM434 721v111h111v-111h-111z" />
    <glyph glyph-name="Ntilde" unicode="&#xd1;" 
d="M549 664h111v-665h-111l-377 494q-11 16 -17 33l-15 45l-14 -5l15 -46q6 -17 6 -35v-485h-111v665h111l377 -494q11 -16 17 -33l15 -44l14 5l-15 46q-6 16 -6 35v484zM301 768q-13 0 -22.5 -11.5t-9.5 -28.5h-70q0 22 8.5 41t23 33t34 22t41.5 7q20 0 38 -9
q16 -7 27 -18.5t23 -11.5q13 0 22.5 11.5t9.5 28.5h72v-6q-1 -20 -9 -37.5t-21.5 -30.5t-31 -21t-37.5 -8t-32 6t-21.5 13.5t-19.5 13.5t-25 6z" />
    <glyph glyph-name="Oacute" unicode="&#xd3;" horiz-adv-x="796" 
d="M398 678q80 0 151 -27t123.5 -74t83 -110t30.5 -135t-30.5 -135t-83 -110t-123.5 -74t-151 -27t-151 27t-123.5 74t-83 110t-30.5 135t30.5 135t83 110t123.5 74t151 27zM398 82q57 0 107.5 19.5t88 53.5t59.5 79.5t22 97.5t-22 97.5t-59.5 79.5t-88 53.5t-107.5 19.5
t-107.5 -19.5t-88 -53.5t-59.5 -79.5t-22 -97.5t22 -97.5t59.5 -79.5t88 -53.5t107.5 -19.5zM366 835h103l-53 -125h-90z" />
    <glyph glyph-name="Odieresis" unicode="&#xd6;" horiz-adv-x="796" 
d="M398 678q80 0 151 -27t123.5 -74t83 -110t30.5 -135t-30.5 -135t-83 -110t-123.5 -74t-151 -27t-151 27t-123.5 74t-83 110t-30.5 135t30.5 135t83 110t123.5 74t151 27zM398 82q57 0 107.5 19.5t88 53.5t59.5 79.5t22 97.5t-22 97.5t-59.5 79.5t-88 53.5t-107.5 19.5
t-107.5 -19.5t-88 -53.5t-59.5 -79.5t-22 -97.5t22 -97.5t59.5 -79.5t88 -53.5t107.5 -19.5zM197 721v111h111v-111h-111zM488 721v111h111v-111h-111z" />
    <glyph glyph-name="Uacute" unicode="&#xda;" horiz-adv-x="640" 
d="M611 665v-429q0 -52 -23 -97.5t-62.5 -79.5t-92.5 -53.5t-113 -19.5t-113 19.5t-92.5 53.5t-62.5 79.5t-23 97.5v429h111v-429q0 -32 14 -59.5t38.5 -48t57.5 -32.5t70 -12t70 12t57.5 32.5t38.5 48t14 59.5v429h111zM288 835h103l-53 -125h-90z" />
    <glyph glyph-name="Udieresis" unicode="&#xdc;" horiz-adv-x="640" 
d="M611 665v-429q0 -52 -23 -97.5t-62.5 -79.5t-92.5 -53.5t-113 -19.5t-113 19.5t-92.5 53.5t-62.5 79.5t-23 97.5v429h111v-429q0 -32 14 -59.5t38.5 -48t57.5 -32.5t70 -12t70 12t57.5 32.5t38.5 48t14 59.5v429h111zM119 721v111h111v-111h-111zM410 721v111h111v-111
h-111z" />
    <glyph glyph-name="Yacute" unicode="&#xdd;" horiz-adv-x="610" 
d="M621 667l-261 -523v-144h-111v144l-261 523h108l189 -379q12 -23 12 -49v-19h15v19q0 26 12 49l189 379h108zM273 835h103l-53 -125h-90z" />
    <glyph glyph-name="aacute" unicode="&#xe1;" horiz-adv-x="643" 
d="M607 497v-499h-111v249q0 34 -14.5 64.5t-40 53t-59.5 35.5t-73 13t-73 -13t-59.5 -35.5t-40 -53t-14.5 -64.5q0 -35 10 -65t27 -52.5t39.5 -35.5t48.5 -13t48.5 11t39.5 29.5t27 44t10 54.5h111q0 -49 -18.5 -91.5t-50.5 -74.5t-74.5 -50.5t-91.5 -18.5t-91.5 20.5
t-74.5 56.5t-50.5 84t-18.5 102t23.5 102t63.5 84t94 56.5t116 20.5q35 0 68 -7t63 -20q40 -17 57 -56l20 -44l14 6l-25 56q-9 21 -9 45v7zM301 668h103l-53 -125h-90z" />
    <glyph glyph-name="adieresis" unicode="&#xe4;" horiz-adv-x="643" 
d="M607 497v-499h-111v249q0 34 -14.5 64.5t-40 53t-59.5 35.5t-73 13t-73 -13t-59.5 -35.5t-40 -53t-14.5 -64.5q0 -35 10 -65t27 -52.5t39.5 -35.5t48.5 -13t48.5 11t39.5 29.5t27 44t10 54.5h111q0 -49 -18.5 -91.5t-50.5 -74.5t-74.5 -50.5t-91.5 -18.5t-91.5 20.5
t-74.5 56.5t-50.5 84t-18.5 102t23.5 102t63.5 84t94 56.5t116 20.5q35 0 68 -7t63 -20q40 -17 57 -56l20 -44l14 6l-25 56q-9 21 -9 45v7zM120 554v111h111v-111h-111zM411 554v111h111v-111h-111z" />
    <glyph glyph-name="ntilde" unicode="&#xf1;" horiz-adv-x="594" 
d="M332 509q49 0 91.5 -18.5t74.5 -50.5t50.5 -75t18.5 -92v-276h-111v277q0 29 -10 54.5t-27 44t-39.5 29.5t-48.5 11q-39 0 -73 -13t-59.5 -35.5t-40 -53t-14.5 -64.5v-249h-111v499h111v-7q0 -23 -9 -44l-25 -56l14 -6l20 44q17 39 56 56q62 28 133 28zM249 601
q-13 0 -22.5 -11.5t-9.5 -28.5h-70q0 22 8.5 41t23 33t34 22t41.5 7q20 0 38 -9q16 -7 27 -18.5t23 -11.5q13 0 22.5 11.5t9.5 28.5h72v-6q-1 -20 -9 -37.5t-21.5 -30.5t-31 -21t-37.5 -8t-32 6t-21.5 13.5t-19.5 13.5t-25 6z" />
    <glyph glyph-name="oacute" unicode="&#xf3;" horiz-adv-x="620" 
d="M310 512q61 0 115.5 -20.5t94.5 -56.5t63.5 -84t23.5 -102t-23.5 -102t-63.5 -84t-94.5 -56.5t-115.5 -20.5q-62 0 -116 20.5t-94 56.5t-63.5 84t-23.5 102t23.5 102t63.5 84t94 56.5t116 20.5zM310 83q39 0 73 13t59.5 35.5t40 52.5t14.5 65q0 34 -14.5 64.5t-40 53
t-59.5 35.5t-73 13t-73 -13t-59.5 -35.5t-40 -53t-14.5 -64.5q0 -35 14.5 -65t40 -52.5t59.5 -35.5t73 -13zM301 668h103l-53 -125h-90z" />
    <glyph glyph-name="odieresis" unicode="&#xf6;" horiz-adv-x="620" 
d="M310 512q61 0 115.5 -20.5t94.5 -56.5t63.5 -84t23.5 -102t-23.5 -102t-63.5 -84t-94.5 -56.5t-115.5 -20.5q-62 0 -116 20.5t-94 56.5t-63.5 84t-23.5 102t23.5 102t63.5 84t94 56.5t116 20.5zM310 83q39 0 73 13t59.5 35.5t40 52.5t14.5 65q0 34 -14.5 64.5t-40 53
t-59.5 35.5t-73 13t-73 -13t-59.5 -35.5t-40 -53t-14.5 -64.5q0 -35 14.5 -65t40 -52.5t59.5 -35.5t73 -13zM109 554v111h111v-111h-111zM400 554v111h111v-111h-111z" />
    <glyph glyph-name="uacute" unicode="&#xfa;" horiz-adv-x="593" 
d="M558 499v-499h-111v7q0 24 9 45l25 56l-13 6l-20 -44q-17 -39 -56 -56q-62 -28 -133 -28q-49 0 -91.5 18.5t-74.5 50.5t-50.5 75t-18.5 92v276h111v-277q0 -29 10 -54t27 -43.5t39.5 -29.5t48.5 -11q39 0 73 13t59.5 35.5t40 52.5t14.5 65v249zM280 668h103l-53 -125h-90
z" />
    <glyph glyph-name="udieresis" unicode="&#xfc;" horiz-adv-x="593" 
d="M558 499v-499h-111v7q0 24 9 45l25 56l-13 6l-20 -44q-17 -39 -56 -56q-62 -28 -133 -28q-49 0 -91.5 18.5t-74.5 50.5t-50.5 75t-18.5 92v276h111v-277q0 -29 10 -54t27 -43.5t39.5 -29.5t48.5 -11q39 0 73 13t59.5 35.5t40 52.5t14.5 65v249zM96 554v111h111v-111h-111
zM387 554v111h111v-111h-111z" />
    <glyph glyph-name="yacute" unicode="&#xfd;" horiz-adv-x="603" 
d="M608 499l-332 -666l-87 43l57 115l-253 508h108l180 -361q12 -23 12 -49v-19h15v19q0 26 12 49l180 361h108zM305 668h103l-53 -125h-90z" />
    <glyph glyph-name="Gbreve" unicode="&#x11e;" horiz-adv-x="772" 
d="M757 264v-263h-111v27q0 26 12 49l9 18l-13 7l-8 -15q-15 -31 -45 -48q-45 -25 -96 -38.5t-108 -13.5q-80 0 -151 27t-123.5 74t-83 110t-30.5 135t30.5 135t83 110t123.5 74t151 27q101 0 185 -41.5t137 -110.5h-147q-36 26 -80.5 41t-94.5 15q-57 0 -107.5 -19.5
t-88 -53.5t-59.5 -79.5t-22 -97.5t22 -97.5t59.5 -79.5t88 -53.5t107.5 -19.5q62 0 115.5 22.5t91.5 60.5h-123v97zM387 792q17 0 26.5 11.5t9.5 28.5h70q0 -22 -8.5 -41t-23 -33t-34 -22t-41.5 -7q-22 -1 -41.5 7t-34 22t-23 33t-8.5 41h70q0 -17 9.5 -28.5t28.5 -11.5v0z
" />
    <glyph glyph-name="gbreve" unicode="&#x11f;" horiz-adv-x="642" 
d="M606 498v-416q0 -54 -23.5 -102t-63.5 -84t-94.5 -56.5t-115.5 -20.5h-173v97h173q39 0 73 13t59.5 35.5t40 52.5t14.5 65v166q0 34 -14.5 64.5t-40 53t-59.5 35.5t-73 13t-73 -13t-59.5 -35.5t-40 -53t-14.5 -64.5q0 -35 10 -65t27 -52.5t39.5 -35.5t48.5 -13t48.5 11
t39.5 29.5t27 43.5t10 54h111q0 -49 -18.5 -91.5t-50.5 -74.5t-74.5 -50.5t-91.5 -18.5t-91.5 20.5t-74.5 56.5t-50.5 84t-18.5 102t23.5 102t63.5 84t94 56.5t116 20.5q35 0 68 -7t63 -20q40 -17 57 -56l20 -44l14 6l-25 56q-9 21 -9 45v7h108zM322 625q17 0 26.5 11.5
t9.5 28.5h70q0 -22 -8.5 -41t-23 -33t-34 -22t-41.5 -7q-22 -1 -41.5 7t-34 22t-23 33t-8.5 41h70q0 -17 9.5 -28.5t28.5 -11.5v0z" />
    <glyph glyph-name="Idotaccent" unicode="&#x130;" horiz-adv-x="185" 
d="M37 721v111h111v-111h-111zM37 0v665h111v-665h-111z" />
    <glyph glyph-name="dotlessi" unicode="&#x131;" horiz-adv-x="179" 
d="M34 0v499h111v-499h-111z" />
    <glyph glyph-name="Nacute" unicode="&#x143;" 
d="M549 664h111v-665h-111l-377 494q-11 16 -17 33l-15 45l-14 -5l15 -46q6 -17 6 -35v-485h-111v665h111l377 -494q11 -16 17 -33l15 -44l14 5l-15 46q-6 16 -6 35v484zM317 835h103l-53 -125h-90z" />
    <glyph glyph-name="nacute" unicode="&#x144;" horiz-adv-x="594" 
d="M332 509q49 0 91.5 -18.5t74.5 -50.5t50.5 -75t18.5 -92v-276h-111v277q0 29 -10 54.5t-27 44t-39.5 29.5t-48.5 11q-39 0 -73 -13t-59.5 -35.5t-40 -53t-14.5 -64.5v-249h-111v499h111v-7q0 -23 -9 -44l-25 -56l14 -6l20 44q17 39 56 56q62 28 133 28zM265 668h103
l-53 -125h-90z" />
    <glyph glyph-name="Umacron" unicode="&#x16a;" horiz-adv-x="640" 
d="M611 665v-429q0 -52 -23 -97.5t-62.5 -79.5t-92.5 -53.5t-113 -19.5t-113 19.5t-92.5 53.5t-62.5 79.5t-23 97.5v429h111v-429q0 -32 14 -59.5t38.5 -48t57.5 -32.5t70 -12t70 12t57.5 32.5t38.5 48t14 59.5v429h111zM223 749v83h194v-83h-194z" />
    <glyph glyph-name="umacron" unicode="&#x16b;" horiz-adv-x="593" 
d="M558 499v-499h-111v7q0 24 9 45l25 56l-13 6l-20 -44q-17 -39 -56 -56q-62 -28 -133 -28q-49 0 -91.5 18.5t-74.5 50.5t-50.5 75t-18.5 92v276h111v-277q0 -29 10 -54t27 -43.5t39.5 -29.5t48.5 -11q39 0 73 13t59.5 35.5t40 52.5t14.5 65v249zM199 582v83h194v-83h-194z
" />
    <glyph glyph-name="uni01F4" unicode="&#x1f4;" horiz-adv-x="772" 
d="M757 264v-263h-111v27q0 26 12 49l9 18l-13 7l-8 -15q-15 -31 -45 -48q-45 -25 -96 -38.5t-108 -13.5q-80 0 -151 27t-123.5 74t-83 110t-30.5 135t30.5 135t83 110t123.5 74t151 27q101 0 185 -41.5t137 -110.5h-147q-36 26 -80.5 41t-94.5 15q-57 0 -107.5 -19.5
t-88 -53.5t-59.5 -79.5t-22 -97.5t22 -97.5t59.5 -79.5t88 -53.5t107.5 -19.5q62 0 115.5 22.5t91.5 60.5h-123v97zM354 835h103l-53 -125h-90z" />
    <glyph glyph-name="uni01F5" unicode="&#x1f5;" horiz-adv-x="642" 
d="M606 498v-416q0 -54 -23.5 -102t-63.5 -84t-94.5 -56.5t-115.5 -20.5h-173v97h173q39 0 73 13t59.5 35.5t40 52.5t14.5 65v166q0 34 -14.5 64.5t-40 53t-59.5 35.5t-73 13t-73 -13t-59.5 -35.5t-40 -53t-14.5 -64.5q0 -35 10 -65t27 -52.5t39.5 -35.5t48.5 -13t48.5 11
t39.5 29.5t27 43.5t10 54h111q0 -49 -18.5 -91.5t-50.5 -74.5t-74.5 -50.5t-91.5 -18.5t-91.5 20.5t-74.5 56.5t-50.5 84t-18.5 102t23.5 102t63.5 84t94 56.5t116 20.5q35 0 68 -7t63 -20q40 -17 57 -56l20 -44l14 6l-25 56q-9 21 -9 45v7h108zM289 668h103l-53 -125h-90z
" />
    <glyph glyph-name="breve" unicode="&#x2d8;" horiz-adv-x="393" 
d="M196 625q17 0 26.5 11.5t9.5 28.5h70q0 -22 -8.5 -41t-23 -33t-34 -22t-41.5 -7q-22 -1 -41.5 7t-34 22t-23 33t-8.5 41h70q0 -17 9.5 -28.5t28.5 -11.5v0z" />
    <glyph glyph-name="tilde" unicode="&#x2dc;" horiz-adv-x="478" 
d="M190 601q-13 0 -22.5 -11.5t-9.5 -28.5h-70q0 22 8.5 41t23 33t34 22t41.5 7q20 0 38 -9q16 -7 27 -18.5t23 -11.5q13 0 22.5 11.5t9.5 28.5h72v-6q-1 -20 -9 -37.5t-21.5 -30.5t-31 -21t-37.5 -8t-32 6t-21.5 13.5t-19.5 13.5t-25 6z" />
    <glyph glyph-name="Iocyrillic" unicode="&#x401;" horiz-adv-x="528" 
d="M148 568v-111h249v-97h-249v-263h374v-97h-485v665h485v-97h-374zM79 720v111h111v-111h-111zM370 720v111h111v-111h-111z" />
    <glyph glyph-name="uni0406" unicode="&#x406;" horiz-adv-x="185" 
d="M37 0v665h111v-665h-111z" />
    <glyph glyph-name="Acyrillic" unicode="&#x410;" horiz-adv-x="688" 
d="M694 -1h-120l-51 125h-360l-51 -125h-120l274 665h155zM483 221l-124 301q-8 21 -8 41v32h-15v-28q0 -23 -9 -44l-125 -302h281z" />
    <glyph glyph-name="Becyrillic" unicode="&#x411;" horiz-adv-x="640" 
d="M396 455q49 0 91.5 -18.5t74.5 -50.5t50.5 -74.5t18.5 -91.5t-18.5 -91.5t-50.5 -74.5t-74.5 -50.5t-91.5 -18.5t-91.5 18.5t-74.5 50.5t-50.5 74.5t-18.5 91.5h111q0 -29 10 -54t27 -43.5t39.5 -29.5t48.5 -11t48.5 11t39.5 29.5t27 44t10 54.5t-10 54.5t-27 44
t-39.5 29.5t-48.5 11h-249v-360h-111v665h485v-97h-374v-111h249z" />
    <glyph glyph-name="Vecyrillic" unicode="&#x412;" horiz-adv-x="639" 
d="M521 421q53 -32 84 -88t28 -123q-2 -45 -20 -85t-48.5 -70.5t-70.5 -49t-85 -20.5q-51 -2 -95.5 15.5t-78 50t-53 76.5t-19.5 94h111q0 -29 10 -54t27 -43.5t39.5 -29.5t48.5 -11t48.5 11t39.5 29.5t27 44t10 54.5t-10 54.5t-27 44t-39.5 29.5t-48.5 11h-249v-360h-111
v665h305q37 0 70 -12t57.5 -32.5t38.5 -48.5t14 -59q0 -26 -11 -51q-8 -19 -29 -22l-18 -3l2 -15l28 5q14 2 25 -6v-1zM342 455q29 0 49 16.5t20 39.5t-20 39.5t-49 16.5h-194v-111h194v-1z" />
    <glyph glyph-name="Gecyrillic" unicode="&#x413;" horiz-adv-x="515" 
d="M522 664v-97h-374v-568h-111v665h485z" />
    <glyph glyph-name="Decyrillic" unicode="&#x414;" horiz-adv-x="722" 
d="M717 97l-14 -166h-97v45q0 11 6 20l28 41l-12 8l-19 -29q-11 -16 -31 -16h-441q-20 0 -31 16l-19 29l-12 -8l28 -41q6 -9 6 -20v-45h-97l-14 152h28q23 0 39.5 12.5t16.5 29.5l14 540h540v-568h81zM523 581h-321l-12 -457q0 -14 -3 -27h336v484z" />
    <glyph glyph-name="Iecyrillic" unicode="&#x415;" horiz-adv-x="528" 
d="M148 568v-111h249v-97h-249v-263h374v-97h-485v665h485v-97h-374z" />
    <glyph glyph-name="Zhecyrillic" unicode="&#x416;" horiz-adv-x="837" 
d="M845 -1h-119l-196 277h-54v-277h-111v277h-54l-196 -277h-119l223 315q12 17 32 10l5 14l-17 6q-8 3 -15 11l-219 309h119l196 -277h44v277h111v-277h44l196 277h119l-219 -309q-7 -8 -15 -11l-17 -6l5 -14q20 7 32 -10z" />
    <glyph glyph-name="Zecyrillic" unicode="&#x417;" horiz-adv-x="583" 
d="M482 368q42 -30 65.5 -70.5t23.5 -87.5q0 -46 -23.5 -86t-63.5 -70t-94.5 -47.5t-115.5 -17.5q-47 0 -89.5 10t-78.5 28.5t-64 44t-44 55.5h137q26 -19 61.5 -30t77.5 -11q39 0 73 10t59.5 27t40 39.5t14.5 48.5q0 25 -14 47.5t-38.5 39t-57.5 26.5t-70 11h-83v97h83
q27 1 51 7t42 16.5t28 24t10 28.5q0 16 -11 29.5t-29.5 24t-44 16.5t-53.5 6q-41 0 -74 -11.5t-50 -30.5h-121q9 30 31 55t54.5 43.5t73.5 29t86 10.5q52 0 97.5 -13.5t79.5 -37.5t53.5 -55.5t19.5 -67.5q0 -32 -15.5 -60t-42.5 -51q-7 -7 -19 -9l-28 -5l2 -15l34 6
q16 3 28 -6z" />
    <glyph glyph-name="Iicyrillic" unicode="&#x418;" 
d="M660 663v-665h-111v485q0 18 6 35l15 46l-14 5l-15 -44q-6 -17 -17 -33l-377 -494h-111v665h111v-485q0 -19 -6 -35l-15 -46l14 -5l15 45q6 17 17 33l377 494z" />
    <glyph glyph-name="Iishortcyrillic" unicode="&#x419;" 
d="M245 720v83h208v-83h-208zM661 664v-665h-111v485q0 18 6 35l15 46l-14 5l-15 -44q-6 -17 -17 -33l-377 -494h-111v665h111v-485q0 -19 -6 -35l-15 -46l14 -5l15 45q6 17 17 33l377 494z" />
    <glyph glyph-name="Kacyrillic" unicode="&#x41a;" horiz-adv-x="596" 
d="M605 -3h-132l-292 319l-33 -28v-291h-111v665h111v-201q0 -20 -8 -41l-13 -32l14 -5l6 16q11 26 32 44l260 221h150l-334 -283z" />
    <glyph glyph-name="Elcyrillic" unicode="&#x41b;" horiz-adv-x="642" 
d="M604 663v-665h-111v568h-319v-443q0 -29 -13 -54t-35.5 -43.5t-53 -29.5t-64.5 -11v97q23 0 39.5 12.5t16.5 29.5v540z" />
    <glyph glyph-name="Emcyrillic" unicode="&#x41c;" horiz-adv-x="795" 
d="M757 663v-665h-111v520q0 20 8 41l13 32l-14 5l-12 -29l-6 -12l-178 -321h-122l-175 316l-6 12l-14 34l-14 -5l13 -32q8 -21 8 -41v-520h-111v665h172l167 -302q14 -25 14 -53v-18h15v20q0 28 14 53l167 301z" />
    <glyph glyph-name="Encyrillic" unicode="&#x41d;" 
d="M660 664v-665h-111v360h-402v-360h-111v665h111v-208h402v208h111z" />
    <glyph glyph-name="Ocyrillic" unicode="&#x41e;" horiz-adv-x="796" 
d="M398 678q80 0 151 -27t123.5 -74t83 -110t30.5 -135t-30.5 -135t-83 -110t-123.5 -74t-151 -27t-151 27t-123.5 74t-83 110t-30.5 135t30.5 135t83 110t123.5 74t151 27zM398 82q57 0 107.5 19.5t88 53.5t59.5 79.5t22 97.5t-22 97.5t-59.5 79.5t-88 53.5t-107.5 19.5
t-107.5 -19.5t-88 -53.5t-59.5 -79.5t-22 -97.5t22 -97.5t59.5 -79.5t88 -53.5t107.5 -19.5z" />
    <glyph glyph-name="Pecyrillic" unicode="&#x41f;" 
d="M661 664v-665h-111v568h-402v-568h-111v665h624z" />
    <glyph glyph-name="Ercyrillic" unicode="&#x420;" horiz-adv-x="639" 
d="M396 662q49 0 91.5 -18.5t74.5 -50.5t50.5 -74.5t18.5 -91.5t-18.5 -91.5t-50.5 -74.5t-74.5 -50.5t-91.5 -18.5t-91.5 18.5t-74.5 50.5t-50.5 74.5t-18.5 91.5h111q0 -29 10 -54t27 -43.5t39.5 -29.5t48.5 -11t48.5 11t39.5 29.5t27 44t10 54.5t-10 54.5t-27 44
t-39.5 29.5t-48.5 11h-249v-568h-111v665h360z" />
    <glyph glyph-name="Escyrillic" unicode="&#x421;" horiz-adv-x="720" 
d="M398 83q50 0 94.5 15t80.5 41h147q-53 -69 -137 -110.5t-185 -41.5q-80 0 -151 27t-123.5 74t-83 110t-30.5 135t30.5 135t83 110t123.5 74t151 27q101 0 185 -41.5t137 -110.5h-147q-36 26 -80.5 41t-94.5 15q-57 0 -107.5 -19.5t-88 -53.5t-59.5 -79.5t-22 -97.5
t22 -97.5t59.5 -79.5t88 -53.5t107.5 -19.5z" />
    <glyph glyph-name="Tecyrillic" unicode="&#x422;" horiz-adv-x="568" 
d="M574 664v-97h-235v-568h-111v568h-235v97h581z" />
    <glyph glyph-name="Ucyrillic" unicode="&#x423;" horiz-adv-x="612" 
d="M621 664l-331 -665h-108l69 139l-262 526h108l189 -379q12 -23 12 -49v-19h15v19q0 26 12 49l189 379h107z" />
    <glyph glyph-name="Efcyrillic" unicode="&#x424;" horiz-adv-x="733" 
d="M428 609q61 0 115.5 -20.5t94.5 -56.5t63.5 -84t23.5 -102t-23.5 -102t-63.5 -84t-94.5 -56.5t-115.5 -20.5h-6v-83h-111v83h-6q-62 0 -116 20.5t-94 56.5t-63.5 84t-23.5 102t23.5 102t63.5 84t94 56.5t116 20.5h6v56h111v-56h6zM310 512h-6q-39 0 -73 -13t-59.5 -35.5
t-40 -53t-14.5 -64.5q0 -35 14.5 -65t40 -52.5t59.5 -35.5t73 -13h6v332zM428 180q39 0 73 13t59.5 35.5t40 52.5t14.5 65q0 34 -14.5 64.5t-40 53t-59.5 35.5t-73 13h-6v-332h6z" />
    <glyph glyph-name="Khacyrillic" unicode="&#x425;" horiz-adv-x="579" 
d="M583 0h-119l-148 209q-20 29 -20 64v4h-15v-4q0 -35 -20 -64l-148 -209h-119l241 339l-231 326h119l139 -196q20 -29 20 -64v-4h15v4q0 35 20 64l139 196h119l-231 -326z" />
    <glyph glyph-name="Tsecyrillic" unicode="&#x426;" horiz-adv-x="715" 
d="M699 99l-14 -166h-97v37q0 18 11 34l24 35l-12 8l-12 -18q-8 -13 -21.5 -20t-28.5 -7h-513v665h111v-568h402v568h111v-568h39z" />
    <glyph glyph-name="Checyrillic" unicode="&#x427;" horiz-adv-x="634" 
d="M597 651v-651h-111v152h-235q-49 0 -91.5 18.5t-74.5 50.5t-50.5 74.5t-18.5 91.5v263h111v-263q0 -29 10 -54t27 -43.5t39.5 -29.5t48.5 -11h235v402h110z" />
    <glyph glyph-name="Shacyrillic" unicode="&#x428;" horiz-adv-x="850" 
d="M812 665v-665h-776v665h111v-568h222v471h111v-471h222v568h110z" />
    <glyph glyph-name="Shchacyrillic" unicode="&#x429;" horiz-adv-x="869" 
d="M851 112l-14 -180h-97v37q0 18 11 34l24 35l-12 8l-12 -18q-8 -13 -21.5 -20t-28.5 -7h-665v665h111v-568h222v471h111v-471h222v568h111v-554h38z" />
    <glyph glyph-name="Hardsigncyrillic" unicode="&#x42a;" horiz-adv-x="667" 
d="M424 455q49 0 91.5 -18.5t74.5 -50.5t50.5 -74.5t18.5 -91.5t-18.5 -91.5t-50.5 -74.5t-74.5 -50.5t-91.5 -18.5t-91.5 18.5t-74.5 50.5t-50.5 74.5t-18.5 91.5h111q0 -29 10 -54t27 -43.5t39.5 -29.5t48.5 -11t48.5 11t39.5 29.5t27 44t10 54.5t-10 54.5t-27 44
t-39.5 29.5t-48.5 11h-249v-360h-111v568h-55v97h166v-208h249z" />
    <glyph glyph-name="Yericyrillic" unicode="&#x42b;" horiz-adv-x="836" 
d="M688 0v665h111v-665h-111zM396 455q49 0 91.5 -18.5t74.5 -50.5t50.5 -74.5t18.5 -91.5t-18.5 -91.5t-50.5 -74.5t-74.5 -50.5t-91.5 -18.5t-91.5 18.5t-74.5 50.5t-50.5 74.5t-18.5 91.5h111q0 -29 10 -54t27 -43.5t39.5 -29.5t48.5 -11t48.5 11t39.5 29.5t27 44
t10 54.5t-10 54.5t-27 44t-39.5 29.5t-48.5 11h-249v-360h-111v665h111v-208h249z" />
    <glyph glyph-name="Softsigncyrillic" unicode="&#x42c;" horiz-adv-x="639" 
d="M396 455q49 0 91.5 -18.5t74.5 -50.5t50.5 -74.5t18.5 -91.5t-18.5 -91.5t-50.5 -74.5t-74.5 -50.5t-91.5 -18.5t-91.5 18.5t-74.5 50.5t-50.5 74.5t-18.5 91.5h111q0 -29 10 -54t27 -43.5t39.5 -29.5t48.5 -11t48.5 11t39.5 29.5t27 44t10 54.5t-10 54.5t-27 44
t-39.5 29.5t-48.5 11h-249v-360h-111v665h111v-208h249z" />
    <glyph glyph-name="Ereversedcyrillic" unicode="&#x42d;" horiz-adv-x="720" 
d="M321 680q80 0 151 -27t123.5 -74t83 -110t30.5 -135t-30.5 -135t-83 -110t-123.5 -74t-151 -27q-101 0 -185 41.5t-137 110.5h147q36 -26 80.5 -41t94.5 -15q47 0 90 13.5t78 37.5t60.5 57t37.5 72q3 10 9 17l22 34l-12 8q-21 -32 -59 -32h-295v83h342q-8 44 -32.5 82
t-61 66t-82.5 44t-97 16q-50 0 -94.5 -15t-80.5 -41h-147q53 69 137 110.5t185 41.5v2z" />
    <glyph glyph-name="IUcyrillic" unicode="&#x42e;" horiz-adv-x="840" 
d="M522 677q63 0 118.5 -27t96.5 -74t65 -110t24 -135t-24 -135t-65 -110t-96.5 -74t-118.5 -27q-58 0 -109.5 23t-91.5 63t-66.5 94.5t-34.5 117.5h-72v-284h-111v665h111v-284h72q8 63 34.5 117.5t66.5 94.5t91.5 63t109.5 23v-1zM522 81q40 0 75.5 19.5t61.5 53.5
t41.5 79.5t15.5 97.5t-15.5 97.5t-41.5 79.5t-61.5 53.5t-75.5 19.5t-75.5 -19.5t-61.5 -53.5t-41.5 -79.5t-15.5 -97.5t15.5 -97.5t41.5 -79.5t61.5 -53.5t75.5 -19.5z" />
    <glyph glyph-name="IAcyrillic" unicode="&#x42f;" horiz-adv-x="647" 
d="M609 665v-665h-111v194h-225q-8 -41 -28.5 -76.5t-51.5 -61.5t-70 -41t-82 -15v97q23 0 43.5 8.5t37 24t27.5 36t15 44.5q-33 13 -60.5 34.5t-47.5 50t-31 62.5t-11 72q0 49 18.5 91.5t50.5 74.5t74.5 50.5t91.5 18.5zM498 567h-249q-26 0 -48.5 -11t-39.5 -29.5t-27 -44
t-10 -53.5q0 -29 10 -54t27 -43.5t39.5 -29.5t48.5 -11h249v276z" />
    <glyph glyph-name="acyrillic" unicode="&#x430;" horiz-adv-x="635" 
d="M605 499v-499h-111v249q0 34 -14.5 64.5t-40 53t-59.5 35.5t-73 13t-73 -13t-59.5 -35.5t-40 -53t-14.5 -64.5q0 -35 10 -65t27 -52.5t39.5 -35.5t48.5 -13t48.5 11t39.5 29.5t27 43.5t10 54h111q0 -49 -18.5 -91.5t-50.5 -74.5t-74.5 -50.5t-91.5 -18.5t-91.5 20.5
t-74.5 56.5t-50.5 84t-18.5 102t23.5 102t63.5 84t94 56.5t116 20.5q35 0 68 -7t63 -20q40 -17 57 -56l20 -44l14 6l-25 56q-9 21 -9 45v7h109z" />
    <glyph glyph-name="becyrillic" unicode="&#x431;" horiz-adv-x="495" 
d="M262 302q49 0 89.5 -12t70 -32.5t46 -48t16.5 -58.5t-16.5 -58.5t-46 -48t-70 -32.5t-89.5 -12h-235v499h402v-92h-291v-105h125h-1zM262 92q54 0 82.5 17t28.5 42t-28.5 42t-82.5 17h-125v-118h125z" />
    <glyph glyph-name="vecyrillic" unicode="&#x432;" horiz-adv-x="513" 
d="M404 242q27 5 51 -8t35 -39q9 -21 9 -44q0 -31 -16.5 -58.5t-46 -48t-70 -32.5t-89.5 -12h-249v499h249q46 0 84.5 -11.5t66 -31t42.5 -46t15 -56.5q0 -31 -17 -59q-19 -30 -54 -36l-13 -2l2 -15h1zM140 298h139q49 0 73 17t24 39t-24 36.5t-73 14.5h-139v-107zM279 88
q54 0 82.5 19t28.5 44t-28.5 44t-82.5 19h-139v-126h139z" />
    <glyph glyph-name="gecyrillic" unicode="&#x433;" horiz-adv-x="399" 
d="M402 499v-83h-263v-416h-111v499h374z" />
    <glyph glyph-name="decyrillic" unicode="&#x434;" horiz-adv-x="628" 
d="M624 98l-14 -166h-97v45q0 11 6 20l28 42l-12 8l-20 -30q-11 -16 -30 -16h-346q-19 0 -30 16l-20 30l-12 -8l28 -42q6 -9 6 -20v-45h-97l-14 152h28q23 0 39.5 12.5t16.5 29.5l14 374h443v-402h83zM430 416h-222l-14 -291q0 -14 -3 -27h239v318z" />
    <glyph glyph-name="iecyrillic" unicode="&#x435;" horiz-adv-x="617" 
d="M607 251q0 -21 -3 -42h-475q8 -27 25 -50t41 -39.5t53 -26t62 -9.5q42 0 77.5 14.5t61.5 40.5h131q-18 -34 -45.5 -62t-62.5 -48t-76 -31t-86 -11q-62 0 -116 20.5t-94 56.5t-63.5 84t-23.5 102t23.5 102t63.5 84t94 56.5t116 20.5q55 0 105 -17t89 -47t65 -70.5
t35 -87.5q3 -21 3 -42v2zM492 294q-8 27 -25 50t-41 39.5t-53 26t-62 9.5q-62 0 -109.5 -31t-67.5 -80q-5 -13 -12 -23l-19 -29l12 -8l19 29q11 16 31 16z" />
    <glyph glyph-name="zhecyrillic" unicode="&#x436;" horiz-adv-x="729" 
d="M732 0h-119l-138 194h-54v-194h-111v194h-54l-138 -194h-119l164 232q12 17 32 10l5 14l-17 6q-8 3 -15 11l-160 226h119l138 -194h44v194h111v-194h44l138 194h119l-160 -226q-7 -8 -15 -11l-17 -6l5 -14q20 7 32 -10z" />
    <glyph glyph-name="zecyrillic" unicode="&#x437;" horiz-adv-x="517" 
d="M484 213q23 -31 23 -67q0 -33 -19.5 -62t-53.5 -50.5t-79.5 -34t-97.5 -12.5q-48 0 -90.5 10.5t-75.5 29t-54.5 44t-27.5 54.5h117q14 -18 49.5 -29.5t80.5 -11.5q29 0 54.5 5t44 13.5t29.5 19.5t11 24q0 12 -9.5 23t-26.5 19t-40 13.5t-49 6.5h-69v97h69q47 2 78.5 17.5
t31.5 37.5q0 12 -10 22t-27 17.5t-39.5 12t-48.5 4.5q-35 0 -63 -7.5t-45 -20.5h-124q7 27 28 49.5t52 39.5t69.5 26.5t81.5 9.5q49 0 91.5 -12t74.5 -32.5t50.5 -48.5t18.5 -59q0 -39 -28 -73q-19 -23 -48 -28l-22 -4l2 -15l9 2q23 4 43.5 -4.5t34.5 -26.5z" />
    <glyph glyph-name="iicyrillic" unicode="&#x438;" horiz-adv-x="583" 
d="M555 499v-499h-111v319q0 18 6 35l15 46l-14 5l-13 -39q-6 -19 -20 -36l-278 -329h-111v499h111v-319q0 -19 -6 -35l-15 -46l14 -5l13 39q6 19 20 36l278 329h111z" />
    <glyph glyph-name="iishortcyrillic" unicode="&#x439;" horiz-adv-x="579" 
d="M192 582v83h194v-83h-194zM552 499v-499h-111v319q0 18 6 35l15 46l-14 5l-13 -39q-6 -19 -20 -36l-278 -329h-111v499h111v-319q0 -19 -6 -35l-15 -46l14 -5l13 39q6 19 20 36l278 329h111z" />
    <glyph glyph-name="kacyrillic" unicode="&#x43a;" horiz-adv-x="516" 
d="M520 -1h-132l-217 236l-33 -28v-208h-111v499h111v-118q0 -24 -9 -45l-25 -56l14 -6l20 46q11 24 30 40l165 139h150l-237 -200z" />
    <glyph glyph-name="elcyrillic" unicode="&#x43b;" horiz-adv-x="549" 
d="M519 498v-499h-111v416h-235v-291q0 -29 -13 -54t-35.5 -43.5t-53 -29.5t-64.5 -11v97q23 0 39.5 12.5t16.5 29.5v374z" />
    <glyph glyph-name="emcyrillic" unicode="&#x43c;" horiz-adv-x="721" 
d="M694 498v-499h-111v340q0 20 8 41l13 32l-14 5l-18 -46l-6 -12l-146 -263h-120l-140 252l-28 69l-14 -5l13 -32q8 -21 8 -41v-340h-111v499h159l152 -274q14 -25 14 -53v-18h15v24q0 28 14 53l149 269z" />
    <glyph glyph-name="encyrillic" unicode="&#x43d;" horiz-adv-x="583" 
d="M555 499v-499h-111v208h-305v-208h-111v499h111v-208h305v208h111z" />
    <glyph glyph-name="ocyrillic" unicode="&#x43e;" horiz-adv-x="618" 
d="M309 512q61 0 115.5 -20.5t94.5 -56.5t63.5 -84t23.5 -102t-23.5 -102t-63.5 -84t-94.5 -56.5t-115.5 -20.5q-62 0 -116 20.5t-94 56.5t-63.5 84t-23.5 102t23.5 102t63.5 84t94 56.5t116 20.5zM309 83q39 0 73 13t59.5 35.5t40 52.5t14.5 65q0 34 -14.5 64.5t-40 53
t-59.5 35.5t-73 13t-73 -13t-59.5 -35.5t-40 -53t-14.5 -64.5q0 -35 14.5 -65t40 -52.5t59.5 -35.5t73 -13z" />
    <glyph glyph-name="pecyrillic" unicode="&#x43f;" horiz-adv-x="583" 
d="M555 499v-499h-111v380q0 23 12 41l21 32l-12 8l-19 -29q-11 -16 -31 -16h-276v-416h-111v499h527z" />
    <glyph glyph-name="ercyrillic" unicode="&#x440;" horiz-adv-x="636" 
d="M323 511q61 0 115.5 -20.5t94.5 -56.5t63.5 -84t23.5 -102t-18.5 -102t-50.5 -84t-74.5 -56.5t-91.5 -20.5t-91.5 18.5t-74.5 50.5t-50.5 74.5t-18.5 91.5h111q0 -29 10 -54t27 -43.5t39.5 -29.5t48.5 -11t48.5 13t39.5 35.5t27 52.5t10 65q0 34 -14.5 64.5t-40 53
t-59.5 35.5t-73 13t-73 -13t-59.5 -35.5t-40 -53t-14.5 -64.5v-416h-111v665h111v-7q0 -23 -9 -44l-25 -56l14 -6l20 44q17 39 57 56q30 13 63.5 20t68.5 7h-3z" />
    <glyph glyph-name="escyrillic" unicode="&#x441;" horiz-adv-x="585" 
d="M309 83q42 0 77.5 14.5t61.5 40.5h131q-18 -34 -45.5 -62t-62.5 -48t-76 -31t-86 -11q-62 0 -116 20.5t-94 56.5t-63.5 84t-23.5 102t23.5 102t63.5 84t94 56.5t116 20.5q45 0 86 -11t76 -31t62.5 -48t45.5 -62h-131q-26 26 -61.5 40.5t-77.5 14.5q-39 0 -73 -13
t-59.5 -35.5t-40 -53t-14.5 -64.5q0 -35 14.5 -65t40 -52.5t59.5 -35.5t73 -13z" />
    <glyph glyph-name="tecyrillic" unicode="&#x442;" horiz-adv-x="521" 
d="M524 499v-83h-208v-416h-111v416h-208v83h527z" />
    <glyph glyph-name="ucyrillic" unicode="&#x443;" horiz-adv-x="601" 
d="M607 500l-332 -666l-87 43l57 115l-253 508h108l180 -361q12 -23 12 -49v-19h15v19q0 26 12 49l180 361h108z" />
    <glyph glyph-name="efcyrillic" unicode="&#x444;" horiz-adv-x="719" 
d="M415 512q61 0 115.5 -20.5t94.5 -56.5t63.5 -84t23.5 -102t-23.5 -102t-63.5 -84t-94.5 -56.5t-115.5 -20.5v-152h-111v152q-62 0 -116 20.5t-94 56.5t-63.5 84t-23.5 102t23.5 102t63.5 84t94 56.5t116 20.5v152h111v-152zM304 415q-39 0 -73 -13t-59.5 -35.5t-40 -53
t-14.5 -64.5q0 -35 14.5 -65t40 -52.5t59.5 -35.5t73 -13v332zM415 83q39 0 73 13t59.5 35.5t40 52.5t14.5 65q0 34 -14.5 64.5t-40 53t-59.5 35.5t-73 13v-332z" />
    <glyph glyph-name="khacyrillic" unicode="&#x445;" horiz-adv-x="471" 
d="M472 0h-119l-90 126q-20 29 -20 64v4h-15v-4q0 -35 -20 -64l-90 -126h-119l182 256l-172 242h119l80 -112q20 -29 20 -64v-4h15v4q0 35 20 64l80 112h119l-172 -242z" />
    <glyph glyph-name="tsecyrillic" unicode="&#x446;" horiz-adv-x="606" 
d="M551 84h42l-14 -152h-97v37q0 18 11 34l24 35l-12 8l-12 -18q-8 -13 -21.5 -20t-28.5 -7h-416v499h111v-416h305v416h111z" />
    <glyph glyph-name="checyrillic" unicode="&#x447;" horiz-adv-x="528" 
d="M499 499v-499h-111v125h-208q-35 0 -65 11t-52.5 29.5t-35.5 44t-13 54.5v235h111v-235q0 -17 16.5 -29.5t39.5 -12.5h208v277h110z" />
    <glyph glyph-name="shacyrillic" unicode="&#x448;" horiz-adv-x="721" 
d="M693 499v-499h-665v499h111v-416h166v402h111v-402h166v416h111z" />
    <glyph glyph-name="shchacyrillic" unicode="&#x449;" horiz-adv-x="745" 
d="M732 84l-14 -152h-97v37q0 18 11 34l24 35l-12 8l-12 -18q-8 -13 -21.5 -20t-28.5 -7h-554v499h111v-416h166v402h111v-402h166v416h111v-416h39z" />
    <glyph glyph-name="hardsigncyrillic" unicode="&#x44a;" horiz-adv-x="536" 
d="M309 301q49 0 89.5 -12t70 -32.5t46 -48t16.5 -58.5t-16.5 -58.5t-46 -48t-70 -32.5t-89.5 -12h-235v407h-69v92h180v-196h125zM309 91q54 0 82.5 17t28.5 42t-28.5 42t-82.5 17h-125v-118h125z" />
    <glyph glyph-name="yericyrillic" unicode="&#x44b;" horiz-adv-x="711" 
d="M572 0v499h111v-499h-111zM263 301q49 0 89.5 -12t70 -32.5t46 -48t16.5 -58.5t-16.5 -58.5t-46 -48t-70 -32.5t-89.5 -12h-235v499h111v-196h125zM263 91q54 0 82.5 17t28.5 42t-28.5 42t-82.5 17h-125v-118h125z" />
    <glyph glyph-name="softsigncyrillic" unicode="&#x44c;" horiz-adv-x="490" 
d="M262 301q49 0 89.5 -12t70 -32.5t46 -48t16.5 -58.5t-16.5 -58.5t-46 -48t-70 -32.5t-89.5 -12h-235v499h111v-196h125zM262 91q54 0 82.5 17t28.5 42t-28.5 42t-82.5 17h-125v-118h125z" />
    <glyph glyph-name="ereversedcyrillic" unicode="&#x44d;" horiz-adv-x="585" 
d="M274 510q61 0 115.5 -20.5t94.5 -56.5t63.5 -84t23.5 -102t-23.5 -102t-63.5 -84t-94.5 -56.5t-115.5 -20.5q-45 0 -86 11t-76 31t-62.5 48t-45.5 62h131q26 -26 61.5 -40.5t77.5 -14.5q62 0 109.5 31t67.5 80q5 13 12 23l19 29l-12 8l-19 -29q-11 -16 -31 -16h-248v83
h285q-8 27 -25 50t-41 39.5t-53 26t-62 9.5q-42 0 -77.5 -14.5t-61.5 -40.5h-131q18 34 45.5 62t62.5 48t76 31t86 11z" />
    <glyph glyph-name="iucyrillic" unicode="&#x44e;" horiz-adv-x="692" 
d="M444 511q49 0 91.5 -20.5t74.5 -56.5t50.5 -84t18.5 -102t-18.5 -102t-50.5 -84t-74.5 -56.5t-91.5 -20.5q-43 0 -81.5 16.5t-69.5 45.5t-52 68t-28 85h-73v-201h-111v499h111v-201h73q7 46 28 85t52 68t69.5 45.5t81.5 16.5v-1zM444 82q26 0 48.5 13t39.5 35.5t27 52.5
t10 65q0 34 -10 64.5t-27 53t-39.5 35.5t-48.5 13t-48.5 -13t-39.5 -35.5t-27 -53t-10 -64.5q0 -35 10 -65t27 -52.5t39.5 -35.5t48.5 -13z" />
    <glyph glyph-name="iacyrillic" unicode="&#x44f;" horiz-adv-x="540" 
d="M512 500v-499h-111v166h-173l-74 -166h-122l61 135q9 20 29 29l18 9l-7 13q-17 -9 -33.5 -3t-32.5 19q-14 10 -24 25.5t-17 33.5t-10.5 37t-3.5 37q0 37 15 67t42.5 51.5t66 33t84.5 11.5zM401 417h-181q-24 0 -42.5 -7.5t-30.5 -19.5t-18 -26.5t-6 -27.5q0 -14 6 -28.5
t18 -27.5t30.5 -21t42.5 -8h181v166z" />
    <glyph glyph-name="iocyrillic" unicode="&#x451;" horiz-adv-x="613" 
d="M106 554v111h111v-111h-111zM397 554v111h111v-111h-111zM605 251q0 -21 -3 -42h-475q8 -27 25 -50t41 -39.5t53 -26t62 -9.5q42 0 77.5 14.5t61.5 40.5h131q-18 -34 -45.5 -62t-62.5 -48t-76 -31t-86 -11q-62 0 -116 20.5t-94 56.5t-63.5 84t-23.5 102t23.5 102t63.5 84
t94 56.5t116 20.5q55 0 105 -17t89 -47t65 -70.5t35 -87.5q3 -21 3 -42v2zM490 294q-8 27 -25 50t-41 39.5t-53 26t-62 9.5q-62 0 -109.5 -31t-67.5 -80q-5 -13 -12 -23l-19 -29l12 -8l19 29q11 16 31 16z" />
    <glyph glyph-name="uni0456" unicode="&#x456;" horiz-adv-x="179" 
d="M34 0v499h111v-499h-111zM34 526v111h111v-111h-111z" />
    <glyph glyph-name="uni0492" unicode="&#x492;" horiz-adv-x="570" 
d="M577 664v-97h-374v-189h263v-97h-263v-282h-111v282h-69v97h69v286h485z" />
    <glyph glyph-name="uni0493" unicode="&#x493;" horiz-adv-x="413" 
d="M416 499v-83h-263v-106q0 -15 -11 -26l-22 -22l10 -10l22 22q11 11 26 11h125v-83h-150v-202h-111v202h-28v83h28v214h374z" />
    <glyph glyph-name="uni049A" unicode="&#x49a;" horiz-adv-x="639" 
d="M517 97h86l-14 -166h-87v37q0 18 11 34l24 35l-12 8l-12 -18q-8 -13 -20.5 -20t-19.5 -7l-292 319l-33 -28v-291h-111v665h111v-201q0 -20 -8 -41l-13 -32l14 -5l6 16q11 26 32 44l257 219h150l-331 -281z" />
    <glyph glyph-name="uni049B" unicode="&#x49b;" horiz-adv-x="524" 
d="M442 83h67l-14 -152h-81v37q0 18 11 34l24 35l-12 8l-12 -18q-8 -13 -19 -20t-19 -7l-216 235l-33 -28v-208h-111v499h111v-118q0 -24 -9 -45l-25 -56l14 -6l20 46q11 24 30 40l165 139h150l-237 -200z" />
    <glyph glyph-name="uni04A2" unicode="&#x4a2;" horiz-adv-x="714" 
d="M660 665v-568h39l-14 -166h-97v37q0 18 11 34l24 35l-12 8l-12 -18q-8 -13 -21.5 -20t-28.5 -7v360h-402v-360h-111v665h111v-208h402v208h111z" />
    <glyph glyph-name="uni04A3" unicode="&#x4a3;" horiz-adv-x="609" 
d="M555 499v-416h39l-14 -152h-97v37q0 18 11 34l24 35l-12 8l-12 -18q-8 -13 -21.5 -20t-28.5 -7v208h-305v-208h-111v499h111v-208h305v208h111z" />
    <glyph glyph-name="uni04AE" unicode="&#x4ae;" horiz-adv-x="610" 
d="M621 667l-261 -523v-144h-111v144l-261 523h108l189 -379q12 -23 12 -49v-19h15v19q0 26 12 49l189 379h108z" />
    <glyph glyph-name="uni04AF" unicode="&#x4af;" horiz-adv-x="603" 
d="M607 498l-251 -505v-159h-111v157l-252 507h108l180 -361q12 -23 12 -49v-19h15v19q0 26 12 49l180 361h107z" />
    <glyph glyph-name="uni04B0" unicode="&#x4b0;" horiz-adv-x="610" 
d="M621 667l-261 -523h108v-83h-108v-61h-111v61h-106v83h106l-261 523h108l189 -379q12 -23 12 -49v-19h15v19q0 26 12 49l189 379h108z" />
    <glyph glyph-name="uni04B1" unicode="&#x4b1;" horiz-adv-x="603" 
d="M607 498l-248 -498h108v-83h-111v-83h-111v83h-111v83h106l-247 498h108l180 -361q12 -23 12 -49v-19h15v19q0 26 12 49l180 361h107z" />
    <glyph glyph-name="uni04BA" unicode="&#x4ba;" horiz-adv-x="652" 
d="M36 0v665h111v-166h235q49 0 91.5 -18.5t74.5 -50.5t50.5 -74.5t18.5 -91.5v-263h-111v263q0 28 -10 53.5t-27 44t-39.5 29.5t-48.5 11h-235v-402h-110z" />
    <glyph glyph-name="uni04BB" unicode="&#x4bb;" horiz-adv-x="594" 
d="M332 509q49 0 91.5 -18.5t74.5 -50.5t50.5 -75t18.5 -92v-276h-111v277q0 29 -10 54.5t-27 44t-39.5 29.5t-48.5 11q-39 0 -73 -13t-59.5 -35.5t-40 -53t-14.5 -64.5v-249h-111v665h111v-173q0 -23 -9 -44l-25 -56l14 -6l20 44q17 39 56 56q62 28 133 28z" />
    <glyph glyph-name="uni04D8" unicode="&#x4d8;" horiz-adv-x="800" 
d="M401 680q80 0 151 -27t123.5 -74t83 -110t30.5 -135t-30.5 -135t-83 -110t-123.5 -74t-151 -27t-151 27t-123.5 74t-83 110t-30.5 135q0 20 3 40h658q-8 44 -32.5 82t-61 66t-82.5 44t-97 16q-50 0 -94.5 -15t-80.5 -41h-147q53 69 137 110.5t185 41.5v2zM401 84
q47 0 90 13.5t78 37.5t60.5 57t37.5 72q3 10 9 17l22 34l-12 8q-21 -32 -59 -32h-499q8 -44 32.5 -82t61 -66t82.5 -43.5t97 -15.5z" />
    <glyph glyph-name="uni04D9" unicode="&#x4d9;" horiz-adv-x="619" 
d="M14.0742 249.03q0 20.998 3 41.9951h474.941q-7.99902 26.9971 -24.9971 49.9941q-16.9971 22.9971 -40.9951 39.4951q-23.9961 16.498 -52.9932 25.9971q-28.9961 9.49805 -61.9922 9.49805q-41.9951 0 -77.4902 -14.498q-35.4961 -14.498 -61.4932 -40.4951h-130.983
q17.9971 33.9961 45.4941 61.9932q27.4971 27.9961 62.4922 47.9941q34.9961 19.9971 75.9912 30.9961q40.9941 10.998 85.9893 10.998q61.9922 0 115.985 -20.4971q53.9941 -20.4971 93.9893 -56.4932t63.4922 -83.9902t23.4971 -101.987t-23.4971 -101.987
t-63.4922 -83.9902q-39.9951 -35.9951 -93.9893 -56.4922q-53.9932 -20.498 -115.985 -20.498q-54.9932 0 -104.987 16.998t-88.9893 46.9941t-64.9922 70.4912t-34.9951 87.4893q-3 20.998 -3 41.9951v-2zM456.021 208.035h-325.96q7.99805 -26.9961 24.9961 -49.9932
t40.9951 -39.4951t52.9941 -25.9971q28.9961 -9.49902 61.9922 -9.49902q61.9922 0 109.986 31.4961t66.9922 80.4902q1.99902 5 4.49902 9.99902t5.5 9.99902l19.9971 28.9961l-11.999 7.99902l-18.9971 -28.9961q-10.999 -15.998 -30.9961 -15.998v0.999023z" />
    <glyph glyph-name="uni04E8" unicode="&#x4e8;" horiz-adv-x="796" 
d="M398 84q47 0 90 13.5t78 37.5t60.5 57t37.5 72q3 10 9 17l22 34l-12 8q-21 -32 -59 -32h-499q8 -44 32.5 -82t61 -66t82.5 -43.5t97 -15.5zM398 678q80 0 151 -27t123.5 -74t83 -110t30.5 -135t-30.5 -135t-83 -110t-123.5 -74t-151 -27t-151 27t-123.5 74t-83 110
t-30.5 135t30.5 135t83 110t123.5 74t151 27zM671 374q-8 44 -32.5 82t-61 66t-82.5 44t-97 16t-97 -16t-82.5 -44t-61 -66t-32.5 -82h546z" />
    <glyph glyph-name="uni04E9" unicode="&#x4e9;" horiz-adv-x="620" 
d="M456 208h-326q8 -27 25 -50t41 -39.5t53 -26t62 -9.5q62 0 110 31.5t67 80.5q2 5 4.5 10t5.5 10l20 29l-12 8l-19 -29q-11 -16 -31 -16v1zM310 512q61 0 115.5 -20.5t94.5 -56.5t63.5 -84t23.5 -102t-23.5 -102t-63.5 -84t-94.5 -56.5t-115.5 -20.5q-62 0 -116 20.5
t-94 56.5t-63.5 84t-23.5 102t23.5 102t63.5 84t94 56.5t116 20.5zM492 291q-8 27 -25 50t-41 39.5t-53 26t-62 9.5t-62 -9.5t-53 -26t-41 -39.5t-25 -50h362z" />
    <glyph glyph-name="endash" unicode="&#x2013;" horiz-adv-x="517" 
d="M494 266h-471v111h471v-111z" />
    <glyph glyph-name="emdash" unicode="&#x2014;" horiz-adv-x="988" 
d="M965 266h-942v111h942v-111z" />
    <glyph glyph-name="quoteleft" unicode="&#x2018;" horiz-adv-x="164" 
d="M138 668l-14 -194h-97v194h111z" />
    <glyph glyph-name="quoteright" unicode="&#x2019;" horiz-adv-x="164" 
d="M138 668l-14 -194h-97v194h111z" />
    <glyph glyph-name="quotedblleft" unicode="&#x201c;" horiz-adv-x="317" 
d="M27 668h111l-14 -194h-97v194zM290 668l-14 -194h-97v194h111z" />
    <glyph glyph-name="quotedblright" unicode="&#x201d;" horiz-adv-x="317" 
d="M27 668h111l-14 -194h-97v194zM290 668l-14 -194h-97v194h111z" />
    <glyph glyph-name="bullet" unicode="&#x2022;" horiz-adv-x="215" 
d="M107 191q-35 0 -59 24t-24 59t24 59t59 24t59 -24t24 -59t-24 -59t-59 -24z" />
    <glyph glyph-name="Euro" unicode="&#x20ac;" horiz-adv-x="789" 
d="M453 92q50 0 94.5 15t80.5 41h147q-53 -69 -137 -110.5t-185 -41.5q-63 0 -120.5 17t-105 47t-83.5 72t-56 92h-62v97h39v21v21h-39v97h62q20 50 56 92t83.5 72t105 47t120.5 17q101 0 185 -41.5t137 -110.5h-147q-36 26 -80.5 41t-94.5 15q-80 0 -145 -36t-100 -95h289
v-97h-320q-1 -5 -1 -10.5v-10.5v-10.5t1 -10.5h320v-97h-289q35 -59 100 -95t145 -36v-2z" />
    <glyph glyph-name="uni20bd" unicode="&#x20bd;" horiz-adv-x="712" 
d="M452 289q26 0 48.5 11t39.5 29.5t27 44t10 54.5t-10 54.5t-27 44t-39.5 29.5t-48.5 11h-249v-402h263v-97h-263v-69h-111v69h-69v97h69v499h360q49 0 91.5 -18.5t74.5 -50.5t50.5 -74.5t18.5 -91.5t-18.5 -91.5t-50.5 -74.5t-74.5 -50.5t-91.5 -18.5t-91.5 18.5
t-74.5 50.5t-50.5 74.5t-18.5 91.5h111q0 -29 10 -54t27 -43.5t39.5 -29.5t48.5 -11z" />
    <glyph glyph-name="controlCR" horiz-adv-x="0" 
 />
    <glyph glyph-name="scedille" horiz-adv-x="526" 
d="M441 258q35 -22 54.5 -51t19.5 -62t-19.5 -62t-53.5 -50.5t-80 -33.5q-26 -7 -54 -10q5 -16 4 -33q1 -22 -7 -41.5t-22 -34t-33 -23t-41 -8.5v70q17 0 28.5 9.5t11.5 28.5q0 17 -12 27q-2 2 -4 3q-34 3 -66 12q-45 12 -79 33.5t-53.5 50.5t-19.5 62v6h111q-1 -2 -1 -6
q0 -13 11 -24t29.5 -19.5t44 -13.5t54.5 -5q28 0 53.5 5t44 13.5t29.5 19.5t11 24t-12 22t-31.5 16.5t-44 13t-50.5 10.5q-51 10 -97 19t-78 32q-28 20 -44 46.5t-16 55.5q0 31 18.5 59t50.5 48.5t74.5 32.5t91.5 12t91.5 -12t74.5 -32.5t50.5 -48.5t18.5 -59h-111
q0 12 -10 22t-27 17.5t-39.5 12t-48.5 4.5t-48.5 -4.5t-39.5 -12t-27 -17.5t-10 -22t10 -20t27 -14t39.5 -11t48.5 -10q52 -11 96.5 -18t78.5 -29h3z" />
    <glyph glyph-name="Scedille" horiz-adv-x="661" 
d="M333 374q67 -11 125.5 -25.5t101.5 -36.5t67.5 -52.5t24.5 -72.5t-25 -78.5t-68.5 -63.5t-101.5 -43q-32 -8 -66 -13q7 -18 6 -38q1 -22 -7 -41.5t-22 -34t-33 -23t-41 -8.5v70q17 0 28.5 9.5t11.5 28.5q0 17 -12 27q-7 5 -16 8q-51 3 -97 15q-58 16 -101.5 43
t-68.5 63.5t-25 78.5v6h111v-6q0 -21 16.5 -40t44.5 -33.5t66 -22.5t81 -8t81 8t66 22.5t44.5 33.5t16.5 40t-16.5 35t-45 24t-66.5 17t-80 14q-62 10 -117.5 25.5t-97 38.5t-66 55t-24.5 75t24 81t65 66t96.5 44.5t118.5 16.5t118.5 -16.5t96.5 -44.5t65 -66t24 -81h-97v6
q0 24 -16.5 45.5t-44.5 37.5t-66 25.5t-81 9.5t-81 -9.5t-66 -25.5t-44.5 -37.5t-16.5 -45.5t16.5 -41t44.5 -28.5t66 -19.5t80 -14h3z" />
    </font>
</defs>
</svg>
